<svg width="24" height="25" viewBox="0 0 24 25" fill="none" xmlns="http://www.w3.org/2000/svg">
<g id="add">
<mask id="mask0_2096_5743" style="mask-type:alpha" maskUnits="userSpaceOnUse" x="0" y="0" width="24" height="25">
<rect id="Bounding box" y="0.595215" width="24" height="24" fill="#D9D9D9"/>
</mask>
<g mask="url(#mask0_2096_5743)">
<path id="add_2" d="M11.9997 19.3452C11.7871 19.3452 11.609 19.2733 11.4654 19.1296C11.3218 18.9858 11.25 18.8077 11.25 18.5952V13.3452H5.99997C5.78747 13.3452 5.60936 13.2733 5.46563 13.1295C5.32188 12.9856 5.25 12.8074 5.25 12.5949C5.25 12.3823 5.32188 12.2042 5.46563 12.0606C5.60936 11.917 5.78747 11.8452 5.99997 11.8452H11.25V6.59519C11.25 6.38269 11.3219 6.20456 11.4657 6.06081C11.6095 5.91708 11.7877 5.84521 12.0003 5.84521C12.2129 5.84521 12.391 5.91708 12.5346 6.06081C12.6782 6.20456 12.7499 6.38269 12.7499 6.59519V11.8452H18C18.2125 11.8452 18.3906 11.9171 18.5344 12.0609C18.6781 12.2047 18.75 12.3829 18.75 12.5955C18.75 12.8081 18.6781 12.9862 18.5344 13.1298C18.3906 13.2734 18.2125 13.3452 18 13.3452H12.7499V18.5952C12.7499 18.8077 12.678 18.9858 12.5342 19.1296C12.3904 19.2733 12.2122 19.3452 11.9997 19.3452Z" fill="white"/>
</g>
</g>
</svg>
