<svg width="36" height="36" viewBox="0 0 36 36" fill="none" xmlns="http://www.w3.org/2000/svg">
<path d="M6.82532 16.7104C6.82532 19.3584 7.57388 21.7522 9.071 23.8916C10.5681 26.031 12.56 27.5623 15.0465 28.4854C15.2984 28.5719 15.4859 28.7229 15.609 28.9383C15.7321 29.1536 15.7379 29.3652 15.6263 29.5728C15.4648 29.8055 15.2552 29.9584 14.9975 30.0315C14.7398 30.1046 14.4696 30.0853 14.1869 29.9738C11.4273 28.9084 9.22058 27.1656 7.56673 24.7455C5.91288 22.3253 5.08595 19.6344 5.08595 16.6729C5.08595 15.8344 5.15807 15.0031 5.30229 14.1791C5.44652 13.3551 5.67055 12.5507 5.9744 11.7661L3.70415 13.0527C3.48685 13.1642 3.27052 13.196 3.05514 13.1479C2.83974 13.0998 2.67628 12.9719 2.56475 12.7642C2.4436 12.5662 2.41332 12.3532 2.47389 12.1253C2.53447 11.8974 2.66859 11.7229 2.87627 11.6018L7.22627 9.09217C7.48204 8.9518 7.75513 8.91911 8.04553 8.99411C8.3359 9.06911 8.55128 9.23448 8.69165 9.49023L11.2013 13.8027C11.3224 14.0104 11.3527 14.2282 11.2921 14.4561C11.2316 14.684 11.1022 14.8537 10.9042 14.9652C10.6869 15.0767 10.4667 15.1046 10.2436 15.0489C10.0205 14.9931 9.85322 14.8614 9.74169 14.6537L7.91282 11.5556C7.55322 12.371 7.28207 13.2113 7.09937 14.0767C6.91667 14.9421 6.82532 15.82 6.82532 16.7104ZM19.3445 4.15364C17.8618 4.15364 16.4426 4.40028 15.0868 4.89356C13.7311 5.38683 12.4811 6.10943 11.3368 7.06136C11.1292 7.23251 10.9051 7.31665 10.6647 7.31377C10.4243 7.3109 10.2484 7.20561 10.1369 6.99791C9.99072 6.76523 9.94552 6.50995 10.0013 6.23205C10.057 5.95417 10.1888 5.73447 10.3965 5.57295C11.6772 4.56525 13.0739 3.79312 14.5864 3.25657C16.0989 2.72004 17.6724 2.45178 19.307 2.45178C21.4147 2.45178 23.4138 2.88832 25.3042 3.76139C27.1945 4.63447 28.8186 5.86908 30.1762 7.46523V4.77382C30.1762 4.52575 30.256 4.32189 30.4157 4.16227C30.5753 4.00267 30.7791 3.92287 31.0272 3.92287C31.2753 3.92287 31.4791 4.00267 31.6387 4.16227C31.7983 4.32189 31.8781 4.52575 31.8781 4.77382V9.79301C31.8781 10.1084 31.7767 10.3675 31.5738 10.5704C31.3709 10.7733 31.1118 10.8748 30.7964 10.8748H25.7772C25.5291 10.8748 25.3253 10.795 25.1657 10.6353C25.006 10.4757 24.9262 10.2719 24.9262 10.0238C24.9262 9.77575 25.006 9.57189 25.1657 9.41227C25.3253 9.25267 25.5291 9.17287 25.7772 9.17287H29.3686C28.1878 7.5902 26.7176 6.35798 24.958 5.47623C23.1984 4.59451 21.3272 4.15364 19.3445 4.15364ZM28.6359 25.0873C29.959 23.6142 30.8811 21.9344 31.4022 20.0478C31.9234 18.1613 31.9984 16.2517 31.6272 14.319C31.5772 14.0709 31.6171 13.8435 31.7469 13.6368C31.8767 13.4301 32.058 13.3267 32.2907 13.3267C32.5733 13.3267 32.8132 13.4315 33.0104 13.6411C33.2075 13.8507 33.331 14.1094 33.381 14.4171C33.6964 16.4709 33.5863 18.4853 33.0508 20.4603C32.5152 22.4353 31.581 24.22 30.2483 25.8142C29.1772 27.0969 27.931 28.1531 26.5099 28.9829C25.0887 29.8127 23.557 30.3786 21.9147 30.6805L24.1619 31.9815C24.3696 32.093 24.4975 32.2628 24.5455 32.4906C24.5936 32.7185 24.5619 32.9363 24.4503 33.144C24.3292 33.3517 24.1609 33.4795 23.9455 33.5276C23.7302 33.5757 23.5186 33.5392 23.3109 33.418L18.9523 30.894C18.6965 30.7536 18.5311 30.5382 18.4561 30.2478C18.3811 29.9575 18.4138 29.6844 18.5542 29.4286L21.0638 25.1305C21.185 24.9228 21.3571 24.7911 21.5801 24.7354C21.8032 24.6796 22.0186 24.7075 22.2263 24.819C22.434 24.9305 22.5619 25.094 22.6099 25.3094C22.658 25.5248 22.6263 25.7363 22.5148 25.944L20.6715 29.1546C22.2176 28.995 23.6739 28.5661 25.0402 27.868C26.4065 27.17 27.6051 26.243 28.6359 25.0873Z" fill="#2C74D6"/>
</svg>
