<svg xmlns="http://www.w3.org/2000/svg" width="36" height="36" viewBox="0 0 36 36" fill="none">
<mask id="mask0_4701_1463" style="mask-type:alpha" maskUnits="userSpaceOnUse" x="0" y="0" width="36" height="36">
<rect width="36" height="36" fill="#D9D9D9"/>
</mask>
<g mask="url(#mask0_4701_1463)">
<path d="M6.74993 21.75C5.70188 21.75 4.81488 21.3871 4.08893 20.6611C3.36298 19.9351 3 19.0481 3 18.0001C3 16.952 3.36298 16.065 4.08893 15.339C4.81488 14.6131 5.70188 14.2501 6.74993 14.2501V10.5001C6.74993 9.88662 6.97156 9.35827 7.41484 8.91502C7.85809 8.47175 8.38644 8.25011 8.99989 8.25011H14.2499C14.2499 7.20206 14.6129 6.31506 15.3389 5.58911C16.0648 4.86316 16.9518 4.50018 17.9999 4.50018C19.0479 4.50018 19.935 4.86316 20.6609 5.58911C21.3869 6.31506 21.7499 7.20206 21.7499 8.25011H26.9999C27.6133 8.25011 28.1417 8.47175 28.5849 8.91502C29.0282 9.35827 29.2499 9.88662 29.2499 10.5001V14.2501C30.2979 14.2501 31.1849 14.6131 31.9109 15.339C32.6368 16.065 32.9998 16.952 32.9998 18.0001C32.9998 19.0481 32.6368 19.9351 31.9109 20.6611C31.1849 21.3871 30.2979 21.75 29.2499 21.75V28.5001C29.2499 29.1135 29.0282 29.6419 28.5849 30.0851C28.1417 30.5284 27.6133 30.75 26.9999 30.75H8.99989C8.38644 30.75 7.85809 30.5284 7.41484 30.0851C6.97156 29.6419 6.74993 29.1135 6.74993 28.5001V21.75ZM13.4982 19.125C14.0185 19.125 14.4614 18.9429 14.8268 18.5787C15.1922 18.2144 15.3748 17.7721 15.3748 17.2518C15.3748 16.7314 15.1927 16.2885 14.8285 15.9232C14.4642 15.5578 14.0219 15.3751 13.5016 15.3751C12.9812 15.3751 12.5384 15.5572 12.173 15.9215C11.8076 16.2857 11.6249 16.728 11.6249 17.2484C11.6249 17.7687 11.8071 18.2116 12.1713 18.577C12.5356 18.9423 12.9778 19.125 13.4982 19.125ZM22.4982 19.125C23.0186 19.125 23.4614 18.9429 23.8268 18.5787C24.1922 18.2144 24.3749 17.7721 24.3749 17.2518C24.3749 16.7314 24.1927 16.2885 23.8285 15.9232C23.4642 15.5578 23.0219 15.3751 22.5016 15.3751C21.9812 15.3751 21.5384 15.5572 21.173 15.9215C20.8076 16.2857 20.6249 16.728 20.6249 17.2484C20.6249 17.7687 20.807 18.2116 21.1713 18.577C21.5355 18.9423 21.9779 19.125 22.4982 19.125ZM13.4999 25.125H22.4999C22.8186 25.125 23.0858 25.0172 23.3015 24.8015C23.5171 24.5858 23.6249 24.3185 23.6249 23.9996C23.6249 23.6807 23.5171 23.4135 23.3015 23.1982C23.0858 22.9828 22.8186 22.8751 22.4999 22.8751H13.4999C13.1811 22.8751 12.914 22.983 12.6984 23.1987C12.4827 23.4144 12.3749 23.6817 12.3749 24.0006C12.3749 24.3195 12.4827 24.5866 12.6984 24.802C12.914 25.0173 13.1811 25.125 13.4999 25.125ZM8.99989 28.5001H26.9999V10.5001H8.99989V28.5001Z" fill="white"/>
</g>
</svg>