<svg width="154" height="28" viewBox="0 0 154 28" fill="none" xmlns="http://www.w3.org/2000/svg">
<g id="Ambry-logo 2" clip-path="url(#clip0_3266_11466)">
<path id="Vector" d="M4.22459 3.9192C3.18824 3.83737 2.21173 3.92123 1.12023 4.0362C0.850773 4.06415 0.716044 3.93881 0.716044 3.66019C0.715596 2.83062 0.71582 2.00173 0.716717 1.17351C0.71739 0.881358 0.848531 0.717022 1.13906 0.717022C7.61097 0.716571 14.0829 0.716797 20.5548 0.717699C20.8614 0.717699 21.0074 0.836724 21.0087 1.14308C21.0141 2.30831 21.0706 3.0468 20.9139 3.84752C20.6314 5.28867 19.4458 6.31593 18.1747 6.87521C16.1383 7.77196 13.6339 7.11665 11.6546 6.27197C9.2174 5.23253 6.91334 4.13223 4.22459 3.9192Z" fill="#555555"/>
<path id="Vector_2" d="M11.1413 8.08509C13.2141 9.13197 15.2861 9.90225 17.6413 9.54653C18.7429 9.37949 19.6212 8.91691 20.5291 8.29744C20.7362 8.1561 21.0093 8.11552 21.0099 8.45637C21.0108 8.9753 21.0095 9.49333 21.0059 10.0105C21.0025 10.6367 19.8666 11.1202 19.367 11.2744C17.1705 11.9507 14.6499 11.8114 12.4628 11.1196C10.639 10.5427 8.9738 9.78931 7.24407 9.08057C5.4027 8.32585 3.49409 7.79429 1.48526 8.06615C1.15505 8.11079 0.715224 8.0878 0.715897 7.64821C0.717242 7.04813 0.716569 6.44804 0.713879 5.84796C0.711862 5.3908 0.964058 5.17574 1.40859 5.1169C4.91244 4.65501 8.1466 6.57293 11.1413 8.08509Z" fill="#555555"/>
<path id="Vector_3" d="M58.4563 15.5755C58.4563 15.6373 58.4787 15.6472 58.5236 15.6052C59.5027 14.6914 60.6164 14.3413 61.8646 14.555C64.7861 15.0548 65.2891 18.2847 64.8883 20.6861C64.5198 22.8955 63.0442 24.3468 60.753 24.4888C59.3707 24.5745 57.9645 24.3732 56.5342 23.8849C56.525 23.8818 56.517 23.8759 56.5113 23.868C56.5056 23.8601 56.5026 23.8506 56.5026 23.841L56.502 10.1538C56.502 10.1442 56.5053 10.1349 56.5114 10.1277C56.5174 10.1205 56.5258 10.1158 56.5349 10.1145L58.4294 9.81765C58.4337 9.81707 58.4381 9.81743 58.4422 9.81869C58.4464 9.81996 58.4502 9.82211 58.4535 9.825C58.4567 9.82788 58.4593 9.83144 58.4611 9.83542C58.4628 9.83941 58.4637 9.84373 58.4637 9.84809L58.4563 15.5755ZM58.4859 22.4938C59.2721 22.7711 60.0596 22.8597 60.8895 22.7292C62.2292 22.5195 62.7988 21.5119 62.9635 20.2662C63.1189 19.0894 63.0375 17.3298 61.9541 16.5831C60.7099 15.7263 59.2425 16.7448 58.4745 17.7511C58.4614 17.7686 58.4543 17.79 58.4543 17.8119L58.4738 22.4769C58.474 22.4806 58.4753 22.4841 58.4774 22.4871C58.4796 22.4901 58.4825 22.4924 58.4859 22.4938Z" fill="#555555"/>
<path id="Vector_4" d="M86.4965 23.3452C85.3277 22.4316 84.5966 21.169 84.2765 19.7021C83.4197 15.7756 84.7358 11.1181 89.2202 10.3262C91.143 9.9867 93.2076 10.2809 94.864 11.4062C94.8714 11.4113 94.8773 11.4183 94.8809 11.4264C94.8844 11.4346 94.8856 11.4435 94.8842 11.4522L94.562 13.5027C94.5535 13.5568 94.5282 13.5665 94.4861 13.5318C93.2773 12.5457 91.9134 12.0769 90.3944 12.1251C86.4333 12.2502 85.6209 16.3965 86.4259 19.4918C87.0453 21.875 89.003 22.859 91.3245 22.6852C92.0805 22.6288 92.7752 22.4282 93.4087 22.0833C93.4176 22.0786 93.425 22.0715 93.4303 22.0628C93.4355 22.0541 93.4382 22.0441 93.4383 22.0339L93.4389 18.6255C93.4389 18.6199 93.4367 18.6146 93.4328 18.6107C93.4289 18.6067 93.4236 18.6045 93.4181 18.6045L90.3507 18.6038C90.3402 18.6038 90.3301 18.6001 90.3222 18.5934C90.3143 18.5867 90.3091 18.5775 90.3077 18.5673L90.0272 16.7265C90.0264 16.7204 90.0268 16.7141 90.0286 16.7082C90.0303 16.7023 90.0333 16.6968 90.0373 16.6921C90.0413 16.6875 90.0462 16.6837 90.0518 16.6811C90.0574 16.6785 90.0635 16.6772 90.0696 16.6771H95.4572C95.4661 16.6771 95.4746 16.6807 95.481 16.687C95.4873 16.6934 95.4908 16.702 95.4908 16.7109V23.187C95.4908 23.2148 95.4836 23.2422 95.47 23.2664C95.4563 23.2905 95.4366 23.3107 95.4128 23.3249C93.3015 24.5855 91.0468 24.9399 88.6486 24.3881C87.8761 24.2109 87.1587 23.8633 86.4965 23.3452Z" fill="#555555"/>
<path id="Vector_5" d="M37.1379 20.3073C37.1328 20.2938 37.1236 20.2822 37.1117 20.274C37.0999 20.2657 37.0858 20.2614 37.0714 20.2614L31.669 20.2627C31.6591 20.2627 31.6494 20.2658 31.6412 20.2715C31.633 20.2771 31.6268 20.2852 31.6232 20.2945L30.106 24.3434C30.1024 24.353 30.0962 24.3613 30.0882 24.3672C30.0801 24.3731 30.0707 24.3763 30.061 24.3765C29.3799 24.3977 28.7005 24.395 28.0226 24.3684C28.0188 24.3683 28.0151 24.3672 28.0118 24.3653C28.0086 24.3634 28.0058 24.3608 28.0038 24.3575C28.0017 24.3543 28.0005 24.3505 28.0001 24.3467C27.9997 24.3428 28.0003 24.3389 28.0017 24.3353L33.3933 10.4161C33.3965 10.4077 33.4021 10.4005 33.4094 10.3954C33.4168 10.3904 33.4254 10.3877 33.4343 10.3877L35.3806 10.3884C35.3886 10.3884 35.3964 10.3909 35.403 10.3954C35.4095 10.4 35.4147 10.4065 35.4176 10.4141L40.8657 24.3535C40.8672 24.3571 40.8677 24.3611 40.8673 24.3649C40.8668 24.3688 40.8655 24.3725 40.8633 24.3757C40.8611 24.3789 40.8581 24.3816 40.8547 24.3833C40.8512 24.3851 40.8474 24.386 40.8435 24.386H38.7392C38.7283 24.386 38.7176 24.3826 38.7086 24.3765C38.6996 24.3703 38.6927 24.3616 38.6888 24.3515L37.1379 20.3073ZM34.3429 13.0732L32.3523 18.3827C32.3509 18.3863 32.3505 18.3901 32.351 18.3939C32.3514 18.3977 32.3528 18.4014 32.3549 18.4045C32.357 18.4076 32.3598 18.4102 32.3631 18.4119C32.3664 18.4136 32.3701 18.4145 32.3738 18.4144L36.3726 18.4172C36.3771 18.4171 36.3815 18.416 36.3855 18.4139C36.3894 18.4118 36.3928 18.4087 36.3953 18.405C36.3978 18.4013 36.3994 18.397 36.3999 18.3925C36.4004 18.388 36.3998 18.3835 36.3982 18.3793L34.3873 13.0732C34.3725 13.0344 34.3577 13.0344 34.3429 13.0732Z" fill="#555555"/>
<path id="Vector_6" d="M14.557 13.3088C16.666 13.3926 18.6432 13.0924 20.4584 12.0117C20.7745 11.8237 21.0085 11.8392 21.0105 12.2673C21.0128 12.8485 21.0103 13.2799 21.0031 13.5617C20.9924 13.9932 20.8175 14.2644 20.4658 14.5369C19.0716 15.6183 17.1603 16.4819 15.3815 16.4596C13.3182 16.4332 11.4621 15.9402 9.53797 15.3978C8.70718 15.1638 7.8672 14.9695 7.01803 14.8148C5.14931 14.474 3.28217 14.485 1.41659 14.848C1.2924 14.8723 1.16888 14.8701 1.04603 14.8412C0.83665 14.7921 0.73084 14.6431 0.728598 14.3942C0.720528 13.5078 0.716269 12.621 0.71582 11.7337C0.71582 10.931 1.03258 10.6977 1.80934 10.6821C4.52431 10.626 6.97969 11.5579 9.5299 12.3295C11.2388 12.8469 12.8851 13.2425 14.557 13.3088Z" fill="#555555"/>
<path id="Vector_7" d="M132.522 13.2973C133.196 13.2973 133.742 12.748 133.742 12.0705C133.742 11.393 133.196 10.8438 132.522 10.8438C131.848 10.8438 131.302 11.393 131.302 12.0705C131.302 12.748 131.848 13.2973 132.522 13.2973Z" fill="#555555"/>
<path id="Vector_8" d="M127.406 14.6781L129.096 14.6808C129.11 14.6808 129.123 14.6858 129.133 14.6948C129.144 14.7039 129.151 14.7164 129.153 14.7302L129.413 16.3586C129.414 16.3625 129.414 16.3665 129.413 16.3703C129.412 16.3741 129.41 16.3776 129.407 16.3806C129.405 16.3836 129.402 16.3861 129.398 16.3878C129.394 16.3895 129.391 16.3904 129.387 16.3904L127.402 16.3931C127.398 16.3931 127.393 16.394 127.389 16.3957C127.385 16.3973 127.382 16.3998 127.379 16.4028C127.376 16.4059 127.373 16.4096 127.371 16.4136C127.37 16.4176 127.369 16.4219 127.369 16.4263C127.368 18.0989 127.367 19.7709 127.368 21.4422C127.368 21.802 127.401 22.0583 127.468 22.2112C127.776 22.9104 128.797 22.8151 129.417 22.6927C129.423 22.6914 129.429 22.6914 129.434 22.6925C129.44 22.6937 129.446 22.6961 129.451 22.6995C129.456 22.7029 129.46 22.7073 129.463 22.7124C129.466 22.7175 129.468 22.7232 129.469 22.7292L129.721 24.3435C129.723 24.3591 129.72 24.3751 129.711 24.3882C129.702 24.4013 129.688 24.4105 129.672 24.4138C128.723 24.6147 127.341 24.6437 126.507 24.1771C125.731 23.7429 125.45 22.947 125.447 22.0536C125.441 20.1803 125.435 18.3068 125.431 16.433C125.431 16.424 125.427 16.4153 125.421 16.4089C125.415 16.4024 125.406 16.3987 125.397 16.3985L124.047 16.3837C124.043 16.3837 124.038 16.3828 124.034 16.381C124.03 16.3793 124.026 16.3768 124.023 16.3736C124.02 16.3704 124.017 16.3666 124.016 16.3624C124.014 16.3582 124.013 16.3537 124.013 16.3492L124.012 14.7241C124.012 14.7149 124.015 14.706 124.022 14.6995C124.028 14.6929 124.037 14.6891 124.046 14.6889L125.396 14.6747C125.405 14.6745 125.414 14.6709 125.42 14.6646C125.427 14.6583 125.43 14.6498 125.43 14.6409L125.439 11.7336C125.439 11.7242 125.442 11.7151 125.448 11.708C125.454 11.7009 125.463 11.6963 125.472 11.695L127.329 11.4164C127.333 11.4157 127.337 11.4159 127.341 11.417C127.345 11.4182 127.348 11.4201 127.351 11.4228C127.355 11.4255 127.357 11.4289 127.359 11.4327C127.361 11.4365 127.362 11.4406 127.362 11.4448L127.372 14.6443C127.372 14.6532 127.375 14.6618 127.382 14.6682C127.388 14.6745 127.397 14.6781 127.406 14.6781Z" fill="#555555"/>
<path id="Vector_9" d="M151.373 16.9679C150.823 16.5432 150.709 15.7424 150.91 15.1223C151.324 13.8475 153.198 13.7799 153.742 14.9918C153.986 15.5355 153.915 16.2517 153.558 16.7244C153.062 17.3804 152.028 17.473 151.373 16.9679ZM152.306 14.331C150.672 14.3993 150.632 16.8786 152.147 17.0734C154.092 17.3243 154.154 14.2546 152.306 14.331Z" fill="#555555"/>
<path id="Vector_10" d="M49.0648 15.9575C49.5217 15.5572 49.9841 15.2303 50.4522 14.9769C52.4005 13.9213 55.0879 14.4954 55.0967 17.1843C55.1043 19.5707 55.1058 21.9568 55.1014 24.3427C55.1014 24.3519 55.0978 24.3606 55.0915 24.3671C55.0852 24.3736 55.0767 24.3772 55.0677 24.3772L53.1739 24.3765C53.165 24.3765 53.1564 24.3728 53.1501 24.3662C53.1438 24.3596 53.1403 24.3507 53.1403 24.3414C53.1389 22.2233 53.1369 20.1067 53.1342 17.9918C53.1336 17.2289 53.067 16.5574 52.2922 16.3444C51.1732 16.0367 49.9848 17.0125 49.2894 17.7713C49.2751 17.7875 49.2672 17.8084 49.2672 17.8302L49.2894 24.342C49.2894 24.3512 49.2859 24.36 49.2796 24.3664C49.2733 24.3729 49.2647 24.3765 49.2558 24.3765H47.3573C47.3483 24.3765 47.3398 24.3729 47.3335 24.3664C47.3272 24.36 47.3236 24.3512 47.3236 24.342L47.3203 17.7362C47.3203 17.5788 47.3048 17.4239 47.2739 17.2716C47.138 16.6034 46.7513 16.3085 46.0748 16.295C45.1083 16.2747 44.113 17.0518 43.5111 17.7362C43.4717 17.7805 43.4501 17.8386 43.4506 17.8991L43.4748 24.342C43.4748 24.3467 43.4739 24.3512 43.4722 24.3555C43.4705 24.3598 43.4681 24.3636 43.4649 24.3669C43.4618 24.3702 43.4581 24.3728 43.454 24.3745C43.45 24.3763 43.4456 24.3772 43.4412 24.3772L41.5568 24.3765C41.5478 24.3765 41.5393 24.3728 41.533 24.3662C41.5267 24.3596 41.5231 24.3507 41.5231 24.3414L41.5225 14.7281C41.5225 14.7187 41.526 14.7097 41.5325 14.703C41.5389 14.6963 41.5476 14.6924 41.5568 14.6922L43.0726 14.6888C43.082 14.6888 43.0911 14.6922 43.0983 14.6986C43.1054 14.7049 43.1102 14.7137 43.1116 14.7233L43.3013 15.8994C43.3089 15.9454 43.3293 15.9524 43.3625 15.9203C44.4654 14.8796 45.8871 14.2364 47.4245 14.5901C48.1916 14.7668 48.7256 15.2195 49.0265 15.9481C49.028 15.9517 49.0304 15.9548 49.0333 15.9574C49.0363 15.9599 49.0398 15.9617 49.0435 15.9626C49.0473 15.9635 49.0511 15.9635 49.0548 15.9627C49.0585 15.9618 49.0619 15.96 49.0648 15.9575Z" fill="#555555"/>
<path id="Vector_11" d="M104.673 23.5299C102.198 25.2131 98.0719 25.1225 97.008 21.6789C96.2225 19.1361 96.8735 15.2576 99.9798 14.5969C102.242 14.1161 104.258 15.2238 104.852 17.5238C105.046 18.2754 105.123 19.0337 105.083 19.7988C105.082 19.8096 105.078 19.8197 105.07 19.8272C105.062 19.8346 105.052 19.8387 105.041 19.8387H98.7168C98.7127 19.8387 98.7086 19.8396 98.7049 19.8412C98.7011 19.8428 98.6976 19.8453 98.6947 19.8483C98.6918 19.8513 98.6896 19.8549 98.6881 19.8588C98.6866 19.8628 98.6858 19.867 98.6859 19.8712C98.8009 23.5177 102.145 23.4284 104.343 21.7567C104.424 21.6953 104.472 21.715 104.486 21.8155L104.722 23.419C104.725 23.4403 104.722 23.462 104.713 23.4816C104.705 23.5012 104.691 23.5179 104.673 23.5299ZM98.7996 18.2062C98.7973 18.2152 98.7972 18.2247 98.7991 18.2338C98.801 18.243 98.805 18.2515 98.8107 18.2589C98.8164 18.2662 98.8237 18.2722 98.832 18.2763C98.8403 18.2804 98.8495 18.2826 98.8587 18.2826L103.037 18.2819C103.041 18.282 103.045 18.2811 103.049 18.2794C103.053 18.2777 103.057 18.2752 103.059 18.2721C103.062 18.2689 103.064 18.2652 103.066 18.2612C103.067 18.2572 103.067 18.253 103.067 18.2488C102.983 17.6388 102.745 16.9443 102.268 16.5365C101.664 16.0184 100.71 15.965 100.028 16.3309C99.308 16.7184 98.9966 17.4183 98.7996 18.2062Z" fill="#555555"/>
<path id="Vector_12" d="M108.067 15.9C108.073 15.9401 108.092 15.9468 108.122 15.9202C108.972 15.1601 109.956 14.5887 111.11 14.5014C113.099 14.352 114.191 15.5936 114.19 17.5223C114.19 19.796 114.188 22.0694 114.184 24.3426C114.184 24.3518 114.18 24.3605 114.174 24.367C114.168 24.3735 114.159 24.3771 114.15 24.3771L112.24 24.3764C112.231 24.3764 112.222 24.3729 112.216 24.3665C112.209 24.3602 112.206 24.3516 112.206 24.3426C112.204 22.1776 112.202 20.0142 112.2 17.8524C112.2 17.0983 111.997 16.4417 111.146 16.3132C110.055 16.1481 108.913 17.0185 108.236 17.7861C108.221 17.8026 108.213 17.8236 108.214 17.8449C108.235 19.8977 108.241 21.9486 108.234 23.9977C108.234 24.0795 108.274 24.2317 108.242 24.3514C108.239 24.3607 108.234 24.369 108.226 24.3748C108.218 24.3807 108.208 24.3839 108.198 24.3839L106.321 24.3764C106.312 24.3764 106.304 24.3727 106.298 24.3661C106.292 24.3595 106.288 24.3506 106.288 24.3413L106.288 14.728C106.288 14.7186 106.291 14.7097 106.298 14.7031C106.304 14.6965 106.313 14.6928 106.322 14.6928L107.838 14.6887C107.848 14.6888 107.857 14.6922 107.864 14.6984C107.871 14.7046 107.876 14.7132 107.877 14.7226L108.067 15.9Z" fill="#555555"/>
<path id="Vector_13" d="M117.303 19.8778C117.462 23.5628 120.82 23.4215 122.996 21.7288C123.005 21.7219 123.015 21.7179 123.026 21.7171C123.038 21.7163 123.049 21.7188 123.06 21.7243C123.07 21.7297 123.079 21.738 123.087 21.7483C123.094 21.7586 123.098 21.7705 123.1 21.7829L123.345 23.458C123.347 23.4705 123.345 23.4832 123.34 23.4947C123.334 23.5063 123.326 23.516 123.315 23.5229C122.054 24.3557 120.689 24.6994 119.222 24.5543C117.181 24.3527 115.942 23.1381 115.499 21.1587C114.804 18.06 116.152 14.1734 120.003 14.5075C122.812 14.7516 123.869 17.3397 123.688 19.8244C123.688 19.8288 123.686 19.8329 123.683 19.8359C123.68 19.8389 123.675 19.8406 123.671 19.8406L117.336 19.8433C117.331 19.8433 117.327 19.8442 117.323 19.8459C117.319 19.8477 117.315 19.8503 117.312 19.8535C117.309 19.8567 117.307 19.8605 117.305 19.8647C117.303 19.8689 117.303 19.8733 117.303 19.8778ZM120.114 16.1589C118.649 15.7937 117.639 16.9211 117.406 18.2649C117.405 18.267 117.405 18.2693 117.406 18.2714C117.407 18.2735 117.408 18.2755 117.409 18.2772C117.41 18.2789 117.412 18.2802 117.414 18.2811C117.416 18.282 117.418 18.2825 117.421 18.2824L121.657 18.2804C121.662 18.2804 121.666 18.2794 121.67 18.2776C121.673 18.2758 121.677 18.2733 121.679 18.27C121.682 18.2668 121.684 18.2631 121.685 18.259C121.686 18.255 121.686 18.2507 121.686 18.2466C121.543 17.2836 121.138 16.4139 120.114 16.1589Z" fill="#555555"/>
<path id="Vector_14" d="M138.157 24.4986C136.554 24.2044 135.342 23.0243 134.898 21.4641C134.056 18.496 135.123 14.8441 138.675 14.5161C139.93 14.4004 141.269 14.6533 142.318 15.3844C142.332 15.3944 142.343 15.4081 142.35 15.4241C142.357 15.4401 142.359 15.4577 142.357 15.475L142.077 17.3666C142.072 17.4013 142.054 17.4053 142.025 17.3787C141.276 16.6921 140.391 16.3213 139.372 16.2663C137.878 16.1851 137.055 17.0251 136.742 18.3884C136.49 19.4874 136.58 21.009 137.301 21.9159C137.851 22.6071 138.648 22.8519 139.531 22.8228C140.39 22.7953 141.164 22.4957 141.852 21.924C141.951 21.8415 142.047 21.7721 142.142 21.7157C142.2 21.6801 142.23 21.6966 142.23 21.7651L142.228 23.6377C142.228 23.6482 142.225 23.6585 142.22 23.6678C142.215 23.6771 142.208 23.6851 142.199 23.6911C141.039 24.4993 139.533 24.7515 138.157 24.4986Z" fill="#555555"/>
<path id="Vector_15" d="M146.715 16.1967C146.19 16.1649 145.399 16.2549 145.141 16.8047C144.659 17.832 146.101 18.235 146.754 18.4007C148.729 18.8998 150.826 19.6146 150.341 22.2339C150.137 23.3335 149.338 24.0409 148.298 24.3452C146.707 24.8105 145.063 24.5602 143.548 23.907C143.414 23.8493 143.31 23.7949 143.234 23.744C143.226 23.7381 143.219 23.7302 143.214 23.7209C143.209 23.7116 143.207 23.7012 143.207 23.6906L143.208 21.8545C143.208 21.7179 143.269 21.6933 143.39 21.7807C144.305 22.4403 145.325 22.8103 146.452 22.8905C147.079 22.9352 148.078 22.8614 148.407 22.2183C148.699 21.6475 148.476 21.0537 147.902 20.7501C147.341 20.4532 146.609 20.3038 145.885 20.1191C144.602 19.7932 143.407 19.1791 143.208 17.6994C143.115 17.0082 143.236 16.3969 143.572 15.8653C144.803 13.9177 148.047 14.3836 149.793 15.1471C149.807 15.1533 149.818 15.1641 149.826 15.1778C149.833 15.1915 149.836 15.2074 149.833 15.2229L149.535 17.0272C149.534 17.0333 149.532 17.039 149.528 17.044C149.524 17.0489 149.519 17.0528 149.513 17.0554C149.508 17.058 149.502 17.0591 149.496 17.0588C149.489 17.0585 149.483 17.0567 149.478 17.0536C148.628 16.5418 147.708 16.2562 146.715 16.1967Z" fill="#555555"/>
<path id="Vector_16" d="M67.9375 16.3956C67.9438 16.4366 67.9584 16.44 67.9812 16.4057C68.6784 15.3773 69.6852 14.8054 71.0015 14.69C71.0323 14.6873 71.0631 14.6948 71.0891 14.7115C71.115 14.7281 71.1346 14.7529 71.1448 14.782L71.7507 16.4963C71.7521 16.5002 71.7525 16.5043 71.752 16.5084C71.7515 16.5125 71.7502 16.5164 71.748 16.5199C71.7458 16.5233 71.7428 16.5262 71.7393 16.5284C71.7358 16.5305 71.7319 16.5318 71.7279 16.5322C71.6086 16.5448 71.4911 16.5536 71.3754 16.5586C69.9315 16.6221 68.8017 17.3187 68.1211 18.5867C68.074 18.6742 68.0505 18.7709 68.0505 18.8768C68.0536 20.6992 68.0527 22.5213 68.0478 24.3432C68.0478 24.3524 68.0443 24.3611 68.038 24.3676C68.0317 24.3741 68.0231 24.3777 68.0142 24.3777L66.1217 24.377C66.1128 24.377 66.1042 24.3733 66.0979 24.3667C66.0916 24.3601 66.0881 24.3512 66.0881 24.3419L66.0874 14.7286C66.0874 14.7192 66.0909 14.7103 66.0971 14.7037C66.1032 14.6971 66.1116 14.6934 66.1204 14.6934L67.6403 14.69C67.6499 14.6901 67.6592 14.6936 67.6664 14.6999C67.6737 14.7062 67.6785 14.7149 67.6799 14.7245L67.9375 16.3956Z" fill="#555555"/>
<path id="Vector_17" d="M76.7107 21.7991L79.1048 14.7205C79.1086 14.7094 79.1157 14.6998 79.1251 14.693C79.1345 14.6862 79.1458 14.6826 79.1573 14.6826L81.1096 14.6833C81.1134 14.6832 81.1172 14.6841 81.1205 14.6859C81.1239 14.6877 81.1268 14.6903 81.129 14.6935C81.1312 14.6966 81.1326 14.7003 81.1331 14.7042C81.1336 14.7081 81.1331 14.7121 81.1318 14.7158C79.9168 18.0241 78.6993 21.3316 77.4793 24.6381C76.9891 25.967 76.4282 27.4825 74.9473 27.8748C74.3492 28.0326 73.7529 28.0495 73.1584 27.9255C73.1428 27.9224 73.1286 27.9145 73.1176 27.903C73.1067 27.8915 73.0995 27.8769 73.0972 27.8613L72.845 26.2111C72.8435 26.2012 72.8446 26.191 72.8481 26.1816C72.8516 26.1722 72.8574 26.1638 72.865 26.1572C72.8726 26.1507 72.8817 26.1462 72.8915 26.1441C72.9013 26.1421 72.9114 26.1426 72.921 26.1455C73.2142 26.2389 73.5323 26.2876 73.8262 26.3058C75.1242 26.3883 75.3434 25.3036 75.6945 24.3162C75.7019 24.2957 75.7019 24.2732 75.6945 24.2526L72.1691 14.7333C72.1677 14.7297 72.1672 14.7257 72.1676 14.7218C72.1681 14.7179 72.1694 14.7142 72.1716 14.7109C72.1738 14.7077 72.1767 14.705 72.1802 14.7031C72.1836 14.7013 72.1874 14.7003 72.1913 14.7002L74.1894 14.6894C74.1986 14.6894 74.2076 14.6924 74.2152 14.6979C74.2228 14.7035 74.2286 14.7114 74.2317 14.7205L76.6488 21.7991C76.6694 21.86 76.69 21.86 76.7107 21.7991Z" fill="#555555"/>
<path id="Vector_18" d="M131.509 16.3943L130.489 16.3835C130.48 16.3833 130.471 16.3798 130.464 16.3736C130.457 16.3674 130.452 16.359 130.45 16.3496L130.194 14.7475C130.193 14.7395 130.193 14.7313 130.195 14.7235C130.198 14.7157 130.201 14.7085 130.207 14.7023C130.212 14.6961 130.218 14.6912 130.226 14.6878C130.233 14.6844 130.241 14.6826 130.249 14.6826H133.483C133.489 14.6826 133.494 14.6848 133.498 14.6888C133.502 14.6927 133.504 14.698 133.504 14.7036L133.502 24.3419C133.502 24.3512 133.499 24.3602 133.493 24.3668C133.486 24.3734 133.478 24.3771 133.469 24.3771H131.575C131.566 24.3771 131.557 24.3734 131.551 24.3668C131.545 24.3602 131.541 24.3512 131.541 24.3419L131.538 16.424C131.538 16.4163 131.535 16.4088 131.53 16.4032C131.525 16.3977 131.517 16.3945 131.509 16.3943Z" fill="#555555"/>
<path id="Vector_19" d="M152.172 15.7988C152.165 15.797 152.159 15.7966 152.153 15.7975C152.146 15.7985 152.14 15.8009 152.135 15.8044C152.13 15.8079 152.126 15.8126 152.123 15.8179C152.12 15.8233 152.118 15.8292 152.118 15.8353L152.116 16.4717C152.116 16.4818 152.113 16.4915 152.107 16.4993C152.101 16.5072 152.093 16.5127 152.084 16.5149C152.004 16.5339 151.926 16.5337 151.849 16.5143C151.84 16.512 151.832 16.5065 151.826 16.4986C151.82 16.4908 151.816 16.481 151.816 16.471L151.819 14.8263C151.819 14.8173 151.823 14.8086 151.829 14.8021C151.835 14.7956 151.844 14.7916 151.853 14.7911C152.291 14.7641 152.978 14.6944 152.953 15.3247C152.945 15.5226 152.843 15.6698 152.646 15.7663C152.643 15.7682 152.639 15.7708 152.637 15.774C152.634 15.7772 152.632 15.7809 152.631 15.7849C152.63 15.7888 152.63 15.793 152.63 15.797C152.631 15.8011 152.633 15.8049 152.635 15.8082L153.079 16.4446C153.082 16.4483 153.084 16.4526 153.085 16.457C153.085 16.4615 153.085 16.466 153.084 16.4702C153.083 16.4743 153.081 16.4781 153.078 16.481C153.075 16.484 153.071 16.4861 153.067 16.4872L152.838 16.5515C152.824 16.5552 152.809 16.5535 152.795 16.5464C152.78 16.5394 152.766 16.5274 152.756 16.5122L152.295 15.8508C152.286 15.8374 152.267 15.826 152.243 15.8191L152.172 15.7988ZM152.527 15.1123C152.398 15.0682 152.276 15.0549 152.159 15.0724C152.149 15.074 152.14 15.0788 152.133 15.086C152.126 15.0932 152.123 15.1023 152.122 15.1117L152.116 15.4451C152.114 15.5645 152.18 15.6083 152.314 15.5763C152.581 15.5127 152.679 15.384 152.607 15.1901C152.6 15.172 152.589 15.1556 152.575 15.1421C152.562 15.1287 152.545 15.1185 152.527 15.1123Z" fill="#555555"/>
<path id="Vector_20" d="M12.8261 18.0084C15.2674 18.7983 17.9595 18.757 20.3106 17.6919C20.6442 17.5404 21.0101 17.5424 21.0101 18.0124C21.0096 19.3591 21.0094 20.7052 21.0094 22.0505C21.0094 22.6037 20.5487 22.4678 20.2723 22.2426C17.5883 20.0582 13.8033 19.8884 10.631 21.0178C8.70896 21.7015 6.81245 22.5077 4.72292 22.5597C3.68724 22.5854 2.72687 22.4211 1.76718 22.0728C0.940654 21.7732 0.732172 21.2775 0.72612 20.4477C0.718498 19.4757 0.715808 18.5036 0.718049 17.5316C0.719394 16.8519 0.813547 16.2927 1.5735 16.0986C2.48499 15.8659 3.35949 15.7534 4.19701 15.7611C6.04308 15.7773 7.77886 16.2764 9.50523 16.8858C10.6073 17.2744 11.7142 17.6486 12.8261 18.0084Z" fill="#555555"/>
<path id="Vector_21" d="M14.8459 21.6093C16.848 21.3902 19.1823 22.176 20.4809 23.8085C20.8972 24.3327 20.9981 24.8006 21.0042 25.4695C21.01 26.1408 21.0111 26.8128 21.0075 27.4855C21.0062 27.7763 20.8724 27.9203 20.5892 27.9203C14.1106 27.9203 7.63196 27.9203 1.15333 27.9203C0.855401 27.9203 0.716189 27.7641 0.715516 27.478C0.714171 26.7941 0.714844 26.1104 0.717534 25.4269C0.720224 24.8304 1.12239 24.8811 1.55684 24.9751C3.20318 25.3329 4.86094 25.2855 6.47701 24.8257C8.30224 24.3063 10.0017 23.3913 11.7146 22.5852C12.6898 22.126 13.7954 21.7242 14.8459 21.6093Z" fill="#555555"/>
</g>
<defs>
<clipPath id="clip0_3266_11466">
<rect width="153.268" height="27.3217" fill="white" transform="translate(0.665527 0.700195)"/>
</clipPath>
</defs>
</svg>
