<svg width="36" height="36" viewBox="0 0 36 36" fill="none" xmlns="http://www.w3.org/2000/svg">
<g id="Testing- how we work">
<mask id="mask0_3214_112784" style="mask-type:alpha" maskUnits="userSpaceOnUse" x="0" y="0" width="36" height="36">
<rect id="Bounding box" width="36" height="36" fill="#D9D9D9"/>
</mask>
<g mask="url(#mask0_3214_112784)">
<path id="quick_reference_all" d="M7.49996 5.99996V15.2682V15.2307V30V5.99996ZM12 20.6249H16.1971C16.3836 20.1942 16.6009 19.7937 16.849 19.4235C17.0971 19.0533 17.3759 18.7038 17.6855 18.375H12C11.6812 18.375 11.414 18.4829 11.1984 18.6986C10.9828 18.9143 10.875 19.1816 10.875 19.5005C10.875 19.8194 10.9828 20.0865 11.1984 20.3019C11.414 20.5172 11.6812 20.6249 12 20.6249ZM12 26.6249H15.4211C15.3322 26.25 15.2744 25.875 15.2477 25.5C15.221 25.125 15.2231 24.75 15.2538 24.375H12C11.6812 24.375 11.414 24.4829 11.1984 24.6986C10.9828 24.9143 10.875 25.1816 10.875 25.5005C10.875 25.8194 10.9828 26.0865 11.1984 26.3019C11.414 26.5172 11.6812 26.6249 12 26.6249ZM7.95896 32.2499C7.20299 32.2499 6.5625 31.9874 6.0375 31.4624C5.5125 30.9374 5.25 30.2961 5.25 29.5384V6.46155C5.25 5.70385 5.5125 5.0625 6.0375 4.5375C6.5625 4.0125 7.20385 3.75 7.96155 3.75H18.7529C19.1187 3.75 19.4674 3.8202 19.7989 3.9606C20.1304 4.10098 20.4192 4.29424 20.6654 4.54039L26.9595 10.8345C27.2057 11.0807 27.3989 11.3696 27.5393 11.7011C27.6797 12.0326 27.7499 12.3812 27.7499 12.747V15.7644C27.3903 15.6221 27.023 15.5139 26.648 15.4399C26.273 15.3659 25.8903 15.3086 25.5 15.2682V12.7499H20.0997C19.7172 12.7499 19.3967 12.6206 19.138 12.3618C18.8793 12.1031 18.75 11.7824 18.75 11.3999V5.99996H7.96155C7.84615 5.99996 7.74036 6.04804 7.64419 6.14419C7.54804 6.24036 7.49996 6.34615 7.49996 6.46155V29.5384C7.49996 29.6538 7.54804 29.7596 7.64419 29.8557C7.74036 29.9519 7.84615 30 7.96155 30H16.8115C17.1044 30.4437 17.4338 30.8552 17.7999 31.2342C18.1659 31.6133 18.5624 31.9519 18.9894 32.2499H7.95896ZM24.7528 28.7307C25.8682 28.7307 26.8101 28.3457 27.5783 27.5755C28.3466 26.8053 28.7307 25.8625 28.7307 24.7471C28.7307 23.6317 28.3457 22.6899 27.5755 21.9216C26.8053 21.1533 25.8625 20.7692 24.7471 20.7692C23.6317 20.7692 22.6899 21.1543 21.9216 21.9244C21.1533 22.6946 20.7692 23.6374 20.7692 24.7528C20.7692 25.8682 21.1543 26.8101 21.9244 27.5783C22.6946 28.3466 23.6374 28.7307 24.7528 28.7307ZM33.1914 33.1903C32.9844 33.398 32.7209 33.5019 32.401 33.5019C32.0811 33.5019 31.8173 33.398 31.6096 33.1903L28.2922 29.8586C27.7865 30.2278 27.2322 30.5071 26.6293 30.6966C26.0264 30.886 25.4 30.9807 24.75 30.9807C23.0192 30.9807 21.5481 30.3749 20.3365 29.1634C19.125 27.9519 18.5192 26.4807 18.5192 24.75C18.5192 23.0192 19.125 21.5481 20.3365 20.3365C21.5481 19.125 23.0192 18.5192 24.75 18.5192C26.4807 18.5192 27.9519 19.125 29.1634 20.3365C30.3749 21.5481 30.9807 23.0192 30.9807 24.75C30.9807 25.4 30.886 26.0264 30.6966 26.6293C30.5071 27.2322 30.2278 27.7865 29.8586 28.2923L33.1903 31.6096C33.398 31.8164 33.5019 32.0797 33.5019 32.3993C33.5019 32.719 33.3984 32.9826 33.1914 33.1903Z" fill="#2C74D6"/>
</g>
</g>
</svg>
