<svg width="36" height="36" viewBox="0 0 36 36" fill="none" xmlns="http://www.w3.org/2000/svg">
<mask id="mask0_2873_320642" style="mask-type:alpha" maskUnits="userSpaceOnUse" x="0" y="0" width="36" height="36">
<rect width="36" height="36" fill="#D9D9D9"/>
</mask>
<g mask="url(#mask0_2873_320642)">
<path d="M2.77344 26.2646C2.98881 23.7916 3.74764 21.5173 5.04991 19.4419C6.35216 17.3665 8.08659 15.7177 10.2532 14.4955L7.69456 10.0705C7.55416 9.85509 7.51906 9.63442 7.58926 9.40847C7.65946 9.18252 7.80994 9.00704 8.04069 8.88204C8.24069 8.76664 8.45126 8.74404 8.67241 8.81424C8.89356 8.88444 9.07337 9.0235 9.21185 9.23143L11.7734 13.6676C13.758 12.8358 15.8349 12.4199 18.0041 12.4199C20.1733 12.4199 22.2502 12.8358 24.2348 13.6676L26.7964 9.23143C26.9348 9.0235 27.1146 8.88444 27.3358 8.81424C27.5569 8.74404 27.7675 8.76664 27.9675 8.88204C28.1983 9.00704 28.3487 9.18252 28.4189 9.40847C28.4891 9.63442 28.454 9.85509 28.3136 10.0705L25.755 14.4955C27.9216 15.7177 29.656 17.3665 30.9583 19.4419C32.2606 21.5173 33.0194 23.7916 33.2348 26.2646H2.77344ZM11.0831 22.4569C11.5683 22.4569 11.9777 22.2894 12.3113 21.9544C12.645 21.6194 12.8118 21.2093 12.8118 20.7242C12.8118 20.239 12.6443 19.8295 12.3093 19.4959C11.9743 19.1622 11.5642 18.9954 11.0791 18.9954C10.5939 18.9954 10.1844 19.1629 9.85077 19.4979C9.51713 19.8329 9.3503 20.243 9.3503 20.7282C9.3503 21.2134 9.5178 21.6228 9.8528 21.9565C10.1878 22.2901 10.5979 22.4569 11.0831 22.4569ZM24.9292 22.4569C25.4144 22.4569 25.8238 22.2894 26.1574 21.9544C26.4911 21.6194 26.6579 21.2093 26.6579 20.7242C26.6579 20.239 26.4904 19.8295 26.1554 19.4959C25.8204 19.1622 25.4103 18.9954 24.9251 18.9954C24.4399 18.9954 24.0305 19.1629 23.6969 19.4979C23.3632 19.8329 23.1964 20.243 23.1964 20.7282C23.1964 21.2134 23.3639 21.6228 23.6989 21.9565C24.0339 22.2901 24.444 22.4569 24.9292 22.4569Z" fill="white"/>
</g>
</svg>
