<svg width="123" height="36" viewBox="0 0 123 36" fill="none" xmlns="http://www.w3.org/2000/svg">
<g clip-path="url(#clip0_5082_10935)">
<path d="M19.2003 26.2888L9.59442 10.1635C9.57864 10.137 9.57031 10.1067 9.57031 10.0759C9.57031 10.045 9.57864 10.0148 9.59442 9.98827L11.3328 7.08301C11.3481 7.05752 11.3698 7.03646 11.3958 7.0219C11.4217 7.00735 11.451 6.9998 11.4807 7C11.5105 7.0002 11.5396 7.00815 11.5654 7.02305C11.5911 7.03796 11.6125 7.05931 11.6275 7.085L22.9559 26.0598C22.9713 26.0857 22.9796 26.1152 22.98 26.1453C22.9803 26.1754 22.9728 26.2051 22.958 26.2313C22.9433 26.2576 22.9219 26.2795 22.896 26.2948C22.8701 26.3101 22.8406 26.3184 22.8105 26.3187L19.3497 26.3725C19.3196 26.3728 19.29 26.3653 19.2638 26.3506C19.2376 26.336 19.2157 26.3146 19.2003 26.2888Z" fill="#777777"/>
<path d="M31.6196 23.5548L30.6758 26.235C30.6479 26.3133 30.5921 26.3525 30.5085 26.3525L27.418 26.3465C27.3962 26.3462 27.3747 26.3405 27.3555 26.3301C27.3363 26.3196 27.32 26.3047 27.308 26.2866C27.296 26.2685 27.2887 26.2478 27.2867 26.2263C27.2847 26.2048 27.2881 26.1832 27.2966 26.1633C29.5971 20.5745 31.8984 15.0195 34.2003 9.49838C34.6882 8.33149 36.0323 8.23591 36.5201 9.43665C38.7928 15.0069 41.0848 20.5778 43.396 26.1494C43.4048 26.1705 43.4083 26.1934 43.4062 26.2162C43.404 26.239 43.3963 26.2608 43.3837 26.2799C43.3712 26.299 43.3541 26.3147 43.334 26.3256C43.3139 26.3365 43.2914 26.3424 43.2686 26.3425L40.2199 26.3605C40.1323 26.3605 40.0739 26.3193 40.0447 26.237L39.0869 23.5727C39.063 23.505 39.0145 23.4711 38.9415 23.4711H31.7371C31.7115 23.471 31.6864 23.479 31.6653 23.494C31.6443 23.509 31.6283 23.5302 31.6196 23.5548ZM32.4619 20.9362C32.4577 20.9469 32.4561 20.9584 32.4574 20.9698C32.4586 20.9812 32.4627 20.9922 32.4692 21.0016C32.4757 21.0111 32.4844 21.0188 32.4946 21.0241C32.5048 21.0293 32.5162 21.032 32.5276 21.0318H38.155C38.1664 21.032 38.1778 21.0293 38.188 21.0241C38.1982 21.0188 38.2069 21.0111 38.2134 21.0016C38.2199 20.9922 38.224 20.9812 38.2252 20.9698C38.2265 20.9584 38.2249 20.9469 38.2207 20.9362L35.407 13.6542C35.4022 13.6406 35.3933 13.6288 35.3815 13.6205C35.3698 13.6122 35.3557 13.6077 35.3413 13.6077C35.3269 13.6077 35.3128 13.6122 35.3011 13.6205C35.2893 13.6288 35.2804 13.6406 35.2756 13.6542L32.4619 20.9362Z" fill="#777777"/>
<path d="M117.952 8.9548C117.948 9.23756 117.962 10.9162 117.817 11.0397C117.803 11.0518 117.786 11.0597 117.768 11.0623C117.75 11.0649 117.732 11.0621 117.715 11.0544C117.698 11.0466 117.684 11.0342 117.674 11.0185C117.663 11.0028 117.658 10.9846 117.658 10.966L117.656 9.00059C117.656 8.91298 117.612 8.86585 117.524 8.85921L117.064 8.82138C117.021 8.8174 116.986 8.79815 116.961 8.76363L116.927 8.71783C116.869 8.63818 116.889 8.59769 116.989 8.59637L118.641 8.58243C118.745 8.5811 118.77 8.62557 118.717 8.71584L118.673 8.78952C118.655 8.82005 118.627 8.83532 118.592 8.83532H118.072C117.992 8.83532 117.952 8.87515 117.952 8.9548Z" fill="#777777" fill-opacity="0.0666667"/>
<path d="M120.572 9.26742L120.104 9.91657C120.044 9.99755 119.987 9.99556 119.933 9.9106L119.499 9.23555C119.488 9.21986 119.472 9.20818 119.454 9.2023C119.436 9.19642 119.416 9.19665 119.398 9.20297C119.38 9.20929 119.364 9.22135 119.354 9.2373C119.343 9.25325 119.338 9.27222 119.34 9.29131C119.393 9.81966 119.405 10.3474 119.377 10.8744C119.365 11.1093 119.277 11.0921 119.113 10.8226C119.105 10.8096 119.101 10.7937 119.101 10.7768V8.66804C119.1 8.63972 119.109 8.61209 119.126 8.58925C119.143 8.56642 119.166 8.54961 119.194 8.54133C119.221 8.53305 119.25 8.53373 119.276 8.54329C119.303 8.55285 119.326 8.57076 119.342 8.59436L119.967 9.51035C119.999 9.55681 120.031 9.55748 120.062 9.51234L120.725 8.5864C120.737 8.56996 120.754 8.55768 120.773 8.55135C120.792 8.54501 120.813 8.54494 120.832 8.55114C120.852 8.55734 120.868 8.56949 120.88 8.58585C120.892 8.60221 120.899 8.62192 120.899 8.64216L120.879 10.966C120.877 11.0562 120.833 11.0908 120.745 11.0695C120.54 11.0217 120.674 9.55814 120.702 9.31919C120.704 9.30326 120.701 9.28701 120.693 9.27306C120.685 9.25911 120.672 9.24827 120.657 9.24229C120.642 9.23631 120.626 9.23554 120.61 9.2401C120.595 9.24466 120.581 9.25428 120.572 9.26742Z" fill="#777777" fill-opacity="0.0666667"/>
<path d="M98.2965 21.1831C98.3002 21.8758 98.1673 22.5624 97.9056 23.2038C97.6438 23.8451 97.2583 24.4286 96.7711 24.921C96.2839 25.4134 95.7044 25.805 95.0658 26.0734C94.4272 26.3418 93.742 26.4819 93.0493 26.4855L92.1612 26.4902C91.4685 26.4938 90.7819 26.3609 90.1406 26.0992C89.4992 25.8375 88.9157 25.452 88.4233 24.9647C87.9309 24.4775 87.5393 23.898 87.2709 23.2594C87.0025 22.6209 86.8624 21.9357 86.8588 21.243L86.8243 14.6519C86.8207 13.9592 86.9535 13.2726 87.2152 12.6313C87.477 11.9899 87.8625 11.4064 88.3497 10.914C88.837 10.4216 89.4164 10.03 90.055 9.76161C90.6936 9.49317 91.3788 9.35315 92.0715 9.34952L92.9596 9.34486C93.6523 9.34123 94.3389 9.47408 94.9803 9.73581C95.6216 9.99754 96.2052 10.383 96.6975 10.8703C97.1899 11.3575 97.5815 11.937 97.8499 12.5756C98.1184 13.2141 98.2584 13.8993 98.262 14.592L98.2965 21.1831ZM96.5768 14.604C96.5768 13.6043 96.1797 12.6455 95.4727 11.9386C94.7658 11.2317 93.8071 10.8345 92.8073 10.8345H92.3135C91.3138 10.8345 90.355 11.2317 89.6481 11.9386C88.9412 12.6455 88.544 13.6043 88.544 14.604V21.2708C88.544 21.7658 88.6415 22.256 88.8309 22.7133C89.0204 23.1707 89.298 23.5862 89.6481 23.9362C89.9981 24.2863 90.4136 24.5639 90.871 24.7534C91.3283 24.9428 91.8185 25.0403 92.3135 25.0403H92.8073C93.8071 25.0403 94.7658 24.6431 95.4727 23.9362C96.1797 23.2293 96.5768 22.2705 96.5768 21.2708V14.604Z" fill="#777777"/>
<path d="M84.146 23.7001C84.1492 23.7889 84.185 23.8734 84.2467 23.9376C84.3083 24.0019 84.3916 24.0414 84.4806 24.0486L85.3229 24.1143C85.4065 24.121 85.4483 24.1668 85.4483 24.2517V26.2032C85.4483 26.2722 85.4138 26.3067 85.3448 26.3067C83.469 26.3167 81.3224 26.6751 81.3184 24.0267C81.3144 19.3326 81.3144 14.6332 81.3184 9.92851C81.3184 9.84929 81.3501 9.77332 81.4065 9.7173C81.4629 9.66129 81.5393 9.62982 81.6191 9.62982L83.7657 9.6358C83.8388 9.63578 83.909 9.66448 83.9615 9.7158C84.0139 9.76711 84.0444 9.83699 84.0465 9.91059C84.1739 14.5124 83.9728 19.1083 84.146 23.7001Z" fill="#777777"/>
<path d="M7.91337 13.3635L11.1173 13.3595C11.1426 13.3593 11.1675 13.3657 11.1895 13.3782C11.2114 13.3907 11.2297 13.4088 11.2425 13.4306C11.2552 13.4525 11.2619 13.4773 11.262 13.5025C11.262 13.5278 11.2554 13.5527 11.2428 13.5746L9.65573 16.3584C9.64337 16.3804 9.6254 16.3988 9.60364 16.4116C9.58189 16.4245 9.55712 16.4313 9.53186 16.4316C9.50659 16.4318 9.48172 16.4253 9.45976 16.4128C9.43781 16.4003 9.41954 16.3822 9.40682 16.3603L7.78991 13.5805C7.77686 13.5587 7.76983 13.5339 7.76954 13.5085C7.76925 13.4831 7.77572 13.4581 7.78828 13.436C7.80084 13.4139 7.81904 13.3955 7.84102 13.3828C7.863 13.3701 7.88797 13.3634 7.91337 13.3635Z" fill="#777777"/>
<path d="M32.462 20.9363L35.2757 13.6542C35.2805 13.6406 35.2894 13.6288 35.3012 13.6205C35.3129 13.6122 35.327 13.6077 35.3414 13.6077C35.3558 13.6077 35.3699 13.6122 35.3816 13.6205C35.3934 13.6288 35.4023 13.6406 35.4071 13.6542L38.2208 20.9363C38.225 20.9469 38.2266 20.9585 38.2253 20.9699C38.2241 20.9813 38.22 20.9922 38.2135 21.0017C38.207 21.0111 38.1983 21.0188 38.1881 21.0241C38.1779 21.0294 38.1665 21.032 38.1551 21.0319H32.5277C32.5163 21.032 32.5049 21.0294 32.4947 21.0241C32.4845 21.0188 32.4758 21.0111 32.4693 21.0017C32.4628 20.9922 32.4587 20.9813 32.4575 20.9699C32.4562 20.9585 32.4578 20.9469 32.462 20.9363Z" fill="white"/>
<path d="M112.782 21.0757C112.814 21.8861 112.84 22.7961 113.244 23.4791C114.333 25.3191 117.063 25.5142 118.598 24.1502C118.877 23.9013 119.094 23.4851 119.369 23.1645C119.418 23.1088 119.475 23.1001 119.538 23.1386L120.627 23.8176C120.695 23.8601 120.71 23.9165 120.671 23.9869C118.584 27.7524 112.214 27.3741 111.34 22.822C110.942 20.7511 110.83 17.6965 111.957 15.9641C113.861 13.0409 119.052 13.3097 120.402 16.7028C120.843 17.8087 120.982 19.1727 120.819 20.7949C120.813 20.8533 120.781 20.8825 120.723 20.8825C118.371 20.8852 116.021 20.8825 113.674 20.8745C113.406 20.8732 113.14 20.8998 112.877 20.9542C112.811 20.9688 112.779 21.0093 112.782 21.0757ZM112.864 19.4349L119.12 19.4548C119.136 19.4548 119.152 19.4485 119.163 19.4374C119.175 19.4262 119.181 19.4111 119.182 19.395L119.184 18.7718C119.185 18.3438 119.112 17.9198 118.968 17.524C118.823 17.1282 118.611 16.7682 118.343 16.4648C118.075 16.1613 117.757 15.9203 117.406 15.7555C117.055 15.5906 116.679 15.5052 116.298 15.5041L115.709 15.5001C114.941 15.4978 114.204 15.8387 113.659 16.4477C113.114 17.0568 112.807 17.8841 112.804 18.7479L112.802 19.3711C112.802 19.3794 112.803 19.3877 112.806 19.3954C112.809 19.4031 112.813 19.4101 112.819 19.4161C112.825 19.422 112.832 19.4268 112.839 19.43C112.847 19.4332 112.855 19.4349 112.864 19.4349Z" fill="#777777"/>
<path d="M47.876 15.3089C49.7856 12.9971 53.9394 13.7956 54.8613 16.661C54.9967 17.0805 55.0678 17.7874 55.0744 18.7817C55.0903 21.2602 55.0897 23.74 55.0724 26.2211C55.0724 26.3034 55.0313 26.3446 54.949 26.3446L52.4718 26.3346C52.3789 26.3346 52.3331 26.2875 52.3344 26.1932C52.3557 23.7984 52.3497 21.4082 52.3165 19.0227C52.3072 18.3669 52.2103 17.8664 52.0258 17.5212C51.1416 15.8585 48.6306 16.0178 47.9695 17.798C47.87 18.0675 47.8195 18.4797 47.8182 19.0346C47.8102 21.4042 47.8089 23.7798 47.8142 26.1614C47.8142 26.2822 47.7545 26.3426 47.635 26.3426H45.1439C45.0683 26.3426 45.0304 26.3048 45.0304 26.2291L45.0225 14.3213C45.0225 14.227 45.0696 14.1799 45.1638 14.1799L47.635 14.1759C47.6618 14.1758 47.6883 14.1813 47.7128 14.192C47.7373 14.2027 47.7594 14.2183 47.7775 14.238C47.7957 14.2577 47.8096 14.2809 47.8183 14.3062C47.827 14.3315 47.8304 14.3583 47.8282 14.385L47.7565 15.2612C47.7556 15.2754 47.7592 15.2896 47.7668 15.3016C47.7744 15.3137 47.7857 15.323 47.7989 15.3283C47.8122 15.3336 47.8267 15.3346 47.8406 15.3311C47.8544 15.3277 47.8668 15.3199 47.876 15.3089Z" fill="#777777"/>
<path d="M64.3137 25.2514C61.7688 27.5732 57.4338 25.8607 56.8703 22.5552C56.249 18.8972 56.7747 13.6881 61.8524 13.9927C62.799 14.0498 63.6233 14.4149 64.3256 15.0879C64.3417 15.1036 64.3621 15.114 64.3841 15.1179C64.4062 15.1218 64.429 15.1189 64.4494 15.1096C64.4698 15.1004 64.487 15.0852 64.4986 15.0661C64.5103 15.0469 64.5159 15.0247 64.5148 15.0023L64.4789 14.3233C64.4736 14.2211 64.5227 14.17 64.6263 14.17L67.0955 14.1739C67.1857 14.1739 67.2309 14.2191 67.2309 14.3093C67.2256 18.0529 67.2209 21.7886 67.2169 25.5162C67.213 30.0782 64.0747 31.2292 60.0523 30.9643C59.9833 30.9604 59.9309 30.9285 59.895 30.8688L58.6604 28.8058C58.6435 28.777 58.6347 28.7441 58.6349 28.7106C58.6351 28.6772 58.6444 28.6444 58.6618 28.6159C58.6791 28.5873 58.7039 28.5639 58.7335 28.5483C58.7631 28.5326 58.7963 28.5253 58.8297 28.527C59.8399 28.5788 60.8435 28.5722 61.8405 28.5071C63.5689 28.3956 64.692 27.0395 64.461 25.3032C64.4451 25.1916 64.396 25.1744 64.3137 25.2514ZM59.5107 19.0406C59.3653 20.3469 59.3255 22.2525 60.2634 23.2422C61.4562 24.5027 63.8855 24.1422 64.2977 22.3222C64.4889 21.4792 64.5307 20.3469 64.4232 18.9251C64.1544 15.3528 59.891 15.6176 59.5107 19.0406Z" fill="#777777"/>
<path d="M71.6419 21.3963C71.7428 23.0451 72.5931 23.9697 74.1927 24.1701C75.5946 24.3434 76.4229 23.7101 77.3389 22.7105C77.3907 22.6548 77.4451 22.6515 77.5022 22.7006L79.153 24.0805C79.2393 24.1522 79.2486 24.2319 79.1808 24.3195C76.4906 27.8341 70.3018 27.2725 69.1707 22.5751C68.203 18.5567 69.3539 13.7319 74.4655 13.9868C78.4919 14.1859 79.7065 17.4715 79.4517 21.016C79.4477 21.0704 79.4235 21.1212 79.384 21.1585C79.3446 21.1958 79.2926 21.2167 79.2386 21.2171L71.7614 21.2689C71.6777 21.2689 71.6379 21.3113 71.6419 21.3963ZM71.7315 19.1999L76.5902 19.192C76.6092 19.192 76.6274 19.1844 76.6409 19.171C76.6543 19.1575 76.6619 19.1393 76.6619 19.1203V18.957C76.6607 18.2769 76.415 17.625 75.9789 17.1448C75.5427 16.6645 74.9518 16.3953 74.3361 16.3962H73.9777C73.6727 16.3967 73.3709 16.4635 73.0893 16.5928C72.8078 16.7222 72.5521 16.9115 72.3369 17.1501C72.1217 17.3886 71.9511 17.6716 71.8349 17.983C71.7187 18.2944 71.6592 18.6281 71.6598 18.9649V19.1282C71.6598 19.1472 71.6674 19.1655 71.6808 19.1789C71.6943 19.1924 71.7125 19.1999 71.7315 19.1999Z" fill="#777777"/>
<path d="M101.981 15.4743C104.167 12.6566 109.359 14.0027 109.38 17.808C109.396 20.5971 109.399 23.3856 109.388 26.1734C109.388 26.2636 109.343 26.3088 109.253 26.3088H107.809C107.736 26.3088 107.7 26.2716 107.7 26.1973C107.701 23.6259 107.701 21.0584 107.7 18.495C107.698 15.2532 103.293 14.3313 102.108 17.1529C101.958 17.5087 101.882 18.0569 101.879 18.7977C101.873 21.243 101.872 23.6942 101.877 26.1515C101.877 26.2563 101.825 26.3088 101.72 26.3088H100.243C100.173 26.3088 100.139 26.2743 100.139 26.2052C100.131 22.5864 100.126 18.9709 100.123 15.3588C100.123 14.9937 100.151 14.6319 100.207 14.2735C100.22 14.1925 100.267 14.1527 100.348 14.154L101.77 14.1779C101.853 14.1793 101.893 14.2217 101.887 14.3054L101.814 15.4105C101.812 15.4305 101.817 15.4504 101.828 15.4673C101.839 15.4842 101.855 15.4971 101.874 15.5043C101.892 15.5114 101.913 15.5123 101.932 15.5069C101.952 15.5015 101.969 15.4901 101.981 15.4743Z" fill="#777777"/>
<path d="M7.4278 19.5344L5.80292 16.6969C5.76575 16.6331 5.79031 16.6013 5.8766 16.6013H9.22392C9.24622 16.6014 9.26809 16.6074 9.28735 16.6187C9.3066 16.6299 9.32257 16.646 9.33366 16.6654C9.34474 16.6847 9.35056 16.7066 9.35052 16.7289C9.35048 16.7512 9.3446 16.7731 9.33345 16.7925L7.76233 19.5344C7.74538 19.5638 7.72099 19.5882 7.69163 19.6051C7.66227 19.6221 7.62897 19.631 7.59506 19.631C7.56116 19.631 7.52786 19.6221 7.49849 19.6051C7.46913 19.5882 7.44475 19.5638 7.4278 19.5344Z" fill="#777777"/>
<path d="M9.925 16.6053L13.1389 16.6013C13.1637 16.6012 13.188 16.6076 13.2095 16.6199C13.231 16.6322 13.2489 16.6499 13.2614 16.6713C13.2739 16.6927 13.2806 16.7169 13.2807 16.7417C13.2809 16.7665 13.2746 16.7908 13.2624 16.8124L11.6514 19.5942C11.639 19.6157 11.6212 19.6335 11.5997 19.6459C11.5782 19.6584 11.5538 19.6649 11.529 19.6649C11.5041 19.6649 11.4798 19.6584 11.4583 19.6459C11.4368 19.6335 11.4189 19.6157 11.4065 19.5942L9.80353 16.8163C9.79141 16.795 9.78508 16.7708 9.78516 16.7462C9.78524 16.7216 9.79173 16.6974 9.804 16.6761C9.81626 16.6548 9.83388 16.6371 9.8551 16.6246C9.87632 16.6122 9.90041 16.6055 9.925 16.6053Z" fill="#777777"/>
<path d="M5.53156 22.9037L3.92063 20.088C3.90916 20.0678 3.9032 20.0449 3.90332 20.0216C3.90345 19.9983 3.90965 19.9755 3.92133 19.9554C3.933 19.9352 3.94974 19.9185 3.96988 19.9069C3.99001 19.8952 4.01285 19.889 4.03612 19.8889L7.2799 19.8869C7.30346 19.8868 7.32663 19.893 7.34705 19.9047C7.36746 19.9165 7.3844 19.9334 7.39613 19.9539C7.40787 19.9743 7.41398 19.9975 7.41385 20.0211C7.41372 20.0446 7.40735 20.0677 7.3954 20.088L5.76255 22.9037C5.75084 22.9239 5.734 22.9408 5.71372 22.9525C5.69345 22.9641 5.67046 22.9703 5.64706 22.9703C5.62366 22.9703 5.60066 22.9641 5.58039 22.9525C5.56012 22.9408 5.54328 22.9239 5.53156 22.9037Z" fill="#777777"/>
<path d="M11.3149 20.084L9.68998 22.8897C9.67844 22.9101 9.66175 22.927 9.64157 22.9389C9.6214 22.9508 9.59846 22.9571 9.57506 22.9573C9.55166 22.9575 9.52861 22.9516 9.50824 22.9401C9.48787 22.9285 9.47088 22.9119 9.45899 22.8917L7.82217 20.09C7.81021 20.0697 7.80384 20.0466 7.80371 20.023C7.80358 19.9995 7.8097 19.9763 7.82143 19.9558C7.83316 19.9354 7.8501 19.9184 7.87051 19.9067C7.89093 19.8949 7.9141 19.8888 7.93766 19.8889L11.1994 19.8849C11.2226 19.885 11.2455 19.8912 11.2656 19.9028C11.2857 19.9145 11.3025 19.9312 11.3142 19.9514C11.3258 19.9715 11.332 19.9943 11.3322 20.0176C11.3323 20.0409 11.3263 20.0638 11.3149 20.084Z" fill="#777777"/>
<path d="M15.0497 20.078L13.4507 22.8857C13.4392 22.906 13.4226 22.9229 13.4025 22.9347C13.3824 22.9464 13.3595 22.9526 13.3362 22.9526C13.3129 22.9526 13.29 22.9464 13.2699 22.9347C13.2497 22.9229 13.2331 22.906 13.2217 22.8857L11.6028 20.09C11.5907 20.07 11.5843 20.0471 11.584 20.0238C11.5837 20.0005 11.5897 19.9775 11.6012 19.9572C11.6128 19.9369 11.6295 19.9201 11.6498 19.9084C11.67 19.8968 11.6929 19.8907 11.7163 19.8908L14.9362 19.8809C14.9592 19.8809 14.9818 19.8871 15.0018 19.8986C15.0217 19.9102 15.0382 19.9268 15.0497 19.9467C15.0612 19.9667 15.0673 19.9893 15.0673 20.0124C15.0673 20.0354 15.0612 20.0581 15.0497 20.078Z" fill="#777777"/>
<path d="M13.2175 23.4891L11.6046 26.257C11.5922 26.2785 11.5743 26.2963 11.5528 26.3087C11.5313 26.3212 11.507 26.3277 11.4821 26.3277C11.4573 26.3277 11.4329 26.3212 11.4114 26.3087C11.3899 26.2963 11.3721 26.2785 11.3597 26.257L9.7547 23.4811C9.7425 23.4596 9.73616 23.4352 9.73633 23.4105C9.7365 23.3857 9.74317 23.3614 9.75567 23.34C9.76817 23.3187 9.78606 23.301 9.80756 23.2887C9.82906 23.2764 9.8534 23.27 9.87816 23.2701L13.0961 23.276C13.1209 23.2761 13.1454 23.2827 13.1669 23.2953C13.1884 23.3078 13.2062 23.3258 13.2185 23.3474C13.2308 23.369 13.2372 23.3935 13.237 23.4184C13.2369 23.4432 13.2301 23.4676 13.2175 23.4891Z" fill="#777777"/>
<path d="M13.6974 23.274L16.9631 23.276C16.9843 23.2761 17.0051 23.2817 17.0235 23.2923C17.0419 23.3028 17.0572 23.3181 17.0678 23.3364C17.0785 23.3547 17.0842 23.3755 17.0843 23.3967C17.0845 23.4179 17.0791 23.4388 17.0686 23.4572L15.4477 26.2928C15.4371 26.3114 15.4218 26.3269 15.4032 26.3377C15.3847 26.3485 15.3636 26.3542 15.3422 26.3542C15.3208 26.3542 15.2997 26.3485 15.2812 26.3377C15.2626 26.3269 15.2473 26.3114 15.2367 26.2928L13.5919 23.4553C13.5814 23.4368 13.576 23.4159 13.5762 23.3947C13.5763 23.3735 13.582 23.3527 13.5927 23.3344C13.6033 23.3161 13.6186 23.3008 13.637 23.2903C13.6554 23.2797 13.6762 23.2741 13.6974 23.274Z" fill="#777777"/>
<path d="M3.68992 26.3147L2.01526 23.4373C2.00545 23.4207 2.00019 23.4019 2 23.3826C1.99982 23.3633 2.00473 23.3443 2.01422 23.3276C2.02371 23.3108 2.03746 23.2969 2.05407 23.2871C2.07069 23.2774 2.08958 23.2722 2.10885 23.272L5.43825 23.274C5.45739 23.274 5.47621 23.279 5.49282 23.2885C5.50943 23.298 5.52327 23.3117 5.53294 23.3282C5.54261 23.3447 5.54778 23.3635 5.54793 23.3826C5.54809 23.4018 5.54323 23.4206 5.53383 23.4373L3.87909 26.3127C3.86962 26.3293 3.85595 26.3432 3.83946 26.3529C3.82296 26.3626 3.80421 26.3678 3.78507 26.368C3.76594 26.3682 3.74708 26.3634 3.73038 26.354C3.71369 26.3447 3.69973 26.3311 3.68992 26.3147Z" fill="#777777"/>
<path d="M5.95138 23.2661L9.25888 23.2721C9.27837 23.2722 9.29748 23.2775 9.31429 23.2874C9.33111 23.2972 9.34504 23.3113 9.35471 23.3282C9.36438 23.3452 9.36945 23.3643 9.36941 23.3838C9.36936 23.4033 9.36421 23.4224 9.35447 23.4393L7.70768 26.3068C7.6979 26.3237 7.68382 26.3378 7.66687 26.3476C7.64991 26.3574 7.63068 26.3625 7.61111 26.3625C7.59153 26.3625 7.5723 26.3574 7.55535 26.3476C7.53839 26.3378 7.52432 26.3237 7.51453 26.3068L5.85381 23.4334C5.84398 23.4163 5.83882 23.397 5.83887 23.3773C5.83891 23.3577 5.84415 23.3384 5.85406 23.3214C5.86396 23.3044 5.87818 23.2904 5.89527 23.2806C5.91237 23.2709 5.93172 23.2659 5.95138 23.2661Z" fill="#777777"/>
</g>
<defs>
<clipPath id="clip0_5082_10935">
<rect width="121" height="26" fill="white" transform="translate(2 5)"/>
</clipPath>
</defs>
</svg>
