<svg width="36" height="36" viewBox="0 0 36 36" fill="none" xmlns="http://www.w3.org/2000/svg">
<g id="Icons- DevOps">
<path id="Vector" d="M16.174 19.8259L13.0559 18.4469C12.81 18.3393 12.6871 18.1531 12.6871 17.8882C12.6871 17.6232 12.81 17.437 13.0559 17.3295L16.174 15.9121L17.553 12.792C17.6605 12.5527 17.8468 12.433 18.1117 12.433C18.3766 12.433 18.5628 12.5527 18.6704 12.792L20.0877 15.9121L23.2078 17.3295C23.4471 17.437 23.5668 17.6232 23.5668 17.8882C23.5668 18.1531 23.4471 18.3393 23.2078 18.4469L20.0877 19.8259L18.6704 22.944C18.5628 23.1899 18.3766 23.3129 18.1117 23.3129C17.8468 23.3129 17.6605 23.1899 17.553 22.944L16.174 19.8259ZM3.92784 25.461V29.9514C3.92784 30.2294 3.8367 30.4596 3.65441 30.6419C3.47211 30.8242 3.24195 30.9153 2.9639 30.9153C2.68591 30.9153 2.45576 30.8242 2.27344 30.6419C2.09115 30.4596 2 30.2294 2 29.9514V23.3965C2 23.0496 2.11329 22.7629 2.33988 22.5363C2.56642 22.3097 2.85313 22.1965 3.20002 22.1965H9.71456C9.99258 22.1965 10.2227 22.2876 10.405 22.4699C10.5873 22.6522 10.6785 22.8824 10.6785 23.1604C10.6785 23.4384 10.5873 23.6686 10.405 23.8509C10.2227 24.0332 9.99258 24.1243 9.71456 24.1243H5.39835C6.71311 26.6064 8.50264 28.5515 10.7669 29.9598C13.0312 31.368 15.5228 32.0722 18.2415 32.0722C21.1026 32.0722 23.6985 31.2797 26.0294 29.6947C28.3602 28.1097 30.066 26.0162 31.1466 23.4142C31.287 23.0955 31.4716 22.8381 31.7004 22.642C31.9293 22.446 32.205 22.384 32.5276 22.4561C32.8312 22.5217 33.0268 22.6989 33.1143 22.9878C33.2019 23.2766 33.1788 23.5771 33.045 23.8892C31.8397 26.9411 29.9007 29.3892 27.2279 31.2335C24.5551 33.0778 21.5596 34 18.2415 34C15.2087 34 12.4526 33.2574 9.97319 31.7721C7.4938 30.2868 5.47869 28.1831 3.92784 25.461ZM3.04853 16.3537C2.76 16.3537 2.54 16.2457 2.38852 16.0296C2.23707 15.8135 2.18135 15.5596 2.22134 15.2678C2.43642 13.991 2.76986 12.8186 3.22165 11.7503C3.67347 10.6821 4.27021 9.61255 5.01186 8.54169C5.1876 8.28465 5.4076 8.12957 5.67186 8.07648C5.93612 8.02336 6.17939 8.10139 6.40168 8.31056C6.62661 8.54204 6.73136 8.79548 6.71594 9.07089C6.70054 9.3463 6.60563 9.62302 6.43118 9.90104C5.84889 10.7608 5.38182 11.6205 5.03 12.4802C4.6782 13.3399 4.39508 14.2819 4.18064 15.3062C4.11507 15.6032 3.98426 15.8521 3.78821 16.0527C3.59213 16.2534 3.34557 16.3537 3.04853 16.3537ZM16.6185 2.84648C16.6185 3.14877 16.5164 3.39664 16.3122 3.59008C16.1079 3.78353 15.8497 3.90813 15.5376 3.96388C14.5048 4.15339 13.5588 4.43421 12.6998 4.80634C11.8408 5.1785 10.9761 5.66426 10.106 6.26362C9.84367 6.43804 9.57482 6.52263 9.29942 6.51739C9.02401 6.51215 8.7791 6.39378 8.56468 6.16231C8.37451 5.96887 8.30123 5.7405 8.34483 5.47721C8.38844 5.21395 8.52598 4.99509 8.75745 4.82065C9.82305 4.0672 10.8916 3.46588 11.9631 3.01669C13.0346 2.5675 14.2189 2.23273 15.5159 2.01238C15.813 1.97239 16.071 2.02928 16.29 2.18305C16.509 2.33681 16.6185 2.55795 16.6185 2.84648ZM27.6597 6.17708C27.4387 6.40855 27.1908 6.51887 26.9161 6.50803C26.6413 6.49721 26.3728 6.40295 26.1105 6.22526C25.2534 5.61933 24.3951 5.13964 23.5354 4.7862C22.6757 4.43274 21.7284 4.15863 20.6937 3.96388C20.3868 3.91861 20.1355 3.79697 19.9398 3.59895C19.744 3.40092 19.6461 3.1501 19.6461 2.84648C19.6461 2.55795 19.7493 2.33681 19.9555 2.18305C20.1617 2.02928 20.4107 1.97239 20.7025 2.01238C21.9878 2.22222 23.165 2.54879 24.2342 2.9921C25.3034 3.43538 26.3682 4.03638 27.4285 4.7951C27.6698 4.97082 27.8213 5.19246 27.8829 5.46002C27.9446 5.72756 27.8702 5.96658 27.6597 6.17708ZM33.1532 16.3537C32.8509 16.3537 32.6055 16.2508 32.417 16.0449C32.2285 15.839 32.1014 15.5799 32.0358 15.2678C31.8312 14.2232 31.5438 13.268 31.1737 12.4025C30.8035 11.5368 30.304 10.6762 29.6751 9.8204C29.5007 9.56793 29.4094 9.30661 29.4012 9.03644C29.393 8.7663 29.4994 8.51877 29.7204 8.29384C29.9243 8.08334 30.1553 7.99957 30.4133 8.04253C30.6713 8.08547 30.8876 8.22268 31.062 8.45415C31.8508 9.51519 32.4789 10.5852 32.9461 11.6643C33.4133 12.7433 33.7604 13.9359 33.9873 15.2422C34.0273 15.5504 33.9729 15.8127 33.824 16.0291C33.6752 16.2455 33.4516 16.3537 33.1532 16.3537Z" fill="white"/>
</g>
</svg>
