<svg width="36" height="36" viewBox="0 0 36 36" fill="none" xmlns="http://www.w3.org/2000/svg">
<g id="Icons- Coditas">
<path id="Vector" d="M17.6714 22.6902C19.2562 22.6902 20.6094 22.1776 21.7311 21.1523C22.8527 20.127 23.4135 18.8799 23.4135 17.4109C23.4135 16.1437 23.0146 15.0629 22.2166 14.1686C21.4187 13.2742 20.4394 12.827 19.2787 12.827C18.2756 12.827 17.4153 13.1542 16.6978 13.8087C15.9803 14.4632 15.6215 15.2642 15.6215 16.2116C15.6215 16.6207 15.696 17.0327 15.8448 17.4476C15.9936 17.8624 16.2372 18.2196 16.5756 18.5192C16.8319 18.7675 17.0956 18.873 17.3666 18.8356C17.6377 18.7983 17.8591 18.6883 18.031 18.5056C18.2001 18.3234 18.3005 18.1066 18.3322 17.8551C18.3638 17.6035 18.2672 17.3667 18.0423 17.1448C17.9215 17.0226 17.8149 16.8836 17.7224 16.7277C17.63 16.5719 17.5838 16.4062 17.5838 16.2307C17.5838 15.8731 17.7308 15.5536 18.0248 15.2722C18.3188 14.9909 18.7368 14.8502 19.2787 14.8502C19.8781 14.8502 20.3941 15.0916 20.8266 15.5744C21.2591 16.0572 21.4753 16.6825 21.4753 17.4504C21.4753 18.3503 21.1205 19.122 20.411 19.7655C19.7014 20.409 18.8008 20.7308 17.7091 20.7308C16.4261 20.7308 15.3306 20.2139 14.4225 19.1802C13.5145 18.1464 13.0605 16.8603 13.0605 15.3219C13.0605 14.7095 13.1531 14.1132 13.3384 13.533C13.5236 12.9529 13.7947 12.4058 14.1518 11.8917C14.3093 11.6548 14.3887 11.4008 14.3901 11.1295C14.3914 10.8583 14.2936 10.6184 14.0967 10.4099C13.8932 10.2109 13.6552 10.1135 13.3829 10.1179C13.1106 10.1223 12.891 10.2382 12.7242 10.4656C12.1862 11.141 11.7742 11.8905 11.4882 12.7139C11.2022 13.5374 11.0592 14.3935 11.0592 15.2824C11.0592 17.3322 11.6992 19.0792 12.979 20.5236C14.2589 21.968 15.823 22.6902 17.6714 22.6902ZM8.68546 26.6356C7.20173 25.2672 6.04989 23.6989 5.22993 21.9306C4.40998 20.1624 4 18.3222 4 16.4101C4 12.6851 5.29067 9.51881 7.87202 6.9113C10.4533 4.30377 13.5878 3 17.2754 3C20.309 3 23.0216 3.9165 25.4134 5.74951C27.8051 7.58251 29.3584 9.96055 30.0733 12.8836L31.9562 20.4208C32.0558 20.8103 31.9855 21.1621 31.7452 21.4762C31.5049 21.7903 31.1796 21.9473 30.7691 21.9473H27.4272V27.3725C27.4272 28.0464 27.1867 28.6265 26.7057 29.1127C26.2248 29.599 25.651 29.8421 24.9844 29.8421H21.1799V32.0081C21.1799 32.2891 21.0854 32.5247 20.8964 32.7148C20.7073 32.9049 20.473 33 20.1935 33C19.9141 33 19.6816 32.9049 19.496 32.7148C19.3105 32.5247 19.2177 32.2891 19.2177 32.0081V29.1007C19.2177 28.7432 19.3348 28.4468 19.5688 28.2114C19.803 27.976 20.093 27.8583 20.4391 27.8583H24.9844C25.1245 27.8583 25.2397 27.8128 25.3298 27.7217C25.4199 27.6306 25.465 27.5142 25.465 27.3725V21.1984C25.465 20.8485 25.582 20.5553 25.8161 20.3186C26.0502 20.0819 26.3403 19.9636 26.6864 19.9636H29.798L28.1821 13.3593C27.5728 10.8762 26.2482 8.85946 24.2085 7.3092C22.1688 5.7589 19.8578 4.98376 17.2754 4.98376C14.1384 4.98376 11.4687 6.08551 9.26611 8.28902C7.06352 10.4925 5.96223 13.1779 5.96223 16.3452C5.96223 17.9855 6.2936 19.5398 6.95633 21.0081C7.61906 22.4763 8.55518 23.7791 9.76468 24.9166L10.6477 25.7551V32.0081C10.6477 32.2891 10.5532 32.5247 10.3641 32.7148C10.175 32.9049 9.94078 33 9.66132 33C9.38184 33 9.14932 32.9049 8.96378 32.7148C8.77823 32.5247 8.68546 32.2891 8.68546 32.0081V26.6356Z" fill="white"/>
</g>
</svg>
