<svg width="59" height="30" viewBox="0 0 59 30" fill="none" xmlns="http://www.w3.org/2000/svg">
<g clip-path="url(#clip0_5082_10890)">
<path d="M13.5245 19.947C12.3403 20.9696 10.997 21.9097 9.52248 22.3615C5.2156 23.6793 -0.162538 22.1611 -0.00950195 16.6713C0.156895 10.7368 8.40021 9.64736 12.7241 9.6255C12.763 9.6255 12.784 9.60607 12.7873 9.5672C12.9512 7.64089 12.6852 5.43522 10.4164 5.09878C9.44313 4.95465 8.46297 5.06841 7.47592 5.44007C6.70467 5.73157 5.39778 6.68744 4.23422 6.7008C3.19697 6.71295 2.59698 6.23441 2.08564 5.38056C1.72289 4.77408 1.36782 4.16113 1.02046 3.5417C1.00021 3.50445 1.00507 3.47125 1.03503 3.4421C1.14758 3.33279 1.26216 3.23157 1.37876 3.13846C3.78523 1.21214 6.60264 0.174893 9.83098 0.0267148C11.201 -0.0364431 12.4273 0.0898721 13.5099 0.405662C17.2047 1.4842 19.2476 4.78663 19.2524 8.53238C19.2581 13.1486 19.2561 17.7648 19.2464 22.381C19.2464 22.4206 19.2265 22.4405 19.1868 22.4405C18.084 22.4413 16.9941 22.4376 15.9172 22.4296C14.3176 22.4174 13.9727 21.2138 13.5792 19.9627C13.5775 19.9574 13.5745 19.9525 13.5705 19.9485C13.5665 19.9445 13.5615 19.9417 13.5561 19.9401C13.5507 19.9385 13.5449 19.9383 13.5394 19.9395C13.5339 19.9407 13.5288 19.9433 13.5245 19.947ZM12.2954 17.0138C12.429 16.8935 12.6342 16.7368 12.7751 16.5632C12.801 16.5308 12.814 16.4935 12.814 16.4514V13.5753C12.814 13.5316 12.7921 13.5101 12.7484 13.5109C10.8184 13.5425 5.4986 13.8024 6.39374 17.1279C6.55973 17.7441 6.91884 18.1186 7.47106 18.2514C9.28564 18.6903 10.8937 18.2777 12.2954 17.0138Z" fill="#777777"/>
<path d="M41.0452 13.0883C39.0751 12.0267 37.6638 10.2049 37.4464 7.93484C37.1075 4.41136 39.2731 1.73201 42.5148 0.686258C45.4937 -0.275685 48.4148 -0.17204 51.2779 0.997191C51.4763 1.07816 51.6763 1.11946 51.8779 1.12108C53.9265 1.13403 55.9743 1.12512 58.0213 1.09436C58.0634 1.09355 58.0848 1.11419 58.0856 1.1563C58.0889 1.87209 58.0893 2.58464 58.0869 3.29395C58.0856 4.11379 57.8816 4.55954 57.0824 4.76602C56.2508 4.98059 55.6245 5.12998 55.2035 5.21419C55.163 5.2231 55.148 5.2478 55.1585 5.28828C56.4824 10.2826 52.7439 13.7041 48.0933 14.23C46.9362 14.3603 45.7775 14.3587 44.6172 14.2251C44.5775 14.2211 44.5407 14.2288 44.5067 14.2482C43.8508 14.6296 43.5035 15.4713 44.333 15.9134C44.6407 16.0769 45.1261 16.198 45.7893 16.2765C49.5618 16.7259 57.1213 15.7433 57.6338 21.4288C58.0905 26.5045 53.2237 29.4195 48.8172 29.8956C45.3168 30.2733 38.8043 29.8567 37.0759 25.9907C35.9731 23.5215 37.2824 21.1749 39.7091 20.3247C39.8427 20.2778 39.8528 20.2126 39.7395 20.1292C39.0002 19.5867 38.5302 18.9288 38.3294 18.1555C37.7464 15.9158 39.0739 14.0551 41.0427 13.1551C41.049 13.1521 41.0543 13.1475 41.0581 13.1418C41.0618 13.136 41.064 13.1293 41.0642 13.1224C41.0645 13.1155 41.0628 13.1087 41.0595 13.1027C41.0561 13.0967 41.0512 13.0917 41.0452 13.0883ZM49.5718 7.1216C49.579 6.43615 49.3136 5.77594 48.834 5.28618C48.3543 4.79642 47.6998 4.51725 47.0144 4.51007L46.0549 4.50001C45.3695 4.49284 44.7093 4.75825 44.2195 5.23785C43.7297 5.71746 43.4506 6.37198 43.4434 7.05742L43.4375 7.6161C43.4304 8.30155 43.6958 8.96177 44.1754 9.45152C44.655 9.94128 45.3095 10.2205 45.9949 10.2276L46.9544 10.2377C47.6399 10.2449 48.3001 9.97945 48.7898 9.49985C49.2796 9.02024 49.5588 8.36572 49.5659 7.68028L49.5718 7.1216ZM49.1622 21.6304C47.4035 21.4263 45.9059 21.4701 43.8569 21.2879C43.8156 21.2846 43.7779 21.2944 43.7439 21.317C42.7941 21.9571 41.9269 23.1583 42.6715 24.3219C43.5593 25.7077 47.3184 25.5316 48.7261 25.3689C49.8885 25.234 51.3132 24.9025 51.55 23.5033C51.7808 22.132 50.2528 21.7567 49.1622 21.6304Z" fill="#777777"/>
<path d="M26.872 6.58909C26.8234 7.732 28.819 8.4073 29.6473 8.66115C32.9509 9.67653 36.8327 10.7733 37.0501 14.9757C37.225 18.3365 35.2526 21.1081 32.0655 22.1344C28.1412 23.3976 23.6728 22.7769 20.2866 20.4061C20.2315 20.3672 20.1198 20.2595 19.9514 20.083C19.9222 20.0531 19.919 20.0203 19.9416 19.9846C20.4534 19.166 20.9708 18.3531 21.4939 17.5458C22.1181 16.5838 23.3497 16.5037 24.2704 17.0612C25.74 17.9502 27.07 18.4494 28.8141 18.2806C29.9303 18.1725 31.0477 17.4304 30.8777 16.1854C30.7453 15.215 29.4651 14.6502 28.621 14.3806C25.3064 13.3203 21.4465 12.4531 20.7396 8.41216C20.2441 5.57613 21.3238 2.87856 23.8465 1.40892C27.7343 -0.855044 33.5206 -0.224681 36.891 2.86155C36.908 2.8769 36.919 2.89774 36.9221 2.9204C36.9252 2.94306 36.9202 2.96609 36.908 2.98544C36.4935 3.62998 36.0769 4.27896 35.6582 4.9324C34.9258 6.07775 34.3513 6.22593 33.1198 5.73645C32.5449 5.5073 31.9651 5.28585 31.3805 5.07208C29.9206 4.53888 26.9667 4.35184 26.872 6.58909Z" fill="#777777"/>
</g>
<defs>
<clipPath id="clip0_5082_10890">
<rect width="58.125" height="30" fill="white"/>
</clipPath>
</defs>
</svg>
