<svg width="56" height="56" viewBox="0 0 56 56" fill="none" xmlns="http://www.w3.org/2000/svg">
<g id="icon-aws-white 1">
<path id="Vector" d="M17.4219 24.1492C17.4219 24.6264 17.4826 25.1035 17.6016 25.5212C17.7206 25.8794 17.9003 26.297 18.0799 26.6552C18.1383 26.7754 18.1989 26.8944 18.1989 27.0134C18.1989 27.193 18.0788 27.3715 17.9003 27.4917L16.9448 28.1485C16.7663 28.2675 16.6461 28.327 16.5271 28.327C16.3474 28.327 16.1689 28.208 16.0488 28.089C15.8326 27.8802 15.6514 27.6379 15.5121 27.3715C15.3324 27.1335 15.2134 26.8349 15.0338 26.4767C14.4746 27.153 13.7721 27.6966 12.9771 28.0683C12.1822 28.4399 11.3146 28.6303 10.4371 28.6257C9.87042 28.6523 9.30413 28.5657 8.7713 28.371C8.23846 28.1763 7.74977 27.8774 7.33376 27.4917C5.72143 25.7009 5.84043 22.9534 7.57176 21.2827C8.64626 20.3867 10.0194 19.969 11.3926 20.0285C11.9293 20.0285 12.4671 20.0892 13.0644 20.1487C13.6715 20.2104 14.2712 20.3303 14.8553 20.5069V19.3717C14.8553 18.1782 14.6161 17.3417 14.1389 16.8645C13.6023 16.3862 12.7658 16.1482 11.5723 16.1482C10.9749 16.1482 10.4371 16.2077 9.90043 16.3874C9.32474 16.5028 8.76392 16.6829 8.22859 16.924C8.03205 16.9922 7.83277 17.0521 7.63126 17.1037C7.57293 17.1037 7.45276 17.1632 7.39326 17.1632C7.21359 17.1632 7.09459 16.9847 7.09459 16.6849V15.909C7.09459 15.7305 7.09459 15.552 7.21359 15.3724C7.33259 15.1927 7.45276 15.0737 7.63126 15.0142C8.25996 14.7042 8.92074 14.464 9.60176 14.2979C10.3776 14.1182 11.2141 13.9992 11.9899 14.0587C13.8403 14.0587 15.2134 14.4764 16.0499 15.3129C16.9448 16.1482 17.3624 17.4012 17.3624 19.1337L17.4219 24.148V24.1492ZM11.0951 26.535C11.6318 26.535 12.1696 26.416 12.7074 26.2364C13.3036 26.0579 13.7808 25.6997 14.2008 25.2214C14.4388 24.9227 14.6173 24.5645 14.7374 24.2064C14.8564 23.7887 14.9159 23.3115 14.9159 22.8332V22.237C14.3793 22.1169 13.9009 22.0574 13.4226 21.9979C12.9454 21.9384 12.4683 21.8789 11.9911 21.8789C11.1546 21.8182 10.3788 22.0574 9.66243 22.475C8.64742 23.1914 8.46893 24.5645 9.18409 25.5795C9.60293 26.2364 10.3193 26.5945 11.0951 26.535ZM23.5726 28.2069C23.3595 28.2116 23.1504 28.1487 22.9753 28.0272C22.7968 27.8487 22.6766 27.669 22.6766 27.431L19.0354 15.4307C18.9672 15.2384 18.9271 15.0372 18.9164 14.8334C18.9164 14.6549 19.0354 14.4752 19.2139 14.4752H20.8251C21.0643 14.4752 21.2428 14.4752 21.4224 14.6549C21.6009 14.8334 21.6616 15.013 21.7211 15.2522L24.3473 25.5795L26.7354 15.1915C26.7949 14.9535 26.8544 14.7739 27.0341 14.5954C27.2129 14.4817 27.4196 14.4196 27.6314 14.4157H28.8844C29.1236 14.4157 29.3021 14.4752 29.4818 14.5954C29.6614 14.7739 29.7209 14.9535 29.7804 15.1915L32.2281 25.639L34.9744 15.1915C35.0328 14.9535 35.1529 14.7739 35.2731 14.5954C35.4516 14.4819 35.6578 14.4198 35.8693 14.4157H37.3031C37.4816 14.4157 37.6613 14.5347 37.7208 14.7144V14.8334C37.7208 14.894 37.7208 15.013 37.6613 15.0725C37.6613 15.1915 37.6006 15.3117 37.5411 15.4902L33.7798 27.55C33.7214 27.7892 33.6013 27.9677 33.4811 28.1474C33.3062 28.2683 33.0975 28.3307 32.8849 28.3259H31.5701C31.3571 28.331 31.148 28.2685 30.9728 28.1474C30.7943 27.9677 30.7348 27.7285 30.6741 27.55L28.2871 17.5202L25.8989 27.55C25.8383 27.7892 25.7788 28.0284 25.6003 28.1474C25.4214 28.2607 25.2147 28.3224 25.0029 28.3259L23.5703 28.2069H23.5726ZM43.5716 28.6245C42.7671 28.6171 41.9661 28.5169 41.1846 28.3259C40.5684 28.19 39.9681 27.9898 39.3938 27.7285C39.2141 27.6095 39.0344 27.4905 38.9154 27.3109C38.8485 27.1809 38.8081 27.0389 38.7964 26.8932V26.1174C38.7964 25.8187 38.9154 25.639 39.1546 25.639C39.2579 25.63 39.3617 25.6511 39.4533 25.6997C39.5723 25.758 39.6913 25.8187 39.8709 25.8782C40.4076 26.1174 41.0049 26.2959 41.6023 26.4149C42.2119 26.5337 42.8315 26.5939 43.4526 26.5945C44.2461 26.6528 45.0384 26.4655 45.7218 26.0579C46.2584 25.7592 46.5571 25.1619 46.5571 24.5645C46.5571 24.1469 46.4381 23.7887 46.1394 23.4912C45.6696 23.1322 45.1459 22.8499 44.5878 22.6547L42.3186 21.9384C41.3631 21.6992 40.4671 21.1019 39.8103 20.326C39.3331 19.6692 39.0344 18.8934 39.0344 18.058C39.0344 17.4607 39.1546 16.8634 39.4533 16.3267C39.7508 15.8484 40.1101 15.37 40.5873 15.0725C41.0712 14.7011 41.6171 14.4183 42.1996 14.2372C42.7363 14.0575 43.3931 13.998 44.0499 13.998C44.4081 13.998 44.7663 13.998 45.0649 14.0575C45.4231 14.117 45.7218 14.1765 46.0799 14.2372C46.3774 14.2955 46.6761 14.4157 46.9748 14.4752C47.2139 14.5347 47.3924 14.6549 47.6316 14.7739C47.8113 14.894 47.9898 15.013 48.1099 15.1915C48.2289 15.3712 48.2884 15.5509 48.2289 15.7294V16.3862C48.2289 16.6849 48.1099 16.8645 47.8708 16.8645C47.6589 16.8608 47.4522 16.7986 47.2734 16.6849C46.3307 16.2814 45.3145 16.078 44.2891 16.0875C43.5728 16.028 42.8553 16.2065 42.1996 16.5052C41.7213 16.8039 41.4226 17.3417 41.4833 17.8784C41.4833 18.296 41.6618 18.7137 41.9604 19.0124C42.4388 19.4312 43.0338 19.7299 43.6918 19.8489L45.9003 20.5652C46.8341 20.7981 47.6702 21.3209 48.2884 22.0585C48.7668 22.7142 49.0048 23.4305 49.0048 24.267C49.0048 24.8632 48.8858 25.52 48.5871 26.0579C48.2884 26.5945 47.9303 27.0729 47.4531 27.431C46.9164 27.8487 46.3774 28.1474 45.7218 28.3259C45.0649 28.565 44.2891 28.6245 43.5716 28.6245Z" fill="white"/>
<path id="Vector_2" fill-rule="evenodd" clip-rule="evenodd" d="M46.4956 36.2081C41.3611 39.9694 33.9586 41.9983 27.5699 41.9983C19.0334 42.0589 10.7944 38.8949 4.40694 33.1631C3.92861 32.7454 4.34744 32.1481 4.94361 32.5063C11.9879 36.5663 19.9889 38.6546 28.1078 38.6546C34.1978 38.5963 40.1664 37.4016 45.7793 35.0146C46.6146 34.6553 47.3309 35.6108 46.4956 36.2081Z" fill="#FF9900"/>
<path id="Vector_3" fill-rule="evenodd" clip-rule="evenodd" d="M48.6438 33.8197C47.9869 32.9843 44.3458 33.402 42.6739 33.64C42.1956 33.7007 42.0766 33.2818 42.5538 32.9237C45.4798 30.8937 50.2561 31.4315 50.8523 32.1478C51.389 32.8642 50.6738 37.6405 47.987 39.9692C47.5693 40.3273 47.1516 40.1477 47.3301 39.6705C47.9275 38.1188 49.3006 34.5955 48.6438 33.8197Z" fill="#FF9900"/>
</g>
</svg>
