<svg width="56" height="56" viewBox="0 0 56 56" fill="none" xmlns="http://www.w3.org/2000/svg">
<g id="icon-azure 1">
<path id="Vector" d="M22.5078 14H31.301L22.173 41.0457C22.0792 41.3238 21.9006 41.5655 21.6622 41.7367C21.4238 41.9079 21.1377 42 20.8442 42H14.0017C13.7794 42 13.5602 41.9471 13.3624 41.8456C13.1647 41.7441 12.9939 41.597 12.8642 41.4164C12.7346 41.2358 12.6498 41.0269 12.617 40.807C12.5841 40.5872 12.604 40.3626 12.6752 40.152L21.1802 14.9543C21.2738 14.6766 21.4521 14.4352 21.6901 14.264C21.928 14.0928 22.2147 14.0005 22.5078 14Z" fill="url(#paint0_linear_1119_225014)"/>
<path id="Vector_2" d="M35.2862 32.1406H21.3422C21.2124 32.1403 21.0856 32.1791 20.9782 32.2519C20.8709 32.3248 20.788 32.4283 20.7403 32.549C20.6927 32.6697 20.6826 32.8019 20.7113 32.9285C20.74 33.055 20.8062 33.1699 20.9012 33.2583L29.8612 41.621C30.1225 41.8648 30.4655 42.0001 30.8225 42.0001H38.7185L35.2862 32.1406Z" fill="#0078D4"/>
<path id="Vector_3" d="M22.5055 14C22.2092 13.9992 21.9204 14.093 21.6812 14.2678C21.4419 14.4426 21.2648 14.6893 21.1755 14.9718L12.6834 40.1298C12.6077 40.3413 12.584 40.5678 12.6144 40.7903C12.6448 41.0128 12.7282 41.2247 12.8578 41.4081C12.9873 41.5915 13.1591 41.741 13.3586 41.8441C13.5581 41.9471 13.7795 42.0006 14.004 42H21.0239C21.2854 41.9532 21.5298 41.8379 21.7321 41.6657C21.9344 41.4935 22.0874 41.2707 22.1754 41.02L23.867 36.0302L29.9162 41.671C30.1705 41.881 30.4879 41.9977 30.8169 42H38.6825L35.2327 32.1417L25.176 32.1428L31.3314 14H22.5055Z" fill="url(#paint1_linear_1119_225014)"/>
<path id="Vector_4" d="M33.7398 14.952C33.6461 14.6745 33.4676 14.4334 33.2297 14.2626C32.9917 14.0918 32.7062 14 32.4133 14H22.6133C22.9062 14 23.1917 14.0918 23.4297 14.2626C23.6676 14.4334 23.8461 14.6745 23.9398 14.952L32.4448 40.152C32.5159 40.3626 32.5359 40.5872 32.503 40.807C32.4701 41.0269 32.3854 41.2358 32.2557 41.4164C32.1261 41.597 31.9553 41.7441 31.7575 41.8456C31.5597 41.9471 31.3406 42 31.1183 42H40.9183C41.1406 42 41.3597 41.9471 41.5575 41.8456C41.7553 41.7441 41.9261 41.597 42.0557 41.4164C42.1854 41.2358 42.2701 41.0269 42.303 40.807C42.3359 40.5872 42.3159 40.3626 42.2448 40.152L33.7398 14.952Z" fill="url(#paint2_linear_1119_225014)"/>
</g>
<defs>
<linearGradient id="paint0_linear_1119_225014" x1="25.7127" y1="16.0743" x2="16.5812" y2="43.0535" gradientUnits="userSpaceOnUse">
<stop stop-color="#114A8B"/>
<stop offset="1" stop-color="#0669BC"/>
</linearGradient>
<linearGradient id="paint1_linear_1119_225014" x1="28.564" y1="28.6475" x2="26.4512" y2="29.3615" gradientUnits="userSpaceOnUse">
<stop stop-opacity="0.3"/>
<stop offset="0.071" stop-opacity="0.2"/>
<stop offset="0.321" stop-opacity="0.1"/>
<stop offset="0.623" stop-opacity="0.05"/>
<stop offset="1" stop-opacity="0"/>
</linearGradient>
<linearGradient id="paint2_linear_1119_225014" x1="27.4036" y1="15.288" x2="37.4288" y2="41.9942" gradientUnits="userSpaceOnUse">
<stop stop-color="#3CCBF4"/>
<stop offset="1" stop-color="#2892DF"/>
</linearGradient>
</defs>
</svg>
