<svg width="36" height="36" viewBox="0 0 36 36" fill="none" xmlns="http://www.w3.org/2000/svg">
<path d="M5.96532 17.9394L12.623 24.5971C12.7903 24.7644 12.8725 24.962 12.8697 25.1899C12.8668 25.4178 12.7769 25.6202 12.6 25.7971C12.423 25.974 12.2192 26.0625 11.9884 26.0625C11.7577 26.0625 11.5538 25.974 11.3769 25.7971L4.2779 18.6981C4.16252 18.5827 4.07983 18.4649 4.02983 18.3447C3.97983 18.2245 3.95483 18.0894 3.95483 17.9394C3.95483 17.799 3.97983 17.6687 4.02983 17.5486C4.07983 17.4284 4.16252 17.3058 4.2779 17.1808L11.4606 10.0125C11.6279 9.84523 11.8293 9.75917 12.0649 9.75434C12.3005 9.74954 12.5067 9.8356 12.6836 10.0125C12.8509 10.1798 12.9345 10.3813 12.9345 10.6168C12.9345 10.8524 12.8509 11.0539 12.6836 11.2212L5.96532 17.9394ZM30.0346 17.9538L23.3769 11.2817C23.2096 11.1144 23.1274 10.9168 23.1303 10.689C23.1332 10.4611 23.2231 10.2635 23.4 10.0962C23.5769 9.91925 23.7807 9.8308 24.0115 9.8308C24.2423 9.8308 24.4461 9.91925 24.623 10.0962L31.722 17.1808C31.8374 17.3058 31.9225 17.4284 31.9773 17.5486C32.0321 17.6687 32.0595 17.799 32.0595 17.9394C32.0595 18.0894 32.0321 18.2245 31.9773 18.3447C31.9225 18.4649 31.8374 18.5827 31.722 18.6981L24.5394 25.8807C24.3721 26.048 24.1745 26.1302 23.9466 26.1274C23.7187 26.1245 23.5211 26.0346 23.3538 25.8577C23.1769 25.6807 23.0885 25.4769 23.0885 25.2462C23.0885 25.0154 23.1769 24.8115 23.3538 24.6346L30.0346 17.9538Z" fill="white"/>
</svg>
