<svg width="133" height="40" viewBox="0 0 133 40" fill="none" xmlns="http://www.w3.org/2000/svg">
<g id="Logo-Basix">
<g id="Group">
<path id="Rectangle-1-copy-3" d="M24.3807 10.9173L3 3.41602L10.0676 16.5978L31.4483 24.0991L24.3807 10.9173Z" fill="white" stroke="#555555" stroke-width="2.10812"/>
<path id="Rectangle-1-copy" d="M11.1205 15.5547L32.0998 22.8755L24.0653 38.5002L3.08594 31.1821L11.1205 15.5547Z" fill="white" stroke="#555555" stroke-width="2.10812"/>
<path id="Path" d="M18.3705 1.5L39.3498 8.82081L31.3153 24.4455L10.3359 17.1247L18.3705 1.5Z" fill="white" stroke="#555555" stroke-width="2.10812"/>
<path id="Rectangle-1-copy-2" d="M31.7166 24.5774L10.3359 17.0762L17.4036 30.2579L38.7842 37.7592L31.7166 24.5774Z" fill="white" stroke="#555555" stroke-width="2.10812"/>
</g>
<g id="basix.ai">
<path id="basix.ai_2" fill-rule="evenodd" clip-rule="evenodd" d="M83.1721 14.912C83.5258 14.912 83.8101 14.8078 84.0249 14.5993C84.2397 14.3908 84.347 14.1224 84.347 13.7939C84.347 13.4654 84.2397 13.1969 84.0249 12.9885C83.8101 12.78 83.5258 12.6758 83.1721 12.6758C82.831 12.6758 82.5562 12.78 82.3477 12.9885C82.1393 13.1969 82.035 13.4654 82.035 13.7939C82.035 14.1224 82.1393 14.3908 82.3477 14.5993C82.5562 14.8078 82.831 14.912 83.1721 14.912ZM49.4956 27.5333C50.7464 27.5333 51.7192 27.0563 52.4141 26.1025C53.1089 25.1486 53.4564 23.8883 53.4564 22.3217C53.4564 20.6793 53.1532 19.4033 52.5467 18.4936C51.9403 17.584 50.9991 17.1291 49.723 17.1291C48.586 17.1291 47.6321 17.6345 46.8614 18.6452V13.1305L45.2695 13.32V27.3248H46.6719L46.7856 26.2825C47.4426 27.1163 48.3459 27.5333 49.4956 27.5333ZM49.1361 26.2449C48.6687 26.2449 48.2391 26.1312 47.8475 25.9038C47.4558 25.6764 47.1273 25.3606 46.862 24.9563V20.0101C47.1779 19.5552 47.5474 19.1762 47.9707 18.873C48.3939 18.5698 48.8582 18.4182 49.3636 18.4182C50.1469 18.4182 50.7375 18.7467 51.1355 19.4036C51.5335 20.0606 51.7324 21.0334 51.7324 22.3221C51.7324 23.6234 51.5082 24.6025 51.0597 25.2595C50.6112 25.9165 49.97 26.2449 49.1361 26.2449ZM64.618 26.4153L64.22 27.5523C63.2472 27.426 62.6408 26.9522 62.4007 26.131C62.047 26.5858 61.6016 26.9333 61.0647 27.1733C60.5277 27.4133 59.9308 27.5334 59.2738 27.5334C58.2757 27.5334 57.4893 27.2554 56.9144 26.6995C56.3396 26.1436 56.0521 25.3982 56.0521 24.4633C56.0521 23.4399 56.4533 22.6503 57.2555 22.0944C58.0578 21.5385 59.2106 21.2606 60.7141 21.2606H62.1923V20.4457C62.1923 19.7382 61.9901 19.2297 61.5858 18.9201C61.1815 18.6106 60.5941 18.4558 59.8234 18.4558C59.0653 18.4558 58.1999 18.6264 57.2271 18.9675L56.7912 17.7546C57.9662 17.3377 59.059 17.1293 60.0697 17.1293C61.2826 17.1293 62.2081 17.4135 62.8461 17.9821C63.4841 18.5506 63.8031 19.3402 63.8031 20.3509V25.1455C63.8031 25.5372 63.8663 25.8246 63.9926 26.0078C64.1189 26.191 64.3274 26.3268 64.618 26.4153ZM59.6727 26.3398C58.3967 26.3398 57.7587 25.7081 57.7587 24.4447C57.7587 23.7624 57.9924 23.2444 58.4598 22.8907C58.9273 22.5369 59.6917 22.3601 60.7529 22.3601H62.1932V24.9184C61.9026 25.3606 61.5331 25.7081 61.0846 25.9608C60.636 26.2134 60.1654 26.3398 59.6727 26.3398ZM74.3968 26.7943C73.5882 27.287 72.5965 27.5334 71.4215 27.5334C69.8549 27.5334 68.5536 27.0849 67.5176 26.1878L68.4083 25.1455C68.8126 25.474 69.2737 25.7362 69.7917 25.932C70.3097 26.1278 70.853 26.2257 71.4215 26.2257C72.1795 26.2257 72.7797 26.0805 73.2219 25.7899C73.664 25.4993 73.8851 25.114 73.8851 24.6339C73.8851 24.3054 73.8283 24.0369 73.7146 23.8284C73.6009 23.62 73.3735 23.4305 73.0323 23.2599C72.6912 23.0894 72.1732 22.9156 71.4784 22.7388C70.316 22.4482 69.4569 22.0976 68.901 21.687C68.3451 21.2764 68.0672 20.6668 68.0672 19.8582C68.0672 19.0244 68.4146 18.3611 69.1095 17.8683C69.8044 17.3756 70.7203 17.1293 71.8574 17.1293C73.2471 17.1293 74.46 17.4956 75.496 18.2284L74.7758 19.3276C74.3589 19.037 73.923 18.8127 73.4682 18.6548C73.0134 18.4969 72.4891 18.4179 71.8953 18.4179C70.455 18.4179 69.7349 18.8538 69.7349 19.7255C69.7349 20.0288 69.8138 20.2751 69.9718 20.4646C70.1297 20.6541 70.3887 20.8215 70.7487 20.9668C71.1088 21.1121 71.6489 21.2858 72.3691 21.488C73.4556 21.7786 74.2673 22.1481 74.8043 22.5966C75.3412 23.0451 75.6097 23.6989 75.6097 24.5581C75.6097 25.5561 75.2054 26.3016 74.3968 26.7943ZM87.2466 26.0553V27.325H79.7799V26.0553H82.85V18.6075H79.8747V17.3378H84.4419V26.0553H87.2466ZM91.737 27.325L94.4849 23.0421L97.2328 27.325H99.1658L95.4893 21.9808L98.7299 17.3378H96.8917L94.5607 21.0522L92.2487 17.3378H90.3536L93.5942 22.0566L89.9177 27.325H91.737ZM107.088 27.0597C106.772 27.3756 106.374 27.5335 105.894 27.5335C105.426 27.5335 105.032 27.3724 104.709 27.0503C104.387 26.7281 104.226 26.3333 104.226 25.8658C104.226 25.3984 104.387 25.0036 104.709 24.6814C105.032 24.3592 105.426 24.1981 105.894 24.1981C106.374 24.1981 106.772 24.3592 107.088 24.6814C107.404 25.0036 107.561 25.3984 107.561 25.8658C107.561 26.3459 107.404 26.7439 107.088 27.0597ZM121.074 27.5523L121.471 26.4153C121.181 26.3268 120.972 26.191 120.846 26.0078C120.72 25.8246 120.657 25.5372 120.657 25.1455V20.3509C120.657 19.3402 120.338 18.5506 119.7 17.9821C119.062 17.4135 118.136 17.1293 116.923 17.1293C115.913 17.1293 114.82 17.3377 113.645 17.7546L114.081 18.9675C115.053 18.6264 115.919 18.4558 116.677 18.4558C117.448 18.4558 118.035 18.6106 118.439 18.9201C118.844 19.2297 119.046 19.7382 119.046 20.4457V21.2606H117.568C116.064 21.2606 114.911 21.5385 114.109 22.0944C113.307 22.6503 112.906 23.4399 112.906 24.4633C112.906 25.3982 113.193 26.1436 113.768 26.6995C114.343 27.2554 115.129 27.5334 116.127 27.5334C116.784 27.5334 117.381 27.4133 117.918 27.1733C118.455 26.9333 118.9 26.5858 119.254 26.131C119.494 26.9522 120.101 27.426 121.074 27.5523ZM114.611 24.4447C114.611 25.7081 115.249 26.3398 116.525 26.3398C117.018 26.3398 117.488 26.2134 117.937 25.9608C118.385 25.7081 118.755 25.3606 119.045 24.9184V22.3601H117.605C116.544 22.3601 115.78 22.5369 115.312 22.8907C114.845 23.2444 114.611 23.7624 114.611 24.4447ZM128.654 14.912C129.008 14.912 129.292 14.8078 129.507 14.5993C129.721 14.3908 129.829 14.1224 129.829 13.7939C129.829 13.4654 129.721 13.1969 129.507 12.9885C129.292 12.78 129.008 12.6758 128.654 12.6758C128.313 12.6758 128.038 12.78 127.829 12.9885C127.621 13.1969 127.517 13.4654 127.517 13.7939C127.517 14.1224 127.621 14.3908 127.829 14.5993C128.038 14.8078 128.313 14.912 128.654 14.912ZM132.728 26.0553V27.325H125.262V26.0553H128.332V18.6075H125.356V17.3378H129.924V26.0553H132.728Z" fill="#555555"/>
</g>
</g>
</svg>
