<svg width="140" height="41" viewBox="0 0 140 41" fill="none" xmlns="http://www.w3.org/2000/svg">
<path d="M25.3807 11.4164L4 3.91516L11.0676 17.0969L32.4483 24.5982L25.3807 11.4164Z" fill="white" stroke="#555555" stroke-width="2.10812"/>
<path d="M12.1205 16.0546L33.0998 23.3754L25.0653 39.0001L4.08594 31.682L12.1205 16.0546Z" fill="white" stroke="#555555" stroke-width="2.10812"/>
<path d="M19.3686 2L40.3479 9.32081L32.3133 24.9455L11.334 17.6247L19.3686 2Z" fill="white" stroke="#555555" stroke-width="2.10812"/>
<path d="M32.7146 25.0774L11.334 17.5762L18.4016 30.7579L39.7823 38.2592L32.7146 25.0774Z" fill="white" stroke="#555555" stroke-width="2.10812"/>
<path fill-rule="evenodd" clip-rule="evenodd" d="M84.174 15.4115C84.5278 15.4115 84.8121 15.3073 85.0268 15.0988C85.2416 14.8904 85.349 14.6219 85.349 14.2934C85.349 13.9649 85.2416 13.6964 85.0268 13.488C84.8121 13.2795 84.5278 13.1753 84.174 13.1753C83.8329 13.1753 83.5581 13.2795 83.3497 13.488C83.1412 13.6964 83.037 13.9649 83.037 14.2934C83.037 14.6219 83.1412 14.8904 83.3497 15.0988C83.5581 15.3073 83.8329 15.4115 84.174 15.4115ZM50.4976 28.0328C51.7483 28.0328 52.7211 27.5558 53.416 26.602C54.1109 25.6481 54.4583 24.3879 54.4583 22.8212C54.4583 21.1788 54.1551 19.9028 53.5487 18.9931C52.9422 18.0835 52.001 17.6287 50.725 17.6287C49.5879 17.6287 48.634 18.134 47.8634 19.1447V13.63L46.2715 13.8195V27.8243H47.6739L47.7876 26.782C48.4445 27.6158 49.3479 28.0328 50.4976 28.0328ZM50.1381 26.7445C49.6706 26.7445 49.2411 26.6307 48.8494 26.4033C48.4578 26.1759 48.1293 25.8601 47.864 25.4558V20.5096C48.1798 20.0547 48.5494 19.6757 48.9726 19.3725C49.3959 19.0693 49.8602 18.9177 50.3655 18.9177C51.1488 18.9177 51.7395 19.2462 52.1374 19.9031C52.5354 20.5601 52.7344 21.5329 52.7344 22.8216C52.7344 24.1229 52.5101 25.102 52.0616 25.759C51.6131 26.416 50.9719 26.7445 50.1381 26.7445ZM65.6199 26.9148L65.222 28.0518C64.2492 27.9255 63.6427 27.4517 63.4027 26.6305C63.0489 27.0853 62.6036 27.4328 62.0666 27.6728C61.5297 27.9129 60.9327 28.0329 60.2758 28.0329C59.2777 28.0329 58.4912 27.7549 57.9164 27.199C57.3415 26.6431 57.0541 25.8977 57.0541 24.9628C57.0541 23.9395 57.4552 23.1498 58.2575 22.5939C59.0597 22.038 60.2126 21.7601 61.716 21.7601H63.1942V20.9452C63.1942 20.2377 62.9921 19.7292 62.5878 19.4196C62.1835 19.1101 61.596 18.9553 60.8253 18.9553C60.0673 18.9553 59.2019 19.1259 58.229 19.467L57.7932 18.2542C58.9681 17.8372 60.061 17.6288 61.0717 17.6288C62.2846 17.6288 63.21 17.913 63.848 18.4816C64.486 19.0501 64.8051 19.8397 64.8051 20.8504V25.6451C64.8051 26.0367 64.8682 26.3241 64.9946 26.5073C65.1209 26.6905 65.3294 26.8263 65.6199 26.9148ZM60.6747 26.8393C59.3986 26.8393 58.7606 26.2076 58.7606 24.9442C58.7606 24.2619 58.9943 23.744 59.4618 23.3902C59.9293 23.0364 60.6936 22.8596 61.7549 22.8596H63.1951V25.418C62.9046 25.8601 62.535 26.2076 62.0865 26.4603C61.638 26.7129 61.1674 26.8393 60.6747 26.8393ZM75.3988 27.2938C74.5902 27.7865 73.5984 28.0329 72.4235 28.0329C70.8568 28.0329 69.5555 27.5844 68.5196 26.6874L69.4102 25.6451C69.8145 25.9735 70.2757 26.2357 70.7937 26.4315C71.3117 26.6273 71.8549 26.7253 72.4235 26.7253C73.1815 26.7253 73.7816 26.58 74.2238 26.2894C74.666 25.9988 74.8871 25.6135 74.8871 25.1334C74.8871 24.8049 74.8302 24.5364 74.7165 24.328C74.6028 24.1195 74.3754 23.93 74.0343 23.7594C73.6932 23.5889 73.1752 23.4151 72.4803 23.2383C71.318 22.9477 70.4589 22.5971 69.903 22.1865C69.3471 21.7759 69.0691 21.1663 69.0691 20.3577C69.0691 19.5239 69.4166 18.8606 70.1114 18.3679C70.8063 17.8751 71.7223 17.6288 72.8593 17.6288C74.2491 17.6288 75.4619 17.9952 76.4979 18.7279L75.7778 19.8271C75.3609 19.5365 74.925 19.3123 74.4702 19.1543C74.0153 18.9964 73.491 18.9174 72.8972 18.9174C71.457 18.9174 70.7368 19.3533 70.7368 20.2251C70.7368 20.5283 70.8158 20.7746 70.9737 20.9641C71.1316 21.1537 71.3906 21.3211 71.7507 21.4664C72.1108 21.6116 72.6509 21.7854 73.371 21.9875C74.4575 22.2781 75.2693 22.6476 75.8062 23.0961C76.3432 23.5446 76.6116 24.1985 76.6116 25.0576C76.6116 26.0557 76.2073 26.8011 75.3988 27.2938ZM88.2486 26.5548V27.8245H80.7819V26.5548H83.852V19.1071H80.8766V17.8373H85.4438V26.5548H88.2486ZM92.7389 27.8245L95.4868 23.5416L98.2347 27.8245H100.168L96.4912 22.4803L99.7319 17.8373H97.8936L95.5626 21.5517L93.2506 17.8373H91.3555L94.5961 22.5561L90.9196 27.8245H92.7389ZM108.09 27.5593C107.774 27.8751 107.376 28.033 106.896 28.033C106.428 28.033 106.033 27.8719 105.711 27.5498C105.389 27.2276 105.228 26.8328 105.228 26.3653C105.228 25.8979 105.389 25.5031 105.711 25.1809C106.033 24.8587 106.428 24.6976 106.896 24.6976C107.376 24.6976 107.774 24.8587 108.09 25.1809C108.405 25.5031 108.563 25.8979 108.563 26.3653C108.563 26.8454 108.405 27.2434 108.09 27.5593ZM122.075 28.0518L122.473 26.9148C122.183 26.8263 121.974 26.6905 121.848 26.5073C121.722 26.3241 121.659 26.0367 121.659 25.6451V20.8504C121.659 19.8397 121.34 19.0501 120.702 18.4816C120.064 17.913 119.138 17.6288 117.925 17.6288C116.914 17.6288 115.822 17.8372 114.647 18.2542L115.083 19.467C116.055 19.1259 116.921 18.9553 117.679 18.9553C118.45 18.9553 119.037 19.1101 119.441 19.4196C119.846 19.7292 120.048 20.2377 120.048 20.9452V21.7601H118.57C117.066 21.7601 115.913 22.038 115.111 22.5939C114.309 23.1498 113.908 23.9395 113.908 24.9628C113.908 25.8977 114.195 26.6431 114.77 27.199C115.345 27.7549 116.131 28.0329 117.129 28.0329C117.786 28.0329 118.383 27.9129 118.92 27.6728C119.457 27.4328 119.902 27.0853 120.256 26.6305C120.496 27.4517 121.103 27.9255 122.075 28.0518ZM115.613 24.9442C115.613 26.2076 116.251 26.8393 117.527 26.8393C118.02 26.8393 118.49 26.7129 118.939 26.4603C119.387 26.2076 119.757 25.8601 120.047 25.418V22.8596H118.607C117.546 22.8596 116.781 23.0364 116.314 23.3902C115.847 23.744 115.613 24.2619 115.613 24.9442ZM129.656 15.4115C130.01 15.4115 130.294 15.3073 130.509 15.0988C130.723 14.8904 130.831 14.6219 130.831 14.2934C130.831 13.9649 130.723 13.6964 130.509 13.488C130.294 13.2795 130.01 13.1753 129.656 13.1753C129.315 13.1753 129.04 13.2795 128.831 13.488C128.623 13.6964 128.519 13.9649 128.519 14.2934C128.519 14.6219 128.623 14.8904 128.831 15.0988C129.04 15.3073 129.315 15.4115 129.656 15.4115ZM133.73 26.5548V27.8245H126.264V26.5548H129.334V19.1071H126.358V17.8373H130.926V26.5548H133.73Z" fill="#555555"/>
</svg>
