<svg width="36" height="36" viewBox="0 0 36 36" fill="none" xmlns="http://www.w3.org/2000/svg">
<g id="Icons- Data science">
<path id="Vector" d="M17.1618 32.6396L13.7353 29.1883H7.39216C6.73482 29.1883 6.17179 28.95 5.70307 28.4734C5.23436 27.9967 5 27.4319 5 26.7788V5.40949C5 4.74738 5.23436 4.18028 5.70307 3.70816C6.17179 3.23605 6.73482 3 7.39216 3H28.6078C29.2562 3 29.817 3.23605 30.2902 3.70816C30.7634 4.18028 31 4.74738 31 5.40949V26.7788C31 27.4319 30.7634 27.9967 30.2902 28.4734C29.817 28.95 29.2562 29.1883 28.6078 29.1883H22.2647L18.8382 32.6396C18.5985 32.8799 18.3188 33 17.9991 33C17.6794 33 17.4003 32.8799 17.1618 32.6396ZM7.39216 27.2529H14.5196L18 30.7585L21.4804 27.2529H28.6078C28.7451 27.2529 28.8579 27.2084 28.9461 27.1196C29.0344 27.0307 29.0785 26.9171 29.0785 26.7788V5.40949C29.0785 5.27123 29.0344 5.15766 28.9461 5.06877C28.8579 4.97988 28.7451 4.93544 28.6078 4.93544H7.39216C7.25489 4.93544 7.14214 4.97988 7.05389 5.06877C6.96564 5.15766 6.92152 5.27123 6.92152 5.40949V26.7788C6.92152 26.9171 6.96564 27.0307 7.05389 27.1196C7.14214 27.2084 7.25489 27.2529 7.39216 27.2529ZM20.0029 18.1432L23.197 16.7271C23.4389 16.6216 23.5598 16.4287 23.5598 16.1483C23.5598 15.868 23.4389 15.6771 23.197 15.5757L20.0029 14.1597L18.5873 10.9424C18.4888 10.6923 18.3004 10.5672 18.0222 10.5672C17.744 10.5672 17.5546 10.6923 17.4539 10.9424L16.0226 14.1597L12.8441 15.5757C12.5958 15.6749 12.4716 15.8647 12.4716 16.145C12.4716 16.4253 12.5958 16.6194 12.8441 16.7271L16.0226 18.1432L17.4539 21.3604C17.5524 21.6106 17.7407 21.7357 18.0189 21.7357C18.2972 21.7357 18.4866 21.6106 18.5873 21.3604L20.0029 18.1432Z" fill="#2C74D6"/>
</g>
</svg>
