<svg width="36" height="36" viewBox="0 0 36 36" fill="none" xmlns="http://www.w3.org/2000/svg">
<g id="Icons- Data science">
<path id="Vector" d="M14.2247 32C12.918 32 11.8027 31.5326 10.8789 30.5979C9.95497 29.6632 9.44583 28.5691 9.35144 27.3156C7.86999 27.1286 6.63394 26.4695 5.64328 25.3384C4.65263 24.2073 4.1573 22.8572 4.1573 21.2881C4.1573 20.7431 4.22703 20.2101 4.3665 19.689C4.50599 19.168 4.7152 18.6731 4.99413 18.2044C4.66277 17.7199 4.41424 17.2014 4.24854 16.6492C4.08285 16.0969 4 15.5061 4 14.8767C4 13.3342 4.52486 12.0037 5.57457 10.8854C6.62432 9.76707 7.90041 9.12065 9.40285 8.94615L9.39234 8.82101C9.38885 8.77928 9.3871 8.73234 9.3871 8.6802C9.42626 7.37042 9.91441 6.26294 10.8516 5.35775C11.7888 4.45258 12.9187 4 14.2415 4C15.0329 4 15.7205 4.14877 16.3043 4.44632C16.888 4.74389 17.4533 5.1798 18 5.75404C18.5516 5.1798 19.1127 4.74389 19.6832 4.44632C20.2536 4.14877 20.9398 4 21.7417 4C23.0314 4 24.1418 4.4538 25.0728 5.36141C26.0037 6.26901 26.4944 7.3725 26.5447 8.67187V8.81787C26.5447 8.86307 26.5395 8.90305 26.529 8.93781C28.0426 9.08311 29.3328 9.71837 30.3997 10.8436C31.4666 11.9688 32 13.3132 32 14.8767C32 15.5061 31.91 16.1015 31.73 16.6627C31.5499 17.224 31.2977 17.7435 30.9734 18.2211C31.2523 18.7071 31.4669 19.2191 31.6172 19.7571C31.7675 20.2951 31.8427 20.8346 31.8427 21.3757C31.8427 22.9538 31.346 24.2942 30.3525 25.3968C29.3591 26.4994 28.1164 27.139 26.6244 27.3156C26.5301 28.5691 26.0221 29.6632 25.1007 30.5979C24.1792 31.5326 23.0743 32 21.7858 32C20.9608 32 20.2643 31.8554 19.6962 31.5662C19.1282 31.277 18.5628 30.84 18 30.2553C17.4316 30.84 16.8622 31.277 16.2917 31.5662C15.7212 31.8554 15.0322 32 14.2247 32ZM19.0277 8.68228V27.3177C19.0277 28.0524 19.2987 28.6758 19.8409 29.188C20.3831 29.7001 21.0392 29.9561 21.8093 29.9561C22.5466 29.9561 23.18 29.6672 23.7096 29.0895C24.2392 28.5118 24.5285 27.8739 24.5774 27.1759C23.8601 27.032 23.1947 26.7701 22.5812 26.3901C21.9677 26.0102 21.4492 25.5206 21.0255 24.9213C20.8381 24.6828 20.7674 24.4308 20.8134 24.1652C20.8595 23.8997 21.0067 23.6772 21.2551 23.4979C21.5019 23.3185 21.7608 23.2517 22.0319 23.2974C22.3029 23.3432 22.5264 23.4896 22.7023 23.7366C23.063 24.2553 23.5196 24.6502 24.0719 24.9213C24.6242 25.1925 25.2213 25.328 25.8631 25.328C26.9586 25.328 27.8865 24.9556 28.6468 24.2106C29.4072 23.4657 29.7873 22.5207 29.7873 21.3757C29.7873 21.1122 29.759 20.8493 29.7024 20.5872C29.6457 20.3252 29.5709 20.0603 29.478 19.7926C29.0032 20.1458 28.4735 20.4159 27.8887 20.6029C27.3038 20.7899 26.6958 20.8834 26.0644 20.8834C25.7685 20.8834 25.5233 20.7866 25.3287 20.593C25.1341 20.3994 25.0368 20.1553 25.0368 19.8609C25.0368 19.5665 25.1341 19.3227 25.3287 19.1294C25.5233 18.9362 25.7685 18.8395 26.0644 18.8395C27.153 18.8395 28.0718 18.4542 28.821 17.6835C29.5701 16.9129 29.9447 15.9773 29.9447 14.8767C29.9447 13.8105 29.5624 12.9001 28.7979 12.1457C28.0334 11.3913 27.1285 10.9897 26.0833 10.941C25.8226 11.5202 25.4567 12.0284 24.9858 12.4657C24.515 12.9029 23.9782 13.2356 23.3756 13.4637C23.1064 13.5665 22.8449 13.5592 22.591 13.4417C22.3372 13.3243 22.1684 13.13 22.0847 12.8588C21.998 12.5912 22.0078 12.3282 22.114 12.0699C22.2203 11.8117 22.4133 11.636 22.6929 11.5428C23.2334 11.3579 23.6679 11.0197 23.9965 10.5281C24.325 10.0366 24.4893 9.47919 24.4893 8.8559C24.4893 8.07413 24.2216 7.41002 23.6862 6.86357C23.1508 6.31712 22.5079 6.0439 21.7576 6.0439C21.0074 6.0439 20.3648 6.29995 19.8299 6.81204C19.2951 7.32414 19.0277 7.94755 19.0277 8.68228ZM16.9723 27.3177V8.68228C16.9723 7.94755 16.7074 7.32414 16.1775 6.81204C15.6477 6.29995 15.0021 6.0439 14.2406 6.0439C13.4903 6.0439 12.8432 6.31733 12.2993 6.86418C11.7554 7.41107 11.4834 8.07759 11.4834 8.86375C11.4834 9.48319 11.6452 10.0355 11.9689 10.5208C12.2926 11.0061 12.7212 11.3377 13.2546 11.5157C13.5308 11.6089 13.7314 11.7837 13.8566 12.0402C13.9817 12.2968 14.0018 12.5544 13.917 12.8132C13.8044 13.0831 13.6166 13.2811 13.3535 13.4071C13.0905 13.5331 12.8191 13.5412 12.5394 13.4313C11.9368 13.2144 11.4046 12.8899 10.9428 12.4578C10.481 12.0258 10.1163 11.5202 9.84853 10.941C8.83058 11.0078 7.9439 11.4164 7.18849 12.1669C6.43309 12.9174 6.05538 13.8224 6.05538 14.8818C6.05538 15.979 6.42994 16.9129 7.17904 17.6835C7.92818 18.4542 8.84702 18.8395 9.93556 18.8395C10.2315 18.8395 10.4767 18.9364 10.6713 19.13C10.866 19.3236 10.9633 19.5676 10.9633 19.862C10.9633 20.1564 10.866 20.4003 10.6713 20.5935C10.4767 20.7868 10.2315 20.8834 9.93556 20.8834C9.30424 20.8834 8.69617 20.7871 8.11134 20.5946C7.52654 20.402 6.99677 20.1347 6.52204 19.7926C6.41788 20.038 6.34029 20.2873 6.28924 20.5403C6.2382 20.7934 6.21268 21.0517 6.21268 21.3152C6.21268 22.4602 6.59004 23.4153 7.34477 24.1804C8.09946 24.9455 9.0211 25.328 10.1097 25.328C10.7504 25.328 11.3463 25.1871 11.8974 24.9051C12.4485 24.6232 12.9097 24.2337 13.2809 23.7366C13.4568 23.5077 13.6831 23.3658 13.9597 23.311C14.2364 23.2562 14.4925 23.3159 14.7281 23.49C14.9567 23.6711 15.0972 23.8981 15.1497 24.171C15.2021 24.4438 15.1381 24.6939 14.9578 24.9213C14.5236 25.5206 14.0011 26.0116 13.3905 26.3943C12.7798 26.777 12.1192 27.0368 11.4089 27.1738C11.4509 27.8787 11.7424 28.5187 12.2835 29.0937C12.8247 29.6686 13.4695 29.9561 14.2179 29.9561C14.9811 29.9561 15.6309 29.7001 16.1675 29.188C16.704 28.6758 16.9723 28.0524 16.9723 27.3177Z" fill="#2C74D6"/>
</g>
</svg>
