<svg width="36" height="36" viewBox="0 0 36 36" fill="none" xmlns="http://www.w3.org/2000/svg">
<g id="Business problem">
<path id="Vector" d="M10.3649 23.4C10.6748 23.4 10.9376 23.3012 11.1533 23.1034C11.3691 22.9057 11.477 22.6666 11.477 22.3863C11.477 22.106 11.3688 21.8658 11.1523 21.6658C10.936 21.4658 10.6744 21.3658 10.3676 21.3658C10.0609 21.3658 9.79807 21.4662 9.5792 21.6668C9.36033 21.8675 9.2509 22.1065 9.2509 22.3838C9.2509 22.667 9.3607 22.9072 9.58029 23.1043C9.79989 23.3015 10.0614 23.4 10.3649 23.4ZM10.3689 19.2889C10.63 19.2889 10.8472 19.2086 11.0205 19.0481C11.1939 18.8876 11.2805 18.6886 11.2805 18.4513V13.3521C11.2805 13.1148 11.1922 12.9158 11.0156 12.7553C10.839 12.5948 10.6201 12.5145 10.359 12.5145C10.0979 12.5145 9.88069 12.5948 9.70735 12.7553C9.534 12.9158 9.44733 13.1148 9.44733 13.3521V18.4513C9.44733 18.6886 9.53565 18.8876 9.71227 19.0481C9.8889 19.2086 10.1078 19.2889 10.3689 19.2889ZM16.5409 21.4684H25.636C25.8958 21.4684 26.1135 21.3877 26.2892 21.2263C26.4648 21.0649 26.5527 20.8649 26.5527 20.6263C26.5527 20.3877 26.4648 20.1892 26.2892 20.0308C26.1135 19.8724 25.8958 19.7932 25.636 19.7932H16.5409C16.2812 19.7932 16.0635 19.8739 15.8878 20.0353C15.7121 20.1967 15.6243 20.3967 15.6243 20.6353C15.6243 20.8739 15.7121 21.0724 15.8878 21.2308C16.0635 21.3892 16.2812 21.4684 16.5409 21.4684ZM16.5409 15.9589H25.636C25.8958 15.9589 26.1135 15.8782 26.2892 15.7168C26.4648 15.5554 26.5527 15.3555 26.5527 15.1169C26.5527 14.8783 26.4648 14.6798 26.2892 14.5214C26.1135 14.363 25.8958 14.2838 25.636 14.2838H16.5409C16.2812 14.2838 16.0635 14.3645 15.8878 14.5259C15.7121 14.6873 15.6243 14.8873 15.6243 15.1259C15.6243 15.3645 15.7121 15.563 15.8878 15.7214C16.0635 15.8797 16.2812 15.9589 16.5409 15.9589ZM6.28217 28C5.65504 28 5.11789 27.7957 4.67072 27.3871C4.22357 26.9784 4 26.4876 4 25.9145V10.0855C4 9.51241 4.22357 9.02156 4.67072 8.61294C5.11789 8.20431 5.65504 8 6.28217 8H29.7178C30.345 8 30.8821 8.20431 31.3293 8.61294C31.7764 9.02156 32 9.51241 32 10.0855V25.9145C32 26.4876 31.7764 26.9784 31.3293 27.3871C30.8821 27.7957 30.345 28 29.7178 28H6.28217ZM6.28217 26.3248H29.7178C29.8301 26.3248 29.933 26.2821 30.0265 26.1966C30.1201 26.1111 30.1668 26.0171 30.1668 25.9145V10.0855C30.1668 9.9829 30.1201 9.88887 30.0265 9.80341C29.933 9.71792 29.8301 9.67517 29.7178 9.67517H6.28217C6.16992 9.67517 6.06703 9.71792 5.9735 9.80341C5.87997 9.88887 5.8332 9.9829 5.8332 10.0855V25.9145C5.8332 26.0171 5.87997 26.1111 5.9735 26.1966C6.06703 26.2821 6.16992 26.3248 6.28217 26.3248Z" fill="#2C74D6"/>
</g>
</svg>
