<svg width="24" height="24" viewBox="0 0 24 24" fill="none" xmlns="http://www.w3.org/2000/svg">
<path d="M4.94236 21.5C4.55021 21.5 4.21178 21.3576 3.92708 21.0729C3.64238 20.7882 3.50003 20.4498 3.50003 20.0576V5.57697C3.50003 5.18482 3.64238 4.84639 3.92708 4.56169C4.21178 4.27699 4.55021 4.13464 4.94236 4.13464H6.78851V2.38464H8.04811V4.13464H15.9904V2.38464H17.2211V4.13464H19.0577C19.4498 4.13464 19.7882 4.27699 20.0729 4.56169C20.3576 4.84639 20.5 5.18482 20.5 5.57697V20.0576C20.5 20.4498 20.3576 20.7882 20.0729 21.0729C19.7882 21.3576 19.4498 21.5 19.0577 21.5H4.94236ZM4.94236 20.3654H19.0577C19.1346 20.3654 19.2051 20.3333 19.2692 20.2692C19.3333 20.2051 19.3654 20.1346 19.3654 20.0576V10.125H4.63463V20.0576C4.63463 20.1346 4.66668 20.2051 4.73078 20.2692C4.7949 20.3333 4.86542 20.3654 4.94236 20.3654ZM4.63463 8.99044H19.3654V5.57697C19.3654 5.50004 19.3333 5.42951 19.2692 5.36539C19.2051 5.30129 19.1346 5.26924 19.0577 5.26924H4.94236C4.86542 5.26924 4.7949 5.30129 4.73078 5.36539C4.66668 5.42951 4.63463 5.50004 4.63463 5.57697V8.99044Z" fill="#212B2F"/>
</svg>
