<svg width="36" height="36" viewBox="0 0 36 36" fill="none" xmlns="http://www.w3.org/2000/svg">
<g id="Icons- Career">
<mask id="mask0_2903_65121" style="mask-type:alpha" maskUnits="userSpaceOnUse" x="0" y="0" width="36" height="36">
<rect id="Bounding box" width="36" height="36" fill="#D9D9D9"/>
</mask>
<g mask="url(#mask0_2903_65121)">
<path id="engineering" d="M29.1342 14.0807C28.9995 14.0807 28.8846 14.0384 28.7895 13.9537C28.6943 13.8691 28.6265 13.7595 28.5861 13.6249L28.4332 12.898C28.164 12.8172 27.874 12.6797 27.5635 12.4855C27.2529 12.2913 27.0101 12.0797 26.8351 11.8509L25.8803 12.2287C25.7553 12.2787 25.6303 12.2835 25.5053 12.2432C25.3803 12.2028 25.2851 12.1201 25.2198 11.9951L25.0495 11.7239C24.9745 11.5989 24.9544 11.4739 24.989 11.3489C25.0236 11.2239 25.0986 11.1163 25.214 11.0259L25.964 10.4345C25.914 10.2999 25.8702 10.1504 25.8327 9.98597C25.7952 9.82157 25.7765 9.65956 25.7765 9.49993C25.7765 9.34993 25.7952 9.19032 25.8327 9.02109C25.8702 8.85184 25.914 8.69992 25.964 8.56532L25.214 7.98838C25.089 7.88838 25.0116 7.77588 24.9818 7.65088C24.952 7.52588 24.9745 7.40088 25.0495 7.27588L25.2198 7.00476C25.2851 6.87976 25.3803 6.79466 25.5053 6.74946C25.6303 6.70428 25.7553 6.71149 25.8803 6.77109L26.8351 7.14898C27.0101 6.92013 27.2529 6.70474 27.5635 6.50282C27.874 6.30089 28.164 6.17206 28.4332 6.11631L28.5861 5.37497C28.6265 5.24997 28.6943 5.14516 28.7895 5.06053C28.8846 4.97591 28.9995 4.93359 29.1342 4.93359H29.4139C29.5486 4.93359 29.6635 4.97591 29.7586 5.06053C29.8538 5.14516 29.9216 5.24997 29.962 5.37497L30.1149 6.11631C30.3841 6.17206 30.674 6.30089 30.9846 6.50282C31.2952 6.70474 31.5428 6.92013 31.7274 7.14898L32.6678 6.77109C32.7928 6.72109 32.9202 6.71869 33.05 6.76389C33.1798 6.80909 33.2822 6.89899 33.3572 7.03359L33.513 7.30476C33.5783 7.42976 33.5937 7.54994 33.5591 7.66532C33.5245 7.78069 33.4495 7.88838 33.3341 7.98838L32.5841 8.56532C32.6341 8.69992 32.6779 8.85184 32.7154 9.02109C32.7529 9.19032 32.7716 9.34993 32.7716 9.49993C32.7716 9.65956 32.7529 9.82157 32.7154 9.98597C32.6779 10.1504 32.6341 10.2999 32.5841 10.4345L33.3341 11.0259C33.4591 11.1163 33.5365 11.2264 33.5663 11.3562C33.5961 11.486 33.5735 11.6134 33.4985 11.7384L33.3428 12.0095C33.2678 12.1345 33.1678 12.2172 33.0428 12.2576C32.9178 12.298 32.7928 12.2884 32.6678 12.2287L31.7274 11.8509C31.5428 12.0797 31.2952 12.2913 30.9846 12.4855C30.674 12.6797 30.3841 12.8172 30.1149 12.898L29.962 13.6249C29.9216 13.7595 29.8538 13.8691 29.7586 13.9537C29.6635 14.0384 29.5486 14.0807 29.4139 14.0807H29.1342ZM29.2813 11.6894C29.9063 11.6894 30.425 11.4831 30.8375 11.0706C31.25 10.6581 31.4563 10.1346 31.4563 9.49993C31.4563 8.87493 31.25 8.35618 30.8375 7.94368C30.425 7.53118 29.9063 7.32493 29.2813 7.32493C28.6466 7.32493 28.1231 7.53118 27.7106 7.94368C27.2981 8.35618 27.0918 8.87493 27.0918 9.49993C27.0918 10.1346 27.2981 10.6581 27.7106 11.0706C28.1231 11.4831 28.6466 11.6894 29.2813 11.6894ZM24.9918 22.3624C24.9765 22.3624 24.8688 22.2624 24.6688 22.0624L24.6457 21.2893C24.4611 21.2086 24.263 21.1009 24.0514 20.9663C23.8399 20.8316 23.6592 20.697 23.5092 20.5624L22.7967 20.9374C22.7717 20.9374 22.6265 20.8951 22.3611 20.8105L21.9976 20.2653L22.064 19.8297L22.7851 19.348C22.7351 19.2384 22.7077 19.1326 22.7029 19.0307C22.6981 18.9288 22.6957 18.8278 22.6957 18.7278C22.6957 18.6182 22.6981 18.5172 22.7029 18.4249C22.7077 18.3326 22.7351 18.2268 22.7851 18.1076L22.064 17.6114C22.039 17.6114 22.0169 17.4663 21.9976 17.1759L22.3611 16.6307C22.3861 16.6057 22.5313 16.5682 22.7967 16.5182L23.5092 16.8788C23.6842 16.7442 23.8712 16.612 24.0702 16.4821C24.2692 16.3523 24.4611 16.2422 24.6457 16.1519L24.6688 15.3932C24.6688 15.374 24.7765 15.274 24.9918 15.0932H25.7188C25.7438 15.0932 25.8563 15.1932 26.0563 15.3932L26.0793 16.1519C26.264 16.2422 26.4558 16.3523 26.6548 16.4821C26.8539 16.612 27.0409 16.7442 27.2159 16.8788L27.9284 16.5182C27.9534 16.5086 28.0986 16.5461 28.3639 16.6307L28.7274 17.1759L28.6611 17.6114L27.9399 18.1076C27.9899 18.2268 28.0149 18.3326 28.0149 18.4249V19.0307C28.0149 19.1326 27.9899 19.2384 27.9399 19.348L28.6611 19.8297C28.6861 19.8393 28.7082 19.9845 28.7274 20.2653L28.3639 20.8105C28.3389 20.8355 28.1938 20.8778 27.9284 20.9374L27.2159 20.5624C27.0659 20.697 26.8851 20.8316 26.6736 20.9663C26.462 21.1009 26.264 21.2086 26.0793 21.2893L26.0563 22.0624C26.0563 22.072 25.9438 22.172 25.7188 22.3624H24.9918ZM25.3553 20.1817C25.7649 20.1817 26.112 20.0418 26.3967 19.762C26.6813 19.4821 26.8236 19.1374 26.8236 18.7278C26.8236 18.3182 26.6813 17.9711 26.3967 17.6864C26.112 17.4018 25.7649 17.2595 25.3553 17.2595C24.9457 17.2595 24.601 17.4018 24.3212 17.6864C24.0414 17.9711 23.9014 18.3182 23.9014 18.7278C23.9014 19.1374 24.0414 19.4821 24.3212 19.762C24.601 20.0418 24.9457 20.1817 25.3553 20.1817ZM13.3668 19.8759C11.8996 19.8759 10.7034 19.4057 9.77842 18.4653C8.85342 17.5249 8.39092 16.3076 8.39092 14.8134H8.0448C7.86402 14.8134 7.70825 14.748 7.57747 14.6173C7.44672 14.4865 7.38135 14.3307 7.38135 14.15C7.38135 13.9788 7.44672 13.8254 7.57747 13.6898C7.70825 13.5543 7.86402 13.4865 8.0448 13.4865H8.39092C8.40055 12.6404 8.59766 11.8726 8.98226 11.1832C9.36688 10.4938 9.9015 9.88943 10.5861 9.37018V10.8183C10.5861 10.9587 10.6399 11.0803 10.7476 11.1832C10.8553 11.2861 10.9794 11.3375 11.1198 11.3375C11.2755 11.3375 11.401 11.2861 11.4962 11.1832C11.5914 11.0803 11.639 10.9587 11.639 10.8183V8.88268C11.839 8.82308 12.1044 8.76972 12.4351 8.72259C12.7659 8.67547 13.0842 8.65191 13.3899 8.65191C13.6957 8.65191 14.0139 8.67547 14.3447 8.72259C14.6755 8.76972 14.9409 8.82308 15.1409 8.88268V10.8183C15.1409 10.9587 15.1885 11.0803 15.2837 11.1832C15.3789 11.2861 15.5043 11.3375 15.6601 11.3375C15.8005 11.3375 15.9245 11.2861 16.0322 11.1832C16.1399 11.0803 16.1938 10.9587 16.1938 10.8183V9.37018C16.888 9.88943 17.4149 10.4938 17.7745 11.1832C18.1341 11.8726 18.3235 12.6404 18.3427 13.4865H18.6889C18.8697 13.4865 19.0255 13.5543 19.1562 13.6898C19.287 13.8254 19.3524 13.9788 19.3524 14.15C19.3524 14.3307 19.287 14.4865 19.1562 14.6173C19.0255 14.748 18.8697 14.8134 18.6889 14.8134H18.3427C18.3427 16.3076 17.8779 17.5249 16.9481 18.4653C16.0183 19.4057 14.8245 19.8759 13.3668 19.8759ZM13.3668 18.174C14.3688 18.174 15.1649 17.8711 15.7553 17.2653C16.3457 16.6596 16.6409 15.8711 16.6409 14.9H10.0928C10.0928 15.8711 10.388 16.6596 10.9784 17.2653C11.5688 17.8711 12.3649 18.174 13.3668 18.174ZM2.22363 30.8951V28.1086C2.22363 27.3547 2.40681 26.7278 2.77316 26.2278C3.13951 25.7278 3.66113 25.3124 4.33803 24.9817C5.63996 24.3509 7.04043 23.8375 8.53946 23.4413C10.0385 23.0452 11.6476 22.8471 13.3668 22.8471C15.0861 22.8471 16.6928 23.0452 18.187 23.4413C19.6812 23.8375 21.0841 24.3509 22.3957 24.9817C23.063 25.3124 23.5822 25.7278 23.9533 26.2278C24.3245 26.7278 24.5101 27.3547 24.5101 28.1086V30.8951H2.22363ZM3.92553 29.1932H22.8082V28.1086C22.8082 27.6951 22.6875 27.36 22.4461 27.1033C22.2048 26.8465 21.9149 26.6412 21.5764 26.4874C20.5303 26.0124 19.3327 25.5706 17.9836 25.1619C16.6346 24.7533 15.0957 24.5489 13.3668 24.5489C11.638 24.5489 10.0967 24.7533 8.74282 25.1619C7.38897 25.5706 6.19378 26.0124 5.15726 26.4874C4.81878 26.6412 4.52887 26.8465 4.28752 27.1033C4.0462 27.36 3.92553 27.6951 3.92553 28.1086V29.1932Z" fill="#2C74D6"/>
</g>
</g>
</svg>
