<svg width="16" height="16" viewBox="0 0 16 16" fill="none" xmlns="http://www.w3.org/2000/svg">
<g id="Healthcare Icons/chevron right/Default">
<path id="Vector" d="M5.98952 11.4923C5.91773 11.4069 5.88012 11.3146 5.8767 11.2154C5.87328 11.1163 5.91088 11.0274 5.98952 10.9488L8.9485 7.98979L5.97926 5.01414C5.90746 4.94662 5.87328 4.85709 5.8767 4.74555C5.88012 4.63402 5.91773 4.54235 5.98952 4.47055C6.07498 4.38509 6.16558 4.34407 6.2613 4.34749C6.35702 4.35091 6.4442 4.39193 6.52283 4.47055L9.69847 7.6526C9.74974 7.70388 9.78757 7.75623 9.81193 7.80965C9.83629 7.86308 9.84847 7.92312 9.84847 7.98979C9.84847 8.05218 9.83629 8.11115 9.81193 8.1667C9.78757 8.22226 9.74974 8.27568 9.69847 8.32695L6.5331 11.4923C6.45447 11.571 6.36558 11.6075 6.26643 11.602C6.16729 11.5964 6.07498 11.5599 5.98952 11.4923Z" fill="white"/>
</g>
</svg>
