<svg width="36" height="36" viewBox="0 0 36 36" fill="none" xmlns="http://www.w3.org/2000/svg">
<g id="Icons- Data science">
<path id="Vector" d="M15.8066 21.3283C15.485 21.3283 15.2155 21.2196 14.9979 21.0021C14.7804 20.7845 14.6717 20.515 14.6717 20.1934V15.8214C14.6717 15.5059 14.7804 15.2379 14.9979 15.0174C15.2155 14.7968 15.485 14.6865 15.8066 14.6865H20.1786C20.4941 14.6865 20.7621 14.7968 20.9826 15.0174C21.2032 15.2379 21.3135 15.5059 21.3135 15.8214V20.1934C21.3135 20.515 21.2032 20.7845 20.9826 21.0021C20.7621 21.2196 20.4941 21.3283 20.1786 21.3283H15.8066ZM14.916 30C14.6563 30 14.4403 29.9126 14.2679 29.7379C14.0955 29.5632 14.0093 29.3467 14.0093 29.0884V27.4326H10.8372C10.2135 27.4326 9.67925 27.2102 9.23452 26.7655C8.78978 26.3207 8.56741 25.7865 8.56741 25.1628V21.9907H6.91159C6.65331 21.9907 6.4368 21.9029 6.26208 21.7272C6.08736 21.5515 6 21.3339 6 21.0742C6 20.8145 6.08736 20.5985 6.26208 20.4261C6.4368 20.2537 6.65331 20.1675 6.91159 20.1675H8.56741V15.7637H6.91159C6.65331 15.7637 6.4368 15.6758 6.26208 15.5002C6.08736 15.3245 6 15.1068 6 14.8472C6 14.5875 6.08736 14.3715 6.26208 14.1991C6.4368 14.0267 6.65331 13.9405 6.91159 13.9405H8.56741V10.7684C8.56741 10.1446 8.78978 9.61041 9.23452 9.1657C9.67925 8.72096 10.2135 8.49859 10.8372 8.49859H14.0093V6.91159C14.0093 6.65331 14.0971 6.4368 14.2728 6.26208C14.4485 6.08736 14.6661 6 14.9258 6C15.1855 6 15.4015 6.08736 15.5739 6.26208C15.7463 6.4368 15.8325 6.65331 15.8325 6.91159V8.49859H20.2363V6.91159C20.2363 6.65331 20.3242 6.4368 20.4998 6.26208C20.6755 6.08736 20.8932 6 21.1528 6C21.4125 6 21.6285 6.08736 21.8009 6.26208C21.9733 6.4368 22.0595 6.65331 22.0595 6.91159V8.49859H25.2316C25.8554 8.49859 26.3896 8.72096 26.8343 9.1657C27.279 9.61041 27.5014 10.1446 27.5014 10.7684V13.9405H29.0884C29.3467 13.9405 29.5632 14.0283 29.7379 14.204C29.9126 14.3796 30 14.5973 30 14.857C30 15.1166 29.9126 15.3327 29.7379 15.5051C29.5632 15.6775 29.3467 15.7637 29.0884 15.7637H27.5014V20.1675H29.0884C29.3467 20.1675 29.5632 20.2553 29.7379 20.431C29.9126 20.6066 30 20.8243 30 21.084C30 21.3437 29.9126 21.5597 29.7379 21.7321C29.5632 21.9045 29.3467 21.9907 29.0884 21.9907H27.5014V25.1628C27.5014 25.7865 27.279 26.3207 26.8343 26.7655C26.3896 27.2102 25.8554 27.4326 25.2316 27.4326H22.0595V29.0884C22.0595 29.3467 21.9717 29.5632 21.796 29.7379C21.6204 29.9126 21.4027 30 21.143 30C20.8834 30 20.6673 29.9126 20.4949 29.7379C20.3225 29.5632 20.2363 29.3467 20.2363 29.0884V27.4326H15.8325V29.0884C15.8325 29.3467 15.7447 29.5632 15.569 29.7379C15.3934 29.9126 15.1757 30 14.916 30ZM10.8372 25.6094H25.2316C25.3433 25.6094 25.4456 25.5628 25.5387 25.4698C25.6317 25.3768 25.6782 25.2744 25.6782 25.1628V10.7684C25.6782 10.6567 25.6317 10.5544 25.5387 10.4613C25.4456 10.3683 25.3433 10.3218 25.2316 10.3218H10.8372C10.7255 10.3218 10.6232 10.3683 10.5302 10.4613C10.4372 10.5544 10.3906 10.6567 10.3906 10.7684V25.1628C10.3906 25.2744 10.4372 25.3768 10.5302 25.4698C10.6232 25.5628 10.7255 25.6094 10.8372 25.6094ZM16.4949 19.5051H19.4902V16.5098H16.4949V19.5051Z" fill="#2C74D6"/>
</g>
</svg>
