<svg width="16" height="16" viewBox="0 0 16 16" fill="none" xmlns="http://www.w3.org/2000/svg">
<g id="Close">
<path id="Vector" d="M8.00004 8.53323L4.44875 12.0845C4.3744 12.1589 4.28658 12.1971 4.1853 12.1993C4.08401 12.2014 3.99406 12.1631 3.91544 12.0845C3.8368 12.0059 3.79749 11.917 3.79749 11.8179C3.79749 11.7187 3.8368 11.6298 3.91544 11.5512L7.46672 7.99991L3.91544 4.44863C3.84107 4.37427 3.80282 4.28646 3.80069 4.18518C3.79855 4.08389 3.8368 3.99394 3.91544 3.91531C3.99406 3.83668 4.08294 3.79736 4.18209 3.79736C4.28123 3.79736 4.37012 3.83668 4.44875 3.91531L8.00004 7.4666L11.5513 3.91531C11.6257 3.84095 11.7135 3.8027 11.8148 3.80056C11.9161 3.79843 12.006 3.83668 12.0846 3.91531C12.1633 3.99394 12.2026 4.08282 12.2026 4.18196C12.2026 4.28111 12.1633 4.37 12.0846 4.44863L8.53335 7.99991L12.0846 11.5512C12.159 11.6256 12.1973 11.7134 12.1994 11.8146C12.2015 11.9159 12.1633 12.0059 12.0846 12.0845C12.006 12.1631 11.9171 12.2025 11.818 12.2025C11.7188 12.2025 11.63 12.1631 11.5513 12.0845L8.00004 8.53323Z" fill="#333333"/>
</g>
</svg>
