<svg width="36" height="36" viewBox="0 0 36 36" fill="none" xmlns="http://www.w3.org/2000/svg">
<g id="Web devlopment">
<mask id="mask0_3227_117871" style="mask-type:alpha" maskUnits="userSpaceOnUse" x="0" y="0" width="36" height="36">
<rect id="Bounding box" width="36" height="36" fill="#D9D9D9"/>
</mask>
<g mask="url(#mask0_3227_117871)">
<path id="cloud_done" d="M9.74996 29.2499C7.67691 29.2499 5.90865 28.5297 4.44518 27.0894C2.98173 25.649 2.25 23.8923 2.25 21.8192C2.25 19.9557 2.84953 18.3168 4.04858 16.9024C5.24763 15.488 6.73464 14.65 8.50961 14.3885C8.99039 12.1462 10.1178 10.3125 11.8918 8.8875C13.6658 7.4625 15.7019 6.75 18 6.75C20.7134 6.75 23.0168 7.69664 24.91 9.58991C26.8033 11.4832 27.7499 13.7865 27.7499 16.5V17.25H28.2115C29.7922 17.3731 31.1105 18.0087 32.1663 19.1567C33.222 20.3048 33.7499 21.6692 33.7499 23.25C33.7499 24.923 33.1682 26.3413 32.0048 27.5048C30.8413 28.6682 29.423 29.2499 27.75 29.2499H9.74996ZM15.525 24.4153C15.7057 24.4153 15.874 24.3865 16.0298 24.3288C16.1855 24.2711 16.3336 24.1721 16.474 24.0317L22.6673 17.8384C22.8903 17.6153 23.0043 17.3466 23.0091 17.0322C23.0139 16.7178 22.9 16.4442 22.6673 16.2115C22.4346 15.9788 22.1634 15.8625 21.8538 15.8625C21.5442 15.8625 21.2731 15.9788 21.0404 16.2115L15.5019 21.75L13.1134 19.3615C12.8903 19.1384 12.6293 19.0245 12.3303 19.0197C12.0312 19.0149 11.7654 19.1288 11.5327 19.3615C11.3 19.5942 11.1836 19.8615 11.1836 20.1634C11.1836 20.4653 11.3 20.7326 11.5327 20.9653L14.576 24.0317C14.7163 24.1721 14.8644 24.2711 15.0202 24.3288C15.1759 24.3865 15.3442 24.4153 15.525 24.4153ZM9.74996 27H27.75C28.8 27 29.6875 26.6375 30.4125 25.9125C31.1375 25.1875 31.5 24.3 31.5 23.25C31.5 22.2 31.1375 21.3125 30.4125 20.5875C29.6875 19.8625 28.8 19.5 27.75 19.5H25.5V16.5C25.5 14.425 24.7687 12.6562 23.3062 11.1937C21.8437 9.73121 20.075 8.99996 18 8.99996C15.925 8.99996 14.1562 9.73121 12.6937 11.1937C11.2312 12.6562 10.5 14.425 10.5 16.5H9.72113C8.29997 16.5 7.07449 17.0125 6.04466 18.0375C5.01486 19.0625 4.49996 20.3 4.49996 21.75C4.49996 23.2 5.01246 24.4375 6.03746 25.4625C7.06246 26.4875 8.29996 27 9.74996 27Z" fill="white"/>
</g>
</g>
</svg>
