<svg width="36" height="36" viewBox="0 0 36 36" fill="none" xmlns="http://www.w3.org/2000/svg">
<g id="Icons- Data science">
<path id="Vector" d="M4.06175 18.0579C4.06175 19.669 4.42537 21.1543 5.15262 22.5136C5.87985 23.873 7.10888 25.1841 8.83973 26.447V22.6684C8.83973 22.3907 8.93881 22.1584 9.13696 21.9713C9.33509 21.7843 9.58123 21.6908 9.87538 21.6908C10.1695 21.6908 10.4141 21.7843 10.609 21.9713C10.804 22.1584 10.9015 22.3907 10.9015 22.6684V28.6633C10.9015 29.0108 10.7792 29.3005 10.5346 29.5324C10.29 29.7643 9.98453 29.8803 9.61811 29.8803H3.29596C3.00317 29.8803 2.75817 29.7863 2.56094 29.5984C2.36372 29.4105 2.26511 29.1771 2.26511 28.8982C2.26511 28.6193 2.36372 28.3874 2.56094 28.2025C2.75817 28.0177 3.00317 27.9252 3.29596 27.9252H7.45331C5.60748 26.4954 4.23713 24.9962 3.34228 23.4274C2.44743 21.8587 2 20.0688 2 18.0579C2 15.7609 2.63292 13.6328 3.89875 11.6733C5.16459 9.71389 6.89642 8.21978 9.09425 7.19101C9.35233 7.06533 9.61129 7.05236 9.87112 7.15211C10.1309 7.25186 10.3089 7.42608 10.4049 7.67477C10.508 7.93013 10.5049 8.18034 10.3955 8.4254C10.2861 8.67043 10.1076 8.85248 9.86008 8.97152C8.1489 9.80609 6.75471 11.0355 5.67751 12.6597C4.60033 14.284 4.06175 16.0833 4.06175 18.0579ZM19.641 30C18.3998 30 17.3373 29.5811 16.4537 28.7432C15.57 27.9052 15.1282 26.8978 15.1282 25.7207C15.1282 24.5702 15.5401 23.5848 16.3637 22.7643C17.1874 21.9438 18.2346 21.5075 19.5054 21.4555C19.9388 20.5211 20.5978 19.7664 21.4825 19.1915C22.3671 18.6167 23.3944 18.3292 24.5641 18.3292C25.9611 18.3292 27.1703 18.7641 28.1917 19.6339C29.2132 20.5038 29.8175 21.625 30.0047 22.9976H30.3014C31.3344 22.9976 32.2091 23.3407 32.9255 24.027C33.6418 24.7132 34 25.5242 34 26.4599C34 27.4394 33.6429 28.2743 32.9286 28.9646C32.2143 29.6549 31.3407 30 30.3077 30H19.641ZM25.21 16.1745C24.9246 14.925 24.4384 13.7782 23.7515 12.7341C23.0646 11.6901 22.0331 10.5948 20.6572 9.44827V13.2119C20.6572 13.4896 20.5581 13.7219 20.36 13.909C20.1618 14.096 19.9157 14.1895 19.6215 14.1895C19.3274 14.1895 19.0828 14.096 18.8879 13.909C18.6929 13.7219 18.5954 13.4896 18.5954 13.2119V7.21696C18.5954 6.86948 18.7177 6.57978 18.9623 6.34787C19.2069 6.11596 19.5124 6 19.8788 6H26.2009C26.4937 6 26.7387 6.09395 26.9359 6.28185C27.1332 6.46975 27.2318 6.70316 27.2318 6.98206C27.2318 7.261 27.1332 7.4929 26.9359 7.67776C26.7387 7.86263 26.4937 7.95506 26.2009 7.95506H22.0163C23.5577 9.21858 24.7633 10.5453 25.6328 11.9351C26.5024 13.325 27.0572 14.7381 27.297 16.1745H25.21ZM19.641 28.0449H30.3077C30.7573 28.0449 31.1414 27.8938 31.4601 27.5916C31.7789 27.2893 31.9382 26.9251 31.9382 26.4988C31.9382 26.0725 31.7789 25.7082 31.4601 25.406C31.1414 25.1037 30.7573 24.9526 30.3077 24.9526H28.2459V23.7756C28.2459 22.8047 27.8883 21.9801 27.1729 21.3017C26.4576 20.6234 25.588 20.2843 24.5641 20.2843C23.5402 20.2843 22.6785 20.5897 21.979 21.2005C21.2794 21.8113 20.9191 22.5267 20.8981 23.3466V23.3965H19.641C18.9509 23.3965 18.3699 23.6203 17.8979 24.0678C17.426 24.5154 17.19 25.0663 17.19 25.7207C17.19 26.3751 17.426 26.9261 17.8979 27.3736C18.3699 27.8212 18.9509 28.0449 19.641 28.0449Z" fill="#2C74D6"/>
</g>
</svg>
