<svg width="36" height="36" viewBox="0 0 36 36" fill="none" xmlns="http://www.w3.org/2000/svg">
<g id="Application Modernization">
<path id="Vector" d="M9.44905 29C7.37564 29 5.61579 28.304 4.16949 26.9119C2.72316 25.5198 2 23.8259 2 21.8303C2 20.0283 2.61246 18.4519 3.83738 17.1012C5.06229 15.7505 6.61248 14.9608 8.48794 14.732C8.90013 12.4825 10.0094 10.6314 11.8159 9.17885C13.6223 7.72628 15.6889 7 18.0156 7C20.707 7 22.9903 7.92576 24.8654 9.77729C26.7406 11.6288 27.6781 13.8676 27.6781 16.4938V17.6635H28.147C29.8369 17.6848 31.2348 18.2432 32.3409 19.3389C33.447 20.4345 34 21.7598 34 23.3148C34 24.8717 33.4237 26.2085 32.271 27.3251C31.1184 28.4417 29.7301 29 28.106 29H9.44905ZM9.44905 27.1573H28.106C29.2104 27.1573 30.1498 26.7847 30.9241 26.0394C31.6984 25.2942 32.0855 24.39 32.0855 23.327C32.0855 22.2703 31.6984 21.3693 30.9241 20.624C30.1498 19.8788 29.2104 19.5062 28.106 19.5062H25.7636V16.4938C25.7636 14.4085 25.0156 12.612 23.5194 11.1043C22.0233 9.59656 20.1887 8.84269 18.0156 8.84269C16.2417 8.84269 14.6308 9.38079 13.1829 10.457C11.7349 11.5332 10.8068 12.9535 10.3985 14.7179C12.0467 14.9486 13.4665 15.5908 14.6578 16.6448C15.8492 17.6987 16.5546 19.0486 16.7741 20.6946C16.819 20.9509 16.7473 21.177 16.5592 21.3729C16.371 21.5687 16.1291 21.6667 15.8334 21.6667C15.597 21.6667 15.3843 21.5855 15.1951 21.4232C15.0059 21.2608 14.8889 21.0568 14.844 20.8111C14.6336 19.5438 14.0189 18.5074 12.9998 17.702C11.9806 16.8965 10.7782 16.4938 9.3924 16.4938C7.86079 16.4938 6.5649 17.0131 5.50473 18.0517C4.44456 19.0903 3.91448 20.3498 3.91448 21.8303C3.91448 23.3045 4.45401 24.5608 5.53307 25.5994C6.61211 26.638 7.91744 27.1573 9.44905 27.1573Z" fill="white"/>
</g>
</svg>
