<svg xmlns="http://www.w3.org/2000/svg" width="36" height="36" viewBox="0 0 36 36" fill="none">
<path d="M18 31C17.3891 31 16.8593 30.8411 16.4107 30.5233C15.9622 30.2054 15.6835 29.785 15.5746 29.2619H14.8965C14.4022 29.2619 13.9684 29.0775 13.5951 28.7086C13.2218 28.3397 13.0352 27.911 13.0352 27.4226V22.6044C11.4505 21.6566 10.2151 20.4134 9.32908 18.8749C8.44303 17.3364 8 15.6722 8 13.8822C8 11.1268 8.96961 8.79095 10.9088 6.87456C12.8481 4.95819 15.2118 4 18 4C20.7882 4 23.1519 4.95819 25.0912 6.87456C27.0304 8.79095 28 11.1268 28 13.8822C28 15.6822 27.5576 17.3491 26.6727 18.883C25.7878 20.4169 24.5518 21.6573 22.9648 22.6044V27.4226C22.9648 27.911 22.7782 28.3397 22.4049 28.7086C22.0316 29.0775 21.5978 29.2619 21.1035 29.2619H20.4254C20.3165 29.785 20.0378 30.2054 19.5893 30.5233C19.1407 30.8411 18.6109 31 18 31ZM14.8965 27.4226H21.1035V25.9097H14.8965V27.4226ZM14.8965 24.6146H21.1035V23.1562H14.8965V24.6146ZM14.5755 21.3168H17.2422V16.5343L14.4872 13.8212C14.3542 13.6898 14.2893 13.5271 14.2925 13.3332C14.2957 13.1392 14.3745 12.9644 14.5289 12.8086C14.6834 12.6528 14.8582 12.5749 15.0531 12.5749C15.248 12.5749 15.4206 12.6528 15.5707 12.8086L18 15.2242L20.4663 12.787C20.6024 12.6556 20.7678 12.5899 20.9625 12.5899C21.1572 12.5899 21.3333 12.6678 21.491 12.8236C21.6486 12.9794 21.7275 13.1492 21.7275 13.3332C21.7275 13.5171 21.6486 13.6838 21.491 13.8334L18.7578 16.5343V21.3168H21.4245C22.8313 20.6624 23.9687 19.6687 24.8367 18.3358C25.7047 17.0028 26.1387 15.5183 26.1387 13.8823C26.1387 11.6324 25.3514 9.72941 23.7768 8.17341C22.2023 6.61739 20.2767 5.83938 18 5.83938C15.7233 5.83938 13.7977 6.61739 12.2232 8.17341C10.6486 9.72941 9.8613 11.6324 9.8613 13.8823C9.8613 15.5183 10.2953 17.0028 11.1633 18.3358C12.0313 19.6687 13.1687 20.6624 14.5755 21.3168Z" fill="#2C74D6"/>
</svg>