<svg width="24" height="24" viewBox="0 0 24 24" fill="none" xmlns="http://www.w3.org/2000/svg">
<path d="M10.1368 15.1531L6.93277 11.9368C6.78377 11.796 6.60686 11.7235 6.40202 11.7195C6.19715 11.7154 6.01375 11.7944 5.85182 11.9563C5.70283 12.1053 5.62833 12.2822 5.62833 12.487C5.62833 12.6919 5.70283 12.8688 5.85182 13.0178L9.49796 16.6834C9.67935 16.8729 9.89231 16.9676 10.1368 16.9676C10.3814 16.9676 10.5943 16.8729 10.7757 16.6834L18.1044 9.36678C18.2583 9.20485 18.3372 9.02145 18.3413 8.81658C18.3453 8.61174 18.2664 8.42835 18.1044 8.26641C17.9425 8.11742 17.7559 8.04617 17.5446 8.05265C17.3332 8.05912 17.1531 8.13684 17.0041 8.28583L10.1368 15.1531ZM12.0021 24C10.3554 24 8.8038 23.6851 7.34746 23.0552C5.89112 22.4253 4.61755 21.5652 3.52675 20.4748C2.43592 19.3845 1.57543 18.1115 0.945255 16.6558C0.315085 15.2001 0 13.6489 0 12.0021C0 10.3424 0.314948 8.78236 0.944845 7.32198C1.57474 5.86157 2.43485 4.59123 3.52517 3.51096C4.61551 2.43066 5.88852 1.57543 7.34421 0.945256C8.79992 0.315086 10.3511 0 11.9979 0C13.6576 0 15.2176 0.31495 16.678 0.944846C18.1384 1.57474 19.4088 2.42959 20.489 3.50938C21.5693 4.58919 22.4246 5.85897 23.0547 7.31873C23.6849 8.77846 24 10.3382 24 11.9979C24 13.6446 23.6851 15.1962 23.0552 16.6525C22.4253 18.1089 21.5704 19.3825 20.4906 20.4733C19.4108 21.5641 18.141 22.4246 16.6813 23.0547C15.2215 23.6849 13.6618 24 12.0021 24Z" fill="#13961F"/>
</svg>
