<svg xmlns="http://www.w3.org/2000/svg" width="36" height="36" viewBox="0 0 36 36" fill="none">
<path d="M9.98345 29C8.04452 29 6.39587 28.3044 5.03751 26.9133C3.67917 25.5221 3 23.8305 3 21.8385C3 20.0152 3.58714 18.4232 4.76143 17.0625C5.93575 15.7017 7.37608 14.9217 9.08242 14.7222C9.47923 12.4718 10.5175 10.6221 12.1973 9.1733C13.8771 7.72443 15.8242 7 18.0384 7C20.5616 7 22.6982 7.92623 24.4482 9.77868C26.1982 11.6311 27.0732 13.8667 27.0732 16.4853V17.6557H27.5128C29.0537 17.6569 30.3535 18.2011 31.4121 19.288C32.4707 20.375 33 21.72 33 23.3231C33 24.8874 32.4597 26.2246 31.3791 27.3347C30.2985 28.4449 28.997 29 27.4744 29H9.98345ZM15.6044 24.3787C15.757 24.3787 15.8962 24.3514 16.0219 24.2969C16.1477 24.2423 16.2695 24.1545 16.3873 24.0334L22.6337 17.6161C22.801 17.4505 22.8869 17.2421 22.8915 16.991C22.896 16.7398 22.8101 16.5267 22.6337 16.3517C22.4633 16.1704 22.2582 16.0798 22.0183 16.0798C21.7784 16.0798 21.5733 16.1704 21.403 16.3517L15.6209 22.2826L12.9304 19.5185C12.7631 19.3529 12.5596 19.2678 12.32 19.2631C12.0804 19.2584 11.8754 19.3435 11.7051 19.5185C11.5287 19.6997 11.4405 19.9149 11.4405 20.1639C11.4405 20.4129 11.5287 20.6249 11.7051 20.7998L14.8306 24.0334C14.9484 24.1545 15.0702 24.2423 15.1959 24.2969C15.3217 24.3514 15.4578 24.3787 15.6044 24.3787ZM9.98345 27.156H27.4744C28.5098 27.156 29.3904 26.7832 30.1163 26.0374C30.8422 25.2916 31.2052 24.3869 31.2052 23.3231C31.2052 22.2656 30.8422 21.364 30.1163 20.6183C29.3904 19.8725 28.5098 19.4997 27.4744 19.4997H25.2784V16.4853C25.2784 14.3621 24.5682 12.5578 23.1479 11.0723C21.7276 9.58672 19.9988 8.84395 17.9615 8.84395C15.9304 8.84395 14.2007 9.58672 12.7724 11.0723C11.3441 12.5578 10.63 14.3621 10.63 16.4853H9.90288C8.50421 16.4853 7.30319 17.0024 6.29983 18.0367C5.29647 19.0709 4.79479 20.3338 4.79479 21.8254C4.79479 23.3169 5.30304 24.5782 6.31955 25.6093C7.33603 26.6405 8.55733 27.156 9.98345 27.156Z" fill="#2C74D6"/>
</svg>