<svg width="193" height="20" viewBox="0 0 193 20" fill="none" xmlns="http://www.w3.org/2000/svg">
<g clip-path="url(#clip0_259_64731)">
<path d="M7.14966 0.0940354C6.87482 0.140819 6.27019 0.30924 5.7938 0.468305C2.8988 1.45076 0.993233 3.81802 0.205355 7.4297C0.00380532 8.35602 -0.0694858 10.742 0.0770966 11.8086C0.654264 16.2157 2.92629 18.9946 6.58168 19.7806C8.42314 20.1736 10.5394 19.9958 12.1885 19.3221C14.4697 18.3771 15.9721 16.356 16.5767 13.418C16.6684 12.9502 16.7508 12.5197 16.7508 12.4543C16.7508 12.3701 16.4302 12.342 15.4682 12.342H14.1856V12.6508C14.1856 13.1934 13.8375 14.3818 13.4802 15.0835C12.8481 16.3092 11.6388 17.2917 10.3378 17.6379C9.54999 17.8437 8.01088 17.8437 7.22298 17.6379C5.46399 17.1888 4.08062 15.9724 3.28358 14.1759C2.67893 12.8192 2.36744 10.5736 2.54151 8.80514C2.86216 5.52094 4.45624 3.19111 6.9023 2.39579C7.76352 2.12444 9.72403 2.10573 10.5669 2.36772C11.9319 2.78877 12.9946 3.6683 13.5718 4.84725C13.7551 5.22152 13.9291 5.67065 13.9657 5.84842L14.0207 6.16655H15.3033H16.5859L16.5218 5.85778C15.8072 2.17123 12.8756 -0.0369587 8.74374 0.000468282C8.13909 0.00982498 7.41536 0.0472519 7.14966 0.0940354Z" fill="#444444"/>
<path d="M92.6085 3.64039V5.69886H91.4631H90.3184V6.72811V7.75735H91.4631H92.5995L92.627 12.7351C92.6545 17.2357 92.6724 17.7597 92.8194 18.1433C93.2406 19.2287 94.0466 19.5375 96.4377 19.5468H97.5556V18.527V17.507L96.4473 17.479C95.3658 17.4416 95.3383 17.4322 95.1185 17.1796L94.8986 16.9176V12.3328V7.75735H96.2274H97.5556V6.72811V5.69886H96.2274H94.8986V3.64039V1.58191H93.7539H92.6085V3.64039Z" fill="#444444"/>
<path d="M24.4835 5.42741C23.5124 5.52098 23.091 5.63327 22.2023 6.07303C21.3412 6.49408 20.4158 7.30812 19.9028 8.10342C18.9867 9.51633 18.5469 11.6497 18.7668 13.6332C19.0875 16.6181 20.5991 18.6859 23.036 19.5093C23.8056 19.7619 23.9338 19.7806 25.3172 19.7713C26.6547 19.7713 26.8471 19.7525 27.5159 19.5186C29.4581 18.8543 30.8323 17.4227 31.4828 15.3736C31.9317 13.9514 31.9867 11.7432 31.6019 10.2555C30.7407 6.89642 28.0931 5.09993 24.4835 5.42741ZM26.7647 7.6637C27.8458 8.08475 28.771 9.13268 29.2016 10.4239C29.5039 11.3222 29.5773 13.2216 29.3574 14.2508C28.9359 16.169 27.6625 17.4789 25.931 17.7876C23.7872 18.1619 21.7992 16.6929 21.2312 14.3069C21.0663 13.6426 21.0663 11.6122 21.2312 10.9385C21.6343 9.23563 22.8803 7.85079 24.3369 7.47654C24.8957 7.33619 26.1692 7.42974 26.7647 7.6637Z" fill="#444444"/>
<path d="M40.3793 5.4276C39.6098 5.49309 39.1792 5.61473 38.5196 5.95157C38.0157 6.21356 37.2828 6.86853 36.8888 7.42058L36.6323 7.78549V6.74689V5.69894H35.533H34.4336V12.6229V19.5469H35.5788H36.7239V15.3551C36.7239 10.8171 36.7606 10.3773 37.2278 9.44163C37.7958 8.29075 38.7577 7.6264 40.0953 7.45798C41.9276 7.22409 43.1369 8.00072 43.4026 9.57265C43.4667 9.94689 43.5034 11.8744 43.5034 14.8498V19.5469H44.6027H45.7021V14.4662C45.7021 10.4241 45.6746 9.26388 45.5647 8.75861C45.0516 6.29777 43.2835 5.15625 40.3793 5.4276Z" fill="#444444"/>
<path d="M54.9 5.41808C53.3608 5.63329 52.4721 6.13855 51.5469 7.31748L51.1987 7.776V6.73739V5.69878H50.1543H49.1191L49.055 6.26955C49.0275 6.58768 49 9.70344 49 13.1935V19.5467H50.1452H51.2903V15.355C51.2903 10.7234 51.327 10.3397 51.8492 9.34793C52.3897 8.30934 53.3425 7.64499 54.5884 7.4485C56.3566 7.16779 57.7033 8.0099 57.969 9.56309C58.0331 9.94674 58.0698 11.8274 58.0698 14.8497V19.5467H59.1691H60.2685V14.466C60.2685 8.96428 60.241 8.67425 59.7554 7.57011C59.4623 6.88709 58.7294 6.15727 58.0514 5.8485C57.2086 5.46487 55.8894 5.28709 54.9 5.41808Z" fill="#444444"/>
<path d="M68.5595 5.43694C65.298 5.70828 62.9252 8.665 62.916 12.4451C62.916 15.6825 64.1345 18.0685 66.3515 19.1726C68.138 20.0615 70.6483 20.0615 72.4347 19.1632C73.1033 18.8264 73.9649 18.0498 74.3676 17.4136C74.652 16.955 75.0368 15.9913 75.1557 15.4486L75.2196 15.1492H74.1023C73.1308 15.1492 72.9933 15.1679 72.948 15.3083C72.7645 15.8697 72.3062 16.6743 72.0225 16.9364C70.9595 17.8813 68.9807 18.0872 67.5333 17.4042C66.1775 16.7492 65.3804 15.4767 65.2889 13.7925L65.2614 13.3246L70.3274 13.2966L75.3845 13.2779V12.5387C75.3845 10.4802 74.652 8.44043 73.4516 7.14921C72.1599 5.76442 70.6943 5.2498 68.5595 5.43694ZM70.1171 7.51412C71.0695 7.76675 71.8301 8.31882 72.3612 9.14219C72.6635 9.61005 73.003 10.6112 73.003 11.0416V11.313H69.1002H65.1972L65.2614 10.92C65.4995 9.4697 66.2874 8.34689 67.4784 7.72001C68.1289 7.38317 69.3015 7.28956 70.1171 7.51412Z" fill="#444444"/>
<path d="M82.4838 5.43721C79.8268 5.6992 77.9029 7.51438 77.1972 10.4243C76.9134 11.622 76.9134 13.9986 77.1972 15.1027C77.7105 17.0396 78.7549 18.4243 80.239 19.1542C81.247 19.6407 82.0894 19.8279 83.3358 19.8279C85.1497 19.8279 86.524 19.3133 87.5684 18.2466C88.3929 17.3951 88.9329 16.291 89.2627 14.7472L89.3177 14.4852L88.1544 14.5133L86.9912 14.5413L86.8716 15.0279C86.6792 15.7858 86.3494 16.3752 85.8368 16.8618C85.2597 17.4138 84.7739 17.6477 83.9404 17.76C81.7781 18.0782 80.1476 16.8992 79.5334 14.5694C79.3135 13.7647 79.3231 11.7156 79.5334 10.7986C80.0006 8.85242 81.146 7.70154 82.8864 7.44891C84.6914 7.18694 86.1117 7.96351 86.6978 9.54484L86.9451 10.1905H88.0809H89.2263L89.1714 9.83487C88.924 8.30035 88.2458 7.14014 87.1561 6.40096C85.9832 5.60563 84.2792 5.25944 82.4838 5.43721Z" fill="#444444"/>
<path d="M105.702 0.819251C105.601 1.07188 99.8845 16.0052 99.0964 18.0824C98.7941 18.8684 98.5557 19.5514 98.5557 19.6076C98.5557 19.6637 99.014 19.7011 99.8474 19.7011C101.002 19.7011 101.139 19.6824 101.176 19.5327C101.204 19.4485 101.671 18.1479 102.211 16.6602L103.21 13.9467L107.113 13.9187L111.016 13.8999L111.107 14.1058C111.162 14.2274 111.629 15.5187 112.151 16.9877L113.104 19.6543L114.488 19.6824C115.248 19.6918 115.871 19.6731 115.871 19.6357C115.871 19.5888 115.743 19.2239 115.587 18.8122C115.386 18.2883 109.375 2.59703 108.661 0.725684C108.624 0.641474 108.249 0.613403 107.204 0.613403C105.821 0.613403 105.784 0.62276 105.702 0.819251ZM108.743 7.32218C109.586 9.72688 110.264 11.7105 110.246 11.7199C110.227 11.7385 108.817 11.7385 107.113 11.7292L103.998 11.7011L105.555 7.32218C106.416 4.9175 107.14 2.95258 107.168 2.95258C107.195 2.95258 107.9 4.9175 108.743 7.32218Z" fill="#444444"/>
<path d="M141.798 4.07539C141.798 5.97481 141.779 7.53735 141.752 7.53735C141.724 7.53735 141.55 7.35959 141.358 7.1444C140.597 6.28358 139.424 5.73154 138.041 5.59118C136.008 5.38533 134.404 5.91867 133.14 7.20991C132.096 8.28591 131.601 9.33384 131.299 11.1023C131.189 11.7573 131.161 12.2812 131.198 13.1514C131.262 14.5924 131.491 15.528 132.05 16.6976C132.819 18.2882 134.111 19.3736 135.714 19.7947C137.07 20.1503 138.976 20.0005 140.139 19.4391C140.625 19.2145 141.339 18.5783 141.633 18.1105C141.779 17.8859 141.788 17.9046 141.788 18.7842L141.798 19.7011H142.942H144.088V10.1573V0.613403H142.942H141.798V4.07539ZM138.728 7.6777C140.204 8.07068 141.202 9.16542 141.669 10.9152C141.898 11.7573 141.898 13.8064 141.669 14.6485C141.156 16.5385 140.02 17.6801 138.38 17.942C136.539 18.2321 134.936 17.3619 134.139 15.6496C133.671 14.6298 133.525 13.797 133.589 12.4496C133.662 10.728 134.02 9.65201 134.807 8.75377C135.531 7.921 136.374 7.56542 137.583 7.54675C137.913 7.53735 138.426 7.60289 138.728 7.6777Z" fill="#444444"/>
<path d="M123.181 5.57228C121.762 5.75006 120.763 6.29275 119.948 7.34073L119.49 7.9208L119.462 6.89158L119.435 5.85298H118.39H117.337V12.7769V19.7009H118.482H119.627V15.3688C119.627 10.7091 119.646 10.4752 120.122 9.5208C120.406 8.9594 121.102 8.26705 121.697 7.96761C122.257 7.67757 123.346 7.49975 123.97 7.58396C124.675 7.67757 125.27 7.97694 125.674 8.45413C126.315 9.19336 126.315 9.20269 126.315 14.7606V19.7009H127.405H128.504L128.559 19.308C128.669 18.5594 128.55 9.21203 128.422 8.70676C128.12 7.44361 127.396 6.4986 126.379 6.01205C125.564 5.61907 124.253 5.44129 123.181 5.57228Z" fill="#444444"/>
<path d="M150.539 0.181568C148.029 0.733618 146.535 1.94999 145.857 4.01782C145.619 4.74765 145.619 6.31022 145.857 7.01198C146.178 7.95704 146.709 8.63072 147.607 9.21079C148.56 9.83774 149.632 10.1839 152.636 10.8576C155.12 11.4003 156.036 11.7652 156.787 12.4669C157.437 13.0845 157.593 13.4588 157.584 14.4506C157.584 15.1336 157.547 15.3769 157.373 15.7325C156.723 17.1079 155.23 17.7909 152.875 17.7816C150.97 17.7816 149.668 17.3137 148.651 16.2658C147.992 15.5827 147.653 14.881 147.524 13.9266L147.433 13.1874H146.26H145.088V13.6739C145.088 14.3102 145.39 15.5827 145.693 16.2377C146.471 17.9313 148.12 19.1757 150.227 19.6904C153.361 20.4389 156.759 19.7371 158.592 17.95C159.672 16.902 160.112 15.8448 160.112 14.2634C160.112 12.7664 159.737 11.7932 158.802 10.8389C157.803 9.82833 156.448 9.295 152.856 8.47163C150.273 7.88216 149.586 7.62019 148.881 6.99326C148.413 6.57221 148.203 6.06694 148.203 5.31841C148.203 4.42016 148.413 3.87747 149.018 3.25993C149.778 2.49268 150.822 2.14648 152.417 2.14648C154.835 2.15583 156.402 3.29736 156.869 5.41197L157.016 6.07631H158.207H159.398L159.334 5.48683C159.022 2.74531 157.483 0.939463 154.89 0.265778C153.745 -0.0242805 151.657 -0.0710641 150.539 0.181568Z" fill="#444444"/>
<path d="M176.971 10.0061V19.55H178.115H179.261V10.0061V0.46228H178.115H176.971V10.0061Z" fill="#444444"/>
<path d="M182.834 10.0064V19.5502H183.933H185.033V10.0064V0.462524H183.933H182.834V10.0064Z" fill="#444444"/>
<path d="M167.764 5.43053C166.316 5.55217 165.098 6.13229 164.035 7.21763C163.439 7.82584 163.256 8.09721 162.871 8.90184C162.212 10.3054 162.083 10.8948 162.092 12.579C162.102 13.7861 162.129 14.1136 162.34 14.9183C162.963 17.3042 164.282 18.8574 166.27 19.5124C167.259 19.8399 169.046 19.9241 170.09 19.6995C172.252 19.2317 173.59 17.9311 174.25 15.6387L174.396 15.1522H173.269H172.142L171.941 15.7042C171.684 16.4247 171.071 17.1264 170.42 17.4446C169.376 17.9404 167.745 17.9218 166.646 17.4071C165.326 16.7709 164.419 15.2364 164.419 13.6457V13.2808H169.504H174.589V12.8785C174.589 12.158 174.387 10.8106 174.167 10.0247C173.407 7.32991 171.584 5.65509 169.202 5.43989C168.762 5.40246 168.121 5.40246 167.764 5.43053ZM169.174 7.489C170.191 7.7229 171.189 8.49953 171.684 9.42584C171.895 9.82816 172.197 10.8574 172.206 11.1943C172.206 11.2878 171.364 11.3159 168.313 11.3159H164.419V11.0539C164.419 10.3615 164.896 9.26676 165.491 8.59307C166.362 7.61062 167.827 7.1709 169.174 7.489Z" fill="#444444"/>
<path d="M188.747 0.124448C186.942 0.526785 185.806 2.25778 186.072 4.17591C186.181 5.00866 186.53 5.68234 187.126 6.24374C187.83 6.88935 188.454 7.12325 189.507 7.12325C190.139 7.12325 190.451 7.07651 190.863 6.91742C191.559 6.63672 192.393 5.85076 192.732 5.14901C192.961 4.66246 192.989 4.5221 192.989 3.58643C192.989 2.66947 192.961 2.50105 192.75 2.03322C192.265 0.975908 191.34 0.274154 190.194 0.0870167C189.48 -0.0346184 189.471 -0.0346184 188.747 0.124448ZM190.671 0.957192C192.008 1.53731 192.65 3.35252 192.036 4.81217C191.312 6.49637 189.031 6.9829 187.721 5.72912C187.107 5.13965 186.86 4.53147 186.86 3.58643C186.851 3.01568 186.896 2.73497 187.043 2.40749C187.409 1.61217 188.069 1.03205 188.866 0.816841C189.26 0.704561 190.277 0.788771 190.671 0.957192Z" fill="#444444"/>
<path d="M188.179 1.76197C188.115 1.87425 188.097 2.58536 188.106 3.65202L188.133 5.3643L188.573 5.39237L189.004 5.42044V4.71869C189.004 4.01693 189.004 4.00758 189.242 4.00758C189.645 4.00758 189.81 4.176 190.012 4.8029L190.213 5.41109H190.717C191.202 5.41109 191.221 5.40173 191.166 5.18653C191.046 4.70933 190.754 4.1105 190.515 3.88594C190.268 3.66138 190.268 3.65202 190.451 3.58653C190.781 3.4836 191.019 3.08126 191.019 2.66021C191.019 1.84618 190.561 1.57483 189.196 1.57483C188.372 1.57483 188.271 1.59354 188.179 1.76197ZM189.773 2.32337C189.911 2.37015 190.03 2.5105 190.067 2.66021C190.149 2.99705 189.865 3.27776 189.397 3.29646L189.05 3.30583L189.022 2.89413C189.004 2.66957 189.013 2.42629 189.04 2.36079C189.095 2.21109 189.443 2.19237 189.773 2.32337Z" fill="#444444"/>
</g>
<defs>
<clipPath id="clip0_259_64731">
<rect width="192.988" height="20" fill="white"/>
</clipPath>
</defs>
</svg>
