<svg width="145" height="36" viewBox="0 0 145 36" fill="none" xmlns="http://www.w3.org/2000/svg">
<g clip-path="url(#clip0_5124_10238)">
<path d="M9.07012 15.5112C10.6421 15.5112 12.1503 14.9589 13.3399 13.9393L14.0622 14.789C12.6602 15.9573 10.8758 16.6159 9.04888 16.6159C3.92935 16.6159 0.72168 13.132 0.72168 8.86223C0.72168 4.59242 3.90811 1.10859 9.04888 1.10859C10.8758 1.10859 12.6602 1.74588 14.0622 2.93548L13.3399 3.78519C12.1291 2.78678 10.6209 2.23446 9.07012 2.21322C5.41635 2.21322 2.99467 5.18722 2.99467 8.86223C2.99467 12.5372 5.41635 15.49 9.07012 15.5112ZM35.3688 8.84099C35.3688 13.8968 31.4388 16.5946 27.2965 16.5946C23.1541 16.5946 19.203 13.8543 19.203 8.84099C19.203 3.82767 23.1541 1.04486 27.2965 1.04486C31.4388 1.04486 35.3688 3.78519 35.3688 8.84099ZM33.1808 8.81974C33.1808 5.16597 30.844 2.17073 27.2752 2.17073C23.7064 2.17073 21.3485 5.14473 21.3485 8.81974C21.3485 12.4948 23.7064 15.4475 27.2752 15.4475C30.844 15.4475 33.1808 12.4948 33.1808 8.81974ZM49.3041 12.3248C50.43 14.8102 51.2372 16.5309 51.2372 16.5309H48.773L47.286 13.2595C46.3301 11.1565 45.6503 9.20212 44.5882 9.20212H42.74V16.5521H40.4883V1.02362H44.8431C49.2191 1.02362 50.2175 2.8505 50.2175 5.10224C50.2175 6.82292 49.6227 8.28867 47.3922 8.92596C48.1995 9.96686 48.858 11.1352 49.3466 12.3673L49.3041 12.3248ZM46.1814 7.92755C47.1373 7.65139 47.9445 6.90789 47.9445 5.12349C47.9445 2.53186 46.1814 2.14949 44.8218 2.14949H42.7188V8.07624H44.8218C45.2679 8.07624 45.7141 8.01252 46.1601 7.88506L46.1814 7.92755ZM61.0939 1.0661H62.3047L68.3165 16.5946H66.0435L63.7705 10.6891H58.5872L56.293 16.5946H55.0821L61.0939 1.0661ZM61.2213 3.95513L59.0546 9.56324H63.4093L61.2213 3.95513ZM83.5688 15.4475V16.5734H73.4147V1.04486H75.6665V15.4475H83.5688ZM99.7134 1.0661V2.19198H94.0415V16.5946H91.7898V2.19198H86.118V1.0661H99.7134ZM113.627 12.3248C114.753 14.8102 115.561 16.5309 115.561 16.5309H113.096C113.096 16.5309 112.735 15.7449 111.609 13.2595C110.653 11.1565 109.974 9.20212 108.912 9.20212H107.063V16.5521H104.812V1.02362H109.166C113.542 1.02362 114.541 2.8505 114.541 5.10224C114.541 6.82292 113.946 8.28867 111.716 8.92596C112.523 9.96686 113.181 11.1352 113.67 12.3673L113.627 12.3248ZM110.505 7.92755C111.461 7.65139 112.268 6.90789 112.268 5.12349C112.268 2.53186 110.505 2.14949 109.145 2.14949H107.042V8.07624H109.145C109.591 8.07624 110.037 8.01252 110.484 7.88506L110.505 7.92755ZM130.388 15.4263V16.5521H120.701V1.02362H129.475V2.14949H122.974V7.80009H127.032V8.92596H122.953V15.4263H130.388ZM145.194 15.4263V16.5521H135.508V1.02362H144.281V2.14949H137.759V7.80009H141.838V8.92596H137.759V15.4263H145.194ZM32.0124 28.4057H33.0108V31.5284H36.7071V28.4057H37.7055V35.522H36.7071V32.3993H33.0108V35.522H32.0124V28.4057ZM44.8431 28.2782C46.8187 28.2357 48.4544 29.8289 48.4969 31.8045C48.4969 31.847 48.4969 31.8895 48.4969 31.932C48.4969 33.95 46.8612 35.5857 44.8431 35.5857C42.825 35.5857 41.1893 33.95 41.1893 31.932C41.1681 29.9564 42.7401 28.3207 44.7369 28.2782C44.7794 28.2782 44.8006 28.2782 44.8431 28.2782ZM44.8431 34.736C46.3301 34.6935 47.4984 33.4615 47.456 31.9745C47.456 31.9532 47.456 31.932 47.456 31.9107C47.5197 30.4662 46.3938 29.2341 44.9281 29.1704C43.4835 29.1067 42.2515 30.2325 42.1877 31.6983C42.1877 31.762 42.1877 31.847 42.1877 31.9107C42.124 33.3977 43.2711 34.6511 44.7581 34.7148C44.8006 34.7148 44.8218 34.7148 44.8431 34.736ZM51.9807 33.95C52.4693 34.4174 53.1278 34.6935 53.8076 34.7148C54.4661 34.7148 55.0397 34.3324 55.0397 33.6739C55.0397 32.1232 51.5983 32.463 51.5983 30.275C51.5983 29.1704 52.5542 28.2782 53.8713 28.2782C54.6148 28.257 55.3371 28.5119 55.8894 29.0005L55.4433 29.8289C55.0184 29.4466 54.4661 29.2341 53.8713 29.2129C53.1066 29.2129 52.5755 29.659 52.5755 30.2538C52.5755 31.7408 56.0168 31.3372 56.0168 33.6526C56.0168 34.7573 55.1671 35.6707 53.7438 35.6707C52.8729 35.692 52.0232 35.3521 51.3859 34.736L51.9807 33.95ZM59.4794 28.4057H62.071C63.2394 28.3419 64.2378 29.2341 64.3228 30.4237C64.3228 30.4875 64.3228 30.5724 64.3228 30.6362C64.3865 31.8258 63.4943 32.8454 62.3047 32.9091C62.2197 32.9091 62.156 32.9091 62.071 32.9091H60.4566V35.5433H59.4794V28.4057ZM61.9223 32.0169C62.6234 32.0594 63.2394 31.5284 63.2819 30.8273C63.2819 30.7636 63.2819 30.6999 63.2819 30.6362C63.3456 29.9351 62.8358 29.3403 62.1348 29.2766C62.0498 29.2766 61.9861 29.2766 61.9011 29.2766H60.4566V32.0169H61.9223ZM67.6367 28.4057H68.6351V35.522H67.6367V28.4057ZM74.1157 29.2766H71.6728V28.4057H77.5571V29.2766H75.1142V35.522H74.1157V29.2766ZM83.675 33.4827H80.9984L80.2974 35.522H79.2778L81.8481 28.4057H82.889L85.4594 35.522H84.4185L83.675 33.4827ZM82.3367 29.3828C82.3367 29.3828 82.1668 30.0201 82.0606 30.3812L81.2533 32.6542H83.3989L82.6129 30.3812C82.5067 30.0201 82.358 29.3828 82.3367 29.3828ZM88.4972 28.4057H89.4956V34.6511H92.682V35.522H88.4972V28.4057ZM95.8684 28.4057H96.8668V35.522H95.8684V28.4057ZM102.326 29.2766H99.8833V28.4057H105.768V29.2766H103.325V35.522H102.326V29.2766ZM110.547 32.5055L108.168 28.4057H109.294L110.611 30.7424C110.823 31.1247 111.057 31.6558 111.057 31.6558C111.057 31.6558 111.269 31.1672 111.482 30.7424L112.778 28.4057H113.904L111.524 32.5055V35.522H110.526L110.547 32.5055Z" fill="#555555"/>
</g>
<defs>
<clipPath id="clip0_5124_10238">
<rect width="142.752" height="34.6259" fill="white" transform="translate(0.636719 1.10858)"/>
</clipPath>
</defs>
</svg>
