<svg width="36" height="36" viewBox="0 0 36 36" fill="none" xmlns="http://www.w3.org/2000/svg">
<path d="M10.3244 8.47524C9.80768 8.47524 9.36914 8.65219 9.00876 9.00609C8.64838 9.36 8.46819 9.78974 8.46819 10.2953C8.46819 10.8009 8.64904 11.23 9.01074 11.5826C9.37243 11.9352 9.81164 12.1115 10.3283 12.1115C10.8451 12.1115 11.2836 11.9346 11.644 11.5807C12.0044 11.2268 12.1845 10.797 12.1845 10.2914C12.1845 9.78584 12.0037 9.35673 11.642 9.00412C11.2803 8.65153 10.8411 8.47524 10.3244 8.47524ZM10.3244 23.872C9.80768 23.872 9.36914 24.0489 9.00876 24.4028C8.64838 24.7567 8.46819 25.1865 8.46819 25.692C8.46819 26.1976 8.64904 26.6267 9.01074 26.9794C9.37243 27.3319 9.81164 27.5082 10.3283 27.5082C10.8451 27.5082 11.2836 27.3313 11.644 26.9774C12.0044 26.6235 12.1845 26.1937 12.1845 25.6882C12.1845 25.1826 12.0037 24.7535 11.642 24.4009C11.2803 24.0483 10.8411 23.872 10.3244 23.872ZM5.33453 4H30.6505C31.0437 4 31.3669 4.12352 31.6201 4.37054C31.8734 4.61757 32 4.93978 32 5.33717V15.0578C32 15.5083 31.8734 15.8785 31.6201 16.1684C31.3669 16.4583 31.0437 16.6033 30.6505 16.6033H5.33453C4.95129 16.6033 4.63306 16.4583 4.37985 16.1684C4.12662 15.8785 4 15.5083 4 15.0578V5.33717C4 4.93978 4.12662 4.61757 4.37985 4.37054C4.63306 4.12352 4.95129 4 5.33453 4ZM6.06933 6.02475V14.5785H29.9307V6.02475H6.06933ZM5.33453 19.3802H30.5282C30.9336 19.3802 31.2803 19.5307 31.5681 19.8318C31.856 20.1328 32 20.4839 32 20.8851V30.4339C32 30.9235 31.856 31.307 31.5681 31.5842C31.2803 31.8614 30.9336 32 30.5282 32H5.47182C5.04808 32 4.69684 31.8614 4.41811 31.5842C4.13937 31.307 4 30.9235 4 30.4339V20.8851C4 20.4839 4.12107 20.1328 4.36322 19.8318C4.60534 19.5307 4.92911 19.3802 5.33453 19.3802ZM6.06933 21.4049V29.9753H29.9307V21.4049H6.06933Z" fill="white"/>
</svg>
