<svg width="36" height="36" viewBox="0 0 36 36" fill="none" xmlns="http://www.w3.org/2000/svg">
<g id="Web devlopment">
<mask id="mask0_3227_115259" style="mask-type:alpha" maskUnits="userSpaceOnUse" x="0" y="0" width="36" height="36">
<rect id="Bounding box" width="36" height="36" fill="#D9D9D9"/>
</mask>
<g mask="url(#mask0_3227_115259)">
<path id="captive_portal" d="M15.0952 29.5846C14.5202 28.7019 14.0087 27.7423 13.5606 26.7057C13.1125 25.6692 12.7519 24.6038 12.4788 23.5095H7.39031C8.19226 25.0769 9.24516 26.3831 10.549 27.4283C11.8529 28.4735 13.3683 29.1923 15.0952 29.5846ZM6.44708 21.2596H12.0231C11.9288 20.7019 11.8606 20.1553 11.8183 19.6197C11.776 19.0841 11.7548 18.5442 11.7548 18C11.7548 17.4557 11.776 16.9158 11.8183 16.3802C11.8606 15.8447 11.9288 15.298 12.0231 14.7403H6.44708C6.30285 15.2499 6.19228 15.7798 6.11535 16.3298C6.03842 16.8798 5.99996 17.4365 5.99996 18C5.99996 18.5634 6.03842 19.1202 6.11535 19.6702C6.19228 20.2202 6.30285 20.75 6.44708 21.2596ZM7.39031 12.4904H12.4788C12.7327 11.3865 13.0885 10.3091 13.5462 9.25815C14.0039 8.20718 14.5202 7.25956 15.0952 6.41531C13.4164 6.78839 11.9106 7.50474 10.5778 8.56436C9.24515 9.62399 8.18264 10.9327 7.39031 12.4904ZM14.7894 12.4904H21.2106C20.8817 11.2654 20.4558 10.1365 19.9327 9.10384C19.4096 8.07114 18.7654 7.04709 18 6.03169C17.2346 7.00861 16.5951 8.01343 16.0817 9.04613C15.5682 10.0788 15.1374 11.2269 14.7894 12.4904ZM23.5211 12.4904H28.6096C27.8173 10.9327 26.7548 9.62159 25.4221 8.55716C24.0894 7.49274 22.5836 6.77879 20.9047 6.41531C21.4316 7.24994 21.924 8.19274 22.3817 9.24371C22.8394 10.2947 23.2192 11.3769 23.5211 12.4904ZM18 32.2499C16.0461 32.2499 14.2024 31.8754 12.4688 31.1264C10.7351 30.3773 9.22308 29.3576 7.93268 28.0673C6.6423 26.7769 5.6226 25.2648 4.87357 23.5312C4.12452 21.7976 3.75 19.9538 3.75 18C3.75 16.0307 4.12452 14.1832 4.87357 12.4572C5.6226 10.7313 6.6423 9.22308 7.93268 7.93268C9.22308 6.6423 10.7351 5.6226 12.4688 4.87358C14.2024 4.12453 16.0461 3.75 18 3.75C19.9692 3.75 21.8168 4.12453 23.5427 4.87358C25.2687 5.6226 26.7769 6.6423 28.0673 7.93268C29.3576 9.22308 30.3773 10.7313 31.1264 12.4572C31.8754 14.1832 32.2499 16.0307 32.2499 18C32.2499 18.2596 32.2437 18.524 32.2312 18.7932C32.2187 19.0625 32.1951 19.3269 32.1605 19.5865H29.873C29.923 19.3269 29.9567 19.0663 29.974 18.8048C29.9913 18.5432 30 18.275 30 18C30 17.4365 29.9615 16.8798 29.8846 16.3298C29.8077 15.7798 29.6971 15.2499 29.5529 14.7403H23.9769C24.0711 15.298 24.1394 15.8447 24.1817 16.3802C24.224 16.9158 24.2451 17.4557 24.2451 18C24.2451 18.275 24.2427 18.5408 24.2379 18.7976C24.2331 19.0543 24.2182 19.3173 24.1932 19.5865H21.9432C21.9682 19.3269 21.9832 19.0663 21.988 18.8048C21.9928 18.5432 21.9952 18.275 21.9952 18C21.9952 17.4365 21.974 16.8918 21.9317 16.3658C21.8894 15.8399 21.8211 15.298 21.7269 14.7403H14.273C14.1788 15.298 14.1105 15.8399 14.0682 16.3658C14.0259 16.8918 14.0048 17.4365 14.0048 18C14.0048 18.5634 14.0259 19.1082 14.0682 19.6341C14.1105 20.1601 14.1788 20.7019 14.273 21.2596H19.5865V23.5095H14.7894C15.1374 24.7634 15.5754 25.9187 16.1033 26.9754C16.6312 28.0322 17.2634 29.0298 18 29.9682C18.2942 29.5779 18.5711 29.1788 18.8307 28.7711C19.0904 28.3634 19.3423 27.9471 19.5865 27.5221V32.1605C19.3269 32.1951 19.0663 32.2187 18.8048 32.2312C18.5432 32.2437 18.275 32.2499 18 32.2499ZM25.1249 26.7287V29.475C25.1249 29.7942 25.0172 30.0615 24.8019 30.2769C24.5865 30.4922 24.3192 30.5999 24 30.5999C23.6807 30.5999 23.4134 30.4922 23.1981 30.2769C22.9827 30.0615 22.875 29.7942 22.875 29.475V24.2307C22.875 23.8442 23.0043 23.5216 23.263 23.263C23.5216 23.0043 23.8442 22.875 24.2307 22.875H29.475C29.7942 22.875 30.0615 22.9827 30.2769 23.1981C30.4922 23.4134 30.5999 23.6807 30.5999 24C30.5999 24.3192 30.4922 24.5865 30.2769 24.8019C30.0615 25.0172 29.7942 25.1249 29.475 25.1249H26.6912L30.7153 29.1346C30.923 29.3423 31.0269 29.6019 31.0269 29.9134C31.0269 30.225 30.923 30.4923 30.7153 30.7153C30.4923 30.948 30.225 31.062 29.9134 31.0572C29.6019 31.0523 29.3346 30.9384 29.1115 30.7153L25.1249 26.7287Z" fill="white"/>
</g>
</g>
</svg>
