<svg width="24" height="24" viewBox="0 0 24 24" fill="none" xmlns="http://www.w3.org/2000/svg">
<g id="Icons- Coditas">
<path id="Vector" d="M12.0001 12.8L6.67319 18.1269C6.56166 18.2384 6.42993 18.2958 6.27801 18.299C6.12608 18.3022 5.99115 18.2448 5.87321 18.1269C5.75526 18.009 5.69629 17.8756 5.69629 17.7269C5.69629 17.5782 5.75526 17.4449 5.87321 17.3269L11.2001 12L5.87321 6.67307C5.76166 6.56153 5.70429 6.42981 5.70109 6.27789C5.69789 6.12596 5.75526 5.99103 5.87321 5.87309C5.99115 5.75514 6.12447 5.69617 6.27319 5.69617C6.42191 5.69617 6.55524 5.75514 6.67319 5.87309L12.0001 11.2L17.327 5.87309C17.4386 5.76154 17.5703 5.70417 17.7222 5.70097C17.8741 5.69777 18.0091 5.75514 18.127 5.87309C18.245 5.99103 18.3039 6.12435 18.3039 6.27307C18.3039 6.42178 18.245 6.55512 18.127 6.67307L12.8001 12L18.127 17.3269C18.2386 17.4385 18.2959 17.5702 18.2991 17.7221C18.3023 17.874 18.245 18.009 18.127 18.1269C18.0091 18.2448 17.8758 18.3038 17.727 18.3038C17.5783 18.3038 17.445 18.2448 17.327 18.1269L12.0001 12.8Z" fill="#111111"/>
</g>
</svg>
