<svg width="36" height="36" viewBox="0 0 36 36" fill="none" xmlns="http://www.w3.org/2000/svg">
<g id="Ai generative-services">
<mask id="mask0_3264_117552" style="mask-type:alpha" maskUnits="userSpaceOnUse" x="0" y="0" width="36" height="36">
<rect id="Bounding box" width="36" height="36" fill="#D9D9D9"/>
</mask>
<g mask="url(#mask0_3264_117552)">
<path id="smart_toy" d="M6.74993 21.7501C5.70188 21.7501 4.81488 21.3871 4.08893 20.6612C3.36298 19.9352 3 19.0482 3 18.0001C3 16.9521 3.36298 16.0651 4.08893 15.3391C4.81488 14.6131 5.70188 14.2502 6.74993 14.2502V10.5001C6.74993 9.88668 6.97156 9.35833 7.41484 8.91508C7.85809 8.47181 8.38644 8.25017 8.99989 8.25017H14.2499C14.2499 7.20212 14.6129 6.31512 15.3389 5.58917C16.0648 4.86322 16.9518 4.50024 17.9999 4.50024C19.0479 4.50024 19.935 4.86322 20.6609 5.58917C21.3869 6.31512 21.7499 7.20212 21.7499 8.25017H26.9999C27.6133 8.25017 28.1417 8.47181 28.5849 8.91508C29.0282 9.35833 29.2499 9.88668 29.2499 10.5001V14.2502C30.2979 14.2502 31.1849 14.6131 31.9109 15.3391C32.6368 16.0651 32.9998 16.9521 32.9998 18.0001C32.9998 19.0482 32.6368 19.9352 31.9109 20.6612C31.1849 21.3871 30.2979 21.7501 29.2499 21.7501V28.5001C29.2499 29.1136 29.0282 29.6419 28.5849 30.0852C28.1417 30.5285 27.6133 30.7501 26.9999 30.7501H8.99989C8.38644 30.7501 7.85809 30.5285 7.41484 30.0852C6.97156 29.6419 6.74993 29.1136 6.74993 28.5001V21.7501ZM13.4982 19.1251C14.0185 19.1251 14.4614 18.943 14.8268 18.5787C15.1922 18.2145 15.3748 17.7722 15.3748 17.2518C15.3748 16.7315 15.1927 16.2886 14.8285 15.9232C14.4642 15.5579 14.0219 15.3752 13.5016 15.3752C12.9812 15.3752 12.5384 15.5573 12.173 15.9215C11.8076 16.2858 11.6249 16.7281 11.6249 17.2484C11.6249 17.7688 11.8071 18.2117 12.1713 18.577C12.5356 18.9424 12.9778 19.1251 13.4982 19.1251ZM22.4982 19.1251C23.0186 19.1251 23.4614 18.943 23.8268 18.5787C24.1922 18.2145 24.3749 17.7722 24.3749 17.2518C24.3749 16.7315 24.1927 16.2886 23.8285 15.9232C23.4642 15.5579 23.0219 15.3752 22.5016 15.3752C21.9812 15.3752 21.5384 15.5573 21.173 15.9215C20.8076 16.2858 20.6249 16.7281 20.6249 17.2484C20.6249 17.7688 20.807 18.2117 21.1713 18.577C21.5355 18.9424 21.9779 19.1251 22.4982 19.1251ZM13.4999 25.1251H22.4999C22.8186 25.1251 23.0858 25.0172 23.3015 24.8015C23.5171 24.5858 23.6249 24.3185 23.6249 23.9996C23.6249 23.6807 23.5171 23.4136 23.3015 23.1982C23.0858 22.9829 22.8186 22.8752 22.4999 22.8752H13.4999C13.1811 22.8752 12.914 22.983 12.6984 23.1987C12.4827 23.4144 12.3749 23.6817 12.3749 24.0006C12.3749 24.3195 12.4827 24.5867 12.6984 24.802C12.914 25.0174 13.1811 25.1251 13.4999 25.1251ZM8.99989 28.5001H26.9999V10.5001H8.99989V28.5001Z" fill="white"/>
</g>
</g>
</svg>
