<svg width="36" height="36" viewBox="0 0 36 36" fill="none" xmlns="http://www.w3.org/2000/svg">
<g id="Icons- Healthcare">
<path id="Vector" d="M4.1468 29C3.82391 29 3.55206 28.8916 3.33123 28.6749C3.11041 28.4581 3 28.1858 3 27.8581V26.0704C3 25.3078 3.19756 24.6313 3.59267 24.0407C3.9878 23.4501 4.5326 22.9955 5.22706 22.6771C6.7498 21.9884 8.18343 21.4692 9.52797 21.1194C10.8725 20.7697 12.3626 20.5948 13.9983 20.5948C15.6402 20.5948 17.1294 20.7697 18.4658 21.1194C19.8022 21.4692 21.2349 21.9884 22.7639 22.6771C23.4521 22.9955 23.9963 23.4501 24.3964 24.0407C24.7966 24.6313 24.9966 25.3078 24.9966 26.0704V27.8581C24.9966 28.1858 24.8878 28.4581 24.6701 28.6749C24.4524 28.8916 24.179 29 23.8498 29H4.1468ZM26.9575 29C27.1412 28.9034 27.2895 28.7536 27.4026 28.5506C27.5157 28.3477 27.5723 28.1044 27.5723 27.8206V26.0385C27.5723 24.853 27.2912 23.8259 26.7289 22.9575C26.1667 22.0891 25.4144 21.367 24.4721 20.7914C25.6672 20.9636 26.8024 21.2077 27.8778 21.5238C28.9532 21.8398 29.8873 22.2016 30.68 22.609C31.395 23.0015 31.9605 23.4915 32.3763 24.079C32.7921 24.6664 33 25.3196 33 26.0385V27.8581C33 28.1858 32.8896 28.4581 32.6687 28.6749C32.4479 28.8916 32.1761 29 31.8532 29H26.9575ZM13.9983 17.8653C12.5869 17.8653 11.4084 17.3946 10.4628 16.453C9.51717 15.5115 9.04437 14.3381 9.04437 12.9327C9.04437 11.521 9.51717 10.346 10.4628 9.4076C11.4084 8.4692 12.5869 8 13.9983 8C15.416 8 16.5961 8.4692 17.5385 9.4076C18.481 10.346 18.9522 11.521 18.9522 12.9327C18.9522 14.3381 18.481 15.5115 17.5385 16.453C16.5961 17.3946 15.416 17.8653 13.9983 17.8653ZM25.9459 12.9327C25.9459 14.3381 25.4747 15.5115 24.5323 16.453C23.5898 17.3946 22.4098 17.8653 20.9921 17.8653C20.8266 17.8653 20.6383 17.8516 20.4271 17.8242C20.2159 17.7967 20.0276 17.7555 19.8622 17.7006C20.4041 17.0907 20.8173 16.3795 21.1015 15.5669C21.3858 14.7544 21.5279 13.8758 21.5279 12.9309C21.5279 11.9861 21.3811 11.1225 21.0875 10.3399C20.7939 9.55747 20.3855 8.82928 19.8622 8.15536C20.0364 8.10669 20.2247 8.06863 20.4271 8.04118C20.6295 8.01373 20.8178 8 20.9921 8C22.4098 8 23.5898 8.4692 24.5323 9.4076C25.4747 10.346 25.9459 11.521 25.9459 12.9327ZM4.84237 27.1655H23.1542V26.0704C23.1542 25.7091 23.0544 25.3749 22.8548 25.0679C22.6552 24.7609 22.3608 24.5104 21.9716 24.3163C20.5465 23.6343 19.2311 23.1492 18.0254 22.8613C16.8196 22.5733 15.4773 22.4293 13.9983 22.4293C12.5256 22.4293 11.1838 22.5733 9.97308 22.8613C8.76233 23.1492 7.44441 23.6343 6.01931 24.3163C5.63014 24.5104 5.33669 24.7609 5.13896 25.0679C4.94124 25.3749 4.84237 25.7091 4.84237 26.0704V27.1655ZM13.9983 16.0308C14.8775 16.0308 15.6159 15.7333 16.2135 15.1384C16.811 14.5434 17.1098 13.8081 17.1098 12.9327C17.1098 12.0572 16.811 11.322 16.2135 10.727C15.6159 10.132 14.8775 9.83451 13.9983 9.83451C13.1191 9.83451 12.3807 10.132 11.7831 10.727C11.1856 11.322 10.8868 12.0572 10.8868 12.9327C10.8868 13.8081 11.1856 14.5434 11.7831 15.1384C12.3807 15.7333 13.1191 16.0308 13.9983 16.0308Z" fill="#2C74D6"/>
</g>
</svg>
