<svg xmlns="http://www.w3.org/2000/svg" width="36" height="36" viewBox="0 0 36 36" fill="none">
  <mask id="mask0_4727_493" style="mask-type:alpha" maskUnits="userSpaceOnUse" x="0" y="0" width="36" height="36">
    <rect width="36" height="36" fill="#D9D9D9"/>
  </mask>
  <g mask="url(#mask0_4727_493)">
    <path d="M2 29V25.6699C2 24.8433 2.21719 24.0934 2.65158 23.4203C3.08597 22.7472 3.68929 22.2453 4.46154 21.9147C6.22323 21.1589 7.80996 20.6157 9.22172 20.285C10.6335 19.9544 12.0875 19.7891 13.5837 19.7891C15.0799 19.7891 16.5279 19.9544 17.9276 20.285C19.3273 20.6157 20.908 21.1589 22.6697 21.9147C23.4419 22.2453 24.0513 22.7472 24.4977 23.4203C24.9442 24.0934 25.1674 24.8433 25.1674 25.6699V29H2ZM27.3394 29V25.6699C27.3394 24.182 26.9532 22.9597 26.181 22.0032C25.4087 21.0467 24.3952 20.2732 23.1403 19.6828C24.8054 19.8717 26.3741 20.1492 27.8462 20.5153C29.3183 20.8814 30.5128 21.3006 31.4299 21.7729C32.2262 22.2217 32.8537 22.7767 33.3122 23.438C33.7707 24.0993 34 24.8433 34 25.6699V29H27.3394ZM13.5837 17.628C11.991 17.628 10.6878 17.132 9.67421 16.1401C8.66063 15.1481 8.15385 13.8728 8.15385 12.314C8.15385 10.7552 8.66063 9.47987 9.67421 8.48792C10.6878 7.49597 11.991 7 13.5837 7C15.1765 7 16.4796 7.49597 17.4932 8.48792C18.5068 9.47987 19.0136 10.7552 19.0136 12.314C19.0136 13.8728 18.5068 15.1481 17.4932 16.1401C16.4796 17.132 15.1765 17.628 13.5837 17.628ZM26.6154 12.314C26.6154 13.8728 26.1086 15.1481 25.095 16.1401C24.0814 17.132 22.7783 17.628 21.1855 17.628C20.9201 17.628 20.6244 17.6103 20.2986 17.5749C19.9729 17.5395 19.6772 17.4745 19.4118 17.38C19.991 16.7896 20.4314 16.0633 20.733 15.2013C21.0347 14.3392 21.1855 13.3768 21.1855 12.314C21.1855 11.2512 21.0347 10.3124 20.733 9.49758C20.4314 8.68277 19.991 7.9329 19.4118 7.24799C19.6772 7.17713 19.9729 7.11809 20.2986 7.07085C20.6244 7.02362 20.9201 7 21.1855 7C22.7783 7 24.0814 7.49597 25.095 8.48792C26.1086 9.47987 26.6154 10.7552 26.6154 12.314ZM4.17195 26.8744H22.9955V25.6699C22.9955 25.292 22.8808 24.9259 22.6516 24.5717C22.4223 24.2174 22.1388 23.9694 21.8009 23.8277C20.0633 23.0719 18.6033 22.5641 17.4208 22.3043C16.2383 22.0446 14.9593 21.9147 13.5837 21.9147C12.2081 21.9147 10.9231 22.0446 9.72851 22.3043C8.53394 22.5641 7.06787 23.0719 5.33032 23.8277C4.99246 23.9694 4.71493 24.2174 4.49774 24.5717C4.28054 24.9259 4.17195 25.292 4.17195 25.6699V26.8744ZM13.5837 15.5024C14.5249 15.5024 15.3032 15.2013 15.9186 14.599C16.5339 13.9968 16.8416 13.2351 16.8416 12.314C16.8416 11.3929 16.5339 10.6312 15.9186 10.029C15.3032 9.42673 14.5249 9.1256 13.5837 9.1256C12.6425 9.1256 11.8643 9.42673 11.2489 10.029C10.6335 10.6312 10.3258 11.3929 10.3258 12.314C10.3258 13.2351 10.6335 13.9968 11.2489 14.599C11.8643 15.2013 12.6425 15.5024 13.5837 15.5024Z" fill="#2C74D6"/>
  </g>
</svg>