<svg xmlns="http://www.w3.org/2000/svg" width="36" height="36" viewBox="0 0 36 36" fill="none">
<mask id="mask0_4701_1431" style="mask-type:alpha" maskUnits="userSpaceOnUse" x="0" y="0" width="36" height="36">
<rect width="36" height="36" fill="#D9D9D9"/>
</mask>
<g mask="url(#mask0_4701_1431)">
<path d="M6.46155 29.2499C5.71588 29.2499 5.07754 28.9844 4.54654 28.4534C4.01551 27.9224 3.75 27.284 3.75 26.5384V9.46155C3.75 8.71588 4.01551 8.07754 4.54654 7.54654C5.07754 7.01551 5.71588 6.75 6.46155 6.75H28.1249C28.4437 6.75 28.7109 6.85786 28.9265 7.07359C29.1421 7.28931 29.2499 7.55661 29.2499 7.87549C29.2499 8.19439 29.1421 8.46153 28.9265 8.6769C28.7109 8.89228 28.4437 8.99996 28.1249 8.99996H6.46155C6.32693 8.99996 6.21634 9.04324 6.12979 9.12979C6.04324 9.21634 5.99996 9.32693 5.99996 9.46155V26.5384C5.99996 26.673 6.04324 26.7836 6.12979 26.8701C6.21634 26.9567 6.32693 27 6.46155 27H9.17306C9.49179 27 9.75896 27.1078 9.97459 27.3236C10.1902 27.5393 10.298 27.8066 10.298 28.1255C10.298 28.4443 10.1902 28.7115 9.97459 28.9268C9.75896 29.1422 9.49179 29.2499 9.17306 29.2499H6.46155ZM16.4134 25.9615C17.0384 25.9615 17.5697 25.7427 18.0072 25.3052C18.4447 24.8677 18.6634 24.3365 18.6634 23.7115C18.6634 23.0865 18.4447 22.5552 18.0072 22.1177C17.5697 21.6802 17.0384 21.4615 16.4134 21.4615C15.7884 21.4615 15.2572 21.6802 14.8197 22.1177C14.3822 22.5552 14.1634 23.0865 14.1634 23.7115C14.1634 24.3365 14.3822 24.8677 14.8197 25.3052C15.2572 25.7427 15.7884 25.9615 16.4134 25.9615ZM30.8942 29.2499H23.8846C23.5005 29.2499 23.1785 29.12 22.9186 28.8601C22.6587 28.6003 22.5288 28.2783 22.5288 27.8941V14.8557C22.5288 14.4716 22.6587 14.1496 22.9186 13.8897C23.1785 13.6299 23.5005 13.5 23.8846 13.5H30.8942C31.2783 13.5 31.6003 13.6299 31.8601 13.8897C32.12 14.1496 32.2499 14.4716 32.2499 14.8557V27.8941C32.2499 28.2783 32.12 28.6003 31.8601 28.8601C31.6003 29.12 31.2783 29.2499 30.8942 29.2499ZM24.7788 27H30V15.7499H24.7788V27ZM13.875 27.888V26.8326C13.4096 26.4557 13.0433 25.9966 12.776 25.4552C12.5086 24.9139 12.375 24.3326 12.375 23.7115C12.375 23.0903 12.5086 22.5091 12.776 21.9677C13.0433 21.4264 13.4096 20.9673 13.875 20.5904V19.5349C13.875 19.149 14.0049 18.8256 14.2648 18.5646C14.5246 18.3036 14.8466 18.1731 15.2307 18.1731H17.5961C17.9802 18.1731 18.3022 18.3036 18.5621 18.5646C18.8219 18.8256 18.9519 19.149 18.9519 19.5349V20.5904C19.4172 20.9673 19.7836 21.4264 20.0509 21.9677C20.3182 22.5091 20.4519 23.0903 20.4519 23.7115C20.4519 24.3326 20.3182 24.9139 20.0509 25.4552C19.7836 25.9966 19.4172 26.4557 18.9519 26.8326V27.888C18.9519 28.2739 18.8219 28.5974 18.5621 28.8584C18.3022 29.1194 17.9802 29.2499 17.5961 29.2499H15.2307C14.8466 29.2499 14.5246 29.1194 14.2648 28.8584C14.0049 28.5974 13.875 28.2739 13.875 27.888Z" fill="white"/>
</g>
</svg>