<svg xmlns="http://www.w3.org/2000/svg" width="36" height="36" viewBox="0 0 36 36" fill="none">
  <path d="M8.34375 30.5192L12.4844 28.8183C12.1458 27.8162 11.8529 26.801 11.6055 25.7726C11.3581 24.7441 11.1432 23.7025 10.9609 22.6477L8.34375 24.4277V30.5192ZM14.8281 28.4623H22.1719C22.7448 26.9065 23.1875 25.3572 23.5 23.8146C23.8125 22.2719 23.9688 20.9205 23.9688 19.7602C23.9688 16.7276 23.5391 14.0643 22.6797 11.7701C21.8203 9.4759 20.4271 7.30037 18.5 5.24351C16.5729 7.30037 15.1797 9.4759 14.3203 11.7701C13.4609 14.0643 13.0312 16.7276 13.0312 19.7602C13.0312 20.9205 13.1875 22.2719 13.5 23.8146C13.8125 25.3572 14.2552 26.9065 14.8281 28.4623ZM18.5 19.3646C17.7448 19.3646 17.1003 19.0944 16.5664 18.5538C16.0326 18.0132 15.7656 17.3605 15.7656 16.5958C15.7656 15.8311 16.0326 15.1784 16.5664 14.6378C17.1003 14.0972 17.7448 13.8269 18.5 13.8269C19.2552 13.8269 19.8997 14.0972 20.4336 14.6378C20.9674 15.1784 21.2344 15.8311 21.2344 16.5958C21.2344 17.3605 20.9674 18.0132 20.4336 18.5538C19.8997 19.0944 19.2552 19.3646 18.5 19.3646ZM28.6562 30.5192V24.4277L26.0391 22.6477C25.8568 23.7025 25.6419 24.7441 25.3945 25.7726C25.1471 26.801 24.8542 27.8162 24.5156 28.8183L28.6562 30.5192ZM18.5 2C21.1562 4.3733 23.1224 7.00371 24.3984 9.89122C25.6745 12.7787 26.3125 16.0684 26.3125 19.7602V19.958L29.9453 22.4499C30.2839 22.6609 30.5443 22.9378 30.7266 23.2806C30.9089 23.6234 31 23.9926 31 24.3881V34L23.1875 30.8356H13.8125L6 34V24.3881C6 23.9926 6.09115 23.6234 6.27344 23.2806C6.45573 22.9378 6.71615 22.6609 7.05469 22.4499L10.6875 19.958V19.7602C10.6875 16.0684 11.3255 12.7787 12.6016 9.89122C13.8776 7.00371 15.8438 4.3733 18.5 2Z" fill="#2C74D6"/>
</svg>