<svg width="36" height="36" viewBox="0 0 36 36" fill="none" xmlns="http://www.w3.org/2000/svg">
<g id="Icons- Data science">
<path id="Vector" d="M6.67477 17.69C6.67477 20.298 7.39893 22.6667 8.84727 24.7959C10.2956 26.9251 12.2284 28.4774 14.6456 29.4528C14.919 29.5664 15.1191 29.7472 15.2459 29.9952C15.3727 30.2432 15.3717 30.4837 15.243 30.7168C15.0765 30.9757 14.8497 31.1454 14.5624 31.226C14.2751 31.3066 13.9832 31.2841 13.6867 31.1587C10.9498 30.0227 8.76693 28.2312 7.13797 25.784C5.509 23.3368 4.69451 20.6286 4.69451 17.6593C4.69451 16.8371 4.76188 16.0246 4.89662 15.2218C5.03132 14.4191 5.24035 13.631 5.52371 12.8577L3.43829 14.0445C3.19857 14.1733 2.95339 14.2081 2.70275 14.149C2.45213 14.0899 2.26243 13.9438 2.13365 13.7107C1.99827 13.4842 1.96574 13.24 2.03606 12.9781C2.1064 12.7163 2.25813 12.5177 2.49126 12.3823L6.97295 9.79673C7.25891 9.63822 7.56502 9.60157 7.89128 9.68677C8.21751 9.77198 8.45989 9.95755 8.61839 10.2435L11.204 14.6865C11.3394 14.9196 11.3719 15.1671 11.3015 15.4289C11.2312 15.6908 11.0828 15.8861 10.8563 16.0149C10.6165 16.1436 10.3674 16.1745 10.1089 16.1075C9.85029 16.0405 9.65663 15.8904 9.52787 15.6573L7.72982 12.5962C7.37845 13.4032 7.11476 14.2342 6.93876 15.0891C6.76276 15.944 6.67477 16.811 6.67477 17.69ZM19.3848 4.94159C17.953 4.94159 16.5774 5.17257 15.2582 5.63454C13.939 6.0965 12.7186 6.76998 11.5972 7.65498C11.3588 7.83131 11.1027 7.91187 10.829 7.89667C10.5552 7.88148 10.354 7.75732 10.2252 7.5242C10.0641 7.26004 10.0192 6.97739 10.0905 6.67624C10.1618 6.3751 10.3193 6.13702 10.563 5.962C11.839 5.00044 13.2213 4.26638 14.7099 3.75983C16.1985 3.25328 17.7439 3 19.3461 3C21.4688 3 23.4847 3.4306 25.394 4.29179C27.3034 5.15298 28.9574 6.37872 30.3562 7.969V5.48637C30.3562 5.20638 30.448 4.97458 30.6316 4.79099C30.8152 4.6074 31.047 4.5156 31.327 4.5156C31.607 4.5156 31.8388 4.6074 32.0224 4.79099C32.206 4.97458 32.2978 5.20638 32.2978 5.48637V10.6575C32.2978 11.0068 32.1837 11.2956 31.9556 11.5238C31.7274 11.752 31.4386 11.866 31.0892 11.866H25.9181C25.6381 11.866 25.4062 11.7742 25.2227 11.5907C25.0391 11.4071 24.9473 11.1753 24.9473 10.8952C24.9473 10.6152 25.0391 10.3834 25.2227 10.1998C25.4062 10.0163 25.6381 9.92445 25.9181 9.92445H29.4666C28.264 8.34803 26.7793 7.12344 25.0127 6.25068C23.246 5.37795 21.37 4.94159 19.3848 4.94159ZM28.8554 26.153C30.1366 24.7139 31.0409 23.0827 31.5683 21.2593C32.0956 19.4358 32.2021 17.5816 31.8878 15.6968C31.8468 15.4135 31.9036 15.1566 32.0581 14.9261C32.2127 14.6956 32.4247 14.5804 32.6941 14.5804C33.0045 14.5804 33.2674 14.6966 33.4827 14.9291C33.698 15.1615 33.8261 15.4415 33.867 15.7691C34.1345 17.7841 33.9985 19.7584 33.4589 21.6922C32.9193 23.6259 32.0013 25.3799 30.7049 26.9544C29.631 28.2653 28.3763 29.3531 26.9409 30.2176C25.5054 31.082 23.9566 31.682 22.2943 32.0175L24.348 33.2063C24.5811 33.3351 24.7272 33.5304 24.7863 33.7923C24.8454 34.0541 24.8106 34.3016 24.6818 34.5347C24.5464 34.7678 24.3534 34.9139 24.1028 34.9731C23.8522 35.0322 23.6103 34.994 23.3772 34.8586L18.8865 32.2582C18.6006 32.0997 18.415 31.8574 18.3298 31.5311C18.2446 31.2049 18.2813 30.8988 18.4398 30.6128L21.0254 26.1768C21.1607 25.9436 21.3564 25.7949 21.6123 25.7305C21.8682 25.6661 22.1127 25.6983 22.3459 25.8271C22.579 25.9558 22.7264 26.1469 22.7882 26.4001C22.8499 26.6534 22.8164 26.8966 22.6876 27.1297L20.846 30.3146C22.4006 30.1363 23.8656 29.691 25.241 28.9788C26.6163 28.2665 27.8211 27.3246 28.8554 26.153Z" fill="white"/>
<path id="Vector_2" d="M19 16.8661C18.175 16.8661 17.4896 16.5877 16.9437 16.0308C16.3979 15.474 16.125 14.7747 16.125 13.933C16.125 13.0914 16.3979 12.3921 16.9437 11.8353C17.4896 11.2784 18.175 11 19 11C19.825 11 20.5104 11.2784 21.0563 11.8353C21.6021 12.3921 21.875 13.0914 21.875 13.933C21.875 14.7747 21.6021 15.474 21.0563 16.0308C20.5104 16.5877 19.825 16.8661 19 16.8661ZM23.75 23H14.25C13.9062 23 13.612 22.8751 13.3672 22.6254C13.1224 22.3757 13 22.0755 13 21.7248V21.0871C13 20.6196 13.1156 20.2104 13.3469 19.8597C13.5781 19.509 13.8792 19.2423 14.25 19.0595C15.0667 18.6727 15.8646 18.3826 16.6437 18.1892C17.4229 17.9958 18.2083 17.8991 19 17.8991C19.7917 17.8991 20.575 17.9979 21.35 18.1955C22.125 18.3932 22.9205 18.682 23.7365 19.062C24.1182 19.2458 24.4242 19.5124 24.6545 19.8618C24.8848 20.2111 25 20.6196 25 21.0871V21.7248C25 22.0755 24.8776 22.3757 24.6328 22.6254C24.388 22.8751 24.0938 23 23.75 23ZM14.25 21.7248H23.75V21.0871C23.75 20.9044 23.699 20.7322 23.5969 20.5707C23.4948 20.4091 23.3667 20.288 23.2125 20.2072C22.4542 19.8289 21.7396 19.5622 21.0687 19.407C20.3979 19.2519 19.7083 19.1743 19 19.1743C18.2917 19.1743 17.5979 19.2519 16.9188 19.407C16.2396 19.5622 15.525 19.8289 14.775 20.2072C14.6208 20.288 14.4948 20.4091 14.3969 20.5707C14.299 20.7322 14.25 20.9044 14.25 21.0871V21.7248ZM19 15.5909C19.4625 15.5909 19.849 15.4325 20.1594 15.1158C20.4698 14.7991 20.625 14.4049 20.625 13.933C20.625 13.4612 20.4698 13.0669 20.1594 12.7503C19.849 12.4336 19.4625 12.2752 19 12.2752C18.5375 12.2752 18.151 12.4336 17.8406 12.7503C17.5302 13.0669 17.375 13.4612 17.375 13.933C17.375 14.4049 17.5302 14.7991 17.8406 15.1158C18.151 15.4325 18.5375 15.5909 19 15.5909Z" fill="white"/>
</g>
</svg>
