<svg xmlns="http://www.w3.org/2000/svg" width="36" height="36" viewBox="0 0 36 36" fill="none">
  <path d="M16.5 31V28.75H29.25V17.35C29.25 15.9 28.9375 14.5063 28.3125 13.1688C27.6875 11.8313 26.85 10.65 25.8 9.625C24.75 8.6 23.55 7.78125 22.2 7.16875C20.85 6.55625 19.45 6.25 18 6.25C16.55 6.25 15.15 6.55625 13.8 7.16875C12.45 7.78125 11.25 8.6 10.2 9.625C9.15 10.65 8.3125 11.8313 7.6875 13.1688C7.0625 14.5063 6.75 15.9 6.75 17.35V26.5H6C5.175 26.5 4.46875 26.2063 3.88125 25.6188C3.29375 25.0312 3 24.325 3 23.5V20.5C3 19.925 3.1375 19.4188 3.4125 18.9813C3.6875 18.5438 4.05 18.1875 4.5 17.9125L4.6125 15.925C4.8375 14.1 5.35625 12.45 6.16875 10.975C6.98125 9.5 7.99375 8.25 9.20625 7.225C10.4188 6.2 11.7812 5.40625 13.2938 4.84375C14.8063 4.28125 16.375 4 18 4C19.65 4 21.2313 4.28125 22.7438 4.84375C24.2563 5.40625 25.6125 6.20625 26.8125 7.24375C28.0125 8.28125 29.0188 9.53125 29.8313 10.9938C30.6438 12.4563 31.1625 14.0875 31.3875 15.8875L31.5 17.8375C31.95 18.0625 32.3125 18.3938 32.5875 18.8313C32.8625 19.2688 33 19.75 33 20.275V23.725C33 24.275 32.8625 24.7625 32.5875 25.1875C32.3125 25.6125 31.95 25.9375 31.5 26.1625V28.75C31.5 29.3688 31.2797 29.8984 30.8391 30.3391C30.3984 30.7797 29.8688 31 29.25 31H16.5ZM13.5 20.125C13.2 20.125 12.9375 20.0125 12.7125 19.7875C12.4875 19.5625 12.375 19.2938 12.375 18.9813C12.375 18.6688 12.4875 18.4063 12.7125 18.1938C12.9375 17.9813 13.2063 17.875 13.5188 17.875C13.8313 17.875 14.0938 17.9828 14.3063 18.1984C14.5188 18.4141 14.625 18.6813 14.625 19C14.625 19.3 14.5172 19.5625 14.3016 19.7875C14.0859 20.0125 13.8188 20.125 13.5 20.125ZM22.5 20.125C22.2 20.125 21.9375 20.0125 21.7125 19.7875C21.4875 19.5625 21.375 19.2938 21.375 18.9813C21.375 18.6688 21.4875 18.4063 21.7125 18.1938C21.9375 17.9813 22.2063 17.875 22.5188 17.875C22.8313 17.875 23.0938 17.9828 23.3063 18.1984C23.5188 18.4141 23.625 18.6813 23.625 19C23.625 19.3 23.5172 19.5625 23.3016 19.7875C23.0859 20.0125 22.8188 20.125 22.5 20.125ZM9.0375 18.175C8.9375 16.7 9.14375 15.3625 9.65625 14.1625C10.1688 12.9625 10.8563 11.9438 11.7188 11.1063C12.5813 10.2688 13.575 9.625 14.7 9.175C15.825 8.725 16.95 8.5 18.075 8.5C20.35 8.5 22.2625 9.21875 23.8125 10.6563C25.3625 12.0938 26.3125 13.8875 26.6625 16.0375C24.3125 16.0125 22.2438 15.3813 20.4563 14.1438C18.6688 12.9062 17.2875 11.3 16.3125 9.325C15.9125 11.35 15.0688 13.1438 13.7812 14.7063C12.4938 16.2688 10.9125 17.425 9.0375 18.175Z" fill="#2C74D6"/>
</svg>