<svg width="36" height="36" viewBox="0 0 36 36" fill="none" xmlns="http://www.w3.org/2000/svg">
<g id="Testing- how we work">
<mask id="mask0_3227_56537" style="mask-type:alpha" maskUnits="userSpaceOnUse" x="0" y="0" width="36" height="36">
<rect id="Bounding box" width="36" height="36" fill="#D9D9D9"/>
</mask>
<g mask="url(#mask0_3227_56537)">
<path id="deployed_code" d="M16.875 29.354V18.6462L7.49996 13.2174V23.6654C7.49996 23.7424 7.5192 23.8145 7.55767 23.8818C7.59613 23.9491 7.65381 24.0068 7.73074 24.0549L16.875 29.354ZM19.1249 29.354L28.2692 24.0549C28.3461 24.0068 28.4038 23.9491 28.4422 23.8818C28.4807 23.8145 28.5 23.7424 28.5 23.6654V13.2174L19.1249 18.6462V29.354ZM18 16.7078L27.2625 11.354L18.2307 6.1299C18.1538 6.08183 18.0769 6.05779 18 6.05779C17.923 6.05779 17.8461 6.08183 17.7692 6.1299L8.73742 11.354L18 16.7078ZM6.60577 26.0308C6.17885 25.7847 5.84616 25.4558 5.60771 25.0443C5.36924 24.6327 5.25 24.1808 5.25 23.6885V12.3116C5.25 11.8193 5.36924 11.3674 5.60771 10.9559C5.84616 10.5443 6.17885 10.2155 6.60577 9.96934L16.6442 4.19149C17.0711 3.94534 17.523 3.82227 18 3.82227C18.4769 3.82227 18.9288 3.94534 19.3557 4.19149L29.3942 9.96934C29.8211 10.2155 30.1538 10.5443 30.3922 10.9559C30.6307 11.3674 30.7499 11.8193 30.7499 12.3116V23.6885C30.7499 24.1808 30.6307 24.6327 30.3922 25.0443C30.1538 25.4558 29.8211 25.7847 29.3942 26.0308L19.3557 31.8087C18.9288 32.0548 18.4769 32.1779 18 32.1779C17.523 32.1779 17.0711 32.0548 16.6442 31.8087L6.60577 26.0308Z" fill="#2C74D6"/>
</g>
</g>
</svg>
