<svg width="36" height="36" viewBox="0 0 36 36" fill="none" xmlns="http://www.w3.org/2000/svg">
<g id="Icons- DevOps">
<path id="Vector" d="M12.4208 18L15.0271 15.3937C15.1846 15.237 15.2656 15.0417 15.2701 14.8079C15.2746 14.574 15.1937 14.3738 15.0271 14.2072C14.8697 14.0498 14.6787 13.9711 14.4543 13.9711C14.2299 13.9711 14.0299 14.0498 13.8543 14.2072L10.7891 17.286C10.6715 17.3946 10.5891 17.5076 10.5421 17.6251C10.495 17.7425 10.4715 17.8697 10.4715 18.0065C10.4715 18.1434 10.495 18.2683 10.5421 18.3815C10.5891 18.4946 10.6715 18.6054 10.7891 18.714L13.9032 21.828C14.0594 21.9855 14.252 22.0665 14.481 22.071C14.7099 22.0756 14.9083 21.9946 15.076 21.828C15.2335 21.6624 15.3122 21.4648 15.3122 21.2355C15.3122 21.0061 15.2335 20.8127 15.076 20.6552L12.4208 18ZM23.5792 18L20.924 20.6552C20.7665 20.8036 20.6878 20.9946 20.6878 21.228C20.6878 21.4615 20.7688 21.6615 20.9308 21.828C21.0928 21.9946 21.2863 22.0778 21.5113 22.0778C21.7364 22.0778 21.9315 21.9946 22.0968 21.828L25.2279 18.7097C25.3342 18.604 25.4109 18.4924 25.4579 18.3749C25.505 18.2575 25.5285 18.1303 25.5285 17.9935C25.5285 17.8566 25.505 17.7317 25.4579 17.6185C25.4109 17.5054 25.3342 17.396 25.2279 17.2903L22.0968 14.172C22.0298 14.0905 21.9439 14.0308 21.8389 13.9928C21.7339 13.9548 21.629 13.9358 21.524 13.9358C21.419 13.9358 21.3157 13.9525 21.2141 13.986C21.1125 14.0195 21.0197 14.0791 20.9358 14.1649C20.7705 14.3447 20.6878 14.5469 20.6878 14.7716C20.6878 14.9963 20.7665 15.1873 20.924 15.3448L23.5792 18ZM8.03623 30C7.4826 30 7.00483 29.799 6.6029 29.3971C6.20096 28.9952 6 28.5174 6 27.9638V8.03623C6 7.4826 6.20096 7.00483 6.6029 6.6029C7.00483 6.20097 7.4826 6 8.03623 6H27.9638C28.5174 6 28.9952 6.20097 29.3971 6.6029C29.799 7.00483 30 7.4826 30 8.03623V27.9638C30 28.5174 29.799 28.9952 29.3971 29.3971C28.9952 29.799 28.5174 30 27.9638 30H8.03623ZM8.03623 28.3982H27.9638C28.0724 28.3982 28.1719 28.353 28.2625 28.2625C28.353 28.1719 28.3982 28.0724 28.3982 27.9638V8.03623C28.3982 7.92762 28.353 7.82805 28.2625 7.73754C28.1719 7.64704 28.0724 7.60179 27.9638 7.60179H8.03623C7.92762 7.60179 7.82805 7.64704 7.73753 7.73754C7.64704 7.82805 7.60179 7.92762 7.60179 8.03623V27.9638C7.60179 28.0724 7.64704 28.1719 7.73753 28.2625C7.82805 28.353 7.92762 28.3982 8.03623 28.3982Z" fill="#2C74D6"/>
</g>
</svg>
