<svg width="36" height="36" viewBox="0 0 36 36" fill="none" xmlns="http://www.w3.org/2000/svg">
<g id="Testing service- services">
<mask id="mask0_3214_86770" style="mask-type:alpha" maskUnits="userSpaceOnUse" x="0" y="0" width="36" height="36">
<rect id="Bounding box" width="36" height="36" fill="#D9D9D9"/>
</mask>
<g mask="url(#mask0_3214_86770)">
<path id="devices" d="M5.43746 29.2499C4.96874 29.2499 4.57031 29.0856 4.24219 28.757C3.91406 28.4284 3.75 28.0294 3.75 27.5599C3.75 27.0905 3.91406 26.6923 4.24219 26.3654C4.57031 26.0385 4.96874 25.875 5.43746 25.875H6.75V9.46155C6.75 8.71588 7.01551 8.07754 7.54654 7.54654C8.07754 7.01551 8.71588 6.75 9.46155 6.75H29.6249C29.9437 6.75 30.2109 6.85786 30.4265 7.07359C30.6421 7.28931 30.7499 7.55661 30.7499 7.87549C30.7499 8.19439 30.6421 8.46153 30.4265 8.6769C30.2109 8.89228 29.9437 8.99996 29.6249 8.99996H9.46155C9.32693 8.99996 9.21634 9.04324 9.12979 9.12979C9.04324 9.21634 8.99996 9.32693 8.99996 9.46155V25.875H15.9231C16.3918 25.875 16.7902 26.0393 17.1183 26.3679C17.4465 26.6965 17.6105 27.0956 17.6105 27.565C17.6105 28.0344 17.4465 28.4326 17.1183 28.7595C16.7902 29.0865 16.3918 29.2499 15.9231 29.2499H5.43746ZM22.5432 29.2499C22.1591 29.2499 21.8371 29.12 21.5773 28.8601C21.3174 28.6003 21.1875 28.2783 21.1875 27.8941V13.6442C21.1875 13.2601 21.3174 12.9381 21.5773 12.6782C21.8371 12.4184 22.1591 12.2885 22.5432 12.2885H30.9086C31.2927 12.2885 31.6147 12.4184 31.8745 12.6782C32.1344 12.9381 32.2643 13.2601 32.2643 13.6442V27.8941C32.2643 28.2783 32.1344 28.6003 31.8745 28.8601C31.6147 29.12 31.2927 29.2499 30.9086 29.2499H22.5432ZM23.4374 25.875H30.0144V14.5384H23.4374V25.875Z" fill="white"/>
</g>
</g>
</svg>
