<svg width="36" height="36" viewBox="0 0 36 36" fill="none" xmlns="http://www.w3.org/2000/svg">
<g id="Icons- DevOps">
<path id="Vector" d="M16.6738 20.2179H23.3215C23.8611 20.2179 24.316 20.0362 24.6862 19.6727C25.0564 19.3092 25.2414 18.8625 25.2414 18.3326C25.2414 17.8027 25.0564 17.3482 24.6862 16.9689C24.316 16.5896 23.8611 16.3999 23.3215 16.3999H22.6988L22.6023 15.8734C22.5143 15.1768 22.1975 14.5898 21.652 14.1125C21.1064 13.6351 20.4624 13.3964 19.7199 13.3964C19.1301 13.3964 18.5939 13.5443 18.1113 13.84C17.6287 14.1357 17.2798 14.542 17.0647 15.0589L16.9208 15.4056L16.5016 15.4196C15.8556 15.442 15.3115 15.684 14.8693 16.1456C14.4271 16.6073 14.206 17.1606 14.206 17.8056C14.206 18.4506 14.4468 19.0139 14.9284 19.4955C15.4101 19.9771 15.9919 20.2179 16.6738 20.2179ZM4.30888 31C3.67441 31 3.13098 30.7772 2.67857 30.3317C2.22619 29.8862 2 29.351 2 28.7262V11.98C2 11.7208 2.08917 11.5038 2.26752 11.329C2.4459 11.1542 2.66733 11.0668 2.93181 11.0668C3.1963 11.0668 3.41621 11.1542 3.59156 11.329C3.76693 11.5038 3.85462 11.7208 3.85462 11.98V28.7262C3.85462 28.838 3.90194 28.9405 3.99659 29.0337C4.09122 29.1269 4.19531 29.1735 4.30888 29.1735H28.2118C28.4751 29.1735 28.6954 29.2613 28.8729 29.437C29.0504 29.6126 29.1392 29.8307 29.1392 30.0912C29.1392 30.3516 29.0504 30.5682 28.8729 30.7409C28.6954 30.9136 28.4751 31 28.2118 31H4.30888ZM8.75633 26.6201C8.12186 26.6201 7.57842 26.3974 7.12602 25.9518C6.67364 25.5063 6.44745 24.9711 6.44745 24.3463V7.27384C6.44745 6.64901 6.67364 6.11383 7.12602 5.6683C7.57842 5.22277 8.12186 5 8.75633 5H16.5357C16.8521 5 17.1544 5.06151 17.4425 5.18452C17.7306 5.30753 17.9814 5.47102 18.1948 5.67499L19.525 6.99424H30.6911C31.3256 6.99424 31.869 7.21701 32.3214 7.66254C32.7738 8.10805 33 8.64323 33 9.26808V24.3463C33 24.9711 32.7738 25.5063 32.3214 25.9518C31.869 26.3974 31.3256 26.6201 30.6911 26.6201H8.75633ZM8.75633 24.7936H30.6911C30.8047 24.7936 30.9087 24.747 31.0034 24.6538C31.098 24.5606 31.1453 24.4581 31.1453 24.3463V9.26808C31.1453 9.15624 31.098 9.05371 31.0034 8.9605C30.9087 8.86732 30.8047 8.82072 30.6911 8.82072H18.7453L16.7203 6.82648H8.75633C8.62384 6.82648 8.51501 6.86842 8.42983 6.9523C8.34468 7.03619 8.3021 7.14336 8.3021 7.27384V24.3463C8.3021 24.4581 8.34941 24.5606 8.44404 24.6538C8.53869 24.747 8.64278 24.7936 8.75633 24.7936Z" fill="white"/>
</g>
</svg>
