<svg xmlns="http://www.w3.org/2000/svg" width="36" height="36" viewBox="0 0 36 36" fill="none">
<path d="M3.75006 9.79042V3.75003H9.79045V5.45193H5.45196V9.79042H3.75006ZM3.75006 32.25V26.2096H5.45196V30.5481H9.79045V32.25H3.75006ZM26.2096 32.25V30.5481H30.5481V26.2096H32.25V32.25H26.2096ZM30.5481 9.79042V5.45193H26.2096V3.75003H32.25V9.79042H30.5481ZM26.0452 26.0826H28.1625V28.2H26.0452V26.0826ZM26.0452 21.8481H28.1625V23.9653H26.0452V21.8481ZM23.9423 23.9653H26.0452V26.0826H23.9423V23.9653ZM21.825 26.0826H23.9423V28.2H21.825V26.0826ZM19.7077 23.9653H21.825V26.0826H19.7077V23.9653ZM23.9423 19.7308H26.0452V21.8481H23.9423V19.7308ZM21.825 21.8481H23.9423V23.9653H21.825V21.8481ZM19.7077 19.7308H21.825V21.8481H19.7077V19.7308ZM28.1625 7.80003V16.2692H19.7077V7.80003H28.1625ZM16.2692 19.7308V28.2H7.80006V19.7308H16.2692ZM16.2692 7.80003V16.2692H7.80006V7.80003H16.2692ZM14.7548 26.6856V21.2452H9.31446V26.6856H14.7548ZM14.7548 14.7548V9.31443H9.31446V14.7548H14.7548ZM26.6481 14.7548V9.31443H21.2221V14.7548H26.6481Z" fill="white"/>
</svg>