<svg width="48" height="48" viewBox="0 0 48 48" fill="none" xmlns="http://www.w3.org/2000/svg">
<circle cx="24" cy="24" r="23.5" stroke="#DDDDDD"/>
<path d="M25.4585 23.9846L25.4408 24.0023L21.0023 28.4407C20.8886 28.5545 20.8355 28.6813 20.8404 28.8222C20.8453 28.9639 20.8987 29.0965 21.0021 29.2204C21.1261 29.3178 21.2591 29.3699 21.4014 29.3779C21.5421 29.3858 21.6687 29.3344 21.7823 29.2208L26.5304 24.4727C26.6055 24.3976 26.6603 24.3199 26.6954 24.24C26.6954 24.24 26.6954 24.24 26.6954 24.24L26.7183 24.25C26.7548 24.1667 26.7731 24.0782 26.7731 23.9846C26.7731 23.8846 26.7548 23.7946 26.7183 23.7144L25.4585 23.9846ZM25.4585 23.9846L25.4408 23.967L20.987 19.5035L20.987 19.5035L20.9864 19.5029C20.8846 19.4072 20.8355 19.2802 20.8404 19.119C20.8454 18.9574 20.8996 18.8262 21.0023 18.7234L21.0023 18.7234C21.127 18.5988 21.2565 18.5413 21.3914 18.5462C21.5277 18.551 21.6527 18.6092 21.7669 18.7235L25.4585 23.9846Z" fill="#DDDDDD" stroke="#DDDDDD" stroke-width="0.05"/>
</svg>