<svg width="36" height="36" viewBox="0 0 36 36" fill="none" xmlns="http://www.w3.org/2000/svg">
<g id="Testing- how we work">
<mask id="mask0_3227_3274" style="mask-type:alpha" maskUnits="userSpaceOnUse" x="0" y="0" width="36" height="36">
<rect id="Bounding box" width="36" height="36" fill="#D9D9D9"/>
</mask>
<g mask="url(#mask0_3227_3274)">
<path id="troubleshoot" d="M16.4255 26.6249C14.812 26.6249 13.312 26.3259 11.9255 25.7278C10.5389 25.1297 9.32546 24.3124 8.28509 23.2759C8.05239 23.0586 7.94133 22.797 7.9519 22.4913C7.96248 22.1855 8.0918 21.924 8.33988 21.7067C8.58795 21.499 8.8716 21.4062 9.19082 21.4283C9.51005 21.4504 9.7937 21.5701 10.0418 21.7875C10.8899 22.6009 11.8524 23.2356 12.9293 23.6913C14.0062 24.1471 15.1716 24.375 16.4255 24.375C19.0216 24.375 21.2332 23.4615 23.0601 21.6346C24.887 19.8077 25.8005 17.5961 25.8005 15C25.8005 12.4038 24.887 10.1923 23.0601 8.36531C21.2332 6.53839 19.0216 5.62493 16.4255 5.62493C14.187 5.62493 12.2211 6.32205 10.5279 7.7163C8.83458 9.11055 7.75909 10.8615 7.30139 12.9692C7.20524 13.3077 7.04275 13.6058 6.81392 13.8635C6.58507 14.1211 6.30142 14.25 5.96297 14.25C5.63412 14.25 5.37211 14.1101 5.17694 13.8303C4.98174 13.5505 4.92453 13.2413 5.0053 12.9029C5.50338 10.1721 6.81203 7.90144 8.93125 6.09086C11.0505 4.28029 13.5486 3.375 16.4255 3.375C19.6697 3.375 22.4182 4.50144 24.6711 6.75431C26.924 9.00719 28.0504 11.7557 28.0504 15C28.0504 16.4384 27.8182 17.762 27.3538 18.9707C26.8894 20.1793 26.2331 21.3154 25.3851 22.3788L32.0486 29.0423C32.2659 29.2596 32.3721 29.5231 32.3673 29.8327C32.3625 30.1423 32.2562 30.4058 32.0486 30.6231C31.8312 30.8404 31.5654 30.949 31.251 30.949C30.9366 30.949 30.6707 30.8404 30.4534 30.6231L23.7899 23.9595C22.7264 24.8076 21.5928 25.4639 20.3889 25.9283C19.1851 26.3927 17.8639 26.6249 16.4255 26.6249ZM15.9235 17.8039L17.5418 12.8279C17.6072 12.6567 17.7115 12.5144 17.8548 12.401C17.9981 12.2875 18.163 12.2307 18.3495 12.2307H19.1197C19.2909 12.2307 19.4418 12.2711 19.5726 12.3519C19.7033 12.4327 19.8091 12.5509 19.8899 12.7067L21.9062 16.7307H22.1947C22.4524 16.7307 22.6659 16.8154 22.8351 16.9846C23.0043 17.1538 23.0889 17.3673 23.0889 17.625C23.0889 17.8826 23.0043 18.0961 22.8351 18.2654C22.6659 18.4346 22.4524 18.5192 22.1947 18.5192H21.3755C21.2139 18.5192 21.0586 18.475 20.9096 18.3865C20.7606 18.298 20.6457 18.173 20.5649 18.0115L18.8572 14.6192L17.0485 20.1576C16.9831 20.3442 16.875 20.4928 16.724 20.6033C16.5731 20.7139 16.4043 20.7692 16.2178 20.7692H15.6437C15.4476 20.7692 15.2702 20.7101 15.1115 20.5918C14.9529 20.4735 14.8409 20.3211 14.7755 20.1346L12.4649 12.4643L10.5466 17.9279C10.4812 18.1144 10.3764 18.2596 10.2322 18.3634C10.088 18.4673 9.9149 18.5192 9.71298 18.5192H4.05048C3.79278 18.5192 3.57931 18.4346 3.41009 18.2654C3.24086 18.0961 3.15625 17.8826 3.15625 17.625C3.15625 17.3673 3.24087 17.1538 3.41012 16.9846C3.57932 16.8154 3.79278 16.7307 4.05048 16.7307H9.08414L11.3399 10.2173C11.4053 10.0307 11.5173 9.88218 11.676 9.7716C11.8346 9.66103 12.012 9.60574 12.2081 9.60574H12.8053C13.0168 9.60574 13.1981 9.66873 13.349 9.7947C13.5 9.92065 13.6081 10.0817 13.6735 10.2779L15.9235 17.8039Z" fill="#2C74D6"/>
</g>
</g>
</svg>
