<svg width="36" height="36" viewBox="0 0 36 36" fill="none" xmlns="http://www.w3.org/2000/svg">
<g id="Icons- Coditas">
<path id="Vector" d="M17.1896 19.9903C17.7418 19.9903 18.237 19.9038 18.6754 19.7307C19.1137 19.5576 19.5704 19.3336 20.0454 19.0586L22.9935 22.0067C23.13 22.1432 23.2915 22.2139 23.4781 22.2187C23.6646 22.2235 23.831 22.1557 23.9771 22.0153C24.1233 21.8634 24.1963 21.6966 24.1963 21.5149C24.1963 21.3331 24.1233 21.1692 23.9771 21.0231L20.9454 17.9913C21.2107 17.5663 21.4275 17.1461 21.5958 16.7306C21.7641 16.3151 21.8482 15.8512 21.8482 15.3389C21.8482 14.0341 21.3992 12.9327 20.5011 12.0346C19.6031 11.1365 18.4992 10.6875 17.1896 10.6875C15.88 10.6875 14.7785 11.1368 13.8853 12.0355C12.992 12.9342 12.5454 14.0339 12.5454 15.3345C12.5454 16.6392 12.992 17.7414 13.8853 18.6409C14.7785 19.5405 15.88 19.9903 17.1896 19.9903ZM17.1913 18.4759C16.331 18.4759 15.594 18.1682 14.9803 17.5528C14.3666 16.9374 14.0598 16.1976 14.0598 15.3334C14.0598 14.4731 14.3668 13.7361 14.981 13.1224C15.5951 12.5087 16.3334 12.2019 17.1958 12.2019C18.0667 12.2019 18.8074 12.5088 19.418 13.1227C20.0285 13.7366 20.3338 14.4746 20.3338 15.3367C20.3338 16.1987 20.0261 16.9375 19.4107 17.5528C18.7953 18.1682 18.0555 18.4759 17.1913 18.4759ZM2.9281 30.346C2.6865 30.346 2.48427 30.264 2.32142 30.0998C2.15857 29.9356 2.07715 29.7318 2.07715 29.4883C2.07715 29.2447 2.15857 29.0432 2.32142 28.8835C2.48427 28.7239 2.6865 28.6441 2.9281 28.6441H33.0723C33.3139 28.6441 33.5161 28.7262 33.6789 28.8904C33.8418 29.0546 33.9232 29.2584 33.9232 29.5019C33.9232 29.7454 33.8418 29.947 33.6789 30.1066C33.5161 30.2662 33.3139 30.346 33.0723 30.346H2.9281ZM5.9137 26.5961C5.32547 26.5961 4.81784 26.3826 4.39079 25.9555C3.96374 25.5285 3.75021 25.0209 3.75021 24.4326V7.75964C3.75021 7.17142 3.96374 6.66379 4.39079 6.23677C4.81784 5.80972 5.32547 5.59619 5.9137 5.59619H30.0867C30.6749 5.59619 31.1825 5.80972 31.6096 6.23677C32.0366 6.66379 32.2501 7.17142 32.2501 7.75964V24.4326C32.2501 25.0209 32.0366 25.5285 31.6096 25.9555C31.1825 26.3826 30.6749 26.5961 30.0867 26.5961H5.9137ZM5.9137 24.8942H30.0867C30.2021 24.8942 30.3078 24.8461 30.404 24.75C30.5002 24.6538 30.5482 24.548 30.5482 24.4326V7.75964C30.5482 7.64424 30.5002 7.53847 30.404 7.44232C30.3078 7.34614 30.2021 7.29806 30.0867 7.29806H5.9137C5.7983 7.29806 5.69251 7.34614 5.59634 7.44232C5.50019 7.53847 5.45211 7.64424 5.45211 7.75964V24.4326C5.45211 24.548 5.50019 24.6538 5.59634 24.75C5.69251 24.8461 5.7983 24.8942 5.9137 24.8942Z" fill="#2C74D6"/>
</g>
</svg>
