<svg width="84" height="148" viewBox="0 0 84 148" fill="none" xmlns="http://www.w3.org/2000/svg">
<g id="Doodle Dots" opacity="0.5">
<mask id="mask0_2234_170918" style="mask-type:alpha" maskUnits="userSpaceOnUse" x="0" y="0" width="148" height="148">
<circle id="Ellipse 81" cx="74" cy="74" r="74" fill="white" fill-opacity="0.5"/>
</mask>
<g mask="url(#mask0_2234_170918)">
<g id="Group 4">
<circle id="Ellipse 9" cx="2.49589" cy="3.24345" r="3.24345" fill="white" fill-opacity="0.5"/>
<circle id="Ellipse 18" cx="2.49589" cy="23.3528" r="3.24345" fill="white" fill-opacity="0.5"/>
<circle id="Ellipse 27" cx="2.49589" cy="43.4622" r="3.24345" fill="white" fill-opacity="0.5"/>
<circle id="Ellipse 36" cx="2.49589" cy="63.5716" r="3.24345" fill="white" fill-opacity="0.5"/>
<circle id="Ellipse 45" cx="2.49589" cy="83.6809" r="3.24345" fill="white" fill-opacity="0.5"/>
<circle id="Ellipse 54" cx="2.49589" cy="103.79" r="3.24345" fill="white" fill-opacity="0.5"/>
<circle id="Ellipse 63" cx="2.49589" cy="123.9" r="3.24345" fill="white" fill-opacity="0.5"/>
<circle id="Ellipse 72" cx="2.49589" cy="144.009" r="3.24345" fill="white" fill-opacity="0.5"/>
<circle id="Ellipse 10" cx="20.6595" cy="3.24345" r="3.24345" fill="white" fill-opacity="0.5"/>
<circle id="Ellipse 19" cx="20.6595" cy="23.3528" r="3.24345" fill="white" fill-opacity="0.5"/>
<circle id="Ellipse 28" cx="20.6595" cy="43.4622" r="3.24345" fill="white" fill-opacity="0.5"/>
<circle id="Ellipse 37" cx="20.6595" cy="63.5716" r="3.24345" fill="white" fill-opacity="0.5"/>
<circle id="Ellipse 46" cx="20.6595" cy="83.6809" r="3.24345" fill="white" fill-opacity="0.5"/>
<circle id="Ellipse 55" cx="20.6595" cy="103.79" r="3.24345" fill="white" fill-opacity="0.5"/>
<circle id="Ellipse 64" cx="20.6595" cy="123.9" r="3.24345" fill="white" fill-opacity="0.5"/>
<circle id="Ellipse 73" cx="20.6595" cy="144.009" r="3.24345" fill="white" fill-opacity="0.5"/>
<circle id="Ellipse 11" cx="38.8225" cy="3.24345" r="3.24345" fill="white" fill-opacity="0.5"/>
<circle id="Ellipse 20" cx="38.8225" cy="23.3528" r="3.24345" fill="white" fill-opacity="0.5"/>
<circle id="Ellipse 29" cx="38.8225" cy="43.4622" r="3.24345" fill="white" fill-opacity="0.5"/>
<circle id="Ellipse 38" cx="38.8225" cy="63.5716" r="3.24345" fill="white" fill-opacity="0.5"/>
<circle id="Ellipse 47" cx="38.8225" cy="83.6809" r="3.24345" fill="white" fill-opacity="0.5"/>
<circle id="Ellipse 56" cx="38.8225" cy="103.79" r="3.24345" fill="white" fill-opacity="0.5"/>
<circle id="Ellipse 65" cx="38.8225" cy="123.9" r="3.24345" fill="white" fill-opacity="0.5"/>
<circle id="Ellipse 74" cx="38.8225" cy="144.009" r="3.24345" fill="white" fill-opacity="0.5"/>
<circle id="Ellipse 12" cx="56.9856" cy="3.24345" r="3.24345" fill="white" fill-opacity="0.5"/>
<circle id="Ellipse 21" cx="56.9856" cy="23.3528" r="3.24345" fill="white" fill-opacity="0.5"/>
<circle id="Ellipse 30" cx="56.9856" cy="43.4622" r="3.24345" fill="white" fill-opacity="0.5"/>
<circle id="Ellipse 39" cx="56.9856" cy="63.5716" r="3.24345" fill="white" fill-opacity="0.5"/>
<circle id="Ellipse 48" cx="56.9856" cy="83.6809" r="3.24345" fill="white" fill-opacity="0.5"/>
<circle id="Ellipse 57" cx="56.9856" cy="103.79" r="3.24345" fill="white" fill-opacity="0.5"/>
<circle id="Ellipse 66" cx="56.9856" cy="123.9" r="3.24345" fill="white" fill-opacity="0.5"/>
<circle id="Ellipse 75" cx="56.9856" cy="144.009" r="3.24345" fill="white" fill-opacity="0.5"/>
<circle id="Ellipse 13" cx="75.1492" cy="3.24345" r="3.24345" fill="white" fill-opacity="0.5"/>
<circle id="Ellipse 22" cx="75.1492" cy="23.3528" r="3.24345" fill="white" fill-opacity="0.5"/>
<circle id="Ellipse 31" cx="75.1492" cy="43.4622" r="3.24345" fill="white" fill-opacity="0.5"/>
<circle id="Ellipse 40" cx="75.1492" cy="63.5716" r="3.24345" fill="white" fill-opacity="0.5"/>
<circle id="Ellipse 49" cx="75.1492" cy="83.6809" r="3.24345" fill="white" fill-opacity="0.5"/>
<circle id="Ellipse 58" cx="75.1492" cy="103.79" r="3.24345" fill="white" fill-opacity="0.5"/>
<circle id="Ellipse 67" cx="75.1492" cy="123.9" r="3.24345" fill="white" fill-opacity="0.5"/>
<circle id="Ellipse 76" cx="75.1492" cy="144.009" r="3.24345" fill="white" fill-opacity="0.5"/>
</g>
</g>
</g>
</svg>
