<svg width="24" height="24" viewBox="0 0 24 24" fill="none" xmlns="http://www.w3.org/2000/svg">
<mask id="mask0_3618_5810" style="mask-type:alpha" maskUnits="userSpaceOnUse" x="0" y="0" width="24" height="24">
<rect width="24" height="24" fill="#000000"/>
</mask>
<g mask="url(#mask0_3618_5810)">
<path d="M5.12636 8.33937C5.27679 8.18895 5.45584 8.11373 5.66352 8.11373C5.8712 8.11373 6.05026 8.18895 6.20068 8.33937L11.8913 14.0299L17.6008 8.32045C17.7434 8.17778 17.9181 8.10645 18.1248 8.10645C18.3315 8.10645 18.5125 8.18409 18.6678 8.33937C18.8182 8.4898 18.8934 8.66885 18.8934 8.87654C18.8934 9.08422 18.8182 9.26327 18.6678 9.4137L12.3702 15.6997C12.2993 15.7705 12.2246 15.8205 12.146 15.8496C12.0674 15.8787 11.9825 15.8933 11.8913 15.8933C11.8 15.8933 11.7151 15.8787 11.6365 15.8496C11.5579 15.8205 11.4832 15.7705 11.4123 15.6997L5.10744 9.39477C4.96477 9.25212 4.89343 9.07937 4.89343 8.87654C4.89343 8.6737 4.97108 8.49464 5.12636 8.33937Z" fill="#111111"/>
</g>
</svg>
