<svg width="20" height="20" viewBox="0 0 20 20" fill="none" xmlns="http://www.w3.org/2000/svg">
<g id="Icons- Coditas- Dromdown">
<path id="Vector" d="M9.99966 12.29C9.92168 12.29 9.84796 12.2762 9.77852 12.2484C9.70907 12.2206 9.64229 12.1747 9.57818 12.1106L5.62147 8.15384C5.53707 8.06944 5.49701 7.95619 5.50129 7.81411C5.50555 7.67201 5.54988 7.55877 5.63429 7.47438C5.74112 7.36755 5.85436 7.32054 5.97402 7.33336C6.09368 7.34618 6.20265 7.39746 6.30093 7.48719L9.99966 11.1859L13.6984 7.48719C13.7828 7.40279 13.8947 7.35498 14.0341 7.34378C14.1735 7.33255 14.2881 7.38036 14.3778 7.48719C14.4847 7.57693 14.5304 7.68804 14.5149 7.82053C14.4994 7.953 14.4494 8.06838 14.365 8.16667L10.4211 12.1106C10.357 12.1747 10.2916 12.2206 10.2248 12.2484C10.1581 12.2762 10.083 12.29 9.99966 12.29Z" fill="#AFB5B9"/>
</g>
</svg>
