<svg width="48" height="48" viewBox="0 0 48 48" fill="none" xmlns="http://www.w3.org/2000/svg">
<circle cx="24" cy="24" r="23.5" transform="rotate(-180 24 24)" stroke="white"/>
<path d="M27.0154 18.7616C27.123 18.8898 27.1795 19.0282 27.1846 19.1769C27.1897 19.3256 27.1333 19.459 27.0154 19.5769L22.5769 24.0154L27.0307 28.4789C27.1384 28.5801 27.1897 28.7144 27.1846 28.8817C27.1795 29.049 27.123 29.1865 27.0154 29.2942C26.8872 29.4224 26.7513 29.484 26.6077 29.4788C26.4641 29.4737 26.3333 29.4122 26.2154 29.2942L21.4519 24.5212C21.375 24.4442 21.3183 24.3657 21.2817 24.2856C21.2452 24.2054 21.2269 24.1154 21.2269 24.0154C21.2269 23.9218 21.2452 23.8333 21.2817 23.75C21.3183 23.6667 21.375 23.5865 21.4519 23.5096L26.2 18.7616C26.3179 18.6436 26.4513 18.5888 26.6 18.5971C26.7487 18.6055 26.8872 18.6603 27.0154 18.7616Z" fill="white"/>
</svg>
