<svg width="48" height="48" viewBox="0 0 48 48" fill="none" xmlns="http://www.w3.org/2000/svg">
<circle cx="24" cy="24" r="23.5" stroke="#111111"/>
<path d="M20.9846 29.2384C20.877 29.1102 20.8205 28.9718 20.8154 28.8231C20.8103 28.6744 20.8667 28.541 20.9846 28.4231L25.4231 23.9846L20.9693 19.5211C20.8616 19.4199 20.8103 19.2856 20.8154 19.1183C20.8205 18.951 20.877 18.8135 20.9846 18.7058C21.1128 18.5776 21.2487 18.516 21.3923 18.5212C21.5359 18.5263 21.6667 18.5878 21.7846 18.7058L26.5481 23.4788C26.625 23.5558 26.6817 23.6343 26.7183 23.7144C26.7548 23.7946 26.7731 23.8846 26.7731 23.9846C26.7731 24.0782 26.7548 24.1667 26.7183 24.25C26.6817 24.3333 26.625 24.4135 26.5481 24.4904L21.8 29.2384C21.6821 29.3564 21.5487 29.4112 21.4 29.4029C21.2513 29.3945 21.1128 29.3397 20.9846 29.2384Z" fill="#111111"/>
</svg>