<svg width="36" height="36" viewBox="0 0 36 36" fill="none" xmlns="http://www.w3.org/2000/svg">
<path d="M18 31.4133C17.373 31.4133 16.8346 31.2484 16.3846 30.9186C15.9346 30.5888 15.6731 30.1508 15.6 29.6046H14.7865C14.3425 29.6046 13.9479 29.432 13.6026 29.0867C13.2573 28.7414 13.0846 28.3468 13.0846 27.9028V22.9586C11.4346 21.9605 10.1538 20.6648 9.24232 19.0716C8.33077 17.4783 7.875 15.7461 7.875 13.875C7.875 11.0519 8.85672 8.65865 10.8202 6.69518C12.7837 4.73173 15.1769 3.75 18 3.75C20.823 3.75 23.2163 4.73173 25.1798 6.69518C27.1432 8.65865 28.1249 11.0519 28.1249 13.875C28.1249 15.7461 27.67 17.4786 26.7603 19.0725C25.8505 20.6664 24.5689 21.9617 22.9153 22.9586V27.9028C22.9153 28.3468 22.7427 28.7414 22.3973 29.0867C22.052 29.432 21.6574 29.6046 21.2134 29.6046H20.3999C20.3269 30.1508 20.0653 30.5888 19.6154 30.9186C19.1654 31.2484 18.6269 31.4133 18 31.4133ZM14.7865 27.9028H21.2134V26.2816H14.7865V27.9028ZM14.7865 24.9547H21.2134V23.4403H14.7865V24.9547ZM14.449 21.7384H17.2961V16.572L14.4375 13.7134C14.3009 13.5769 14.2365 13.4216 14.2442 13.2476C14.2519 13.0735 14.3264 12.9134 14.4678 12.7673C14.6091 12.6211 14.7668 12.548 14.9408 12.548C15.1149 12.548 15.275 12.6211 15.4211 12.7673L18 15.3692L20.6019 12.7673C20.7384 12.6307 20.8961 12.5639 21.075 12.5668C21.2538 12.5697 21.4163 12.6442 21.5625 12.7904C21.7086 12.9365 21.7817 13.0928 21.7817 13.2591C21.7817 13.4254 21.7086 13.5769 21.5625 13.7134L18.7038 16.572V21.7384H21.5509C23.0125 21.0576 24.1899 20.0086 25.0831 18.5913C25.9764 17.174 26.423 15.6019 26.423 13.8751C26.423 11.5173 25.6086 9.52403 23.9797 7.89518C22.3509 6.26633 20.3576 5.4519 18 5.4519C15.6423 5.4519 13.649 6.26633 12.0202 7.89518C10.3913 9.52403 9.5769 11.5173 9.5769 13.8751C9.5769 15.6019 10.0235 17.174 10.9168 18.5913C11.8101 20.0086 12.9875 21.0576 14.449 21.7384Z" fill="#2C74D6"/>
</svg>
