<svg width="24" height="24" viewBox="0 0 24 24" fill="none" xmlns="http://www.w3.org/2000/svg">
<g id="expand_more">
<mask id="mask0_2940_14434" style="mask-type:alpha" maskUnits="userSpaceOnUse" x="0" y="0" width="24" height="24">
<rect id="Bounding box" width="24" height="24" fill="#D9D9D9"/>
</mask>
<g mask="url(#mask0_2940_14434)">
<path id="expand_more_2" d="M12.0001 14.6619C11.886 14.6619 11.7754 14.6427 11.6684 14.6042C11.5613 14.5657 11.461 14.4997 11.3674 14.4061L6.85781 9.89652C6.71295 9.75166 6.64308 9.57858 6.64821 9.3773C6.65333 9.17602 6.72833 9.00294 6.87321 8.85807C7.01808 8.71321 7.19371 8.64077 7.40011 8.64077C7.60651 8.64077 7.78215 8.71321 7.92701 8.85807L12.0001 12.9312L16.0886 8.8427C16.2335 8.69783 16.4065 8.62796 16.6078 8.63307C16.8091 8.63821 16.9821 8.71321 17.127 8.85807C17.2719 9.00294 17.3443 9.17858 17.3443 9.385C17.3443 9.5914 17.2719 9.76703 17.127 9.9119L12.6328 14.4061C12.5392 14.4997 12.4405 14.5657 12.3366 14.6042C12.2328 14.6427 12.1206 14.6619 12.0001 14.6619Z" fill="#111111"/>
</g>
</g>
</svg>
