<svg width="56" height="56" viewBox="0 0 56 56" fill="none" xmlns="http://www.w3.org/2000/svg">
<g id="icon-gcp 1">
<path id="Vector" d="M32.9538 21.7308H34.0236L36.9957 18.6994L37.1146 17.3916C31.646 12.5175 23.3244 12.9337 18.3908 18.4022C18.3315 18.4616 18.272 18.5211 18.2126 18.5805C16.8454 20.1853 15.8944 22.0281 15.3594 24.049C15.716 23.9301 16.0727 23.8707 16.4293 23.9896L22.3734 22.979C22.3734 22.979 22.6705 22.4441 22.8489 22.5035C25.4048 19.5315 29.9223 19.1749 32.9538 21.7308Z" fill="#EA4335"/>
<path id="Vector_2" d="M41.2182 24.0499C40.5049 21.494 39.1378 19.1758 37.1762 17.3926L33.0154 21.6129C34.7986 23.0989 35.8091 25.2981 35.7497 27.6163V28.3891C37.8301 28.3891 39.4944 30.1129 39.4944 32.1933C39.4944 34.2142 37.8301 35.8785 35.7497 35.938H28.2602L27.5469 36.7107V41.2282L28.2602 42.0008H35.6902C41.0993 42.0008 45.4384 37.6618 45.4384 32.2526C45.4979 28.9834 43.893 25.8926 41.2182 24.0499Z" fill="#4285F4"/>
<path id="Vector_3" d="M20.8291 41.9403H28.2591V35.9367H20.8291C20.2942 35.9367 19.7591 35.8178 19.2836 35.5801L18.2138 35.9367L15.2417 38.9682L15.0039 40.0381C16.6683 41.2864 18.6893 41.9997 20.8291 41.9403Z" fill="#34A853"/>
<path id="Vector_4" d="M20.8291 22.3242C15.4201 22.4431 11.1404 26.8418 11.1998 32.2508C11.1998 35.2823 12.6264 38.1354 15.0041 39.978L19.3431 35.5794C17.4411 34.6879 16.6089 32.4886 17.5005 30.5864C18.3327 28.7438 20.4726 27.8522 22.3746 28.6844H22.4341C23.2662 29.0411 23.9201 29.7543 24.2767 30.5864L28.6158 26.1879C26.7138 23.7508 23.8606 22.3242 20.8291 22.3242Z" fill="#FBBC05"/>
</g>
</svg>
