<svg width="36" height="36" viewBox="0 0 36 36" fill="none" xmlns="http://www.w3.org/2000/svg">
<g id="Testing service- services">
<mask id="mask0_3214_125619" style="mask-type:alpha" maskUnits="userSpaceOnUse" x="0" y="0" width="36" height="36">
<rect id="Bounding box" width="36" height="36" fill="#D9D9D9"/>
</mask>
<g mask="url(#mask0_3214_125619)">
<path id="settings_b_roll" d="M26.8808 25.9903L24.8587 28.0355C24.7279 28.1663 24.6601 28.3196 24.6553 28.4956C24.6505 28.6716 24.7183 28.8297 24.8587 28.9701C24.9991 29.1105 25.1548 29.1807 25.326 29.1807C25.4971 29.1807 25.6529 29.1105 25.7933 28.9701L28.4875 26.2759C28.7586 26.0048 28.8942 25.6884 28.8942 25.3269C28.8942 24.9653 28.7586 24.649 28.4875 24.3779L25.7933 21.6836C25.6625 21.5529 25.5092 21.4851 25.3332 21.4803C25.1572 21.4755 24.9991 21.5433 24.8587 21.6836C24.7183 21.824 24.6481 21.9798 24.6481 22.151C24.6481 22.3221 24.7183 22.4779 24.8587 22.6182L26.9183 24.6634H21.8645C21.6837 24.6634 21.5279 24.7288 21.3972 24.8596C21.2664 24.9904 21.201 25.1461 21.201 25.3269C21.201 25.5076 21.2664 25.6634 21.3972 25.7942C21.5279 25.9249 21.6837 25.9903 21.8645 25.9903H26.8808ZM25.326 32.2499C23.4145 32.2499 21.7827 31.574 20.4308 30.222C19.0789 28.8701 18.403 27.2384 18.403 25.3269C18.403 23.4153 19.0789 21.7836 20.4308 20.4317C21.7827 19.0798 23.4145 18.4038 25.326 18.4038C27.2375 18.4038 28.8692 19.0798 30.2212 20.4317C31.5731 21.7836 32.249 23.4153 32.249 25.3269C32.249 27.2384 31.5731 28.8701 30.2212 30.222C28.8692 31.574 27.2375 32.2499 25.326 32.2499ZM17.8462 32.2499H15.7203C15.3837 32.2499 15.0924 32.1369 14.8462 31.911C14.6001 31.685 14.452 31.4038 14.402 31.0672L13.9664 27.6807C13.5645 27.5461 13.1525 27.3576 12.7304 27.1153C12.3082 26.873 11.9308 26.6134 11.5981 26.3364L8.46545 27.6576C8.1443 27.798 7.82555 27.8143 7.5092 27.7066C7.19285 27.5989 6.94429 27.397 6.76352 27.1009L4.50782 23.1721C4.33664 22.8759 4.28375 22.5596 4.34915 22.2231C4.41453 21.8865 4.58279 21.6154 4.85394 21.4096L7.56549 19.3586C7.53087 19.1356 7.50634 18.9115 7.49192 18.6865C7.47749 18.4615 7.47028 18.2375 7.47028 18.0144C7.47028 17.8009 7.47749 17.5841 7.49192 17.3639C7.50634 17.1437 7.53087 16.9028 7.56549 16.6413L4.85394 14.5903C4.58279 14.3846 4.41213 14.1134 4.34195 13.7769C4.27175 13.4403 4.32704 13.124 4.50782 12.8279L6.76352 8.92793C6.94429 8.63178 7.19045 8.42985 7.502 8.32215C7.81353 8.21445 8.12987 8.2308 8.45102 8.3712L11.5837 9.67793C11.9452 9.39138 12.3313 9.12935 12.7419 8.89185C13.1525 8.65433 13.5559 8.46345 13.952 8.31923L14.402 4.93271C14.452 4.59616 14.6001 4.31491 14.8462 4.08896C15.0924 3.86299 15.3837 3.75 15.7203 3.75H20.2635C20.6 3.75 20.8937 3.86299 21.1447 4.08896C21.3957 4.31491 21.5462 4.59616 21.5962 4.93271L22.0317 8.33366C22.4817 8.49711 22.8889 8.68798 23.2534 8.90625C23.6178 9.12453 23.9856 9.38175 24.3568 9.67793L27.5471 8.3712C27.8683 8.2308 28.1846 8.21205 28.4962 8.31495C28.8077 8.41783 29.0539 8.61734 29.2346 8.91349L31.4903 12.8279C31.6711 13.124 31.7264 13.4403 31.6562 13.7769C31.586 14.1134 31.4154 14.3846 31.1442 14.5903L29.3182 15.975C28.8933 15.7865 28.4582 15.625 28.013 15.4904C27.5678 15.3558 27.1019 15.2558 26.6154 15.1904L29.151 13.275L27.6741 10.725L23.9039 12.3144C23.402 11.7779 22.8005 11.3038 22.0996 10.8923C21.3986 10.4807 20.6894 10.1894 19.9721 10.0182L19.4991 5.99996H16.5221L16.026 10.0038C15.2606 10.1846 14.5539 10.4615 13.9058 10.8346C13.2577 11.2077 12.6395 11.6884 12.051 12.2769L8.32408 10.725L6.84714 13.275L10.0866 15.6894C9.96158 16.0452 9.87408 16.4153 9.82408 16.8C9.77408 17.1846 9.74908 17.5894 9.74908 18.0144C9.74908 18.4048 9.77408 18.7875 9.82408 19.1625C9.87408 19.5375 9.95677 19.9077 10.0721 20.273L6.84714 22.725L8.32408 25.275L12.0366 23.7C12.4904 24.1538 12.9707 24.5495 13.4774 24.887C13.9842 25.2245 14.5347 25.5009 15.1289 25.7163C15.1731 26.9778 15.4356 28.1663 15.9164 29.2817C16.3972 30.397 17.0404 31.3865 17.8462 32.2499ZM15.7289 21.8884C15.8501 21.5134 15.9928 21.1547 16.1573 20.8124C16.3217 20.4701 16.5077 20.1394 16.7154 19.8202C16.4212 19.6202 16.1895 19.3615 16.0202 19.0442C15.851 18.7269 15.7664 18.3788 15.7664 18C15.7664 17.375 15.9851 16.8437 16.4226 16.4062C16.8601 15.9687 17.3914 15.75 18.0164 15.75C18.3856 15.75 18.7351 15.836 19.0649 16.0082C19.3947 16.1803 19.6596 16.4134 19.8596 16.7077C20.1789 16.5 20.5082 16.3163 20.8476 16.1567C21.187 15.9971 21.5394 15.8644 21.9048 15.7586C21.5221 15.074 20.9861 14.5264 20.2966 14.1159C19.6072 13.7053 18.8471 13.5 18.0164 13.5C16.7529 13.5 15.6871 13.938 14.8188 14.8139C13.9506 15.6899 13.5164 16.7519 13.5164 18C13.5164 18.825 13.714 19.5836 14.1092 20.2759C14.5044 20.9682 15.0443 21.5057 15.7289 21.8884Z" fill="white"/>
</g>
</g>
</svg>
