<svg width="36" height="36" viewBox="0 0 36 36" fill="none" xmlns="http://www.w3.org/2000/svg">
<g id="Icons- Career">
<mask id="mask0_2970_82728" style="mask-type:alpha" maskUnits="userSpaceOnUse" x="0" y="0" width="36" height="36">
<rect id="Bounding box" width="36" height="36" fill="#D9D9D9"/>
</mask>
<g mask="url(#mask0_2970_82728)">
<path id="signal_cellular_alt" d="M26.8456 29.25C26.4395 29.25 26.096 29.1083 25.8153 28.8251C25.5345 28.5418 25.3941 28.1979 25.3941 27.7932V7.45669C25.3941 7.05206 25.5363 6.70813 25.8205 6.42488C26.1048 6.14163 26.45 6 26.8561 6C27.2622 6 27.6056 6.14163 27.8864 6.42488C28.1671 6.70813 28.3075 7.05206 28.3075 7.45669V27.7932C28.3075 28.1979 28.1654 28.5418 27.8811 28.8251C27.5969 29.1083 27.2517 29.25 26.8456 29.25ZM9.4676 29.25C9.26802 29.25 9.07594 29.212 8.89134 29.136C8.70671 29.0601 8.54997 28.9577 8.42112 28.8288C8.2923 28.7 8.1899 28.5447 8.11392 28.363C8.03797 28.1814 8 27.9914 8 27.7932V22.4567C8 22.0521 8.14214 21.7081 8.42641 21.4249C8.71069 21.1416 9.05587 21 9.46197 21C9.86807 21 10.2115 21.1416 10.4922 21.4249C10.773 21.7081 10.9134 22.0521 10.9134 22.4567V27.7932C10.9134 27.9914 10.8754 28.1814 10.7995 28.363C10.7235 28.5447 10.6211 28.7 10.4922 28.8288C10.3634 28.9577 10.2103 29.0601 10.033 29.136C9.85564 29.212 9.66717 29.25 9.4676 29.25ZM18.1485 29.25C17.7424 29.25 17.399 29.1083 17.1182 28.8251C16.8375 28.5418 16.6971 28.1979 16.6971 27.7932V14.9567C16.6971 14.5521 16.8392 14.2081 17.1234 13.9249C17.4077 13.6416 17.7529 13.5 18.159 13.5C18.5651 13.5 18.9086 13.6416 19.1893 13.9249C19.4701 14.2081 19.6104 14.5521 19.6104 14.9567V27.7932C19.6104 28.1979 19.4683 28.5418 19.1841 28.8251C18.8998 29.1083 18.5546 29.25 18.1485 29.25Z" fill="#2C74D6"/>
</g>
</g>
</svg>
