<svg width="48" height="48" viewBox="0 0 48 48" fill="none" xmlns="http://www.w3.org/2000/svg">
<g id="Group 394">
<g id="menu">
<mask id="mask0_2086_7459" style="mask-type:alpha" maskUnits="userSpaceOnUse" x="12" y="12" width="24" height="24">
<rect id="Bounding box" x="12" y="12" width="24" height="24" fill="#D9D9D9"/>
</mask>
<g mask="url(#mask0_2086_7459)">
<path id="menu_2" d="M16 29.6347C15.7875 29.6347 15.6094 29.5628 15.4656 29.419C15.3219 29.2751 15.25 29.0969 15.25 28.8844C15.25 28.6718 15.3219 28.4937 15.4656 28.3501C15.6094 28.2065 15.7875 28.1347 16 28.1347H32C32.2125 28.1347 32.3906 28.2066 32.5344 28.3504C32.6781 28.4942 32.75 28.6724 32.75 28.885C32.75 29.0976 32.6781 29.2757 32.5344 29.4193C32.3906 29.5629 32.2125 29.6347 32 29.6347H16ZM16 24.7501C15.7875 24.7501 15.6094 24.6782 15.4656 24.5344C15.3219 24.3905 15.25 24.2123 15.25 23.9998C15.25 23.7872 15.3219 23.6091 15.4656 23.4655C15.6094 23.3219 15.7875 23.2501 16 23.2501H32C32.2125 23.2501 32.3906 23.322 32.5344 23.4658C32.6781 23.6096 32.75 23.7878 32.75 24.0004C32.75 24.213 32.6781 24.3911 32.5344 24.5347C32.3906 24.6783 32.2125 24.7501 32 24.7501H16ZM16 19.8655C15.7875 19.8655 15.6094 19.7935 15.4656 19.6497C15.3219 19.5059 15.25 19.3277 15.25 19.1151C15.25 18.9025 15.3219 18.7245 15.4656 18.5809C15.6094 18.4373 15.7875 18.3655 16 18.3655H32C32.2125 18.3655 32.3906 18.4374 32.5344 18.5812C32.6781 18.725 32.75 18.9032 32.75 19.1158C32.75 19.3284 32.6781 19.5065 32.5344 19.6501C32.3906 19.7937 32.2125 19.8655 32 19.8655H16Z" fill="white"/>
</g>
</g>
</g>
</svg>
