<svg width="36" height="36" viewBox="0 0 36 36" fill="none" xmlns="http://www.w3.org/2000/svg">
<path d="M17.6826 30.5048C17.8557 30.5048 18.0403 30.4663 18.2365 30.3894C18.4327 30.3124 18.5904 30.2096 18.7096 30.0807L30.9576 17.8096C31.3115 17.4557 31.5841 17.0705 31.7754 16.6538C31.9668 16.2372 32.0625 15.8013 32.0625 15.3461C32.0625 14.8827 31.9668 14.4264 31.7754 13.9774C31.5841 13.5283 31.3115 13.1269 30.9576 12.773L24.6836 6.49902C24.3298 6.14517 23.9428 5.87978 23.5226 5.70286C23.1024 5.52593 22.6605 5.43747 22.1971 5.43747C21.7419 5.43747 21.3037 5.52593 20.8822 5.70286C20.4607 5.87978 20.0779 6.14517 19.7336 6.49902L18.6836 7.54906L21.649 10.5375C21.9451 10.8491 22.2014 11.2168 22.4177 11.6409C22.6341 12.0649 22.7422 12.5183 22.7422 13.001C22.7422 13.8452 22.4264 14.5769 21.7946 15.1961C21.1629 15.8154 20.4297 16.125 19.5951 16.125C19.0567 16.125 18.598 16.0456 18.2192 15.887C17.8404 15.7283 17.4943 15.4952 17.181 15.1877L14.3885 12.3865L7.7019 19.073C7.55768 19.2173 7.45094 19.3801 7.38169 19.5615C7.31246 19.743 7.27785 19.927 7.27785 20.1138C7.27785 20.4776 7.39613 20.7755 7.63268 21.0072C7.8692 21.2389 8.16504 21.3548 8.52019 21.3548C8.71699 21.3548 8.90576 21.3101 9.08651 21.2207C9.26729 21.1312 9.4173 21.0269 9.53655 20.9077L14.524 15.9202L15.724 17.1201L10.7596 22.0701C10.6154 22.224 10.5086 22.3927 10.4394 22.5764C10.3702 22.76 10.3355 22.9461 10.3355 23.1346C10.3355 23.473 10.4601 23.7668 10.7091 24.0158C10.9582 24.2649 11.2519 24.3894 11.5904 24.3894C11.7788 24.3894 11.9635 24.3509 12.1442 24.274C12.325 24.1971 12.475 24.0942 12.5942 23.9654L17.7548 18.8048L18.9548 20.0048L13.8173 25.1278C13.698 25.2567 13.5976 25.4171 13.5158 25.6091C13.4341 25.8011 13.3932 25.9955 13.3932 26.1923C13.3932 26.5307 13.5178 26.8245 13.7668 27.0735C14.0158 27.3226 14.3096 27.4471 14.648 27.4471C14.8365 27.4471 15.0149 27.4125 15.1832 27.3432C15.3514 27.274 15.5077 27.1673 15.6519 27.023L20.8125 21.8625L22.0125 23.0624L16.8519 28.223C16.7076 28.3672 16.6009 28.536 16.5317 28.7292C16.4624 28.9225 16.4278 29.1009 16.4278 29.2644C16.4278 29.6432 16.5447 29.9447 16.7783 30.1687C17.012 30.3927 17.3134 30.5048 17.6826 30.5048ZM17.685 32.2067C16.9065 32.2067 16.2259 31.9148 15.6432 31.3312C15.0605 30.7475 14.7548 30.0186 14.726 29.1445C13.876 29.0994 13.1659 28.8038 12.5957 28.2576C12.0255 27.7115 11.7164 26.9893 11.6683 26.0913C10.7798 26.0336 10.0615 25.7254 9.51345 25.1668C8.96538 24.6081 8.67211 23.8971 8.63366 23.0336C7.76636 22.9855 7.03993 22.6923 6.45435 22.1538C5.86878 21.6154 5.57599 20.9231 5.57599 20.0769C5.57599 19.6808 5.65523 19.284 5.8137 18.8866C5.9722 18.4892 6.19391 18.1437 6.47884 17.85L14.3885 9.94039L18.2105 13.7625C18.4009 13.9529 18.6176 14.1067 18.8605 14.224C19.1035 14.3413 19.356 14.4 19.6182 14.4C19.9721 14.4 20.2975 14.2538 20.5947 13.9615C20.8918 13.6692 21.0404 13.3394 21.0404 12.9721C21.0404 12.7779 20.9894 12.5774 20.8875 12.3707C20.7855 12.1639 20.6394 11.9606 20.449 11.7606L15.1875 6.49902C14.8336 6.14517 14.4442 5.87978 14.0192 5.70286C13.5942 5.52593 13.15 5.43747 12.6865 5.43747C12.2314 5.43747 11.7979 5.52593 11.386 5.70286C10.9742 5.87978 10.592 6.14338 10.2396 6.49365L5.01345 11.723C4.64423 12.0923 4.37644 12.4923 4.21009 12.923C4.04374 13.3538 3.95768 13.837 3.9519 14.3726C3.93653 14.8216 4.01825 15.2581 4.19708 15.6822C4.37593 16.1062 4.59613 16.4913 4.85768 16.8375L3.60578 18.0749C3.22115 17.6019 2.90144 17.0307 2.64664 16.3615C2.39184 15.6923 2.25963 15.0105 2.25 14.3163C2.2404 13.5856 2.37214 12.8909 2.64521 12.2322C2.91829 11.5735 3.30771 10.9913 3.81349 10.4856L8.99996 5.29906C9.52111 4.77791 10.0979 4.39089 10.7302 4.13802C11.3625 3.88512 12.0246 3.75867 12.7163 3.75867C13.408 3.75867 14.0663 3.88512 14.6913 4.13802C15.3163 4.39089 15.8894 4.77791 16.4105 5.29906L17.4605 6.34909L18.5106 5.29906C19.0317 4.77791 19.6061 4.39089 20.2336 4.13802C20.8611 3.88512 21.5207 3.75867 22.2124 3.75867C22.9041 3.75867 23.5649 3.88512 24.1947 4.13802C24.8245 4.39089 25.3999 4.77791 25.9211 5.29906L32.1576 11.5356C32.6788 12.0567 33.0768 12.6509 33.3518 13.318C33.6268 13.9852 33.7643 14.6616 33.7643 15.3473C33.7643 16.0331 33.6268 16.6884 33.3518 17.3134C33.0768 17.9384 32.6788 18.5115 32.1576 19.0326L19.9095 31.2807C19.6038 31.5961 19.2611 31.8292 18.8814 31.9802C18.5018 32.1312 18.103 32.2067 17.685 32.2067Z" fill="white"/>
</svg>
