<svg width="184" height="28" viewBox="0 0 184 28" fill="none" xmlns="http://www.w3.org/2000/svg">
<g id="Logo-Hapag_lloyd">
<g id="g3874">
<path id="path3876" d="M56.5821 12.6195V7.0127H54.8338V22.2443H56.5821V15.8149V14.7897H57.6074H64.6034H65.6286V15.8149V22.2443H67.3788V7.0127H65.6286V12.6195V13.6448H64.6034H57.6074H56.5821V12.6195Z" fill="#555555" stroke="#555555" stroke-width="2.0505"/>
</g>
<g id="g3878">
<g id="Clip path group">
<mask id="mask0_3125_70483" style="mask-type:luminance" maskUnits="userSpaceOnUse" x="0" y="0" width="184" height="29">
<g id="clipPath3882">
<path id="path3884" d="M1.02525 26.9865H182.975V1.02505H1.02525V26.9865Z" fill="white" stroke="white" stroke-width="2.0505"/>
</g>
</mask>
<g mask="url(#mask0_3125_70483)">
<g id="g3880">
<g id="g3886">
<path id="path3888" d="M73.8263 17.0525C73.79 17.0577 73.7535 17.063 73.7169 17.0685L73.7169 17.0685L73.7048 17.0702C72.6644 17.2126 71.8105 17.4317 71.2249 17.8419C70.7199 18.1957 70.3299 18.7483 70.3299 19.855C70.3299 20.8602 70.6856 21.4911 71.1874 21.8941C71.7213 22.3229 72.5348 22.5822 73.5658 22.5822C74.2411 22.5822 74.8936 22.4914 75.4803 22.2966C75.2804 22.32 75.07 22.3322 74.8488 22.3322C74.2326 22.3322 73.4726 22.2525 72.84 21.8623C72.1178 21.4168 71.718 20.6676 71.718 19.7102C71.718 18.7618 72.1093 18.0464 72.7528 17.5735C73.0843 17.3298 73.4612 17.1676 73.8263 17.0525ZM78.6572 18.4273C78.6572 18.7019 78.6494 19.2472 78.4764 19.8484L78.6624 19.6545L78.8003 21.9987C78.8049 22.078 78.8135 22.1593 78.8256 22.2424H80.1514C80.0744 21.6938 80.0434 21.0795 80.0434 20.4845V13.973C80.0434 13.4024 79.9037 13.0104 79.7112 12.7254C79.5142 12.4339 79.2176 12.1897 78.8092 11.9919C77.9613 11.5813 76.7787 11.4409 75.5747 11.4409C74.2636 11.4409 73.0483 11.6713 72.1734 12.1862C71.6276 12.5075 71.1937 12.948 70.9436 13.5791H72.3079C72.4845 13.0902 72.7735 12.6671 73.1928 12.3414C73.8322 11.8446 74.6296 11.689 75.4039 11.689C76.0184 11.689 76.8279 11.7324 77.4937 12.1253C78.2823 12.5907 78.6572 13.3989 78.6572 14.4094C78.6572 14.5931 78.637 14.7693 78.5974 14.9366L78.6572 14.8842V17.1443V18.4273Z" fill="#555555" stroke="#555555" stroke-width="2.0505"/>
</g>
<g id="g3890">
<path id="path3892" d="M84.4261 12.3543V11.7809H83.2088V26.6486H84.5951V21.7194V20.6942H85.5499C85.4612 20.5838 85.3783 20.4681 85.3011 20.3473C84.6836 19.381 84.4744 18.1685 84.4744 17.048C84.4744 15.938 84.6682 14.713 85.2693 13.7303C85.3438 13.6085 85.4241 13.4914 85.5101 13.3795H85.4996H85.4514H84.4261V12.3543ZM88.5001 22.0428C87.9997 22.0428 87.5453 21.9654 87.1376 21.8226C87.7444 22.3109 88.5477 22.5824 89.421 22.5824C90.9183 22.5824 91.9947 21.9588 92.7239 21.0057C93.4755 20.0234 93.8897 18.6411 93.8897 17.1445C93.8897 15.5183 93.4834 14.0738 92.7222 13.0629C91.9889 12.089 90.8737 11.4411 89.2279 11.4411C88.2385 11.4411 87.4201 11.7325 86.823 12.3226C87.2992 12.1033 87.8501 11.9807 88.4759 11.9807C89.9628 11.9807 91.0284 12.7049 91.6737 13.7405C92.2851 14.7217 92.5034 15.943 92.5034 17.048C92.5034 18.1584 92.3098 19.3711 91.7023 20.3399C91.0525 21.376 89.9805 22.0428 88.5001 22.0428Z" fill="#555555" stroke="#555555" stroke-width="2.0505"/>
</g>
<g id="g3894">
<path id="path3896" d="M99.9004 17.0522C99.8635 17.0575 99.8265 17.0629 99.7893 17.0685L99.7893 17.0685L99.7772 17.0702C98.7368 17.2126 97.8835 17.4317 97.2984 17.8418C96.7939 18.1954 96.4042 18.748 96.4042 19.855C96.4042 20.8602 96.7599 21.4912 97.2615 21.8942C97.7953 22.323 98.6083 22.5822 99.6382 22.5822C100.315 22.5822 100.967 22.4914 101.554 22.2965C101.354 22.32 101.143 22.3322 100.921 22.3322C100.305 22.3322 99.5449 22.2525 98.9123 21.8623C98.1902 21.4168 97.7904 20.6676 97.7904 19.7102C97.7904 18.7618 98.1818 18.0463 98.8256 17.5733C99.1575 17.3296 99.5347 17.1673 99.9004 17.0522ZM104.73 18.4273C104.73 18.7019 104.722 19.2472 104.549 19.8484L104.735 19.6545L104.873 21.9987C104.877 22.0779 104.886 22.1591 104.898 22.2424H106.224C106.147 21.6938 106.116 21.0795 106.116 20.4845V13.973C106.116 13.4023 105.976 13.0102 105.784 12.7252C105.587 12.4338 105.29 12.1896 104.882 11.9919C104.035 11.5813 102.852 11.4409 101.647 11.4409C100.336 11.4409 99.1207 11.6713 98.2458 12.1862C97.7 12.5075 97.266 12.948 97.016 13.5791H98.3811C98.5582 13.09 98.8475 12.6669 99.267 12.3412C99.9065 11.8447 100.704 11.689 101.478 11.689C102.092 11.689 102.901 11.7324 103.566 12.1254C104.355 12.5909 104.73 13.399 104.73 14.4094C104.73 14.5931 104.709 14.7693 104.67 14.9366L104.73 14.8842V17.1443V18.4273Z" fill="#555555" stroke="#555555" stroke-width="2.0505"/>
</g>
<g id="g3898">
<path id="path3900" d="M111.475 25.021H110.071C110.316 25.5099 110.707 25.8972 111.202 26.203C112.052 26.7272 113.191 26.9884 114.286 26.9884C116.951 26.9884 118.234 26.192 118.888 25.3739C119.577 24.5123 119.748 23.4066 119.748 22.4714V11.781H118.53V12.4267V13.452H117.628C117.666 13.5052 117.703 13.5597 117.739 13.6154C118.345 14.5603 118.53 15.7502 118.53 16.855C118.53 17.9205 118.244 19.0194 117.592 19.8783C117.575 19.9004 117.558 19.9224 117.541 19.9441H118.53V20.9694V22.6096C118.543 23.6567 118.298 24.6942 117.643 25.4889C116.962 26.3147 115.954 26.7385 114.746 26.7385C114.033 26.7385 113.267 26.6127 112.602 26.2161C112.126 25.9321 111.741 25.532 111.475 25.021ZM114.575 11.9826C115.119 11.9826 115.608 12.0697 116.042 12.2323C115.852 12.0432 115.648 11.8987 115.433 11.7877C114.994 11.5617 114.44 11.4412 113.729 11.4412C112.295 11.4412 111.245 12.0303 110.53 12.9342C109.795 13.8633 109.381 15.1749 109.381 16.6117C109.381 18.1913 109.75 19.52 110.44 20.4283C111.099 21.2957 112.123 21.8807 113.705 21.8807C114.649 21.8807 115.505 21.5828 116.089 21.0512C115.639 21.239 115.132 21.3429 114.575 21.3429C113.134 21.3429 112.12 20.6392 111.517 19.6446C110.952 18.7106 110.767 17.5635 110.767 16.5653C110.767 15.4979 111.007 14.3837 111.615 13.5043C112.254 12.5813 113.259 11.9826 114.575 11.9826Z" fill="#555555" stroke="#555555" stroke-width="2.0505"/>
</g>
<path id="path3902" d="M127.975 17.1134V16.2118H122.74V17.1134H127.975Z" fill="#555555" stroke="#555555" stroke-width="2.0505"/>
<g id="g3904">
<path id="path3906" d="M132.699 20.0742V7.0127H130.951V22.2443H141.123V21.0994H133.725H132.699V20.0742Z" fill="#555555" stroke="#555555" stroke-width="2.0505"/>
</g>
<path id="path3908" d="M145.361 22.2443V7.0127H143.974V22.2443H145.361Z" fill="#555555" stroke="#555555" stroke-width="2.0505"/>
<g id="g3910">
<path id="path3912" d="M148.189 17.0236C148.189 18.7869 148.75 20.1597 149.658 21.0869C150.563 22.0118 151.901 22.5822 153.627 22.5822C155.367 22.5822 156.711 22.0107 157.619 21.0859C158.529 20.159 159.089 18.7868 159.089 17.0236C159.089 15.2467 158.528 13.8685 157.618 12.9392C156.71 12.0122 155.367 11.4409 153.627 11.4409C151.901 11.4409 150.564 12.0111 149.659 12.9382C148.751 13.8678 148.189 15.2466 148.189 17.0236ZM149.577 17.0236C149.577 15.9295 149.764 14.7064 150.372 13.7229C151.023 12.67 152.107 11.9805 153.627 11.9805C155.155 11.9805 156.247 12.6656 156.904 13.7202C157.517 14.7049 157.703 15.9296 157.703 17.0236C157.703 18.108 157.516 19.3269 156.903 20.3082C156.246 21.3587 155.155 22.0426 153.627 22.0426C152.108 22.0426 151.024 21.3543 150.373 20.3055C149.764 19.3254 149.577 18.1081 149.577 17.0236Z" fill="#555555" stroke="#555555" stroke-width="2.0505"/>
</g>
<g id="g3914">
<path id="path3916" d="M164.876 19.6442L162.277 11.7809H160.819L164.702 22.1293C164.982 22.8501 164.996 23.6879 164.68 24.4081C164.344 25.1709 163.646 25.7622 162.661 25.8624L162.628 25.8658L162.594 25.867C162.256 25.879 161.907 25.8638 161.574 25.8396V26.6124C161.937 26.6357 162.297 26.6486 162.656 26.6486C163.734 26.6486 164.395 26.4599 164.85 26.1578C165.295 25.8615 165.672 25.3684 166.003 24.4847C166.003 24.4844 166.003 24.4841 166.003 24.4837L170.718 11.7809H169.382L166.874 19.6342L166.647 20.3477H165.898H165.849H165.108L164.876 19.6442Z" fill="#555555" stroke="#555555" stroke-width="2.0505"/>
</g>
<g id="g3918">
<path id="path3920" d="M181.589 7.01276V12.0164L182.424 13.3069H181.589H180.644C180.741 13.4275 180.831 13.5548 180.914 13.6881C181.516 14.6556 181.71 15.8667 181.71 16.9773C181.71 18.0875 181.532 19.3145 180.94 20.2979C180.867 20.4188 180.789 20.5349 180.705 20.6457H180.733H181.758V21.671V22.2444H182.976V7.01276H181.589ZM179.961 12.656C180.164 12.8026 180.349 12.9702 180.516 13.1561V12.2973L179.961 12.656ZM177.733 11.9824C178.243 11.9824 178.705 12.0631 179.116 12.2116C178.517 11.7187 177.697 11.4428 176.812 11.4428C175.299 11.4428 174.211 12.069 173.473 13.0254C172.714 14.0105 172.295 15.3978 172.295 16.9049C172.295 18.4695 172.713 19.9141 173.482 20.9401C174.227 21.9341 175.331 22.5841 176.884 22.5841C177.933 22.5841 178.773 22.2967 179.359 21.7201C178.89 21.929 178.347 22.0445 177.733 22.0445C176.275 22.0445 175.213 21.315 174.559 20.3016C173.932 19.3303 173.681 18.1157 173.681 17.0014C173.681 15.8708 173.889 14.6508 174.512 13.6799C175.174 12.6465 176.255 11.9824 177.733 11.9824Z" fill="#555555" stroke="#555555" stroke-width="2.0505"/>
</g>
<g id="g3922">
<path id="path3924" d="M16.8792 26.5705L11.7889 19.4782L10.624 17.8551H12.6218H15.0448H15.5691L15.876 18.2802L21.8614 26.5705H31.8216L26.3142 19.511L25.0224 17.8551H27.1226H35.23L37.5155 13.6486H30.9919H29.1561L30.119 12.0856L36.9319 1.0268H26.7616L19.2849 13.4077L18.9858 13.903H18.4072H15.9843H14.1587L15.1088 12.3441L22.0069 1.0268H12.2097L1.24191 18.3634L7.31592 26.5705H16.8792Z" fill="#555555" stroke="#555555" stroke-width="2.0505"/>
</g>
</g>
</g>
</g>
</g>
</g>
</svg>
