<svg width="30" height="32" viewBox="0 0 30 32" fill="none" xmlns="http://www.w3.org/2000/svg">
<path id="Vector" d="M13.0952 18.6267L13.1467 19.6955C13.1565 19.8702 13.2172 20.0094 13.3288 20.1132C13.4405 20.2169 13.5775 20.2688 13.7398 20.2688H14.6174C14.777 20.2688 14.9127 20.2169 15.0245 20.1132C15.1363 20.0094 15.1974 19.8702 15.2076 19.6955L15.2751 18.6267C15.6845 18.5598 16.0732 18.4196 16.4412 18.2063C16.8092 17.9929 17.1257 17.7347 17.3906 17.4316L18.4034 17.8202C18.5427 17.8764 18.6811 17.882 18.8187 17.8371C18.9562 17.7923 19.0654 17.703 19.1461 17.5691L19.566 16.8454C19.644 16.7201 19.6725 16.5872 19.6514 16.4466C19.6303 16.3059 19.5616 16.1828 19.4453 16.0772L18.7088 15.4915C18.8803 15.0302 18.966 14.5548 18.966 14.0653C18.966 13.5759 18.8803 13.1023 18.7088 12.6445L19.4453 12.075C19.5616 11.9586 19.6303 11.8301 19.6514 11.6895C19.6725 11.5488 19.6443 11.4133 19.567 11.2829L19.1463 10.5795C19.0654 10.4481 18.9562 10.3572 18.8187 10.307C18.6811 10.2567 18.5427 10.2651 18.4034 10.332L17.3906 10.7045C17.1156 10.413 16.7923 10.1647 16.4207 9.95952C16.0492 9.75438 15.6673 9.60971 15.2751 9.5255L15.2076 8.44049C15.1959 8.27302 15.1348 8.13562 15.0243 8.02827C14.9137 7.92091 14.7781 7.86722 14.6173 7.86722H13.7529C13.5897 7.86722 13.451 7.92091 13.3366 8.02827C13.2223 8.13562 13.159 8.27302 13.1467 8.44049L13.0952 9.5255C12.6923 9.60971 12.305 9.75438 11.9335 9.95952C11.5619 10.1647 11.2386 10.413 10.9635 10.7045L9.95081 10.332C9.81149 10.2651 9.67217 10.2577 9.53284 10.3099C9.39352 10.3621 9.28485 10.4494 9.20683 10.5717L8.78823 11.2907C8.72094 11.4159 8.69783 11.5488 8.71889 11.6895C8.73999 11.8301 8.80869 11.9586 8.92499 12.075L9.66145 12.6445C9.47927 13.1059 9.38819 13.5813 9.38819 14.0707C9.38819 14.5602 9.47927 15.0338 9.66145 15.4915L8.92499 16.0772C8.80869 16.1828 8.73999 16.3059 8.71889 16.4466C8.69783 16.5872 8.72094 16.7201 8.78823 16.8454L9.20808 17.5691C9.28884 17.703 9.39798 17.7923 9.53552 17.8371C9.67306 17.882 9.81149 17.8764 9.95081 17.8202L10.9635 17.4316C11.2285 17.7347 11.545 17.9929 11.913 18.2063C12.2811 18.4196 12.6751 18.5598 13.0952 18.6267ZM14.1891 17.2179C13.3141 17.2179 12.5749 16.9128 11.9715 16.3027C11.3681 15.6925 11.0665 14.9517 11.0665 14.0801C11.0665 13.1986 11.3668 12.454 11.9676 11.8461C12.5683 11.2383 13.3035 10.9344 14.1731 10.9344C15.0428 10.9344 15.782 11.237 16.3907 11.8421C16.9995 12.4473 17.3038 13.1879 17.3038 14.064C17.3038 14.9401 17.001 15.6848 16.3954 16.298C15.7897 16.9112 15.0543 17.2179 14.1891 17.2179ZM5.01561 25.2114C3.42734 23.7517 2.19433 22.0788 1.3166 20.1927C0.438866 18.3066 0 16.3437 0 14.3041C0 10.3307 1.38162 6.95339 4.14486 4.17205C6.90808 1.39068 10.2634 0 14.2109 0C17.4581 0 20.3619 0.977605 22.9222 2.93281C25.4825 4.88801 27.1453 7.42458 27.9105 10.5425L29.9572 18.7161C30.0545 19.0991 29.9859 19.4439 29.7512 19.7506C29.5165 20.0572 29.1955 20.2105 28.7882 20.2105H25.078V26.2024C25.078 26.862 24.8398 27.4318 24.3634 27.9117C23.887 28.3916 23.3214 28.6316 22.6666 28.6316H18.3905V31.0445C18.3905 31.3153 18.2988 31.5422 18.1154 31.7253C17.9321 31.9084 17.7049 32 17.4339 32C17.1628 32 16.9383 31.9084 16.7604 31.7253C16.5825 31.5422 16.4936 31.3153 16.4936 31.0445V27.9432C16.4936 27.5911 16.6091 27.2993 16.8402 27.0678C17.0713 26.8364 17.3577 26.7207 17.6993 26.7207H22.6666C22.8167 26.7207 22.9399 26.6721 23.0364 26.5749C23.1329 26.4777 23.1811 26.3535 23.1811 26.2024V19.5142C23.1811 19.17 23.2966 18.8816 23.5277 18.6488C23.7588 18.416 24.0452 18.2996 24.3868 18.2996H27.8816L26.0812 10.9959C25.4231 8.30552 23.9816 6.11874 21.7568 4.43559C19.5319 2.75247 17.0166 1.91091 14.2109 1.91091C10.79 1.91091 7.88242 3.1045 5.48821 5.49168C3.09401 7.87886 1.89691 10.7911 1.89691 14.2284C1.89691 16.0122 2.25831 17.7004 2.98111 19.2929C3.70392 20.8854 4.72288 22.2974 6.03801 23.5288L6.91252 24.366V31.0445C6.91252 31.3153 6.82085 31.5422 6.6375 31.7253C6.45415 31.9084 6.22695 32 5.95592 32C5.68485 32 5.46037 31.9084 5.28249 31.7253C5.10457 31.5422 5.01561 31.3153 5.01561 31.0445V25.2114Z" fill="white"/>
</svg>
