<svg width="36" height="36" viewBox="0 0 36 36" fill="none" xmlns="http://www.w3.org/2000/svg">
<g id="Our Services=Medical device">
<path id="Vector" d="M3 12.5837V7.40942C3 6.74734 3.24195 6.18024 3.72584 5.70815C4.20974 5.23605 4.791 5 5.46964 5H30.5304C31.209 5 31.7903 5.23605 32.2742 5.70815C32.7581 6.18024 33 6.74734 33 7.40942V15.6647C33 15.9394 32.9046 16.1693 32.7138 16.3546C32.5231 16.5398 32.2862 16.6324 32.0033 16.6324C31.7204 16.6324 31.4852 16.5398 31.2976 16.3546C31.11 16.1693 31.0162 15.9394 31.0162 15.6647V7.40942C31.0162 7.29091 30.9656 7.18228 30.8644 7.08354C30.7632 6.98477 30.6518 6.93539 30.5304 6.93539H5.46964C5.34816 6.93539 5.23682 6.98477 5.13561 7.08354C5.03437 7.18228 4.98376 7.29091 4.98376 7.40942V12.5837H3ZM10.1052 23.6828C9.90485 23.6828 9.72637 23.6416 9.56982 23.559C9.41329 23.4763 9.28442 23.3475 9.18321 23.1723L6.32894 17.521H3.99999C3.71846 17.521 3.48276 17.428 3.2929 17.2419C3.10305 17.0558 3.00813 16.8247 3.00813 16.5487C3.00813 16.2727 3.10305 16.0432 3.2929 15.8602C3.48276 15.6772 3.71846 15.5857 3.99999 15.5857H6.95543C7.13927 15.5857 7.30827 15.6346 7.46243 15.7323C7.61662 15.8301 7.73304 15.9616 7.8117 16.1268L10.1052 20.5557L15.5253 9.96496C15.609 9.80501 15.733 9.68768 15.8972 9.61297C16.0615 9.53825 16.2347 9.5009 16.4169 9.5009C16.5992 9.5009 16.7712 9.53825 16.9332 9.61297C17.0951 9.68768 17.2179 9.80501 17.3016 9.96496L20.4403 16.1002C20.1555 16.2786 19.8769 16.4752 19.6043 16.6902C19.3317 16.9051 19.0763 17.1347 18.8381 17.3789L16.4059 12.5817L10.9696 23.1723C10.8862 23.3475 10.7661 23.4763 10.6094 23.559C10.4528 23.6416 10.2847 23.6828 10.1052 23.6828ZM16.7723 28.1067H5.46964C4.791 28.1067 4.20974 27.8707 3.72584 27.3986C3.24195 26.9265 3 26.3594 3 25.6973V20.523H4.98376V25.6973C4.98376 25.8158 5.03437 25.9244 5.13561 26.0232C5.23682 26.1219 5.34816 26.1713 5.46964 26.1713H16.0982C16.1778 26.5163 16.2713 26.8492 16.3786 27.1701C16.4859 27.491 16.6171 27.8032 16.7723 28.1067ZM25.8913 31C23.9719 31 22.3405 30.3435 20.997 29.0306C19.6536 27.7176 18.9818 26.1248 18.9818 24.2522C18.9818 22.3796 19.6547 20.788 21.0005 19.4773C22.3462 18.1666 23.9788 17.5113 25.8982 17.5113C27.8176 17.5113 29.4491 18.1677 30.7925 19.4807C32.136 20.7936 32.8077 22.3864 32.8077 24.259C32.8077 26.1316 32.1348 27.7233 30.789 29.034C29.4433 30.3447 27.8107 31 25.8913 31ZM29.0375 22.1494C29.1751 22.0151 29.2465 21.8576 29.2515 21.6769C29.2566 21.4961 29.1852 21.3337 29.0375 21.1895C28.8998 21.0552 28.7358 20.9881 28.5456 20.9881C28.3553 20.9881 28.1913 21.0552 28.0537 21.1895L25.7187 23.4439C25.581 23.5782 25.5097 23.7397 25.5046 23.9283C25.4995 24.1169 25.5709 24.2833 25.7187 24.4274C25.8563 24.5617 26.0243 24.6289 26.2227 24.6289C26.4211 24.6289 26.5891 24.5617 26.7267 24.4274L29.0375 22.1494Z" fill="white"/>
</g>
</svg>
