<svg width="20" height="32" viewBox="0 0 20 32" fill="none" xmlns="http://www.w3.org/2000/svg">
<g id="Group 1">
<g id="group">
<path id="Vector" d="M2.21897 31.9999C1.61566 31.9999 1.095 31.783 0.657002 31.3492C0.219 30.9154 0 30.3997 0 29.8021V2.19783C0 1.60027 0.219 1.08457 0.657002 0.650745C1.095 0.216916 1.61566 0 2.21897 0H17.781C18.3843 0 18.905 0.216916 19.343 0.650745C19.781 1.08457 20 1.60027 20 2.19783V29.8021C20 30.3997 19.781 30.9154 19.343 31.3492C18.905 31.7831 18.3843 32 17.781 32H2.21897V31.9999ZM1.74555 28.6446V29.8021C1.74555 29.9194 1.79485 30.0268 1.89347 30.1245C1.99211 30.2222 2.10061 30.271 2.21897 30.271H17.781C17.8994 30.271 18.0079 30.2222 18.1065 30.1245C18.2051 30.0268 18.2545 29.9194 18.2545 29.8021V28.6446H1.74555ZM1.74555 26.9157H18.2545V5.08423H1.74555V26.9157ZM1.74555 3.35532H18.2545V2.19783C18.2545 2.0806 18.2051 1.97313 18.1065 1.87543C18.0079 1.77776 17.8994 1.72892 17.781 1.72892H2.21897C2.10061 1.72892 1.99211 1.77776 1.89347 1.87543C1.79485 1.97313 1.74555 2.0806 1.74555 2.19783V3.35532Z" fill="white"/>
<path id="Vector_2" d="M10.6702 15.3298H14.5798C14.7625 15.3298 14.9271 15.3949 15.0567 15.5256L15.0567 15.5256C15.1862 15.6562 15.25 15.8213 15.25 16.0036C15.25 16.186 15.186 16.3515 15.054 16.4807C15.054 16.4807 15.054 16.4807 15.054 16.4807L14.8792 16.302C14.7986 16.3808 14.6988 16.4202 14.5798 16.4202L10.6702 15.3298ZM10.6702 15.3298V11.4202C10.6702 11.2399 10.608 11.0761 10.4807 10.946C10.4807 10.946 10.4807 10.946 10.4807 10.946L10.6702 15.3298ZM9.32978 16.6702V20.5798C9.32978 20.7601 9.39201 20.924 9.51936 21.0541C9.64853 21.186 9.81396 21.25 9.99637 21.25C10.1787 21.25 10.3438 21.1862 10.4744 21.0567C10.6051 20.9271 10.6702 20.7625 10.6702 20.5798V16.6702H9.32978ZM9.32978 16.6702H5.42022C5.23752 16.6702 5.07285 16.6051 4.94327 16.4744C4.81381 16.3438 4.75 16.1787 4.75 15.9964C4.75 15.814 4.81395 15.6485 4.94594 15.5194L9.32978 16.6702ZM9.32978 15.3298H5.42022C5.23989 15.3298 5.07607 15.392 4.94597 15.5193L9.32978 15.3298Z" fill="white" stroke="white" stroke-width="0.5"/>
</g>
</g>
</svg>
