<svg width="36" height="37" viewBox="0 0 36 37" fill="none" xmlns="http://www.w3.org/2000/svg">
<path d="M27.6781 14.0501L22.4483 8.82782L24.931 6.35646C25.3541 5.9328 25.8692 5.72097 26.4764 5.72097C27.0836 5.72097 27.5988 5.9328 28.0218 6.35646L30.1461 8.49828C30.5692 8.92196 30.7807 9.43781 30.7807 10.0458C30.7807 10.6539 30.5692 11.1648 30.1461 11.5787L27.6781 14.0501ZM5.04598 31.4761V26.201L12.3383 18.8987L4 10.5107L9.95549 4.5L18.3702 12.9115L22.4483 8.82782L27.6781 14.0501L23.6147 18.1484L32 26.5746L26.021 32.5L17.6298 24.1503L10.314 31.4761H5.04598ZM13.584 17.6659L17.1245 14.1207L14.0571 11.0344L12.2384 12.8702L11.0162 11.6464L12.8348 9.8252L9.97898 6.96543L6.43858 10.5107L13.584 17.6659ZM25.9593 30.0816L29.4997 26.5364L26.6439 23.6766L24.8252 25.4978L23.603 24.2739L25.4217 22.4527L22.3543 19.3811L18.8138 22.9264L25.9593 30.0816ZM6.77944 29.7403H9.55593L25.1866 14.0883L22.4101 11.308L6.77944 26.96V29.7403Z" fill="#2C74D6"/>
</svg>
