<svg width="36" height="36" viewBox="0 0 36 36" fill="none" xmlns="http://www.w3.org/2000/svg">
<g id="Our Services=healthcare providers">
<path id="Vector" d="M15.7212 21.1029V23.53C15.7212 24.0322 15.8945 24.4591 16.2412 24.8106C16.5878 25.1622 17.0087 25.338 17.504 25.338C17.9992 25.338 18.4188 25.1622 18.7628 24.8106C19.1068 24.4591 19.2788 24.0322 19.2788 23.53V21.1029H21.6667C22.1608 21.1029 22.5808 20.9268 22.9267 20.5744C23.2726 20.2221 23.4455 19.7943 23.4455 19.2909C23.4455 18.7876 23.2726 18.3611 22.9267 18.0114C22.5808 17.6617 22.1608 17.4869 21.6667 17.4869H19.2788V15.0599C19.2788 14.5577 19.1055 14.1308 18.7588 13.7792C18.4122 13.4276 17.9913 13.2519 17.496 13.2519C17.0008 13.2519 16.5812 13.4276 16.2372 13.7792C15.8932 14.1308 15.7212 14.5577 15.7212 15.0599V17.4869H13.3333C12.8392 17.4869 12.4192 17.6631 12.0733 18.0154C11.7274 18.3678 11.5545 18.7956 11.5545 19.2989C11.5545 19.8023 11.7274 20.2288 12.0733 20.5784C12.4192 20.9281 12.8392 21.1029 13.3333 21.1029H15.7212ZM7.40388 32C6.7511 32 6.18727 31.7586 5.71238 31.2759C5.23746 30.7933 5 30.2202 5 29.5567V14.164C5 13.7699 5.08254 13.4023 5.24763 13.0613C5.41268 12.7203 5.65279 12.4375 5.96796 12.2127L16.0641 4.4919C16.4749 4.16397 16.9504 4 17.4907 4C18.0311 4 18.5128 4.16397 18.9359 4.4919L29.032 12.2127C29.3472 12.4375 29.5873 12.7203 29.7524 13.0613C29.9175 13.4023 30 13.7699 30 14.164V29.5567C30 30.2202 29.7625 30.7933 29.2876 31.2759C28.8127 31.7586 28.2489 32 27.5961 32H7.40388ZM7.40388 30.078H27.5961C27.7457 30.078 27.8686 30.0291 27.9647 29.9314C28.0609 29.8336 28.109 29.7087 28.109 29.5567V14.0435C28.109 13.9566 28.0903 13.8752 28.0529 13.7992C28.0155 13.7232 27.9647 13.6634 27.9007 13.62L17.8045 6.10443C17.719 6.02843 17.6175 5.99042 17.5 5.99042C17.3825 5.99042 17.281 6.02843 17.1955 6.10443L7.09934 13.62C7.03526 13.6634 6.98451 13.7232 6.94709 13.7992C6.9097 13.8752 6.89101 13.9566 6.89101 14.0435V29.5567C6.89101 29.7087 6.93909 29.8336 7.03526 29.9314C7.13142 30.0291 7.2543 30.078 7.40388 30.078Z" fill="white"/>
</g>
</svg>
