<svg width="36" height="36" viewBox="0 0 36 36" fill="none" xmlns="http://www.w3.org/2000/svg">
<path d="M7.41349 29.2499C6.82309 29.2499 6.31491 29.0369 5.88896 28.611C5.46299 28.185 5.25 27.6768 5.25 27.0864V5.91349C5.25 5.32309 5.46299 4.81491 5.88896 4.38896C6.31491 3.96299 6.82309 3.75 7.41349 3.75H28.5864C29.1768 3.75 29.685 3.96299 30.111 4.38896C30.5369 4.81491 30.7499 5.32309 30.7499 5.91349V14.6423C30.4865 14.5211 30.2129 14.4053 29.9292 14.2947C29.6456 14.1841 29.3519 14.0865 29.048 14.0019V5.91349C29.048 5.77886 29.0047 5.66828 28.9182 5.58173C28.8316 5.49518 28.7211 5.4519 28.5864 5.4519H7.41349C7.27886 5.4519 7.16827 5.49518 7.08172 5.58173C6.99517 5.66828 6.9519 5.77886 6.9519 5.91349V20.6163H13.3125C13.7202 21.3413 14.2182 21.9639 14.8067 22.4841C15.3952 23.0043 16.0692 23.3596 16.8288 23.55C16.8173 23.8634 16.8312 24.162 16.8706 24.4456C16.9101 24.7293 16.9548 25.0153 17.0048 25.3038C16.099 25.1634 15.2553 24.8369 14.4735 24.3244C13.6918 23.8119 13.0673 23.1432 12.6 22.3182H6.9519V27.0864C6.9519 27.2211 6.99517 27.3316 7.08172 27.4182C7.16827 27.5047 7.27886 27.548 7.41349 27.548H17.8183C17.9683 27.8519 18.125 28.1432 18.2884 28.422C18.4519 28.7009 18.6394 28.9769 18.8509 29.2499H7.41349ZM7.41349 27.548H6.9519H17.8183H7.41349ZM25.8057 30.173L25.6903 28.7335C25.0672 28.5682 24.5182 28.3465 24.0432 28.0686C23.5682 27.7908 23.1461 27.4557 22.7769 27.0633L21.5047 27.698L20.4952 26.2066L21.675 25.298C21.4923 24.7557 21.4009 24.1961 21.4009 23.6191C21.4009 23.0422 21.4923 22.4778 21.675 21.9259L20.4952 21.0028L21.5047 19.474L22.7769 20.123C23.1365 19.7653 23.5586 19.4427 24.0432 19.1552C24.5278 18.8677 25.0769 18.6413 25.6903 18.4759L25.8057 17.0134H27.5076L27.646 18.4759C28.2499 18.6317 28.7941 18.8533 29.2787 19.1408C29.7633 19.4283 30.1903 19.7557 30.5595 20.123L31.8316 19.474L32.8412 21.0028L31.6614 21.9259C31.8441 22.4778 31.933 23.0446 31.9282 23.6263C31.9234 24.2081 31.8297 24.7653 31.647 25.298L32.8412 26.2066L31.8316 27.698L30.5595 27.0633C30.1903 27.446 29.7682 27.7787 29.2932 28.0614C28.8182 28.3441 28.2691 28.5682 27.646 28.7335L27.5076 30.173H25.8057ZM26.6566 27.3028C27.7086 27.3028 28.5898 26.9475 29.3004 26.2369C30.011 25.5264 30.3663 24.6451 30.3663 23.5932C30.3663 22.5413 30.011 21.6576 29.3004 20.9422C28.5898 20.2268 27.7086 19.8692 26.6566 19.8692C25.5951 19.8692 24.7091 20.2268 23.9985 20.9422C23.2879 21.6576 22.9326 22.5413 22.9326 23.5932C22.9326 24.6451 23.2879 25.5264 23.9985 26.2369C24.7091 26.9475 25.5951 27.3028 26.6566 27.3028Z" fill="white"/>
</svg>
