<svg width="36" height="36" viewBox="0 0 36 36" fill="none" xmlns="http://www.w3.org/2000/svg">
<g id="Our Services=health insurance">
<path id="Vector" d="M16.3898 18.8081V21.9248C16.3898 22.1681 16.4765 22.3766 16.65 22.5501C16.8234 22.7237 17.0317 22.8105 17.2749 22.8105H18.7415C18.9941 22.8105 19.202 22.7237 19.3653 22.5501C19.5286 22.3766 19.6102 22.1681 19.6102 21.9248V18.8081H22.7415C22.9941 18.8081 23.202 18.7213 23.3653 18.5478C23.5286 18.3742 23.6103 18.1658 23.6103 17.9225V16.455C23.6103 16.2023 23.5286 15.9942 23.3653 15.8309C23.202 15.6675 22.9941 15.5858 22.7415 15.5858H19.6102V12.4527C19.6102 12.1999 19.5286 11.9919 19.3653 11.8285C19.202 11.6651 18.9941 11.5834 18.7415 11.5834H17.2749C17.0317 11.5834 16.8234 11.6651 16.65 11.8285C16.4765 11.9919 16.3898 12.1999 16.3898 12.4527V15.5858H13.2749C13.0317 15.5858 12.8234 15.6675 12.6499 15.8309C12.4765 15.9942 12.3897 16.2023 12.3897 16.455V17.9225C12.3897 18.1658 12.4765 18.3742 12.6499 18.5478C12.8234 18.7213 13.0317 18.8081 13.2749 18.8081H16.3898ZM18 33C17.85 33 17.7056 32.9867 17.5666 32.96C17.4277 32.9333 17.2937 32.8933 17.1648 32.8399C13.7332 31.6173 11.0145 29.4757 9.00873 26.4151C7.00291 23.3545 6 20.0217 6 16.4165V9.07532C6 8.54162 6.15111 8.0613 6.45332 7.63435C6.75551 7.20738 7.14628 6.89784 7.62564 6.70573L17.1231 3.1683C17.426 3.0561 17.7183 3 18 3C18.2817 3 18.574 3.0561 18.8769 3.1683L28.3743 6.70573C28.8537 6.89784 29.2445 7.20738 29.5467 7.63435C29.8489 8.0613 30 8.54162 30 9.07532V16.4165C30 20.0217 28.9971 23.3545 26.9913 26.4151C24.9854 29.4757 22.2668 31.6173 18.8352 32.8399C18.7063 32.8933 18.5723 32.9333 18.4334 32.96C18.2944 32.9867 18.15 33 18 33ZM18 31.0512C20.9142 30.1091 23.3077 28.2749 25.1805 25.5485C27.0534 22.8221 27.9898 19.7796 27.9898 16.4211V9.05991C27.9898 8.95726 27.9616 8.86489 27.9051 8.78278C27.8487 8.70068 27.7693 8.63911 27.6667 8.59808L18.1692 5.03395C18.118 5.01341 18.0615 5.00313 18 5.00313C17.9385 5.00313 17.882 5.01341 17.8308 5.03395L8.33333 8.59808C8.23074 8.63911 8.15125 8.70068 8.09485 8.78278C8.03842 8.86489 8.01021 8.95726 8.01021 9.05991V16.4211C8.01021 19.7796 8.94662 22.8221 10.8195 25.5485C12.6923 28.2749 15.0858 30.1091 18 31.0512Z" fill="white"/>
</g>
</svg>
