<svg width="36" height="36" viewBox="0 0 36 36" fill="none" xmlns="http://www.w3.org/2000/svg">
<g id="Our Services=Mhealth wearables">
<path id="Vector" d="M4.74036 6.36084H18.1327V5.20145C18.1327 5.08402 18.0836 4.97638 17.9853 4.87852C17.8869 4.78068 17.7787 4.73176 17.6608 4.73176H5.21239C5.09438 4.73176 4.98621 4.78068 4.88789 4.87852C4.78954 4.97638 4.74036 5.08402 4.74036 5.20145V6.36084ZM5.21239 32C4.61086 32 4.09174 31.7827 3.65503 31.3482C3.21834 30.9136 3 30.3971 3 29.7986V5.20145C3 4.6029 3.21834 4.08636 3.65503 3.65182C4.09174 3.21727 4.61086 3 5.21239 3H17.6608C18.2623 3 18.7814 3.21727 19.2181 3.65182C19.6548 4.08636 19.8731 4.6029 19.8731 5.20145V11.518C19.552 11.6821 19.2514 11.8649 18.9715 12.0666C18.6916 12.2684 18.412 12.4778 18.1327 12.695V8.0926H4.74036V26.9074H15.6696C15.8662 27.2322 16.0718 27.535 16.2861 27.8158C16.5005 28.0966 16.7423 28.3667 17.0117 28.626H4.74036V29.7986C4.74036 29.916 4.78954 30.0236 4.88789 30.1215C4.98621 30.2193 5.09438 30.2682 5.21239 30.2682H18.3392V29.8925C18.5339 30.0452 18.7325 30.1949 18.9351 30.3416C19.1376 30.4884 19.352 30.6195 19.5781 30.7349C19.3992 31.1028 19.1327 31.4056 18.7787 31.6433C18.4247 31.8811 18.0275 32 17.587 32H5.21239ZM25.2342 27.2156C26.907 27.2156 28.3294 26.635 29.5015 25.4739C30.6736 24.3128 31.2596 22.9 31.2596 21.2354C31.2596 19.5709 30.6762 18.1555 29.5093 16.9893C28.3423 15.823 26.9225 15.2399 25.2497 15.2399C23.5768 15.2399 22.1544 15.8204 20.9823 16.9815C19.8102 18.1427 19.2242 19.5555 19.2242 21.22C19.2242 22.8846 19.8076 24.2999 20.9745 25.4662C22.1415 26.6325 23.5613 27.2156 25.2342 27.2156ZM23.4572 32C23.1413 32 22.878 31.8951 22.6672 31.6853C22.4564 31.4756 22.351 31.2136 22.351 30.8993V28.4043C20.9135 27.8232 19.7429 26.8942 18.8392 25.6173C17.9356 24.3405 17.4838 22.8773 17.4838 21.2277C17.4838 19.5781 17.9356 18.1149 18.8392 16.8381C19.7429 15.5613 20.9135 14.6323 22.351 14.0511V11.5562C22.351 11.2419 22.4564 10.9799 22.6672 10.7701C22.878 10.5604 23.1413 10.4555 23.4572 10.4555H27.0266C27.3424 10.4555 27.6058 10.5604 27.8166 10.7701C28.0274 10.9799 28.1328 11.2419 28.1328 11.5562V14.0511C29.5703 14.6323 30.7409 15.5613 31.6445 16.8381C32.5482 18.1149 33 19.5781 33 21.2277C33 22.8773 32.5482 24.3405 31.6445 25.6173C30.7409 26.8942 29.5703 27.8232 28.1328 28.4043V30.8993C28.1328 31.2136 28.0274 31.4756 27.8166 31.6853C27.6058 31.8951 27.3424 32 27.0266 32H23.4572Z" fill="white"/>
</g>
</svg>
