<svg width="36" height="36" viewBox="0 0 36 36" fill="none" xmlns="http://www.w3.org/2000/svg">
<g id="Our Services=EHR">
<path id="Vector" d="M4.57608 14.5408V8.27503C4.57608 7.64987 4.7926 7.11441 5.22566 6.66866C5.65871 6.22289 6.1789 6 6.78623 6H29.2138C29.8211 6 30.3413 6.22289 30.7743 6.66866C31.2074 7.11441 31.4239 7.64987 31.4239 8.27503V14.5408H29.6486V8.27503C29.6486 8.16315 29.6033 8.06058 29.5127 7.96732C29.4221 7.87408 29.3225 7.82747 29.2138 7.82747H6.78623C6.67752 7.82747 6.57787 7.87408 6.4873 7.96732C6.3967 8.06058 6.3514 8.16315 6.3514 8.27503V14.5408H4.57608ZM6.78623 26.3636C6.1789 26.3636 5.65871 26.1408 5.22566 25.695C4.7926 25.2492 4.57608 24.7138 4.57608 24.0886V16.3683H6.3514V24.0886C6.3514 24.2005 6.3967 24.3031 6.4873 24.3963C6.57787 24.4896 6.67752 24.5362 6.78623 24.5362H29.2138C29.3225 24.5362 29.4221 24.4896 29.5127 24.3963C29.6033 24.3031 29.6486 24.2005 29.6486 24.0886V16.3683H31.4239V24.0886C31.4239 24.7138 31.2074 25.2492 30.7743 25.695C30.3413 26.1408 29.8211 26.3636 29.2138 26.3636H6.78623ZM3.88764 30C3.63569 30 3.42476 29.9121 3.25484 29.7364C3.08495 29.5606 3 29.3425 3 29.0818C3 28.8212 3.08495 28.6045 3.25484 28.4317C3.42476 28.2589 3.63569 28.1725 3.88764 28.1725H32.1124C32.3643 28.1725 32.5752 28.2604 32.7452 28.4361C32.9151 28.6119 33 28.8301 33 29.0907C33 29.3513 32.9151 29.568 32.7452 29.7408C32.5752 29.9136 32.3643 30 32.1124 30H3.88764ZM4.57608 16.3683V14.5408H12.3478C12.5096 14.5408 12.6634 14.5834 12.8093 14.6686C12.9551 14.7537 13.0685 14.8765 13.1494 15.0369L15.2654 19.4155L20.0299 10.6825C20.1048 10.5271 20.2163 10.4152 20.3644 10.3469C20.5125 10.2785 20.6675 10.2443 20.8296 10.2443C20.9916 10.2443 21.1464 10.2785 21.294 10.3469C21.4416 10.4152 21.5528 10.529 21.6277 10.6881L23.481 14.5408H31.4239V16.3683H23.067C22.8602 16.3683 22.6655 16.3137 22.4828 16.2046C22.3002 16.0956 22.1613 15.9428 22.0662 15.7464L20.7554 13.0302L15.9773 21.6961C15.9008 21.8595 15.7882 21.9821 15.6395 22.0639C15.4909 22.1456 15.3348 22.1865 15.1712 22.1865C15.0076 22.1865 14.8537 22.1439 14.7097 22.0588C14.5657 21.9736 14.4532 21.8508 14.3723 21.6905L11.7871 16.3683H4.57608Z" fill="white"/>
</g>
</svg>
