<svg width="36" height="36" viewBox="0 0 36 36" fill="none" xmlns="http://www.w3.org/2000/svg">
<path d="M18 30.4587C20.5826 29.6125 22.7307 28.0375 24.4442 25.7337C26.1576 23.4299 27.1596 20.852 27.45 18H18V5.65391L8.75482 9.08948C8.65865 9.12793 8.58413 9.18561 8.53125 9.26254C8.47835 9.33949 8.4519 9.42604 8.4519 9.52219V16.4828C8.4519 16.7635 8.45815 17.0101 8.47065 17.2226C8.48315 17.4351 8.50959 17.6943 8.54996 18H18V30.4587ZM18 32.0567C17.875 32.0567 17.7538 32.0442 17.6365 32.0192C17.5192 31.9942 17.398 31.9567 17.273 31.9067C14.0288 30.751 11.4639 28.7385 9.57836 25.8692C7.69279 23 6.75 19.8635 6.75 16.4597V9.51353C6.75 9.05778 6.8827 8.64095 7.1481 8.26305C7.41347 7.88518 7.74905 7.61354 8.15482 7.44814L17.2413 4.07029C17.5067 3.97029 17.7596 3.92029 18 3.92029C18.2403 3.92029 18.4932 3.97029 18.7586 4.07029L27.8451 7.44814C28.2509 7.61354 28.5864 7.88518 28.8518 8.26305C29.1172 8.64095 29.2499 9.05778 29.2499 9.51353V16.4597C29.2499 19.8635 28.3071 23 26.4216 25.8692C24.536 28.7385 21.9711 30.751 18.7269 31.9067C18.6019 31.9567 18.4807 31.9942 18.3634 32.0192C18.2461 32.0442 18.125 32.0567 18 32.0567Z" fill="white"/>
</svg>
