<svg width="36" height="36" viewBox="0 0 36 36" fill="none" xmlns="http://www.w3.org/2000/svg">
<g id="Our Services=data analytics ">
<path id="Vector" d="M4.15889 30.8334C3.87786 30.8334 3.6423 30.7401 3.45219 30.5537C3.26206 30.3672 3.16699 30.1361 3.16699 29.8605C3.16699 29.5848 3.26206 29.3555 3.45219 29.1725C3.6423 28.9895 3.87786 28.898 4.15889 28.898H32.1751C32.4561 28.898 32.6917 28.9912 32.8818 29.1777C33.0719 29.3642 33.167 29.5952 33.167 29.8709C33.167 30.1465 33.0719 30.3759 32.8818 30.5589C32.6917 30.7419 32.4561 30.8334 32.1751 30.8334H4.15889ZM6.52542 26.3897C6.03005 26.3897 5.60963 26.2208 5.26416 25.8829C4.91868 25.5449 4.74594 25.1346 4.74594 24.6518V18.8949C4.74594 18.4122 4.91933 18.0018 5.26609 17.6639C5.61283 17.326 6.03387 17.157 6.52921 17.157C7.02455 17.157 7.44496 17.326 7.79044 17.6639C8.13591 18.0018 8.30865 18.4122 8.30865 18.8949V24.6518C8.30865 25.1346 8.13528 25.5449 7.78854 25.8829C7.44181 26.2208 7.02077 26.3897 6.52542 26.3897ZM14.2643 26.3897C13.7689 26.3897 13.3485 26.2208 13.003 25.8829C12.6576 25.5449 12.4848 25.1346 12.4848 24.6518V11.1927C12.4848 10.7099 12.6582 10.2996 13.005 9.96166C13.3517 9.62371 13.7727 9.45473 14.2681 9.45473C14.7634 9.45473 15.1838 9.62371 15.5293 9.96166C15.8748 10.2996 16.0475 10.7099 16.0475 11.1927V24.6518C16.0475 25.1346 15.8742 25.5449 15.5274 25.8829C15.1807 26.2208 14.7596 26.3897 14.2643 26.3897ZM22.0345 26.3897C21.5392 26.3897 21.1188 26.2208 20.7733 25.8829C20.4278 25.5449 20.2551 25.1346 20.2551 24.6518V15.814C20.2551 15.3313 20.4284 14.9209 20.7752 14.583C21.1219 14.2451 21.543 14.0761 22.0383 14.0761C22.5337 14.0761 22.9541 14.2451 23.2996 14.583C23.645 14.9209 23.8178 15.3313 23.8178 15.814V24.6518C23.8178 25.1346 23.6444 25.5449 23.2977 25.8829C22.9509 26.2208 22.5299 26.3897 22.0345 26.3897ZM29.8048 26.3897C29.3094 26.3897 28.889 26.2208 28.5435 25.8829C28.1981 25.5449 28.0253 25.1346 28.0253 24.6518V6.57132C28.0253 6.08856 28.1987 5.67822 28.5454 5.3403C28.8922 5.00235 29.3132 4.83337 29.8086 4.83337C30.3039 4.83337 30.7244 5.00235 31.0698 5.3403C31.4153 5.67822 31.588 6.08856 31.588 6.57132V24.6518C31.588 25.1346 31.4147 25.5449 31.0679 25.8829C30.7212 26.2208 30.3001 26.3897 29.8048 26.3897Z" fill="white"/>
</g>
</svg>
