<svg width="36" height="36" viewBox="0 0 36 36" fill="none" xmlns="http://www.w3.org/2000/svg">
<g id="Icons- Healthcare">
<path id="Vector" d="M8.56246 25.0308C8.29735 25.0308 8.07678 24.9429 7.90076 24.767C7.72475 24.591 7.63674 24.3731 7.63674 24.113V13.9373C7.63674 13.6772 7.72641 13.4592 7.90576 13.2833C8.08512 13.1074 8.30735 13.0194 8.57246 13.0194C8.8376 13.0194 9.05817 13.1074 9.23419 13.2833C9.41021 13.4592 9.49821 13.6772 9.49821 13.9373V24.113C9.49821 24.3731 9.40854 24.591 9.22919 24.767C9.04984 24.9429 8.82759 25.0308 8.56246 25.0308ZM16.7417 25.0308C16.4766 25.0308 16.256 24.9429 16.08 24.767C15.904 24.591 15.816 24.3731 15.816 24.113V13.9373C15.816 13.6772 15.9057 13.4592 16.085 13.2833C16.2644 13.1074 16.4866 13.0194 16.7517 13.0194C17.0169 13.0194 17.2374 13.1074 17.4135 13.2833C17.5895 13.4592 17.6775 13.6772 17.6775 13.9373V24.113C17.6775 24.3731 17.5878 24.591 17.4085 24.767C17.2291 24.9429 17.0069 25.0308 16.7417 25.0308ZM3.98487 10.453C3.71499 10.453 3.48338 10.3582 3.29003 10.1686C3.09668 9.97892 3 9.74865 3 9.47776C3 9.30468 3.05335 9.12893 3.16005 8.9505C3.26673 8.77207 3.3989 8.63914 3.55657 8.55172L15.7951 2.22012C15.9255 2.1458 16.0658 2.09053 16.2159 2.05432C16.366 2.01811 16.5195 2 16.6765 2C16.8334 2 16.9869 2.01811 17.137 2.05432C17.2871 2.09053 17.4274 2.1458 17.5578 2.22012L29.7963 8.55172C29.954 8.63914 30.0862 8.77191 30.1929 8.95003C30.2996 9.12814 30.3529 9.30214 30.3529 9.47202C30.3529 9.74857 30.2562 9.98121 30.0629 10.1699C29.8695 10.3587 29.6411 10.453 29.3775 10.453H3.98487ZM7.46946 8.61729H25.8929L16.6765 3.84792L7.46946 8.61729ZM3.93076 29.433C3.66705 29.433 3.44601 29.3445 3.26762 29.1677C3.08921 28.9908 3 28.7716 3 28.5102C3 28.2487 3.08921 28.0312 3.26762 27.8576C3.44601 27.684 3.66705 27.5972 3.93076 27.5972H20.4742C20.5061 27.9044 20.542 28.2049 20.5819 28.4987C20.6218 28.7925 20.6921 29.1039 20.7927 29.433H3.93076ZM23.8547 19.9159V13.9373C23.8547 13.6772 23.9444 13.4592 24.1237 13.2833C24.3031 13.1074 24.5253 13.0194 24.7905 13.0194C25.0556 13.0194 25.2761 13.1074 25.4521 13.2833C25.6282 13.4592 25.7162 13.6772 25.7162 13.9373V18.9981L23.8547 19.9159ZM28.5294 34C26.949 33.6141 25.6422 32.7211 24.6088 31.3208C23.5755 29.9206 23.0589 28.3653 23.0589 26.655V23.9303C23.0589 23.7219 23.117 23.5228 23.2332 23.3333C23.3493 23.1438 23.5106 23.0009 23.7171 22.9048L28.0289 20.7739C28.1762 20.6971 28.3419 20.6587 28.5259 20.6587C28.71 20.6587 28.8812 20.6971 29.0395 20.7739L33.3513 22.9048C33.5514 23.0009 33.7095 23.1438 33.8257 23.3333C33.9419 23.5228 34 23.7219 34 23.9303V26.655C34 28.3653 33.4833 29.9206 32.45 31.3208C31.4167 32.7211 30.1098 33.6141 28.5294 34ZM31.9761 25.5572C32.1141 25.42 32.1855 25.2591 32.1903 25.0745C32.195 24.8899 32.1252 24.7249 31.9808 24.5794C31.8365 24.4339 31.6712 24.3624 31.4851 24.3649C31.299 24.3674 31.1353 24.4389 30.9941 24.5794L27.5958 27.9157L26.2861 26.6241C26.1481 26.488 25.9852 26.4188 25.7975 26.4166C25.6097 26.4144 25.4453 26.483 25.3041 26.6222C25.1565 26.7688 25.0828 26.9321 25.0828 27.112C25.0828 27.2919 25.1565 27.4545 25.3041 27.6L26.7903 29.0657C26.9145 29.1882 27.0432 29.2763 27.1765 29.33C27.3097 29.3837 27.4525 29.4105 27.6048 29.4105C27.7571 29.4105 27.8985 29.3837 28.0289 29.33C28.1593 29.2763 28.2857 29.1892 28.4079 29.0687L31.9761 25.5572Z" fill="#2C74D6"/>
</g>
</svg>
