<svg width="36" height="36" viewBox="0 0 36 36" fill="none" xmlns="http://www.w3.org/2000/svg">
<g id="Icons- Data science">
<path id="Vector" d="M7.52724 30C7.06348 30 6.68338 29.8405 6.38695 29.5215C6.09054 29.2025 5.96442 28.8304 6.00859 28.4051C6.18581 26.6661 6.58586 25.1518 7.20874 23.8621C7.83161 22.5723 8.59392 21.4788 9.49567 20.5815C10.3974 19.6841 11.397 18.972 12.4944 18.4452C13.5918 17.9183 14.7078 17.5573 15.8426 17.3621V13.1182C13.363 12.8239 11.3061 12.1909 9.6719 11.219C8.0377 10.2471 6.93238 9.07481 6.35595 7.70209C6.1623 7.29252 6.18367 6.90644 6.42008 6.54386C6.65649 6.18129 7.03119 6 7.5442 6H28.4558C28.9688 6 29.3435 6.18129 29.5799 6.54386C29.8163 6.90644 29.8377 7.29252 29.644 7.70209C29.0676 9.06636 27.9623 10.2365 26.3281 11.2126C24.6939 12.1888 22.637 12.8239 20.1574 13.1182V17.3621C21.2837 17.5573 22.3955 17.9183 23.4929 18.4452C24.5903 18.972 25.5898 19.6841 26.4916 20.5815C27.3933 21.4788 28.1563 22.5723 28.7806 23.8621C29.4049 25.1518 29.8085 26.6661 29.9914 28.4051C30.0356 28.8304 29.9095 29.2025 29.613 29.5215C29.3166 29.8405 28.9365 30 28.4728 30H23.8012C23.5611 30 23.3624 29.9218 23.2049 29.7654C23.0475 29.609 22.9688 29.4115 22.9688 29.173C22.9688 28.9345 23.0475 28.737 23.2049 28.5806C23.3624 28.4242 23.5611 28.346 23.8012 28.346H28.3471C27.9184 25.146 26.7317 22.7601 24.7869 21.1882C22.8421 19.6163 20.5798 18.8304 18 18.8304C15.4202 18.8304 13.1579 19.6163 11.2131 21.1882C9.26828 22.7601 8.08157 25.146 7.65292 28.346H12.1988C12.4389 28.346 12.6376 28.4242 12.7951 28.5806C12.9525 28.737 13.0312 28.9345 13.0312 29.173C13.0312 29.4115 12.9525 29.609 12.7951 29.7654C12.6376 29.9218 12.4389 30 12.1988 30H7.52724ZM18 11.5908C20.5646 11.5908 22.6879 11.1639 24.3699 10.3101C26.052 9.45639 27.1506 8.571 27.6659 7.65397H8.33408C8.84086 8.571 9.9374 9.45639 11.6237 10.3101C13.31 11.1639 15.4354 11.5908 18 11.5908ZM18 30C17.3562 30 16.8088 29.7759 16.3578 29.3278C15.9067 28.8797 15.6812 28.3359 15.6812 27.6962C15.6812 27.3738 15.7424 27.0781 15.8647 26.8089C15.987 26.5397 16.1569 26.3013 16.3743 26.0937C16.7305 25.7398 17.3284 25.3543 18.1682 24.9371C19.0079 24.52 19.9572 24.1027 21.0161 23.6852C21.4821 23.5024 21.8135 23.5068 22.0103 23.6983C22.2071 23.8899 22.2092 24.2172 22.0167 24.6802C21.592 25.7153 21.1742 26.6575 20.7634 27.5067C20.3526 28.356 19.9691 28.9575 19.613 29.3114C19.404 29.5274 19.164 29.6962 18.8931 29.8177C18.6222 29.9392 18.3245 30 18 30Z" fill="#2C74D6"/>
</g>
</svg>
