<svg width="131" height="36" viewBox="0 0 131 36" fill="none" xmlns="http://www.w3.org/2000/svg">
<g clip-path="url(#clip0_5082_10895)">
<path d="M72.0716 13.0909H75.3443C75.3738 13.0909 75.4026 13.0998 75.427 13.1165C75.4513 13.1331 75.4701 13.1568 75.4807 13.1843C75.4913 13.2119 75.4934 13.242 75.4865 13.2707C75.4797 13.2994 75.4644 13.3254 75.4425 13.3452C75.2184 13.5541 72.6858 13.4031 72.1395 13.4031C71.9734 13.4031 71.8903 13.4862 71.8903 13.6523V24.6084C71.8903 24.6923 71.9323 24.7343 72.0162 24.7343H74.2114C74.2718 24.7343 74.3264 24.7519 74.3751 24.7871C74.5278 24.8929 74.5723 24.9894 74.5085 25.0767C74.4632 25.1404 74.4019 25.1723 74.3247 25.1723C72.2788 25.179 70.2355 25.1782 68.1946 25.1698C68.0469 25.1681 68.01 25.08 68.0839 24.9055C68.1191 24.8216 68.1829 24.7804 68.2752 24.7821L69.1462 24.7997C69.3812 24.8048 69.4987 24.6898 69.4987 24.4548V13.5944C69.4987 13.5105 69.4567 13.4685 69.3728 13.4685H67.4344C67.342 13.4685 67.2959 13.4224 67.2959 13.3301C67.2959 13.2982 67.2959 13.2655 67.2959 13.2319C67.2959 13.1396 67.342 13.0934 67.4344 13.0934L69.3804 13.0909C69.4811 13.0909 69.5289 13.0406 69.5239 12.9399C69.3728 9.65456 69.7983 6.94072 72.7035 5.27666C74.219 4.41065 75.706 4.39638 77.1644 5.23386C79.2061 6.40701 78.3955 9.76785 76.1021 8.3782C74.9163 7.66072 77.5068 5.78016 75.6086 5.15079C73.3958 4.4182 72.1018 6.36673 71.9608 8.31526C71.85 9.85764 71.8383 11.4025 71.9256 12.9499C71.9306 13.0439 71.9793 13.0909 72.0716 13.0909Z" fill="#555555"/>
<path d="M5.2378 15.8073C6.4378 13.6456 8.17235 12.6503 10.4414 12.8215C12.5511 12.9801 14.1447 14.0677 14.1623 16.3158C14.1824 19.1052 14.1858 21.8886 14.1724 24.6663C14.1723 24.6863 14.1763 24.7062 14.1841 24.7247C14.1918 24.7432 14.2032 24.7599 14.2175 24.774C14.2318 24.788 14.2487 24.7991 14.2673 24.8066C14.286 24.814 14.3059 24.8177 14.3259 24.8173L16.1813 24.8098C16.2686 24.8098 16.329 24.85 16.3626 24.9306C16.3861 24.986 16.3886 25.0363 16.3701 25.0817C16.3449 25.1438 16.2996 25.1748 16.2342 25.1748H9.70885C9.62326 25.1748 9.5813 25.132 9.58298 25.0464C9.58298 25.0128 9.58298 24.9784 9.58298 24.9432C9.5813 24.8341 9.63501 24.7812 9.7441 24.7846L11.5542 24.8349C11.5839 24.836 11.6135 24.8309 11.6412 24.8201C11.669 24.8093 11.6943 24.793 11.7157 24.7721C11.7371 24.7511 11.7541 24.7261 11.7657 24.6984C11.7773 24.6707 11.7833 24.641 11.7833 24.6109C11.79 21.9088 11.7875 19.1891 11.7757 16.4517C11.7682 14.2766 11.1438 12.5849 8.60368 13.3879C6.2171 14.1432 5.34606 15.9709 5.19501 18.4305C5.07752 20.327 5.08759 22.2302 5.22522 24.1401C5.23025 24.2291 5.20927 24.3113 5.16228 24.3868C5.08508 24.5077 5.09515 24.6285 5.19249 24.7493C5.24787 24.8165 5.3192 24.8467 5.40648 24.84C5.65067 24.8198 7.44564 24.5983 7.31221 25.059C7.29039 25.1362 7.24004 25.1748 7.16116 25.1748C5.01962 25.1765 2.87808 25.1765 0.736544 25.1748C0.472208 25.1748 0.406754 24.9709 0.696264 24.8098C0.73255 24.7899 0.773237 24.7796 0.814586 24.7796L2.64731 24.8047C2.72787 24.8047 2.76815 24.7645 2.76815 24.6839L2.77822 5.56613C2.77822 5.37984 2.68508 5.28669 2.49878 5.28669H0.67109C0.561999 5.28669 0.511649 5.23214 0.52004 5.12305L0.53011 4.9997C0.536824 4.89732 0.592208 4.84613 0.696264 4.84613H5.02382C5.13291 4.84613 5.18661 4.89984 5.18494 5.00725L5.14466 15.7846C5.14543 15.7952 5.14956 15.8053 5.15644 15.8135C5.16333 15.8216 5.17262 15.8273 5.18297 15.8299C5.19333 15.8324 5.20422 15.8316 5.21407 15.8275C5.22393 15.8234 5.23223 15.8163 5.2378 15.8073Z" fill="#555555"/>
<path d="M38.9114 22.8386C37.9749 25.3359 35.7419 26.1617 33.3126 25.2151C30.1506 23.9866 28.3531 20.3991 29.3954 17.1314C30.1229 14.8506 32.2024 12.9751 34.6418 12.7636C36.5375 12.6 38.0152 13.3955 38.7755 15.1401C38.7828 15.1553 38.7951 15.1676 38.8102 15.1751C38.8254 15.1825 38.8426 15.1847 38.8591 15.1812C38.8756 15.1777 38.8905 15.1688 38.9013 15.1559C38.9122 15.143 38.9184 15.1268 38.919 15.1099L38.9114 5.44277C38.9114 5.33872 38.8586 5.28669 38.7528 5.28669H36.8975C36.8135 5.28669 36.7716 5.24473 36.7716 5.16082V5.00473C36.7716 4.899 36.8245 4.84613 36.9302 4.84613H41.2401C41.324 4.84613 41.366 4.88809 41.366 4.972V24.694C41.366 24.7207 41.3766 24.7463 41.3955 24.7652C41.4144 24.7841 41.44 24.7947 41.4667 24.7947L43.4127 24.7972C43.5168 24.7972 43.5688 24.85 43.5688 24.9558V25.0489C43.5688 25.0823 43.5555 25.1143 43.5319 25.1379C43.5083 25.1615 43.4763 25.1748 43.4429 25.1748H39.1632C39.0793 25.1748 39.0373 25.1328 39.0373 25.0489L39.0348 22.8612C39.0363 22.8455 39.0319 22.8299 39.0224 22.8173C39.0129 22.8047 38.999 22.7961 38.9835 22.7933C38.968 22.7904 38.952 22.7935 38.9387 22.8019C38.9253 22.8103 38.9156 22.8234 38.9114 22.8386ZM31.9884 17.1818C31.8575 19.0598 31.6586 22.8008 32.8972 24.2534C34.1912 25.7664 37.0561 25.4014 38.0807 23.7121C38.8963 22.3653 38.9266 20.8473 38.9316 19.0825C38.9391 16.5801 38.6547 13.4081 35.4726 13.1966C32.799 13.0179 32.1445 14.9639 31.9884 17.1818Z" fill="#555555"/>
<path d="M124.379 24.6159V5.44529C124.379 5.40323 124.362 5.36289 124.332 5.33314C124.302 5.3034 124.262 5.28669 124.22 5.28669H122.39C122.297 5.28669 122.233 5.24473 122.196 5.16082C122.129 5.00809 122.207 4.90907 122.43 4.86375C122.484 4.852 122.537 4.84613 122.591 4.84613H126.644C126.77 4.84613 126.833 4.90907 126.833 5.03494V24.6084C126.833 24.7342 126.896 24.7972 127.022 24.7972L128.897 24.7947C128.998 24.7947 129.041 24.8442 129.026 24.9432L129.013 25.0187C128.998 25.1228 128.938 25.1748 128.832 25.1748H122.297C122.273 25.1747 122.249 25.1683 122.228 25.1561C122.207 25.1439 122.19 25.1264 122.179 25.1054C122.167 25.0844 122.161 25.0606 122.161 25.0366C122.162 25.0125 122.168 24.989 122.181 24.9684C122.387 24.6335 123.81 24.8224 124.238 24.7745C124.332 24.7628 124.379 24.7099 124.379 24.6159Z" fill="#555555"/>
<path d="M62.8749 23.5208C62.3395 24.6873 61.4215 25.3309 60.1208 25.4517C58.1849 25.633 55.7051 25.4593 55.5944 22.9242C55.5037 20.8221 57.1628 20.0618 59.0131 19.5659C60.1376 19.2638 61.2167 18.845 62.2506 18.3097C63.3381 17.7483 63.0562 14.8204 62.7541 14.0476C62.2833 12.8366 60.1208 12.8996 59.1944 13.4887C57.8374 14.3522 60.0629 17.3555 57.4598 17.0182C56.3521 16.8747 56.2388 15.908 56.5435 15.0193C57.6235 11.8775 63.8165 11.8624 65.0425 14.8582C65.2523 15.3684 65.3521 16.3015 65.3421 17.6576C65.3253 19.685 65.3429 21.7116 65.3949 23.7373C65.4277 25.0716 66.6814 25.346 67.5096 24.5455C67.5253 24.5302 67.544 24.5186 67.5646 24.5113C67.5852 24.504 67.6072 24.5012 67.6291 24.5031C67.651 24.505 67.6724 24.5116 67.6917 24.5223C67.711 24.5331 67.7279 24.5479 67.7412 24.5656C68.0811 25.0364 66.9155 25.3586 66.6008 25.4266C64.7614 25.8109 63.5664 25.1782 63.0159 23.5284C62.9756 23.4059 62.9286 23.4034 62.8749 23.5208ZM62.7944 18.4481C61.8755 19.3091 60.2215 19.5231 59.217 20.2229C58.0456 21.0403 57.699 22.2092 58.1773 23.7298C58.3082 24.1477 58.7941 24.7871 59.1742 24.8677C63.2374 25.7413 63.1367 21.2048 62.8976 18.4859C62.8909 18.4036 62.8565 18.391 62.7944 18.4481Z" fill="#555555"/>
<path d="M83.7395 23.4076C82.8936 25.4266 81.0659 25.6607 79.1199 25.4593C78.3747 25.3821 77.7823 25.1673 77.3425 24.8148C75.6609 23.468 76.3985 20.5326 78.4729 19.9636C80.1596 19.5004 81.5492 19.0338 82.6418 18.5639C84.2002 17.8892 84.039 15.2131 83.5305 13.9846C82.9968 12.6906 79.8802 12.7662 79.5479 14.1961C79.3465 15.0671 80.2099 16.4694 79.0569 16.8873C77.8762 17.3127 77.0732 16.6909 77.262 15.4649C77.8183 11.8347 84.5627 11.7617 85.8617 14.8683C86.0665 15.3583 86.1697 16.2529 86.1713 17.5519C86.1747 19.6095 86.1764 21.668 86.1764 23.7273C86.1764 25.2428 87.5358 25.1345 88.4723 24.5455C88.4921 24.5329 88.5151 24.5266 88.5385 24.5271C88.5619 24.5277 88.5846 24.5352 88.6037 24.5487C88.6229 24.5622 88.6376 24.581 88.646 24.6028C88.6544 24.6247 88.6562 24.6485 88.6511 24.6713C88.5126 25.2982 87.2035 25.5222 86.6774 25.5474C85.1299 25.6213 84.1884 24.9113 83.8527 23.4176C83.8496 23.4056 83.8428 23.3948 83.8333 23.3868C83.8238 23.3787 83.812 23.3738 83.7996 23.3727C83.7873 23.3716 83.7748 23.3744 83.764 23.3806C83.7533 23.3869 83.7447 23.3963 83.7395 23.4076ZM80.7663 24.9961C84.2178 25.0867 83.8653 20.588 83.7722 18.5614C83.7688 18.4892 83.7353 18.4699 83.6715 18.5035C81.5241 19.6313 77.5867 20.3136 79.0695 23.901C79.3817 24.6537 79.9884 24.9759 80.7663 24.9961Z" fill="#555555"/>
<path d="M117.136 23.4025C116.566 24.6159 115.626 25.3074 114.317 25.4769C112.642 25.6959 110.341 25.5071 109.846 23.4881C108.929 19.7648 114.294 19.4752 116.373 18.3726C117.589 17.7281 117.519 13.7782 116.096 13.2696C114.971 12.8694 112.592 13.028 112.892 14.7852C113.011 15.4867 113.065 15.9491 113.053 16.1723C112.99 17.4159 109.994 17.5267 110.696 15.0999C111.63 11.8649 117.798 11.8699 119.173 14.7927C119.411 15.3029 119.53 16.1262 119.53 17.2624C119.529 19.4543 119.534 21.6453 119.545 23.8355C119.553 25.2025 120.968 25.1698 121.748 24.5354C121.766 24.5212 121.787 24.5117 121.809 24.5078C121.832 24.5039 121.855 24.5056 121.876 24.5129C121.898 24.5202 121.917 24.5327 121.933 24.5494C121.948 24.5661 121.959 24.5864 121.965 24.6084C122.194 25.5524 117.637 26.5494 117.282 23.4277C117.28 23.4108 117.273 23.3949 117.261 23.3825C117.249 23.3701 117.234 23.3618 117.217 23.3589C117.2 23.3561 117.183 23.3588 117.169 23.3667C117.154 23.3745 117.143 23.3871 117.136 23.4025ZM117.003 18.4305C115.137 20.1248 111.132 19.6389 112.348 23.692C112.514 24.2408 112.927 24.7745 113.473 24.8878C117.614 25.7438 117.058 20.9681 117.151 18.4985C117.156 18.3575 117.107 18.3348 117.003 18.4305Z" fill="#555555"/>
<path d="M98.0088 14.2238C97.7319 12.8366 95.159 12.9675 94.2024 13.4484C91.6144 14.7474 91.992 20.1801 92.4704 22.4031C92.8656 24.2459 94.2603 25.1673 96.1132 25.1496C98.0466 25.1312 99.4018 24.1175 100.179 22.1085C100.199 22.0586 100.237 22.0182 100.286 21.9957C100.334 21.9732 100.39 21.9703 100.441 21.9877C100.557 22.0296 100.592 22.122 100.546 22.2646C99.4564 25.7287 96.0678 26.1239 93.0569 25.0238C89.2178 23.6215 88.3518 18.5413 90.5923 15.4322C92.4083 12.913 94.9425 12.1267 98.1951 13.0733C99.2575 13.3821 99.9632 14.0492 100.312 15.0747C100.821 16.5776 99.7686 17.7583 98.1901 17.061C97.09 16.5776 98.17 15.0369 98.0088 14.2238Z" fill="#555555"/>
<path d="M49.0432 15.7645C49.7556 14.1281 50.7551 12.8241 52.6205 12.809C55.8958 12.7813 56.0342 17.4789 53.1089 16.5676C51.8753 16.1824 53.26 14.6996 52.8773 13.8512C52.6306 13.3074 51.9005 13.3427 51.4373 13.5415C49.4862 14.3774 49.0608 16.9553 49.0482 18.8157C49.0365 20.7877 49.0365 22.7614 49.0482 24.7368C49.0482 24.819 49.0902 24.8602 49.1741 24.8602H51.324C51.4398 24.8602 51.4977 24.9181 51.4977 25.0339C51.4977 25.0557 51.4977 25.0783 51.4977 25.1018C51.4981 25.1196 51.4949 25.1372 51.4885 25.1537C51.4821 25.1702 51.4725 25.1852 51.4603 25.1978C51.4481 25.2105 51.4335 25.2205 51.4175 25.2274C51.4014 25.2343 51.3842 25.2378 51.3668 25.2378H44.6074C44.5016 25.2378 44.4488 25.1857 44.4488 25.0817V24.9432C44.4488 24.8308 44.505 24.7754 44.6174 24.7771L46.425 24.8048C46.5341 24.8081 46.5886 24.7553 46.5886 24.6462V13.6574C46.5886 13.5315 46.5257 13.4685 46.3998 13.4685H44.5193C44.4404 13.4685 44.3934 13.4299 44.3783 13.3527L44.3556 13.2394C44.3355 13.1404 44.3758 13.0909 44.4765 13.0909H48.7914C48.8753 13.0909 48.9173 13.1329 48.9173 13.2168V15.7368C48.9173 15.9483 48.9593 15.9575 49.0432 15.7645Z" fill="#555555"/>
<path d="M23.79 22.1387L27.4453 13.6498C27.4974 13.5289 27.4579 13.4685 27.327 13.4685H25.3155C25.2316 13.4685 25.1897 13.4265 25.1897 13.3426V13.247C25.1897 13.1429 25.2425 13.0909 25.3483 13.0909H29.3435C29.3769 13.0909 29.4089 13.1041 29.4325 13.1277C29.4561 13.1514 29.4694 13.1834 29.4694 13.2168V13.3124C29.4694 13.4165 29.4165 13.4685 29.3108 13.4685H28.1452C28.0378 13.4685 27.9631 13.5172 27.9211 13.6145C24.9119 20.4738 22.6823 25.7362 21.2322 29.4016C20.6758 30.8039 20.1169 32.3471 18.75 32.9865C17.4711 33.5857 15.4294 33.12 15.0769 31.5189C14.6792 29.6987 17.0481 28.9334 17.7027 30.4993C17.7396 30.5865 17.7413 30.6755 17.7077 30.7661L17.247 32.0223C17.2195 32.0974 17.2094 32.1777 17.2177 32.2573C17.226 32.3368 17.2524 32.4135 17.2949 32.4814C17.3373 32.5494 17.3948 32.6068 17.4628 32.6494C17.5309 32.692 17.6077 32.7186 17.6876 32.7272C19.9835 32.9714 21.27 28.2058 22.136 26.0333C22.2744 25.6808 22.36 25.5373 22.2065 25.1547C20.6691 21.3432 19.1209 17.5007 17.5617 13.6271C17.545 13.5864 17.5172 13.5512 17.4816 13.5258C17.4459 13.5004 17.4038 13.4858 17.3603 13.4836L16.23 13.4333C16.141 13.4282 16.0537 13.4375 15.9681 13.461C15.7936 13.5096 15.6459 13.466 15.5251 13.33C15.5067 13.3094 15.4949 13.2839 15.491 13.2566C15.487 13.2293 15.4911 13.2014 15.5028 13.1761C15.5145 13.1509 15.5332 13.1295 15.5568 13.1143C15.5804 13.0992 15.6078 13.0911 15.6358 13.0909H22.3525C22.3742 13.0911 22.3955 13.097 22.4143 13.108C22.433 13.1189 22.4486 13.1345 22.4593 13.1532C22.47 13.1718 22.4756 13.1929 22.4754 13.2142C22.4752 13.2356 22.4693 13.2564 22.4582 13.2747L22.4079 13.3577C22.3642 13.4316 22.2988 13.4685 22.2115 13.4685H20.2806C20.2584 13.4686 20.2366 13.4741 20.217 13.4845C20.1975 13.4949 20.1808 13.51 20.1683 13.5283C20.1559 13.5467 20.1482 13.5678 20.1458 13.5899C20.1434 13.6119 20.1465 13.6342 20.1547 13.6548L23.6263 22.1387C23.6329 22.1551 23.6441 22.1691 23.6587 22.179C23.6733 22.1888 23.6905 22.1941 23.7081 22.1941C23.7257 22.1941 23.743 22.1888 23.7575 22.179C23.7721 22.1691 23.7834 22.1551 23.79 22.1387Z" fill="#555555"/>
<path d="M103.924 24.6109V13.6347C103.924 13.5256 103.87 13.471 103.761 13.471L101.878 13.4685C101.774 13.4685 101.722 13.4156 101.722 13.3099V13.2168C101.722 13.1834 101.735 13.1514 101.759 13.1277C101.782 13.1041 101.814 13.0909 101.848 13.0909H106.19C106.274 13.0909 106.316 13.1328 106.316 13.2168V24.694C106.316 24.7207 106.327 24.7463 106.346 24.7652C106.364 24.784 106.39 24.7947 106.417 24.7947L108.363 24.7972C108.467 24.7972 108.519 24.85 108.519 24.9558V25.0489C108.519 25.0823 108.506 25.1143 108.482 25.1379C108.458 25.1615 108.426 25.1748 108.393 25.1748H101.858C101.785 25.1748 101.742 25.1396 101.727 25.0691C101.679 24.8526 101.792 24.7493 102.001 24.772C102.597 24.8358 103.191 24.8349 103.783 24.7695C103.877 24.7594 103.924 24.7065 103.924 24.6109Z" fill="#555555"/>
<path d="M105.212 28.7169C106.393 29.2934 107.486 30.8391 106.373 32.0324C104.631 33.9054 101.481 30.7535 104.953 28.727C105.039 28.6783 105.125 28.6749 105.212 28.7169Z" fill="#555555"/>
</g>
<defs>
<clipPath id="clip0_5082_10895">
<rect width="130.5" height="36" fill="white"/>
</clipPath>
</defs>
</svg>
