<svg width="24" height="24" viewBox="0 0 24 24" fill="none" xmlns="http://www.w3.org/2000/svg">
<g id="ic-close">
<mask id="mask0_2986_53638" style="mask-type:alpha" maskUnits="userSpaceOnUse" x="0" y="0" width="24" height="24">
<rect id="Bounding box" width="24" height="24" fill="#D9D9D9"/>
</mask>
<g mask="url(#mask0_2986_53638)">
<path id="close" d="M12 13.0543L6.92689 18.1274C6.78844 18.2658 6.6144 18.3367 6.40479 18.3399C6.19519 18.3431 6.01795 18.2723 5.87309 18.1274C5.7282 17.9825 5.65576 17.8069 5.65576 17.6005C5.65576 17.3941 5.7282 17.2184 5.87309 17.0736L10.9462 12.0005L5.87309 6.92738C5.73462 6.78893 5.66379 6.61489 5.66059 6.40527C5.65737 6.19568 5.7282 6.01844 5.87309 5.87358C6.01795 5.72869 6.19359 5.65625 6.39999 5.65625C6.60639 5.65625 6.78202 5.72869 6.92689 5.87358L12 10.9467L17.0731 5.87358C17.2115 5.73511 17.3856 5.66428 17.5952 5.66108C17.8048 5.65786 17.982 5.72869 18.1269 5.87358C18.2718 6.01844 18.3442 6.19408 18.3442 6.40048C18.3442 6.60688 18.2718 6.78251 18.1269 6.92738L13.0538 12.0005L18.1269 17.0736C18.2654 17.212 18.3362 17.3861 18.3394 17.5957C18.3426 17.8053 18.2718 17.9825 18.1269 18.1274C17.982 18.2723 17.8064 18.3447 17.6 18.3447C17.3936 18.3447 17.218 18.2723 17.0731 18.1274L12 13.0543Z" fill="#111111"/>
</g>
</g>
</svg>
