<svg width="132" height="33" viewBox="0 0 132 33" fill="none" xmlns="http://www.w3.org/2000/svg">
<g id="Logo-IDFC">
<path id="Vector" d="M2.4938 2.7515H2.05624V3.18907V29.9417V30.3792H2.4938H29.2239H29.6615V29.9417V3.18907V2.7515H29.2239H2.4938ZM0.437565 1.13092H31.2798V31.9998H0.437565V1.13092Z" fill="#555555" stroke="#555555" stroke-width="0.87513"/>
<path id="Vector_2" d="M5.62116 6.52155H26.0942V11.0369H5.62116V6.52155Z" fill="#555555" stroke="#555555" stroke-width="0.87513"/>
<path id="Vector_3" d="M5.62116 14.3087H18.1649V18.824H5.62116V14.3087Z" fill="#555555" stroke="#555555" stroke-width="0.87513"/>
<path id="Vector_4" d="M5.62116 22.0938H10.2356V26.9087H5.62116V22.0938Z" fill="#555555" stroke="#555555" stroke-width="0.87513"/>
<g id="Group 14">
<path id="Vector_5" d="M39.5763 1.22467V13.2459H37.8438V1.22467H39.5763Z" fill="#555555" stroke="#555555" stroke-width="0.87513"/>
<path id="Vector_6" d="M44.6466 11.4711V11.9086H45.0842H47.3924C48.6975 11.9086 49.6705 11.6576 50.2611 10.8163C50.5435 10.414 50.7116 9.91161 50.8117 9.3208C50.9119 8.72957 50.9484 8.02229 50.9484 7.19029C50.9484 6.31143 50.9256 5.5834 50.8385 4.99194C50.7516 4.40123 50.5947 3.90167 50.2931 3.51178C49.9829 3.11093 49.5574 2.87353 49.0294 2.73736C48.5132 2.60423 47.8766 2.56196 47.1104 2.56196H45.0842H44.6466V2.99953V11.4711ZM42.9141 13.2459V1.22467H47.7444C49.6823 1.22467 50.8745 1.65451 51.6069 2.52741C52.3573 3.42171 52.7159 4.88274 52.7159 7.1721C52.7159 9.36152 52.3391 10.8643 51.5669 11.8187C50.8126 12.751 49.6079 13.2459 47.7269 13.2459H42.9141Z" fill="#555555" stroke="#555555" stroke-width="0.87513"/>
<path id="Vector_7" d="M57.8063 7.79624H57.3688V8.23381V13.2459H55.6368V1.22467H63.6412V2.56196H57.8063H57.3688V2.99953V6.02089V6.45846H57.8063H62.8485V7.79624H57.8063Z" fill="#555555" stroke="#555555" stroke-width="0.87513"/>
<path id="Vector_8" d="M70.8651 12.1438C71.7689 12.1438 72.5333 12.0025 73.1012 11.5584C73.597 11.1707 73.88 10.6031 74.0221 9.87724H75.7711C75.6326 10.8673 75.2737 11.7122 74.6252 12.3349C73.8789 13.0516 72.6852 13.5351 70.812 13.5351C68.9786 13.5351 67.6908 13.0726 66.8489 12.1259C65.9966 11.1676 65.5235 9.6277 65.5235 7.29905C65.5235 5.02261 65.971 3.44646 66.8189 2.44163C67.6533 1.45283 68.9449 0.937565 70.83 0.937565C72.3218 0.937565 73.4661 1.26252 74.2802 1.8898C74.9858 2.43356 75.4857 3.23736 75.7329 4.36139H73.9817C73.8399 3.88539 73.6371 3.40172 73.2282 3.02804C72.7145 2.5586 71.9559 2.32895 70.83 2.32895C69.6556 2.32895 68.7197 2.6959 68.109 3.612C67.5275 4.48437 67.2911 5.78679 67.2911 7.53313C67.2911 8.89049 67.465 10.0476 68.0227 10.8702C68.6079 11.7335 69.552 12.1438 70.8651 12.1438Z" fill="#555555" stroke="#555555" stroke-width="0.87513"/>
<path id="Vector_9" d="M85.842 7.79624H85.4044V8.23381V13.2459H83.6719V1.22467H91.6769V2.56196H85.842H85.4044V2.99953V6.02089V6.45846H85.842H90.8841V7.79624H85.842Z" fill="#555555" stroke="#555555" stroke-width="0.87513"/>
<path id="Vector_10" d="M95.9899 1.22467V13.2459H94.2579V1.22467H95.9899Z" fill="#555555" stroke="#555555" stroke-width="0.87513"/>
<path id="Vector_11" d="M106.456 8.68229L109.329 13.2459H107.196L104.223 8.38321L104.095 8.17391H103.849H101.506H101.069V8.61148V13.2459H99.336V1.22467H104.378C105.037 1.22467 105.649 1.22957 106.205 1.29242C106.76 1.35523 107.23 1.47319 107.611 1.6814C108.32 2.06914 108.857 2.84848 108.857 4.6543C108.857 5.85901 108.612 6.61835 108.25 7.10792C107.894 7.59087 107.382 7.86804 106.726 8.02338L106.13 8.16429L106.456 8.68229ZM101.069 6.39906V6.83662H101.506H103.849C104.377 6.83662 104.837 6.82329 105.226 6.77415C105.614 6.72528 105.965 6.63735 106.257 6.46646C106.901 6.08969 107.088 5.42266 107.088 4.56431C107.088 3.89038 106.979 3.27694 106.379 2.92013C106.112 2.7613 105.782 2.6767 105.406 2.62794C105.027 2.57875 104.564 2.56196 104.008 2.56196H101.506H101.069V2.99953V6.39906Z" fill="#555555" stroke="#555555" stroke-width="0.87513"/>
<path id="Vector_12" d="M120.315 4.1278H118.56C118.503 3.72385 118.396 3.28735 118.067 2.95395C117.623 2.50297 116.881 2.32895 115.741 2.32895C115.077 2.32895 114.474 2.38704 114.032 2.64119C113.797 2.77622 113.608 2.96545 113.483 3.21678C113.361 3.46216 113.312 3.7418 113.312 4.04361C113.312 4.60663 113.482 5.03589 113.82 5.34486C114.133 5.6304 114.545 5.76835 114.921 5.86894L117.739 6.6421L117.741 6.64255C118.63 6.88281 119.367 7.16228 119.886 7.64627C120.383 8.10944 120.729 8.80667 120.729 9.99733C120.729 10.8437 120.552 11.4674 120.282 11.9317C120.014 12.395 119.638 12.7253 119.199 12.9627C118.304 13.447 117.165 13.5351 116.233 13.5351C114.217 13.5351 113.037 13.1281 112.338 12.4875C111.73 11.9302 111.419 11.1349 111.3 10.0749H113.034C113.095 10.5976 113.226 11.1157 113.636 11.498C114.145 11.9712 114.976 12.1438 116.233 12.1438C116.892 12.1438 117.565 12.0996 118.077 11.8307C118.347 11.6892 118.577 11.4838 118.735 11.1957C118.891 10.9118 118.961 10.5761 118.961 10.195C118.961 9.73104 118.856 9.30347 118.53 8.95128C118.22 8.61669 117.76 8.40472 117.177 8.24429L114.113 7.39899L114.113 7.39898L114.11 7.39834C113.367 7.19802 112.736 6.93089 112.287 6.47853C111.853 6.041 111.544 5.38221 111.544 4.29539C111.544 3.42662 111.739 2.61035 112.323 2.00774C112.907 1.40672 113.956 0.937565 115.846 0.937565C117.643 0.937565 118.735 1.36383 119.385 1.98554C119.941 2.51756 120.229 3.24556 120.315 4.1278Z" fill="#555555" stroke="#555555" stroke-width="0.87513"/>
<path id="Vector_13" d="M128.214 2.61557H127.777V3.05313V13.2459H126.044V3.05313V2.61557H125.607H122.238V1.22467H131.564V2.61557H128.214Z" fill="#555555" stroke="#555555" stroke-width="0.87513"/>
<path id="Vector_14" d="M43.4146 31.8279H37.754V19.8067H43.5207C44.7333 19.8067 45.5768 20.0278 46.1146 20.4643C46.6323 20.8846 46.9478 21.5729 46.9478 22.7146C46.9478 23.6473 46.7373 24.1464 46.5182 24.4306C46.2973 24.7172 46.0266 24.8431 45.7608 24.9561L44.7753 25.3751L45.7723 25.7661C46.4634 26.0371 46.8662 26.4285 47.1056 26.8794C47.3514 27.3422 47.4446 27.9048 47.4446 28.5424C47.4446 29.5457 47.2178 30.3384 46.6582 30.8876C46.0956 31.4396 45.113 31.8279 43.4146 31.8279ZM39.5025 24.4416V24.8792H39.9401H42.8827C43.2813 24.8792 43.6289 24.867 43.9216 24.8224C44.2137 24.7779 44.489 24.696 44.7167 24.5291C45.2016 24.1738 45.2879 23.5793 45.2879 22.9123C45.2879 22.6371 45.2739 22.3586 45.1925 22.112C45.1032 21.8415 44.937 21.6203 44.6699 21.4644C44.4239 21.3208 44.1153 21.2464 43.7588 21.2034C43.3972 21.1597 42.9451 21.144 42.3864 21.144H39.9401H39.5025V21.5816V24.4416ZM39.5025 30.0536V30.4911H39.9401H42.2978C42.8976 30.4911 43.399 30.4801 43.8095 30.4377C44.2157 30.3957 44.5728 30.3197 44.863 30.1657C45.1725 30.0015 45.3852 29.7595 45.5102 29.4382C45.6272 29.1375 45.6605 28.7846 45.6605 28.3988C45.6605 27.6155 45.5443 26.9605 44.9783 26.5822C44.717 26.4076 44.3999 26.3218 44.0548 26.2751C43.7079 26.2281 43.293 26.216 42.8116 26.216H39.9401H39.5025V26.6536V30.0536Z" fill="#555555" stroke="#555555" stroke-width="0.87513"/>
<path id="Vector_15" d="M50.1147 25.227C50.2324 24.3712 50.5485 23.8659 51.0008 23.5499C51.5609 23.1587 52.4195 22.9903 53.6599 22.9903C54.9339 22.9903 55.8139 23.1668 56.3679 23.5284C56.8799 23.8626 57.1756 24.3978 57.1756 25.3228V31.8279H55.6925V31.546V30.4491L54.9375 31.2448C54.5625 31.6401 53.7858 32.062 52.3834 32.062C51.3227 32.062 50.6954 31.8218 50.331 31.4762C49.9718 31.1354 49.7891 30.6165 49.7891 29.8735C49.7891 28.9232 50.0891 28.319 50.4993 27.9248C50.9207 27.5197 51.5033 27.2934 52.1327 27.1939L55.2168 26.7081L55.5863 26.6499V26.2758V25.7005C55.5863 25.1897 55.4546 24.7306 55.029 24.4416C54.6539 24.1868 54.1324 24.1299 53.5532 24.1299C52.937 24.1299 52.4364 24.1955 52.0807 24.4626C51.8137 24.6631 51.6792 24.9368 51.6005 25.227H50.1147ZM55.5863 27.8947V27.3779L55.0766 27.4631L53.3597 27.7503C52.8997 27.821 52.4024 27.9156 52.0249 28.1711C51.5972 28.4605 51.3784 28.9112 51.3784 29.5318C51.3784 29.9594 51.4853 30.3902 51.8501 30.695C52.1945 30.9828 52.685 31.0846 53.2698 31.0846C54.1015 31.0846 54.723 30.8535 55.1165 30.3599C55.4925 29.8882 55.5863 29.2639 55.5863 28.6505V27.8947Z" fill="#555555" stroke="#555555" stroke-width="0.87513"/>
<path id="Vector_16" d="M67.8489 26.474V31.8279H66.2596V26.8158C66.2596 26.4564 66.2589 26.1142 66.2302 25.8138C66.2016 25.5143 66.1424 25.2153 66.0005 24.9542C65.6823 24.3689 65.0699 24.1658 64.2265 24.1658C63.7543 24.1658 63.3426 24.2278 62.9979 24.3872C62.6407 24.5523 62.3822 24.8097 62.2057 25.147C62.0358 25.4718 61.948 25.8587 61.8996 26.2838C61.8509 26.7112 61.8388 27.2085 61.8388 27.7688V31.8279H60.2501V23.2239H61.7151V24.0098V25.3454L62.5054 24.2687C62.822 23.8375 63.1245 23.5318 63.5219 23.3255C63.9211 23.1183 64.4573 22.9903 65.2727 22.9903C66.419 22.9903 66.9933 23.2412 67.3238 23.6925C67.686 24.1872 67.8489 25.0341 67.8489 26.474Z" fill="#555555" stroke="#555555" stroke-width="0.87513"/>
<path id="Vector_17" d="M78.2189 23.2239L75.6204 26.0902L75.4063 26.3262L75.5653 26.6024L78.5736 31.8279H76.7349L74.5905 27.9354L74.3025 27.4126L73.8906 27.8445L72.8269 28.9599L72.706 29.0866V29.2618V31.8279H71.1173V19.8067H72.706V26.2941V27.4696L73.4747 26.5802L76.3751 23.2239H78.2189Z" fill="#555555" stroke="#555555" stroke-width="0.87513"/>
</g>
</g>
</svg>
