<svg width="36" height="36" viewBox="0 0 36 36" fill="none" xmlns="http://www.w3.org/2000/svg">
<g id="Icons- Coditas">
<path id="Vector" d="M17.1894 19.9904C17.7416 19.9904 18.2368 19.9038 18.6752 19.7308C19.1135 19.5577 19.5702 19.3336 20.0452 19.0586L22.9933 22.0067C23.1298 22.1433 23.2914 22.214 23.4779 22.2188C23.6644 22.2236 23.8308 22.1558 23.9769 22.0154C24.1231 21.8635 24.1962 21.6967 24.1962 21.5149C24.1962 21.3332 24.1231 21.1693 23.9769 21.0231L20.9452 17.9914C21.2106 17.5664 21.4274 17.1461 21.5957 16.7307C21.7639 16.3152 21.8481 15.8513 21.8481 15.339C21.8481 14.0342 21.399 12.9327 20.501 12.0347C19.6029 11.1366 18.499 10.6876 17.1894 10.6876C15.8798 10.6876 14.7784 11.1369 13.8851 12.0356C12.9919 12.9343 12.5452 14.0339 12.5452 15.3346C12.5452 16.6393 12.9919 17.7414 13.8851 18.641C14.7784 19.5406 15.8798 19.9904 17.1894 19.9904ZM17.1911 18.476C16.3308 18.476 15.5939 18.1683 14.9802 17.5529C14.3665 16.9374 14.0596 16.1976 14.0596 15.3334C14.0596 14.4732 14.3667 13.7362 14.9808 13.1225C15.595 12.5088 16.3332 12.202 17.1956 12.202C18.0665 12.202 18.8072 12.5089 19.4178 13.1228C20.0284 13.7367 20.3337 14.4747 20.3337 15.3367C20.3337 16.1988 20.026 16.9375 19.4105 17.5529C18.7951 18.1683 18.0553 18.476 17.1911 18.476ZM2.92793 30.3461C2.68633 30.3461 2.48411 30.264 2.32126 30.0998C2.15841 29.9357 2.07698 29.7318 2.07698 29.4883C2.07698 29.2448 2.15841 29.0432 2.32126 28.8836C2.48411 28.724 2.68633 28.6442 2.92793 28.6442H33.0721C33.3137 28.6442 33.5159 28.7263 33.6788 28.8905C33.8416 29.0546 33.923 29.2585 33.923 29.502C33.923 29.7455 33.8416 29.9471 33.6788 30.1067C33.5159 30.2663 33.3137 30.3461 33.0721 30.3461H2.92793ZM5.91353 26.5961C5.32531 26.5961 4.81767 26.3826 4.39062 25.9556C3.96357 25.5285 3.75004 25.0209 3.75004 24.4327V7.7597C3.75004 7.17148 3.96357 6.66385 4.39062 6.23683C4.81767 5.80978 5.32531 5.59625 5.91353 5.59625H30.0865C30.6747 5.59625 31.1823 5.80978 31.6094 6.23683C32.0364 6.66385 32.25 7.17148 32.25 7.7597V24.4327C32.25 25.0209 32.0364 25.5285 31.6094 25.9556C31.1823 26.3826 30.6747 26.5961 30.0865 26.5961H5.91353ZM5.91353 24.8942H30.0865C30.2019 24.8942 30.3077 24.8462 30.4038 24.75C30.5 24.6539 30.5481 24.5481 30.5481 24.4327V7.7597C30.5481 7.6443 30.5 7.53853 30.4038 7.44238C30.3077 7.3462 30.2019 7.29812 30.0865 7.29812H5.91353C5.79813 7.29812 5.69234 7.3462 5.59617 7.44238C5.50002 7.53853 5.45194 7.6443 5.45194 7.7597V24.4327C5.45194 24.5481 5.50002 24.6539 5.59617 24.75C5.69234 24.8462 5.79813 24.8942 5.91353 24.8942Z" fill="white"/>
</g>
</svg>
