<svg width="36" height="36" viewBox="0 0 36 36" fill="none" xmlns="http://www.w3.org/2000/svg">
<g id="Icons- Healthcare">
<path id="Vector" d="M10.9683 24.7204H16.5611C16.8128 24.7204 17.0235 24.6351 17.1933 24.4645C17.3631 24.2939 17.4479 24.0822 17.4479 23.8292C17.4479 23.5763 17.3631 23.366 17.1933 23.1982C17.0235 23.0305 16.8128 22.9467 16.5611 22.9467H10.9683C10.7166 22.9467 10.5058 23.0319 10.3361 23.2025C10.1663 23.3731 10.0815 23.5849 10.0815 23.8378C10.0815 24.0907 10.1663 24.3011 10.3361 24.4688C10.5058 24.6365 10.7166 24.7204 10.9683 24.7204ZM15.2036 18.8868H20.7964C21.0481 18.8868 21.2589 18.8016 21.4286 18.631C21.5984 18.4604 21.6832 18.2487 21.6832 17.9957C21.6832 17.7428 21.5984 17.5325 21.4286 17.3647C21.2589 17.197 21.0481 17.1132 20.7964 17.1132H15.2036C14.9519 17.1132 14.7411 17.1984 14.5714 17.369C14.4016 17.5396 14.3168 17.7513 14.3168 18.0043C14.3168 18.2572 14.4016 18.4675 14.5714 18.6353C14.7411 18.803 14.9519 18.8868 15.2036 18.8868ZM19.4389 13.0533H25.0317C25.2834 13.0533 25.4942 12.9681 25.6639 12.7975C25.8337 12.6269 25.9185 12.4151 25.9185 12.1622C25.9185 11.9093 25.8337 11.6989 25.6639 11.5312C25.4942 11.3635 25.2834 11.2796 25.0317 11.2796H19.4389C19.1872 11.2796 18.9764 11.3649 18.8067 11.5355C18.6369 11.7061 18.5521 11.9178 18.5521 12.1708C18.5521 12.4237 18.6369 12.634 18.8067 12.8018C18.9764 12.9695 19.1872 13.0533 19.4389 13.0533ZM8.20815 30C7.60137 30 7.08165 29.7837 6.64899 29.351C6.21633 28.9183 6 28.3986 6 27.7919V8.20815C6 7.60137 6.21633 7.08165 6.64899 6.64899C7.08165 6.21633 7.60137 6 8.20815 6H27.7918C28.3986 6 28.9183 6.21633 29.351 6.64899C29.7837 7.08165 30 7.60137 30 8.20815V27.7919C30 28.3986 29.7837 28.9183 29.351 29.351C28.9183 29.7837 28.3986 30 27.7918 30H8.20815ZM8.20815 28.2263H27.7918C27.9005 28.2263 28 28.181 28.0905 28.0905C28.181 28 28.2263 27.9005 28.2263 27.7919V8.20815C28.2263 8.09954 28.181 7.99998 28.0905 7.90949C28 7.81897 27.9005 7.77371 27.7918 7.77371H8.20815C8.09954 7.77371 7.99998 7.81897 7.90949 7.90949C7.81897 7.99998 7.77371 8.09954 7.77371 8.20815V27.7919C7.77371 27.9005 7.81897 28 7.90949 28.0905C7.99998 28.181 8.09954 28.2263 8.20815 28.2263Z" fill="#2C74D6"/>
</g>
</svg>
