<svg width="36" height="36" viewBox="0 0 36 36" fill="none" xmlns="http://www.w3.org/2000/svg">
<path d="M29.1346 14.0798C29 14.0798 28.8851 14.0375 28.7899 13.9529C28.6947 13.8683 28.6269 13.7587 28.5865 13.624L28.4337 12.8971C28.1644 12.8164 27.8745 12.6789 27.564 12.4846C27.2534 12.2904 27.0106 12.0789 26.8356 11.85L25.8808 12.2279C25.7558 12.2779 25.6308 12.2827 25.5058 12.2423C25.3808 12.2019 25.2856 12.1193 25.2202 11.9943L25.05 11.7231C24.975 11.5981 24.9548 11.4731 24.9895 11.3481C25.0241 11.2231 25.0991 11.1154 25.2145 11.025L25.9645 10.4337C25.9145 10.2991 25.8707 10.1495 25.8332 9.98511C25.7957 9.82071 25.777 9.6587 25.777 9.49908C25.777 9.34908 25.7957 9.18946 25.8332 9.02024C25.8707 8.85099 25.9145 8.69906 25.9645 8.56446L25.2145 7.98753C25.0895 7.88753 25.0121 7.77503 24.9823 7.65003C24.9524 7.52503 24.975 7.40003 25.05 7.27503L25.2202 7.0039C25.2856 6.8789 25.3808 6.7938 25.5058 6.7486C25.6308 6.70343 25.7558 6.71064 25.8808 6.77024L26.8356 7.14813C27.0106 6.91928 27.2534 6.70389 27.564 6.50196C27.8745 6.30004 28.1644 6.1712 28.4337 6.11545L28.5865 5.37412C28.6269 5.24912 28.6947 5.1443 28.7899 5.05968C28.8851 4.97505 29 4.93274 29.1346 4.93274H29.4144C29.5491 4.93274 29.664 4.97505 29.7591 5.05968C29.8543 5.1443 29.9221 5.24912 29.9625 5.37412L30.1154 6.11545C30.3846 6.1712 30.6745 6.30004 30.9851 6.50196C31.2957 6.70389 31.5433 6.91928 31.7279 7.14813L32.6683 6.77024C32.7933 6.72024 32.9207 6.71784 33.0505 6.76304C33.1803 6.80824 33.2827 6.89814 33.3577 7.03274L33.5134 7.3039C33.5788 7.4289 33.5942 7.54909 33.5596 7.66446C33.525 7.77984 33.45 7.88753 33.3346 7.98753L32.5846 8.56446C32.6346 8.69906 32.6784 8.85099 32.7159 9.02024C32.7534 9.18946 32.7721 9.34908 32.7721 9.49908C32.7721 9.6587 32.7534 9.82071 32.7159 9.98511C32.6784 10.1495 32.6346 10.2991 32.5846 10.4337L33.3346 11.025C33.4596 11.1154 33.537 11.2255 33.5668 11.3553C33.5966 11.4851 33.574 11.6125 33.499 11.7375L33.3433 12.0087C33.2683 12.1337 33.1683 12.2164 33.0433 12.2568C32.9183 12.2971 32.7933 12.2875 32.6683 12.2279L31.7279 11.85C31.5433 12.0789 31.2957 12.2904 30.9851 12.4846C30.6745 12.6789 30.3846 12.8164 30.1154 12.8971L29.9625 13.624C29.9221 13.7587 29.8543 13.8683 29.7591 13.9529C29.664 14.0375 29.5491 14.0798 29.4144 14.0798H29.1346ZM29.2818 11.6885C29.9068 11.6885 30.4255 11.4823 30.838 11.0698C31.2505 10.6573 31.4568 10.1337 31.4568 9.49908C31.4568 8.87408 31.2505 8.35533 30.838 7.94283C30.4255 7.53033 29.9068 7.32408 29.2818 7.32408C28.6471 7.32408 28.1236 7.53033 27.7111 7.94283C27.2986 8.35533 27.0923 8.87408 27.0923 9.49908C27.0923 10.1337 27.2986 10.6573 27.7111 11.0698C28.1236 11.4823 28.6471 11.6885 29.2818 11.6885ZM24.9923 22.3615C24.9769 22.3615 24.8693 22.2615 24.6693 22.0615L24.6462 21.2885C24.4616 21.2077 24.2635 21.1 24.0519 20.9654C23.8404 20.8308 23.6596 20.6962 23.5096 20.5615L22.7971 20.9365C22.7721 20.9365 22.6269 20.8942 22.3615 20.8096L21.9981 20.2645L22.0645 19.8289L22.7856 19.3471C22.7356 19.2375 22.7082 19.1318 22.7034 19.0299C22.6986 18.9279 22.6962 18.827 22.6962 18.727C22.6962 18.6173 22.6986 18.5164 22.7034 18.4241C22.7082 18.3318 22.7356 18.226 22.7856 18.1068L22.0645 17.6106C22.0395 17.6106 22.0173 17.4654 21.9981 17.175L22.3615 16.6299C22.3865 16.6049 22.5317 16.5674 22.7971 16.5174L23.5096 16.8779C23.6846 16.7433 23.8717 16.6111 24.0707 16.4813C24.2697 16.3515 24.4616 16.2414 24.6462 16.151L24.6693 15.3924C24.6693 15.3731 24.7769 15.2731 24.9923 15.0924H25.7193C25.7443 15.0924 25.8568 15.1924 26.0568 15.3924L26.0798 16.151C26.2644 16.2414 26.4563 16.3515 26.6553 16.4813C26.8543 16.6111 27.0414 16.7433 27.2164 16.8779L27.9289 16.5174C27.9539 16.5077 28.0991 16.5452 28.3644 16.6299L28.7279 17.175L28.6615 17.6106L27.9404 18.1068C27.9904 18.226 28.0154 18.3318 28.0154 18.4241V19.0299C28.0154 19.1318 27.9904 19.2375 27.9404 19.3471L28.6615 19.8289C28.6865 19.8385 28.7087 19.9837 28.7279 20.2645L28.3644 20.8096C28.3394 20.8346 28.1942 20.8769 27.9289 20.9365L27.2164 20.5615C27.0664 20.6962 26.8856 20.8308 26.674 20.9654C26.4625 21.1 26.2644 21.2077 26.0798 21.2885L26.0568 22.0615C26.0568 22.0712 25.9443 22.1712 25.7193 22.3615H24.9923ZM25.3558 20.1808C25.7654 20.1808 26.1125 20.0409 26.3971 19.7611C26.6817 19.4813 26.824 19.1366 26.824 18.727C26.824 18.3173 26.6817 17.9702 26.3971 17.6856C26.1125 17.401 25.7654 17.2587 25.3558 17.2587C24.9462 17.2587 24.6015 17.401 24.3217 17.6856C24.0418 17.9702 23.9019 18.3173 23.9019 18.727C23.9019 19.1366 24.0418 19.4813 24.3217 19.7611C24.6015 20.0409 24.9462 20.1808 25.3558 20.1808ZM13.3673 19.875C11.9 19.875 10.7039 19.4048 9.77891 18.4645C8.85391 17.5241 8.39141 16.3068 8.39141 14.8126H8.04528C7.86451 14.8126 7.70873 14.7472 7.57796 14.6164C7.44721 14.4856 7.38183 14.3299 7.38183 14.1491C7.38183 13.978 7.44721 13.8246 7.57796 13.689C7.70873 13.5534 7.86451 13.4856 8.04528 13.4856H8.39141C8.40103 12.6395 8.59815 11.8717 8.98275 11.1823C9.36737 10.4929 9.90198 9.88858 10.5866 9.36933V10.8174C10.5866 10.9578 10.6404 11.0794 10.7481 11.1823C10.8558 11.2852 10.9798 11.3367 11.1202 11.3367C11.276 11.3367 11.4015 11.2852 11.4967 11.1823C11.5919 11.0794 11.6395 10.9578 11.6395 10.8174V8.88183C11.8395 8.82223 12.1048 8.76886 12.4356 8.72174C12.7664 8.67461 13.0846 8.65105 13.3904 8.65105C13.6962 8.65105 14.0144 8.67461 14.3452 8.72174C14.676 8.76886 14.9414 8.82223 15.1414 8.88183V10.8174C15.1414 10.9578 15.189 11.0794 15.2842 11.1823C15.3793 11.2852 15.5048 11.3367 15.6606 11.3367C15.801 11.3367 15.925 11.2852 16.0327 11.1823C16.1404 11.0794 16.1943 10.9578 16.1943 10.8174V9.36933C16.8885 9.88858 17.4154 10.4929 17.775 11.1823C18.1346 11.8717 18.324 12.6395 18.3432 13.4856H18.6894C18.8702 13.4856 19.0259 13.5534 19.1567 13.689C19.2875 13.8246 19.3528 13.978 19.3528 14.1491C19.3528 14.3299 19.2875 14.4856 19.1567 14.6164C19.0259 14.7472 18.8702 14.8126 18.6894 14.8126H18.3432C18.3432 16.3068 17.8783 17.5241 16.9486 18.4645C16.0188 19.4048 14.825 19.875 13.3673 19.875ZM13.3673 18.1731C14.3692 18.1731 15.1654 17.8702 15.7558 17.2645C16.3462 16.6587 16.6414 15.8703 16.6414 14.8991H10.0933C10.0933 15.8703 10.3885 16.6587 10.9789 17.2645C11.5693 17.8702 12.3654 18.1731 13.3673 18.1731ZM2.22412 30.8942V28.1077C2.22412 27.3539 2.4073 26.727 2.77365 26.227C3.14 25.727 3.66162 25.3116 4.33852 24.9808C5.64045 24.3501 7.04092 23.8366 8.53995 23.4405C10.039 23.0443 11.6481 22.8462 13.3673 22.8462C15.0865 22.8462 16.6933 23.0443 18.1875 23.4405C19.6817 23.8366 21.0846 24.3501 22.3962 24.9808C23.0635 25.3116 23.5827 25.727 23.9538 26.227C24.325 26.727 24.5106 27.3539 24.5106 28.1077V30.8942H2.22412ZM3.92602 29.1923H22.8087V28.1077C22.8087 27.6943 22.688 27.3592 22.4466 27.1024C22.2053 26.8457 21.9154 26.6404 21.5769 26.4865C20.5308 26.0115 19.3332 25.5697 17.9841 25.1611C16.6351 24.7524 15.0962 24.5481 13.3673 24.5481C11.6385 24.5481 10.0972 24.7524 8.74331 25.1611C7.38946 25.5697 6.19427 26.0115 5.15775 26.4865C4.81927 26.6404 4.52936 26.8457 4.28801 27.1024C4.04668 27.3592 3.92602 27.6943 3.92602 28.1077V29.1923Z" fill="#2C74D6"/>
</svg>
