<svg xmlns="http://www.w3.org/2000/svg" width="36" height="36" viewBox="0 0 36 36" fill="none">
  <mask id="mask0_4727_509" style="mask-type:alpha" maskUnits="userSpaceOnUse" x="0" y="0" width="36" height="36">
    <rect width="36" height="36" fill="#D9D9D9"/>
  </mask>
  <g mask="url(#mask0_4727_509)">
    <path d="M17.5 32C16.8483 32 16.275 31.8483 15.7802 31.545C15.2853 31.2417 14.9655 30.8217 14.8207 30.285H14.3138C13.7345 30.285 13.2276 30.075 12.7931 29.655C12.3586 29.235 12.1414 28.745 12.1414 28.185V23.18C10.5483 22.1767 9.2931 20.8933 8.37586 19.33C7.45862 17.7667 7 16.04 7 14.15C7 11.3267 8.01983 8.92917 10.0595 6.9575C12.0991 4.98583 14.5793 4 17.5 4C20.4207 4 22.9009 4.98583 24.9405 6.9575C26.9802 8.92917 28 11.3267 28 14.15C28 16.04 27.5414 17.7667 26.6241 19.33C25.7069 20.8933 24.4517 22.1767 22.8586 23.18V28.185C22.8586 28.745 22.6414 29.235 22.2069 29.655C21.7724 30.075 21.2655 30.285 20.6862 30.285H20.1793C20.0345 30.8217 19.7147 31.2417 19.2198 31.545C18.725 31.8483 18.1517 32 17.5 32ZM14.3138 28.185H20.6862V26.645H14.3138V28.185ZM14.3138 25.245H20.6862V23.845H14.3138V25.245ZM13.9879 21.745H16.6672V16.95L13.3362 13.73L14.4586 12.645L17.5 15.585L20.5414 12.645L21.6638 13.73L18.3328 16.95V21.745H21.0121C22.4603 21.0917 23.625 20.0767 24.506 18.7C25.3871 17.3233 25.8276 15.8067 25.8276 14.15C25.8276 11.8867 25.025 9.97917 23.4198 8.4275C21.8147 6.87583 19.8414 6.1 17.5 6.1C15.1586 6.1 13.1853 6.87583 11.5802 8.4275C9.975 9.97917 9.17241 11.8867 9.17241 14.15C9.17241 15.8067 9.61293 17.3233 10.494 18.7C11.375 20.0767 12.5397 21.0917 13.9879 21.745Z" fill="#2C74D6"/>
  </g>
</svg>