<svg width="24" height="24" viewBox="0 0 24 24" fill="none" xmlns="http://www.w3.org/2000/svg">
<g id="ic_cross_24dp" clip-path="url(#clip0_3184_138640)">
<path id="Vector" d="M15.5355 16.9489L12 13.4133L8.46447 16.9489C8.07556 17.3378 7.43916 17.3378 7.05025 16.9489C6.66134 16.5599 6.66134 15.9235 7.05025 15.5346L10.5858 11.9991L7.05025 8.46357C6.66134 8.07466 6.66134 7.43827 7.05025 7.04936C7.43916 6.66045 8.07556 6.66045 8.46447 7.04936L12 10.5849L15.5355 7.04936C15.9244 6.66045 16.5608 6.66045 16.9497 7.04936C17.3387 7.43827 17.3387 8.07466 16.9497 8.46357L13.4142 11.9991L16.9497 15.5346C17.3387 15.9235 17.3387 16.5599 16.9497 16.9489C16.5608 17.3378 15.9244 17.3378 15.5355 16.9489Z" fill="#0E0E0E"/>
</g>
<defs>
<clipPath id="clip0_3184_138640">
<rect width="24" height="24" fill="white"/>
</clipPath>
</defs>
</svg>
