<svg width="36" height="36" viewBox="0 0 36 36" fill="none" xmlns="http://www.w3.org/2000/svg">
<g id="Ai generative-services">
<mask id="mask0_3264_131763" style="mask-type:alpha" maskUnits="userSpaceOnUse" x="0" y="0" width="36" height="36">
<rect id="Bounding box" width="36" height="36" fill="#D9D9D9"/>
</mask>
<g mask="url(#mask0_3264_131763)">
<path id="integration_instructions" d="M12.7557 18L15.1903 15.5653C15.4134 15.3423 15.5235 15.0812 15.5206 14.7822C15.5177 14.4831 15.4076 14.2173 15.1903 13.9846C14.9576 13.7519 14.6903 13.6317 14.3884 13.624C14.0865 13.6163 13.8192 13.7288 13.5865 13.9615L10.4971 17.051C10.226 17.3221 10.0904 17.6384 10.0904 18C10.0904 18.3615 10.226 18.6778 10.4971 18.949L13.5865 22.0384C13.8096 22.2615 14.0745 22.3716 14.3812 22.3687C14.6879 22.3658 14.9576 22.248 15.1903 22.0153C15.4076 21.7826 15.5201 21.5192 15.5278 21.225C15.5355 20.9307 15.423 20.6673 15.1903 20.4346L12.7557 18ZM23.2442 18L20.8096 20.4346C20.5865 20.6577 20.4764 20.9187 20.4793 21.2178C20.4822 21.5168 20.5923 21.7826 20.8096 22.0153C21.0423 22.248 21.3096 22.3682 21.6115 22.3759C21.9134 22.3836 22.1807 22.2711 22.4134 22.0384L25.5028 18.949C25.774 18.6778 25.9095 18.3615 25.9095 18C25.9095 17.6384 25.774 17.3221 25.5028 17.051L22.4134 13.9615C22.1903 13.7384 21.9254 13.6284 21.6187 13.6313C21.312 13.6341 21.0423 13.7519 20.8096 13.9846C20.5923 14.2173 20.4798 14.4807 20.4721 14.775C20.4644 15.0692 20.5769 15.3326 20.8096 15.5653L23.2442 18ZM7.96155 30.7499C7.21348 30.7499 6.57454 30.485 6.04474 29.9552C5.51491 29.4254 5.25 28.7865 5.25 28.0384V7.96155C5.25 7.21348 5.51491 6.57454 6.04474 6.04474C6.57454 5.51491 7.21348 5.25 7.96155 5.25H14.6365C14.7308 4.41733 15.0942 3.70916 15.7269 3.12551C16.3596 2.54184 17.1173 2.25 18 2.25C18.8923 2.25 19.6548 2.54184 20.2874 3.12551C20.9201 3.70916 21.2788 4.41733 21.3634 5.25H28.0384C28.7865 5.25 29.4254 5.51491 29.9552 6.04474C30.485 6.57454 30.7499 7.21348 30.7499 7.96155V28.0384C30.7499 28.7865 30.485 29.4254 29.9552 29.9552C29.4254 30.485 28.7865 30.7499 28.0384 30.7499H7.96155ZM7.96155 28.5H28.0384C28.1538 28.5 28.2596 28.4519 28.3557 28.3557C28.4519 28.2596 28.5 28.1538 28.5 28.0384V7.96155C28.5 7.84615 28.4519 7.74036 28.3557 7.64419C28.2596 7.54804 28.1538 7.49996 28.0384 7.49996H7.96155C7.84615 7.49996 7.74036 7.54804 7.64419 7.64419C7.54804 7.74036 7.49996 7.84615 7.49996 7.96155V28.0384C7.49996 28.1538 7.54804 28.2596 7.64419 28.3557C7.74036 28.4519 7.84615 28.5 7.96155 28.5ZM18 6.51919C18.325 6.51919 18.5937 6.41294 18.8062 6.20044C19.0187 5.98794 19.125 5.71919 19.125 5.39419C19.125 5.06919 19.0187 4.80044 18.8062 4.58794C18.5937 4.37544 18.325 4.26919 18 4.26919C17.675 4.26919 17.4062 4.37544 17.1937 4.58794C16.9812 4.80044 16.875 5.06919 16.875 5.39419C16.875 5.71919 16.9812 5.98794 17.1937 6.20044C17.4062 6.41294 17.675 6.51919 18 6.51919Z" fill="white"/>
</g>
</g>
</svg>
