<svg xmlns="http://www.w3.org/2000/svg" width="36" height="36" viewBox="0 0 36 36" fill="none">
<path d="M14.55 33L13.8 28.275C13.325 28.1 12.825 27.8625 12.3 27.5625C11.775 27.2625 11.3125 26.95 10.9125 26.625L6.4875 28.65L3 22.5L7.05 19.5375C7 19.3125 6.96875 19.0563 6.95625 18.7688C6.94375 18.4813 6.9375 18.225 6.9375 18C6.9375 17.775 6.94375 17.5188 6.95625 17.2313C6.96875 16.9438 7 16.6875 7.05 16.4625L3 13.5L6.4875 7.35L10.9125 9.375C11.3125 9.05 11.775 8.7375 12.3 8.4375C12.825 8.1375 13.325 7.9125 13.8 7.7625L14.55 3H21.45L22.2 7.725C22.675 7.9 23.1813 8.13125 23.7188 8.41875C24.2563 8.70625 24.7125 9.025 25.0875 9.375L29.5125 7.35L33 13.5L28.95 16.3875C29 16.6375 29.0313 16.9063 29.0438 17.1938C29.0563 17.4813 29.0625 17.75 29.0625 18C29.0625 18.25 29.0563 18.5125 29.0438 18.7875C29.0313 19.0625 29 19.325 28.95 19.575L33 22.5L29.5125 28.65L25.0875 26.625C24.6875 26.95 24.2313 27.2688 23.7188 27.5813C23.2063 27.8938 22.7 28.125 22.2 28.275L21.45 33H14.55ZM18 22.875C19.35 22.875 20.5 22.4 21.45 21.45C22.4 20.5 22.875 19.35 22.875 18C22.875 16.65 22.4 15.5 21.45 14.55C20.5 13.6 19.35 13.125 18 13.125C16.65 13.125 15.5 13.6 14.55 14.55C13.6 15.5 13.125 16.65 13.125 18C13.125 19.35 13.6 20.5 14.55 21.45C15.5 22.4 16.65 22.875 18 22.875ZM18 20.625C17.275 20.625 16.6563 20.3688 16.1438 19.8563C15.6313 19.3438 15.375 18.725 15.375 18C15.375 17.275 15.6313 16.6563 16.1438 16.1438C16.6563 15.6313 17.275 15.375 18 15.375C18.725 15.375 19.3438 15.6313 19.8563 16.1438C20.3688 16.6563 20.625 17.275 20.625 18C20.625 18.725 20.3688 19.3438 19.8563 19.8563C19.3438 20.3688 18.725 20.625 18 20.625ZM16.35 30.75H19.65L20.175 26.55C21 26.35 21.7812 26.0375 22.5188 25.6125C23.2563 25.1875 23.925 24.675 24.525 24.075L28.5 25.8L30 23.1L26.475 20.5125C26.575 20.0875 26.6562 19.6688 26.7188 19.2563C26.7812 18.8438 26.8125 18.425 26.8125 18C26.8125 17.575 26.7875 17.1563 26.7375 16.7438C26.6875 16.3313 26.6 15.9125 26.475 15.4875L30 12.9L28.5 10.2L24.525 11.925C23.95 11.275 23.3 10.7313 22.575 10.2938C21.85 9.85625 21.05 9.575 20.175 9.45L19.65 5.25H16.35L15.825 9.45C14.975 9.625 14.1813 9.925 13.4438 10.35C12.7063 10.775 12.05 11.3 11.475 11.925L7.5 10.2L6 12.9L9.525 15.4875C9.425 15.9125 9.34375 16.3313 9.28125 16.7438C9.21875 17.1563 9.1875 17.575 9.1875 18C9.1875 18.425 9.21875 18.8438 9.28125 19.2563C9.34375 19.6688 9.425 20.0875 9.525 20.5125L6 23.1L7.5 25.8L11.475 24.075C12.075 24.675 12.7438 25.1875 13.4813 25.6125C14.2188 26.0375 15 26.35 15.825 26.55L16.35 30.75Z" fill="white"/>
</svg>