<svg width="36" height="36" viewBox="0 0 36 36" fill="none" xmlns="http://www.w3.org/2000/svg">
<g id="Icons- Healthcare">
<path id="Vector" d="M9.73421 34C8.72371 34 7.86291 33.6292 7.15181 32.8875C6.4407 32.1459 6.08515 31.2474 6.08515 30.192C6.08515 29.1366 6.43981 28.2389 7.14912 27.4991C7.85845 26.7592 8.71979 26.3893 9.73312 26.3893C10.0274 26.3893 10.3048 26.4232 10.5652 26.4909C10.8255 26.5587 11.0814 26.6564 11.3329 26.7841L14.5024 22.6732C14.0381 22.1195 13.7046 21.4996 13.5021 20.8134C13.2996 20.1272 13.2545 19.4213 13.3668 18.6956L8.78058 17.0983C8.45704 17.6727 8.02488 18.1267 7.4841 18.4604C6.94332 18.794 6.32863 18.9609 5.64004 18.9609C4.63413 18.9609 3.77598 18.5909 3.0656 17.8508C2.3552 17.1108 2 16.2122 2 15.155C2 14.0978 2.35504 13.1994 3.06513 12.4597C3.77519 11.72 4.63547 11.3502 5.64597 11.3502C6.65646 11.3502 7.51589 11.7202 8.22425 12.4601C8.93263 13.2 9.28682 14.0985 9.28682 15.1555C9.28682 15.2139 9.28463 15.2713 9.28025 15.3278C9.2759 15.3844 9.27372 15.4312 9.27372 15.4682L13.8695 17.1284C14.2263 16.4477 14.6864 15.8941 15.25 15.4674C15.8136 15.0407 16.4597 14.7535 17.1882 14.6058V9.50945C16.3118 9.29431 15.6208 8.83073 15.1151 8.11869C14.6094 7.40668 14.3566 6.63368 14.3566 5.79969C14.3566 4.75198 14.7109 3.85677 15.4194 3.11406C16.1279 2.37135 16.9883 2 18.0005 2C19.0127 2 19.8729 2.37098 20.5811 3.11293C21.2893 3.85488 21.6434 4.75235 21.6434 5.80534C21.6434 6.63556 21.3871 7.40668 20.8744 8.11869C20.3617 8.83073 19.6742 9.29431 18.8118 9.50945V14.6058C19.5403 14.7535 20.188 15.0407 20.7548 15.4674C21.3216 15.8941 21.7877 16.4477 22.1531 17.1284L26.7263 15.4682C26.7175 15.4297 26.7132 15.3821 26.7132 15.3256V15.1555C26.7132 14.0985 27.0669 13.2 27.7742 12.4601C28.4816 11.7202 29.3405 11.3502 30.3509 11.3502C31.3614 11.3502 32.2222 11.7202 32.9333 12.4602C33.6444 13.2003 34 14.0989 34 15.1561C34 16.2133 33.6448 17.1117 32.9344 17.8514C32.2241 18.591 31.3659 18.9609 30.36 18.9609C29.6742 18.9609 29.0567 18.7925 28.5076 18.4558C27.9584 18.1191 27.529 17.6666 27.2195 17.0983L22.6332 18.6956C22.7514 19.4213 22.7101 20.1275 22.5093 20.8143C22.3085 21.5011 21.9713 22.1162 21.4976 22.6595L24.6671 26.7722C24.911 26.6476 25.165 26.5526 25.4292 26.4873C25.6934 26.422 25.9693 26.3893 26.257 26.3893C27.2845 26.3893 28.1511 26.7587 28.8566 27.4975C29.5621 28.2363 29.9149 29.1333 29.9149 30.1887C29.9149 31.2441 29.5599 32.1432 28.8498 32.8859C28.1397 33.6286 27.2795 34 26.269 34C25.2585 34 24.399 33.6298 23.6907 32.8893C22.9823 32.1489 22.6281 31.2498 22.6281 30.1921C22.6281 29.7393 22.6915 29.3219 22.8183 28.9401C22.9451 28.5583 23.1416 28.1915 23.4076 27.8398L20.2381 23.7016C19.5582 24.1125 18.8087 24.3179 17.9895 24.3179C17.1703 24.3179 16.4208 24.1125 15.741 23.7016L12.5925 27.8635C12.8503 28.21 13.0446 28.5715 13.1755 28.948C13.3065 29.3246 13.372 29.7393 13.372 30.1921C13.372 31.2498 13.0183 32.1489 12.3109 32.8893C11.6036 33.6298 10.7447 34 9.73421 34ZM5.64576 17.174C6.18481 17.174 6.64129 16.978 7.01519 16.5858C7.3891 16.1937 7.57605 15.7161 7.57605 15.1531C7.57605 14.5901 7.38832 14.1133 7.01288 13.7228C6.63743 13.3323 6.18017 13.137 5.6411 13.137C5.10204 13.137 4.64557 13.3331 4.27166 13.7252C3.89779 14.1174 3.71085 14.5949 3.71085 15.158C3.71085 15.721 3.89857 16.1978 4.27401 16.5882C4.64946 16.9788 5.10671 17.174 5.64576 17.174ZM9.73088 32.2131C10.2699 32.2131 10.7264 32.0171 11.1003 31.6249C11.4742 31.2328 11.6612 30.7552 11.6612 30.1922C11.6612 29.6292 11.4734 29.1524 11.098 28.7619C10.7225 28.3714 10.2653 28.1761 9.72621 28.1761C9.18716 28.1761 8.73068 28.3722 8.35678 28.7643C7.9829 29.1565 7.79596 29.634 7.79596 30.1971C7.79596 30.7601 7.98368 31.2369 8.35913 31.6274C8.73457 32.0179 9.19182 32.2131 9.73088 32.2131ZM18.0023 7.82383C18.5414 7.82383 18.9979 7.62776 19.3718 7.23563C19.7457 6.8435 19.9326 6.36592 19.9326 5.80288C19.9326 5.23987 19.7449 4.76311 19.3695 4.37259C18.994 3.98209 18.5368 3.78685 17.9977 3.78685C17.4586 3.78685 17.0022 3.98291 16.6283 4.37504C16.2544 4.76717 16.0674 5.24474 16.0674 5.80776C16.0674 6.37077 16.2552 6.84753 16.6306 7.23805C17.006 7.62857 17.4633 7.82383 18.0023 7.82383ZM18.007 22.531C18.8339 22.531 19.5356 22.2276 20.112 21.6207C20.6884 21.0139 20.9766 20.2786 20.9766 19.4149C20.9766 18.5512 20.6875 17.8184 20.1095 17.2164C19.5314 16.6144 18.8282 16.3134 18 16.3134C17.1778 16.3134 16.4761 16.6153 15.8951 17.219C15.314 17.8228 15.0235 18.5572 15.0235 19.4222C15.0235 20.281 15.314 21.0139 15.8951 21.6207C16.4761 22.2276 17.1801 22.531 18.007 22.531ZM26.2739 32.2131C26.8129 32.2131 27.2694 32.0171 27.6433 31.6249C28.0172 31.2328 28.2041 30.7552 28.2041 30.1922C28.2041 29.6292 28.0164 29.1524 27.6409 28.7619C27.2655 28.3714 26.8082 28.1761 26.2692 28.1761C25.7301 28.1761 25.2737 28.3722 24.8998 28.7643C24.5259 29.1565 24.3389 29.634 24.3389 30.1971C24.3389 30.7601 24.5266 31.2369 24.9021 31.6274C25.2775 32.0179 25.7348 32.2131 26.2739 32.2131ZM30.359 17.174C30.898 17.174 31.3545 16.978 31.7284 16.5858C32.1023 16.1937 32.2892 15.7161 32.2892 15.1531C32.2892 14.5901 32.1015 14.1133 31.7261 13.7228C31.3506 13.3323 30.8934 13.137 30.3543 13.137C29.8153 13.137 29.3588 13.3331 28.9849 13.7252C28.611 14.1174 28.424 14.5949 28.424 15.158C28.424 15.721 28.6117 16.1978 28.9872 16.5882C29.3626 16.9788 29.8199 17.174 30.359 17.174Z" fill="#2C74D6"/>
</g>
</svg>
