<svg width="36" height="36" viewBox="0 0 36 36" fill="none" xmlns="http://www.w3.org/2000/svg">
<path d="M22.0875 31.5375L16.0875 25.5375L17.7 23.925L22.0875 28.3125L31.05 19.35L32.6625 20.9625L22.0875 31.5375ZM30.3375 16.0125H28.0875V8.25H25.8375V11.625H7.83749V8.25H5.58749V30.75H15V33H5.58749C4.93749 33 4.39999 32.7875 3.97499 32.3625C3.54999 31.9375 3.33749 31.4 3.33749 30.75V8.25C3.33749 7.6 3.54999 7.0625 3.97499 6.6375C4.39999 6.2125 4.93749 6 5.58749 6H13.1625C13.3375 5.125 13.7687 4.40625 14.4562 3.84375C15.1437 3.28125 15.9375 3 16.8375 3C17.7375 3 18.5312 3.28125 19.2187 3.84375C19.9062 4.40625 20.3375 5.125 20.5125 6H28.0875C28.7375 6 29.275 6.2125 29.7 6.6375C30.125 7.0625 30.3375 7.6 30.3375 8.25V16.0125ZM16.8375 8.25C17.2625 8.25 17.6187 8.10625 17.9062 7.81875C18.1937 7.53125 18.3375 7.175 18.3375 6.75C18.3375 6.325 18.1937 5.96875 17.9062 5.68125C17.6187 5.39375 17.2625 5.25 16.8375 5.25C16.4125 5.25 16.0562 5.39375 15.7687 5.68125C15.4812 5.96875 15.3375 6.325 15.3375 6.75C15.3375 7.175 15.4812 7.53125 15.7687 7.81875C16.0562 8.10625 16.4125 8.25 16.8375 8.25Z" fill="white"/>
</svg>
