<svg width="24" height="25" viewBox="0 0 24 25" fill="none" xmlns="http://www.w3.org/2000/svg">
<g id="location_on_FILL0_wght300_GRAD0_opsz48 (1) 2">
<path id="Vector" d="M2.3655 21.0769V3.5769H11.6828V7.66345H21.6347V21.0769H2.3655ZM3.50008 19.9423H6.46165V16.9807H3.50008V19.9423ZM3.50008 15.8461H6.46165V12.8942H3.50008V15.8461ZM3.50008 11.7596H6.46165V8.79803H3.50008V11.7596ZM3.50008 7.66345H6.46165V4.7115H3.50008V7.66345ZM7.59623 19.9423H10.5482V16.9807H7.59623V19.9423ZM7.59623 15.8461H10.5482V12.8942H7.59623V15.8461ZM7.59623 11.7596H10.5482V8.79803H7.59623V11.7596ZM7.59623 7.66345H10.5482V4.7115H7.59623V7.66345ZM11.6828 19.9423H20.5001V8.79803H11.6828V11.7596H13.8751V12.8942H11.6828V15.8461H13.8751V16.9807H11.6828V19.9423ZM16.5289 12.8942V11.7596H17.6635V12.8942H16.5289ZM16.5289 16.9807V15.8461H17.6635V16.9807H16.5289Z" fill="#2C74D6"/>
</g>
</svg>
