<svg width="24" height="25" viewBox="0 0 24 25" fill="none" xmlns="http://www.w3.org/2000/svg">
<g id="location_on_FILL0_wght300_GRAD0_opsz48 (1) 2">
<path id="Vector" d="M3.94233 21C3.55018 21 3.21175 20.8577 2.92705 20.573C2.64235 20.2883 2.5 19.9498 2.5 19.5577V8.27507C2.5 7.88294 2.64235 7.54452 2.92705 7.25982C3.21175 6.97512 3.55018 6.83277 3.94233 6.83277H8.6827V4.94242C8.6827 4.55027 8.82505 4.21186 9.10975 3.92717C9.39443 3.64247 9.73285 3.50012 10.125 3.50012H13.875C14.2671 3.50012 14.6055 3.64247 14.8902 3.92717C15.1749 4.21186 15.3173 4.55027 15.3173 4.94242V6.83277H20.0576C20.4498 6.83277 20.7882 6.97512 21.0729 7.25982C21.3576 7.54452 21.5 7.88294 21.5 8.27507V19.5577C21.5 19.9498 21.3576 20.2883 21.0729 20.573C20.7882 20.8577 20.4498 21 20.0576 21H3.94233ZM9.8173 6.83277H14.1827V4.94242C14.1827 4.86549 14.1506 4.79497 14.0865 4.73087C14.0224 4.66675 13.9519 4.6347 13.875 4.6347H10.125C10.0481 4.6347 9.97755 4.66675 9.91345 4.73087C9.84935 4.79497 9.8173 4.86549 9.8173 4.94242V6.83277ZM20.3654 15.0519H13.9673V16.4366H10.0635V15.0519H3.6346V19.5577C3.6346 19.6346 3.66665 19.7052 3.73075 19.7693C3.79487 19.8334 3.86539 19.8654 3.94233 19.8654H20.0576C20.1346 19.8654 20.2051 19.8334 20.2692 19.7693C20.3333 19.7052 20.3654 19.6346 20.3654 19.5577V15.0519ZM11.1981 15.302H12.8327V13.6673H11.1981V15.302ZM3.6346 13.9174H10.0635V12.5328H13.9673V13.9174H20.3654V8.27507C20.3654 8.19816 20.3333 8.12764 20.2692 8.06352C20.2051 7.99942 20.1346 7.96737 20.0576 7.96737H3.94233C3.86539 7.96737 3.79487 7.99942 3.73075 8.06352C3.66665 8.12764 3.6346 8.19816 3.6346 8.27507V13.9174Z" fill="#2C74D6"/>
</g>
</svg>
