<svg width="24" height="25" viewBox="0 0 24 25" fill="none" xmlns="http://www.w3.org/2000/svg">
<path d="M12.0022 12.0673C12.4328 12.0673 12.8012 11.9133 13.1076 11.6055C13.4141 11.2976 13.5673 10.9283 13.5673 10.4978C13.5673 10.0672 13.4133 9.6987 13.1054 9.3923C12.7976 9.08588 12.4283 8.93268 11.9977 8.93268C11.5672 8.93268 11.1987 9.08662 10.8923 9.3945C10.5859 9.70238 10.4327 10.0716 10.4327 10.5022C10.4327 10.9328 10.5866 11.3013 10.8945 11.6077C11.2024 11.9141 11.5716 12.0673 12.0022 12.0673ZM12 20.7942C14.191 18.8417 15.8413 16.9885 16.9509 15.2346C18.0606 13.4808 18.6154 11.9692 18.6154 10.7C18.6154 8.70474 17.9783 7.07003 16.7042 5.79585C15.4301 4.52167 13.8621 3.88457 12 3.88457C10.1379 3.88457 8.56981 4.52167 7.29572 5.79585C6.02162 7.07003 5.38457 8.70474 5.38457 10.7C5.38457 11.9692 5.94868 13.4808 7.0769 15.2346C8.2051 16.9885 9.84612 18.8417 12 20.7942ZM12 22.3077C9.39357 20.0436 7.45031 17.942 6.17017 16.0029C4.89006 14.0638 4.25 12.2961 4.25 10.7C4.25 8.27691 5.03012 6.34614 6.59037 4.90768C8.15062 3.46923 9.95382 2.75 12 2.75C14.0461 2.75 15.8493 3.46923 17.4096 4.90768C18.9698 6.34614 19.75 8.27691 19.75 10.7C19.75 12.2961 19.1099 14.0638 17.8298 16.0029C16.5496 17.942 14.6064 20.0436 12 22.3077Z" fill="#2C74D6"/>
</svg>
