<svg width="24" height="25" viewBox="0 0 24 25" fill="none" xmlns="http://www.w3.org/2000/svg">
<g id="location_on_FILL0_wght300_GRAD0_opsz48 (1) 2">
<path id="Vector" d="M3.94233 21C3.55018 21 3.21175 20.8576 2.92705 20.5729C2.64235 20.2882 2.5 19.9498 2.5 19.5576V8.20386C2.5 7.81173 2.64235 7.47331 2.92705 7.18861C3.21175 6.90391 3.55018 6.76156 3.94233 6.76156H8.6827V4.94236C8.6827 4.55903 8.82505 4.22281 9.10975 3.93371C9.39443 3.64461 9.73285 3.50006 10.125 3.50006H13.875C14.2671 3.50006 14.6055 3.64461 14.8902 3.93371C15.1749 4.22281 15.3173 4.55903 15.3173 4.94236V6.76156H20.0576C20.4498 6.76156 20.7882 6.90391 21.0729 7.18861C21.3576 7.47331 21.5 7.81173 21.5 8.20386V13.6635C21.3243 13.5314 21.1445 13.4096 20.9605 13.2981C20.7766 13.1865 20.5782 13.0801 20.3654 12.9789V8.20386C20.3654 8.12053 20.3365 8.04841 20.2788 7.98751C20.2211 7.92661 20.1474 7.89616 20.0576 7.89616H3.94233C3.85258 7.89616 3.77885 7.92661 3.72115 7.98751C3.66345 8.04841 3.6346 8.12053 3.6346 8.20386V19.5576C3.6346 19.6474 3.66345 19.7237 3.72115 19.7865C3.77885 19.8493 3.85258 19.8756 3.94233 19.8654H12.1498C12.1961 20.0679 12.2548 20.2638 12.326 20.4528C12.3971 20.6419 12.4801 20.8243 12.575 21H3.94233ZM9.8173 6.76156H14.1827V4.94236C14.1827 4.85261 14.1538 4.77889 14.0961 4.72119C14.0384 4.66349 13.9647 4.63464 13.875 4.63464H10.125C10.0353 4.63464 9.96153 4.66349 9.90383 4.72119C9.84614 4.77889 9.8173 4.85261 9.8173 4.94236V6.76156ZM18 22.873C16.7987 22.873 15.7696 22.4445 14.9125 21.5875C14.0555 20.7304 13.6269 19.7013 13.6269 18.5C13.6269 17.2987 14.0555 16.2696 14.9125 15.4125C15.7696 14.5555 16.7987 14.1269 18 14.1269C19.2012 14.1269 20.2304 14.5555 21.0875 15.4125C21.9445 16.2696 22.373 17.2987 22.373 18.5C22.373 19.7013 21.9445 20.7304 21.0875 21.5875C20.2304 22.4445 19.2012 22.873 18 22.873ZM19.7923 20.9L20.4 20.2923L18.3865 18.4308V15.4461H17.4711V18.7118L19.7923 20.9Z" fill="#2C74D6"/>
</g>
</svg>
