<svg width="36" height="36" viewBox="0 0 36 36" fill="none" xmlns="http://www.w3.org/2000/svg">
<g id="Kubernetes">
<g id="Group">
<path id="Vector" d="M11.4938 34.9894C10.6558 34.9894 9.86434 34.617 9.32896 33.9419L1.18187 23.8163C0.646487 23.1412 0.43699 22.2799 0.646487 21.442L3.55616 8.80233C3.74238 7.96434 4.30104 7.2893 5.0692 6.91686L16.8476 1.28372C17.22 1.0975 17.639 1.00439 18.058 1.00439C18.477 1.00439 18.896 1.0975 19.2684 1.28372L31.0468 6.89358C31.8149 7.26602 32.3736 7.94106 32.5598 8.77905L35.4695 21.4187C35.6557 22.2567 35.4695 23.1179 34.9341 23.793L26.787 33.9187C26.2516 34.5704 25.4602 34.9661 24.6222 34.9661L11.4938 34.9894Z" fill="#326DE6"/>
<path id="Vector_2" d="M18.0349 1.58623C18.3608 1.58623 18.6867 1.65606 18.9893 1.79572L30.7677 7.40558C31.3729 7.70818 31.8384 8.26684 31.9781 8.91861L34.8878 21.5582C35.0507 22.2333 34.8878 22.9316 34.4455 23.467L26.2984 33.5927C25.8794 34.128 25.2276 34.4307 24.5526 34.4307H11.494C10.8189 34.4307 10.1672 34.128 9.74816 33.5927L1.60106 23.467C1.18207 22.9316 1.01913 22.2333 1.15879 21.5582L4.06847 8.91861C4.23141 8.24357 4.67368 7.68491 5.27889 7.40558L17.0573 1.77245C17.3599 1.65606 17.709 1.58623 18.0349 1.58623ZM18.0349 0.492188C17.5461 0.492188 17.0573 0.608575 16.5917 0.818071L4.81335 6.4512C3.88225 6.89348 3.23048 7.70819 2.99771 8.70911L0.0880317 21.3487C-0.144742 22.3497 0.0880317 23.3739 0.739799 24.1886L8.88689 34.3143C9.51538 35.1057 10.4698 35.548 11.4707 35.548H24.5293C25.5302 35.548 26.4846 35.1057 27.1131 34.3143L35.2602 24.1886C35.912 23.3972 36.1447 22.3497 35.912 21.3487L33.0023 8.70911C32.7695 7.70819 32.1177 6.89348 31.1867 6.4512L19.4548 0.818071C19.0126 0.608575 18.5237 0.492188 18.0349 0.492188Z" fill="white"/>
<path id="Vector_3" d="M29.8368 20.5572C29.8135 20.5572 29.8135 20.5572 29.8368 20.5572H29.8135C29.7902 20.5572 29.767 20.5572 29.767 20.5339C29.7204 20.5339 29.6738 20.5106 29.6273 20.5106C29.4643 20.4874 29.3247 20.4641 29.185 20.4641C29.1152 20.4641 29.0454 20.4641 28.9522 20.4408H28.929C28.4401 20.3942 28.0444 20.3477 27.672 20.2313C27.509 20.1615 27.4625 20.0684 27.4159 19.9753C27.4159 19.952 27.3927 19.952 27.3927 19.9287L27.0901 19.8356C27.2297 18.7648 27.1832 17.6475 26.9271 16.5535C26.6711 15.4594 26.2288 14.4352 25.6236 13.5041L25.8563 13.2946V13.2481C25.8563 13.1317 25.8796 13.0153 25.9727 12.8989C26.2521 12.6429 26.6012 12.4334 27.0202 12.1773C27.0901 12.1308 27.1599 12.1075 27.2297 12.0609C27.3694 11.9911 27.4858 11.9213 27.6254 11.8282C27.6487 11.8049 27.6953 11.7816 27.7418 11.735C27.7651 11.7118 27.7884 11.7118 27.7884 11.6885C28.1143 11.4092 28.1841 10.9436 27.9513 10.641C27.8349 10.4781 27.6254 10.385 27.4159 10.385C27.2297 10.385 27.0668 10.4548 26.9038 10.5712C26.8806 10.5945 26.8806 10.5945 26.8573 10.6177C26.8107 10.641 26.7874 10.6876 26.7409 10.7108C26.6245 10.8272 26.5314 10.9203 26.4383 11.0367C26.3917 11.0833 26.3452 11.1531 26.2753 11.1997C25.9495 11.5488 25.6469 11.8282 25.3442 12.0377C25.2744 12.0842 25.2046 12.1075 25.1348 12.1075C25.0882 12.1075 25.0416 12.1075 24.9951 12.0842H24.9485L24.6692 12.2704C24.3666 11.9445 24.0407 11.6652 23.7148 11.3859C22.3182 10.2918 20.6189 9.6168 18.8499 9.45386L18.8266 9.15126C18.8033 9.12798 18.8033 9.12798 18.78 9.1047C18.7102 9.03487 18.6171 8.96504 18.5938 8.80209C18.5705 8.42966 18.6171 8.01066 18.6636 7.54511V7.52184C18.6636 7.452 18.6869 7.35889 18.7102 7.28906C18.7335 7.1494 18.7567 7.00973 18.78 6.84679V6.70713V6.6373C18.78 6.2183 18.4541 5.86914 18.0584 5.86914C17.8722 5.86914 17.686 5.96225 17.5463 6.10191C17.4067 6.24158 17.3368 6.4278 17.3368 6.6373V6.68385V6.82351C17.3368 6.98646 17.3601 7.12612 17.4067 7.26578C17.4299 7.33562 17.4299 7.40545 17.4532 7.49856V7.52184C17.4998 7.98739 17.5696 8.40638 17.523 8.77882C17.4998 8.94176 17.4067 9.01159 17.3368 9.08142C17.3135 9.1047 17.3135 9.1047 17.2903 9.12798L17.267 9.43058C16.848 9.47714 16.429 9.52369 16.01 9.6168C14.2176 10.0125 12.6348 10.9203 11.4011 12.2239L11.1683 12.0609H11.1218C11.0752 12.0609 11.0286 12.0842 10.9821 12.0842C10.9123 12.0842 10.8424 12.0609 10.7726 12.0144C10.47 11.8049 10.1674 11.5023 9.84149 11.1531C9.79494 11.1066 9.74838 11.0367 9.67855 10.9902C9.58544 10.8738 9.49233 10.7807 9.37595 10.6643C9.35267 10.641 9.30611 10.6177 9.25956 10.5712C9.23628 10.5479 9.213 10.5479 9.213 10.5246C9.07334 10.4082 8.88712 10.3384 8.7009 10.3384C8.4914 10.3384 8.28191 10.4315 8.16552 10.5945C7.93275 10.8971 8.00258 11.3626 8.32846 11.6419C8.35174 11.6419 8.35174 11.6652 8.37502 11.6652C8.42157 11.6885 8.44485 11.735 8.4914 11.7583C8.63107 11.8514 8.74746 11.9213 8.88712 11.9911C8.95695 12.0144 9.02678 12.0609 9.09662 12.1075C9.51561 12.3635 9.86477 12.573 10.1441 12.8291C10.2605 12.9455 10.2605 13.0619 10.2605 13.1782V13.2248L10.4933 13.4343C10.4467 13.5041 10.4002 13.5507 10.3769 13.6205C9.213 15.4594 8.77073 17.6242 9.07334 19.7658L8.77073 19.8589C8.77073 19.8821 8.74746 19.8821 8.74746 19.9054C8.7009 19.9985 8.63107 20.0916 8.4914 20.1615C8.14224 20.2779 7.72325 20.3244 7.23442 20.371H7.21115C7.14131 20.371 7.04821 20.371 6.97837 20.3942C6.83871 20.3942 6.69904 20.4175 6.5361 20.4408C6.48955 20.4408 6.44299 20.4641 6.39644 20.4641C6.37316 20.4641 6.34988 20.4641 6.32661 20.4874C5.90761 20.5805 5.65156 20.9762 5.72139 21.3486C5.79123 21.6745 6.09383 21.884 6.46627 21.884C6.5361 21.884 6.58266 21.884 6.65249 21.8607C6.67577 21.8607 6.69904 21.8607 6.69904 21.8374C6.7456 21.8374 6.79215 21.8142 6.83871 21.8142C7.00165 21.7676 7.11804 21.7211 7.2577 21.6512C7.32753 21.6279 7.39737 21.5814 7.4672 21.5581H7.49048C7.93275 21.3952 8.32846 21.2555 8.7009 21.209H8.74746C8.88712 21.209 8.98023 21.2788 9.05006 21.3253C9.07334 21.3253 9.07334 21.3486 9.09662 21.3486L9.4225 21.3021C9.98116 23.0246 11.0519 24.5609 12.4718 25.6782C12.7977 25.9343 13.1236 26.1438 13.4728 26.3533L13.3331 26.6559C13.3331 26.6791 13.3564 26.6791 13.3564 26.7024C13.4029 26.7955 13.4495 26.9119 13.4029 27.0749C13.2633 27.424 13.0538 27.7732 12.7977 28.1689V28.1922C12.7512 28.262 12.7046 28.3086 12.6581 28.3784C12.565 28.4948 12.4951 28.6112 12.402 28.7508C12.3787 28.7741 12.3555 28.8207 12.3322 28.8672C12.3322 28.8905 12.3089 28.9138 12.3089 28.9138C12.1227 29.3095 12.2623 29.7518 12.6115 29.9147C12.7046 29.9613 12.7977 29.9845 12.8908 29.9845C13.1702 29.9845 13.4495 29.7983 13.5892 29.5423C13.5892 29.519 13.6124 29.4957 13.6124 29.4957C13.6357 29.4492 13.659 29.4026 13.6823 29.3793C13.7521 29.2164 13.7754 29.1 13.8219 28.9603C13.8452 28.8905 13.8685 28.8207 13.8918 28.7508C14.0547 28.2853 14.1711 27.9128 14.3806 27.587C14.4737 27.4473 14.5901 27.424 14.6832 27.3775C14.7065 27.3775 14.7065 27.3775 14.7297 27.3542L14.8927 27.0516C15.9169 27.4473 17.0342 27.6568 18.1515 27.6568C18.8266 27.6568 19.5249 27.587 20.1767 27.424C20.5957 27.3309 20.9914 27.2145 21.3871 27.0749L21.5268 27.3309C21.55 27.3309 21.55 27.3309 21.5733 27.3542C21.6897 27.3775 21.7828 27.424 21.8759 27.5637C22.0621 27.8896 22.2018 28.2853 22.3647 28.7276V28.7508C22.388 28.8207 22.4113 28.8905 22.4346 28.9603C22.4811 29.1 22.5044 29.2397 22.5742 29.3793C22.5975 29.4259 22.6208 29.4492 22.6441 29.4957C22.6441 29.519 22.6673 29.5423 22.6673 29.5423C22.807 29.8216 23.0863 29.9845 23.3657 29.9845C23.4588 29.9845 23.5519 29.9613 23.645 29.9147C23.8079 29.8216 23.9476 29.6819 23.9942 29.4957C24.0407 29.3095 24.0407 29.1 23.9476 28.9138C23.9476 28.8905 23.9243 28.8905 23.9243 28.8672C23.901 28.8207 23.8778 28.7741 23.8545 28.7508C23.7847 28.6112 23.6916 28.4948 23.5984 28.3784C23.5519 28.3086 23.5053 28.262 23.4588 28.1922V28.1689C23.2027 27.7732 22.97 27.424 22.8536 27.0749C22.807 26.9119 22.8536 26.8188 22.8768 26.7024C22.8768 26.6791 22.9001 26.6791 22.9001 26.6559L22.7837 26.3765C24.0174 25.6549 25.0649 24.6307 25.8563 23.3738C26.2753 22.722 26.6012 22.0004 26.834 21.2788L27.1133 21.3253C27.1366 21.3253 27.1366 21.3021 27.1599 21.3021C27.253 21.2555 27.3228 21.1857 27.4625 21.1857H27.509C27.8815 21.2322 28.2772 21.3719 28.7195 21.5348H28.7428C28.8126 21.5581 28.8824 21.6047 28.9522 21.6279C29.0919 21.6978 29.2083 21.7443 29.3712 21.7909C29.4178 21.7909 29.4643 21.8142 29.5109 21.8142C29.5342 21.8142 29.5575 21.8142 29.5807 21.8374C29.6506 21.8607 29.6971 21.8607 29.767 21.8607C30.1161 21.8607 30.4187 21.6279 30.5118 21.3253C30.5118 21.046 30.2558 20.6736 29.8368 20.5572ZM19.0593 19.4166L18.0351 19.9054L17.0109 19.4166L16.7549 18.3226L17.4532 17.438H18.5938L19.2921 18.3226L19.0593 19.4166ZM25.1348 16.9957C25.321 17.7872 25.3675 18.5786 25.2977 19.3468L21.7363 18.3226C21.4104 18.2294 21.2241 17.9036 21.294 17.5777C21.3173 17.4846 21.3638 17.3915 21.4336 17.3216L24.2502 14.7844C24.6459 15.4362 24.9485 16.181 25.1348 16.9957ZM23.1329 13.3877L20.0836 15.5525C19.8275 15.7155 19.4783 15.6689 19.2688 15.4129C19.199 15.343 19.1757 15.2499 19.1525 15.1568L18.943 11.3626C20.5491 11.5488 22.0156 12.2704 23.1329 13.3877ZM16.3824 11.479C16.6385 11.4324 16.8713 11.3859 17.1273 11.3393L16.9178 15.0637C16.8945 15.3896 16.6385 15.6689 16.2893 15.6689C16.1962 15.6689 16.0798 15.6457 16.01 15.5991L12.9141 13.3877C13.8685 12.4334 15.0556 11.7816 16.3824 11.479ZM11.7968 14.7844L14.5668 17.2518C14.8229 17.4613 14.8461 17.857 14.6366 18.1131C14.5668 18.2062 14.4737 18.276 14.3573 18.2993L10.7493 19.3468C10.6096 17.7639 10.9588 16.1578 11.7968 14.7844ZM11.1683 21.0926L14.8694 20.4641C15.172 20.4408 15.4514 20.6503 15.5212 20.9529C15.5445 21.0926 15.5445 21.209 15.4979 21.3253L14.078 24.7471C12.7744 23.9091 11.727 22.6289 11.1683 21.0926ZM19.6646 25.7248C19.1292 25.8412 18.5938 25.911 18.0351 25.911C17.2204 25.911 16.429 25.7713 15.6841 25.5386L17.523 22.2099C17.7093 22.0004 18.0119 21.9073 18.2679 22.0469C18.3843 22.1168 18.4774 22.2099 18.5472 22.303L20.3396 25.5386C20.1301 25.6084 19.8973 25.6549 19.6646 25.7248ZM24.2037 22.4892C23.6217 23.4203 22.8536 24.1652 21.969 24.7471L20.5025 21.2322C20.4327 20.9529 20.5491 20.6503 20.8284 20.5106C20.9215 20.4641 21.0379 20.4408 21.1543 20.4408L24.8787 21.0693C24.739 21.5814 24.5063 22.0469 24.2037 22.4892Z" fill="white"/>
</g>
</g>
</svg>
