<svg width="36" height="36" viewBox="0 0 36 36" fill="none" xmlns="http://www.w3.org/2000/svg">
<g id="Ai generative-services">
<mask id="mask0_3264_11873" style="mask-type:alpha" maskUnits="userSpaceOnUse" x="0" y="0" width="36" height="36">
<rect id="Bounding box" width="36" height="36" fill="#D9D9D9"/>
</mask>
<g mask="url(#mask0_3264_11873)">
<path id="analytics" d="M12.1731 18C11.8538 18 11.5865 18.1077 11.3712 18.323C11.1558 18.5384 11.0481 18.8057 11.0481 19.1249V24C11.0481 24.3192 11.1558 24.5865 11.3712 24.8019C11.5865 25.0172 11.8538 25.1249 12.1731 25.1249C12.4923 25.1249 12.7596 25.0172 12.975 24.8019C13.1903 24.5865 13.298 24.3192 13.298 24V19.1249C13.298 18.8057 13.1903 18.5384 12.975 18.323C12.7596 18.1077 12.4923 18 12.1731 18ZM23.8269 10.5C23.5076 10.5 23.2403 10.6077 23.025 10.823C22.8096 11.0384 22.7019 11.3057 22.7019 11.6249V24C22.7019 24.3192 22.8096 24.5865 23.025 24.8019C23.2403 25.0172 23.5076 25.1249 23.8269 25.1249C24.1461 25.1249 24.4134 25.0172 24.6288 24.8019C24.8442 24.5865 24.9519 24.3192 24.9519 24V11.6249C24.9519 11.3057 24.8442 11.0384 24.6288 10.823C24.4134 10.6077 24.1461 10.5 23.8269 10.5ZM18 21C17.6807 21 17.4134 21.1077 17.1981 21.323C16.9827 21.5384 16.875 21.8057 16.875 22.1249V24C16.875 24.3192 16.9827 24.5865 17.1981 24.8019C17.4134 25.0172 17.6807 25.1249 18 25.1249C18.3192 25.1249 18.5865 25.0172 18.8019 24.8019C19.0172 24.5865 19.1249 24.3192 19.1249 24V22.1249C19.1249 21.8057 19.0172 21.5384 18.8019 21.323C18.5865 21.1077 18.3192 21 18 21ZM7.96155 30.7499C7.20385 30.7499 6.5625 30.4874 6.0375 29.9624C5.5125 29.4374 5.25 28.7961 5.25 28.0384V7.96155C5.25 7.20385 5.5125 6.5625 6.0375 6.0375C6.5625 5.5125 7.20385 5.25 7.96155 5.25H28.0384C28.7961 5.25 29.4374 5.5125 29.9624 6.0375C30.4874 6.5625 30.7499 7.20385 30.7499 7.96155V28.0384C30.7499 28.7961 30.4874 29.4374 29.9624 29.9624C29.4374 30.4874 28.7961 30.7499 28.0384 30.7499H7.96155ZM7.96155 28.5H28.0384C28.1538 28.5 28.2596 28.4519 28.3557 28.3557C28.4519 28.2596 28.5 28.1538 28.5 28.0384V7.96155C28.5 7.84615 28.4519 7.74036 28.3557 7.64419C28.2596 7.54804 28.1538 7.49996 28.0384 7.49996H7.96155C7.84615 7.49996 7.74036 7.54804 7.64419 7.64419C7.54804 7.74036 7.49996 7.84615 7.49996 7.96155V28.0384C7.49996 28.1538 7.54804 28.2596 7.64419 28.3557C7.74036 28.4519 7.84615 28.5 7.96155 28.5ZM18 17.6249C18.3192 17.6249 18.5865 17.5172 18.8019 17.3019C19.0172 17.0865 19.1249 16.8192 19.1249 16.5C19.1249 16.1807 19.0172 15.9134 18.8019 15.6981C18.5865 15.4827 18.3192 15.375 18 15.375C17.6807 15.375 17.4134 15.4827 17.1981 15.6981C16.9827 15.9134 16.875 16.1807 16.875 16.5C16.875 16.8192 16.9827 17.0865 17.1981 17.3019C17.4134 17.5172 17.6807 17.6249 18 17.6249Z" fill="white"/>
</g>
</g>
</svg>
