<svg width="25" height="24" viewBox="0 0 25 24" fill="none" xmlns="http://www.w3.org/2000/svg">
<g id="Healthcare Icons/chevron right/Default">
<path id="Vector" d="M15.5154 6.76155C15.623 6.88975 15.6795 7.02821 15.6846 7.17693C15.6897 7.32565 15.6333 7.45898 15.5154 7.57693L11.0769 12.0154L15.5307 16.4789C15.6384 16.5801 15.6897 16.7144 15.6846 16.8817C15.6795 17.049 15.623 17.1865 15.5154 17.2942C15.3872 17.4224 15.2513 17.484 15.1077 17.4788C14.9641 17.4737 14.8333 17.4122 14.7154 17.2942L9.95194 12.5212C9.87502 12.4442 9.81829 12.3657 9.78174 12.2856C9.7452 12.2054 9.72694 12.1154 9.72694 12.0154C9.72694 11.9218 9.7452 11.8333 9.78174 11.75C9.81829 11.6667 9.87502 11.5865 9.95194 11.5096L14.7 6.76155C14.8179 6.6436 14.9513 6.5888 15.1 6.59713C15.2487 6.60546 15.3872 6.66027 15.5154 6.76155Z" fill="currentColor"/>
</g>
</svg>
