<svg width="18" height="18" viewBox="0 0 18 18" fill="none" xmlns="http://www.w3.org/2000/svg">
<path id="Background" d="M17 9C17 10.0506 16.7931 11.0909 16.391 12.0615C15.989 13.0321 15.3997 13.914 14.6569 14.6569C13.914 15.3997 13.0321 15.989 12.0615 16.391C11.0909 16.7931 10.0506 17 9 17C7.94942 17 6.90914 16.7931 5.93853 16.391C4.96793 15.989 4.08601 15.3997 3.34314 14.6569C2.60028 13.914 2.011 13.0321 1.60896 12.0615C1.20693 11.0909 1 10.0506 1 9C1 7.94942 1.20693 6.90913 1.60896 5.93853C2.011 4.96793 2.60028 4.08601 3.34315 3.34314C4.08602 2.60027 4.96793 2.011 5.93854 1.60896C6.90914 1.20693 7.94943 0.999999 9 1" stroke="#F4F4F4" stroke-width="2" stroke-linecap="round" stroke-linejoin="round"/>
</svg>
