<svg width="57" height="25" viewBox="0 0 57 25" fill="none" xmlns="http://www.w3.org/2000/svg">
<g id="Loop" clip-path="url(#clip0_3266_11491)">
<g id="Clip path group">
<mask id="mask0_3266_11491" style="mask-type:luminance" maskUnits="userSpaceOnUse" x="0" y="0" width="57" height="28">
<g id="A">
<path id="Vector" d="M0.558105 0.311523H56.9667V27.204H0.558105V0.311523Z" fill="white"/>
</g>
</mask>
<g mask="url(#mask0_3266_11491)">
<g id="Group">
<path id="Vector_2" d="M12.7391 5.76428C11.6079 5.76428 10.4908 6.01695 9.46818 6.5041C8.44559 6.99124 7.54297 7.70073 6.82535 8.58148C6.10772 9.46222 5.59294 10.4923 5.31808 11.5975C5.04323 12.7027 5.01513 13.8556 5.23582 14.9731C5.53098 16.4678 6.25966 17.8408 7.32954 18.9184C8.39942 19.9961 9.76257 20.73 11.2466 21.0272C12.7306 21.3246 14.2689 21.172 15.6668 20.5888C17.0647 20.0056 18.2595 19.0179 19.1001 17.7507C19.9407 16.4836 20.3894 14.9938 20.3894 13.4698C20.3871 11.4269 19.5804 9.46826 18.1462 8.02369C16.712 6.57912 14.7674 5.76656 12.7391 5.76428ZM12.7391 19.255C11.6031 19.255 10.4926 18.9157 9.54807 18.28C8.60353 17.6443 7.86734 16.7408 7.43261 15.6837C6.99789 14.6266 6.88414 13.4634 7.10576 12.3412C7.32738 11.219 7.87442 10.1881 8.67769 9.37907C9.48095 8.57 10.5044 8.01903 11.6186 7.79574C12.4515 7.62886 13.3109 7.6501 14.1347 7.85796C14.9586 8.06581 15.7264 8.45509 16.3829 8.99777C17.0394 9.54044 17.5683 10.223 17.9314 10.9963C18.2945 11.7696 18.4828 12.6144 18.4828 13.4698C18.4813 15.0036 17.8756 16.4742 16.7988 17.5588C15.722 18.6433 14.262 19.2533 12.7391 19.255ZM29.7311 5.76428C28.218 5.76429 26.7389 6.21622 25.4809 7.06292C24.2228 7.90963 23.2422 9.11303 22.6632 10.521C22.0841 11.929 21.9326 13.4783 22.2278 14.9731C22.5229 16.4678 23.2515 17.8409 24.3214 18.9185C25.3914 19.9962 26.7546 20.73 28.2386 21.0272C29.7226 21.3246 31.2609 21.172 32.6588 20.5888C34.0567 20.0056 35.2515 19.0179 36.0921 17.7507C36.9327 16.4836 37.3814 14.9938 37.3814 13.4698C37.3792 11.4269 36.5724 9.46826 35.1382 8.02369C33.704 6.57912 31.7594 5.76656 29.7311 5.76428ZM29.7311 19.255C28.5951 19.255 27.4846 18.9157 26.5401 18.28C25.5955 17.6443 24.8593 16.7408 24.4246 15.6837C23.9899 14.6266 23.8761 13.4634 24.0977 12.3412C24.3194 11.2189 24.8664 10.1881 25.6697 9.37907C26.473 8.57 27.4964 8.01903 28.6106 7.79574C29.7248 7.57252 30.8796 7.6871 31.9292 8.12498C32.9787 8.56284 33.8757 9.30438 34.5069 10.2557C35.138 11.2071 35.4749 12.3256 35.4749 13.4698C35.4731 15.0036 34.8673 16.4739 33.7906 17.5585C32.7138 18.6431 31.2539 19.2532 29.7311 19.255ZM56.3786 15.4748L55.6997 15.151C55.2522 14.9506 54.803 14.752 54.34 14.5776C54.28 14.5543 54.2191 14.5336 54.1583 14.5103C54.172 14.3816 54.1831 14.2512 54.1926 14.1234C54.2132 13.8644 54.2149 13.6054 54.2183 13.3394C54.2151 13.0628 54.1953 12.7865 54.1591 12.5122C54.0148 11.4412 53.6576 10.4104 53.109 9.48147C52.5632 8.54557 51.8262 7.73711 50.9469 7.10955C50.0608 6.48656 49.0477 6.07063 47.9816 5.89207C46.9388 5.71757 45.8728 5.74188 44.8389 5.96374C43.7857 6.18798 42.8024 6.66686 41.9739 7.35909C41.8435 7.46702 41.7167 7.581 41.6001 7.69843V6.19687H39.6995V27.204H41.5975V9.89593C41.7201 9.73101 41.8487 9.57214 41.9841 9.42189C42.2662 9.10984 42.5789 8.8274 42.9177 8.57916C43.5875 8.09469 44.3579 7.76991 45.1706 7.62935C45.9982 7.48613 46.8443 7.49022 47.6704 7.64144C48.4773 7.78317 49.2424 8.10506 49.9096 8.58347C51.2264 9.53328 52.1231 11.1238 52.3229 12.7462C52.347 12.9445 52.3593 13.144 52.3597 13.3437C52.3546 13.5346 52.3503 13.7288 52.3357 13.9197C52.0511 13.8437 51.7648 13.7729 51.4733 13.7124C50.4806 13.5104 49.4416 13.3973 48.3605 13.5035C47.8033 13.5561 47.2556 13.6832 46.7317 13.8817C46.1682 14.0949 45.6518 14.4177 45.2118 14.8315C44.7471 15.273 44.4004 15.8254 44.2036 16.4375C44.0058 17.06 43.9762 17.7243 44.1179 18.3622C44.2628 19.0029 44.5781 19.5918 45.03 20.0658C45.4781 20.5312 46.0399 20.8697 46.6589 21.0475C47.859 21.3834 49.0678 21.1943 50.0922 20.722C51.1046 20.2505 51.9803 19.5258 52.6358 18.6169C53.1191 17.9498 53.4952 17.2102 53.7502 16.4254C54.1403 16.5748 54.5278 16.7389 54.9135 16.9072L55.5205 17.1879L55.878 17.3675L56.9667 15.7856L56.3786 15.4748ZM51.1055 17.4711C50.6368 18.1084 50.0182 18.6184 49.3053 18.9554C48.6194 19.2774 47.8376 19.3603 47.2058 19.1781C46.9133 19.0995 46.6477 18.9419 46.4378 18.7223C46.2278 18.5027 46.0813 18.2295 46.0142 17.9322C45.9506 17.6295 45.967 17.3153 46.0618 17.021C46.1565 16.7267 46.3263 16.4627 46.5543 16.2553C47.0258 15.802 47.7622 15.5386 48.562 15.4549C49.3618 15.3711 50.232 15.4549 51.0901 15.6276C51.3816 15.6863 51.6722 15.7597 51.9619 15.8383C51.7625 16.424 51.4736 16.9749 51.1055 17.4711ZM2.44411 17.6507V0.311523H0.558105V18.2715C0.558105 19.7394 1.55769 20.8023 2.56155 21.3117L3.82689 19.8257C3.02277 19.375 2.44411 18.8604 2.44411 17.6507Z" fill="#555555"/>
</g>
</g>
</g>
</g>
<defs>
<clipPath id="clip0_3266_11491">
<rect width="56.4086" height="26.8925" fill="white" transform="translate(0.556152 0.311523)"/>
</clipPath>
</defs>
</svg>
