<svg width="200" height="37" viewBox="0 0 200 37" fill="none" xmlns="http://www.w3.org/2000/svg">
<g id="Logo-Maisonette">
<path id="Vector" d="M15.3313 15.4526L21.9309 1.66855L29.2833 17.3774V17.6239L29.0144 17.0531L22.3884 2.98522L21.9361 2.02485L21.4837 2.98522L21.9361 3.19827C21.4837 2.98522 21.4837 2.98527 21.4836 2.98538L21.4834 2.98586L21.4825 2.98778L21.4789 2.99542L21.4647 3.02558L21.4093 3.14323L21.199 3.58974L20.4487 5.18343C19.8278 6.50233 19.0003 8.26089 18.1734 10.0195C17.3465 11.778 16.5203 13.5367 15.9021 14.8559C15.5931 15.5154 15.3359 16.0654 15.1566 16.4507C15.067 16.6432 14.9965 16.7953 14.9486 16.8996C14.9437 16.9103 14.9391 16.9205 14.9346 16.9302L8.25293 2.98226L7.79428 2.02483L7.34826 2.98821L7.802 3.19827C7.34826 2.98821 7.34824 2.98826 7.34819 2.98837L7.34797 2.98885L7.34708 2.99077L7.34354 2.99841L7.32958 3.02857L7.27512 3.14622L7.06843 3.59273L6.33092 5.18642C5.72066 6.50532 4.90722 8.26388 4.09447 10.0225C3.28174 11.781 2.46962 13.5397 1.86207 14.8589C1.55832 15.5184 1.30554 16.0684 1.12932 16.4537C1.04128 16.6463 0.972024 16.7984 0.924995 16.9027C0.901606 16.9545 0.883059 16.996 0.87028 17.0252C0.864143 17.0392 0.858016 17.0534 0.853067 17.0654C0.851101 17.0702 0.846567 17.0812 0.841988 17.0939L0.841851 17.0943C0.840263 17.0987 0.833591 17.1171 0.827525 17.1406C0.823655 17.1567 0.815166 17.2062 0.812261 17.2399C0.816894 17.3389 1.02381 17.6751 1.31164 17.7662H14.5411H15.3326H15.335H28.5621H29.2833V36H0.5V17.3771L7.83039 1.66991L14.4294 15.4526L14.8803 16.3945L15.3313 15.4526ZM15.7973 17.4497L15.7974 17.4496L15.7973 17.4497ZM14.315 35.87H14.815V35.37V26.6063V26.1063H14.315H12.7772H12.3048V25.9763H12.7772V25.4763L12.7772 25.9763H12.7774H12.7776H12.7779H12.7784H12.7789H12.7795H12.7802H12.781H12.7819H12.7829H12.784H12.7851H12.7864H12.7877H12.7892H12.7907H12.7923H12.794H12.7958H12.7977H12.7997H12.8018H12.8039H12.8061H12.8085H12.8109H12.8134H12.8159H12.8186H12.8213H12.8242H12.8271H12.8301H12.8332H12.8363H12.8396H12.8429H12.8463H12.8498H12.8534H12.857H12.8608H12.8646H12.8685H12.8724H12.8765H12.8806H12.8848H12.8891H12.8935H12.8979H12.9024H12.907H12.9117H12.9164H12.9212H12.9261H12.9311H12.9361H12.9412H12.9464H12.9517H12.957H12.9624H12.9679H12.9734H12.979H12.9847H12.9905H12.9963H13.0022H13.0081H13.0142H13.0203H13.0264H13.0327H13.039H13.0453H13.0518H13.0583H13.0648H13.0715H13.0782H13.0849H13.0917H13.0986H13.1056H13.1126H13.1197H13.1268H13.134H13.1413H13.1486H13.156H13.1634H13.1709H13.1785H13.1861H13.1938H13.2015H13.2093H13.2172H13.2251H13.2331H13.2411H13.2492H13.2573H13.2655H13.2738H13.2821H13.2904H13.2988H13.3073H13.3158H13.3244H13.333H13.3417H13.3504H13.3592H13.368H13.3769H13.3858H13.3948H13.4039H13.4129H13.4221H13.4312H13.4405H13.4497H13.4591H13.4684H13.4778H13.4873H13.4968H13.5063H13.5159H13.5256H13.5353H13.545H13.5548H13.5646H13.5744H13.5843H13.5943H13.6043H13.6143H13.6244H13.6345H13.6446H13.6548H13.665H13.6753H13.6856H13.6959H13.7063H13.7167H13.7272H13.7377H13.7482H13.7588H13.7694H13.78H13.7907H13.8014H13.8121H13.8229H13.8337H13.8445H13.8554H13.8663H13.8773H13.8882H13.8992H13.9102H13.9213H13.9324H13.9435H13.9547H13.9658H13.9771H13.9883H13.9996H14.0108H14.0222H14.0335H14.0449H14.0563H14.0677H14.0791H14.0906H14.1021H14.1136H14.1252H14.1368H14.1483H14.16H14.1716H14.1833H14.1949H14.2066H14.2184H14.2301H14.2419H14.2536H14.2654H14.2773H14.2891H14.301H14.3128H14.3247H14.3366H14.3486H14.3605H14.3725H14.3844H14.3964H14.4084H14.4204H14.4325H14.4445H14.4566H14.4687H14.4807H14.4928H14.5049H14.5171H14.5292H14.5413H14.5535H14.5657H14.5778H14.59H14.6022H14.6144H14.6266H14.6388H14.651H14.6633H14.6755H14.6877H14.7H14.7122H14.7245H14.7368H14.749H14.7613H14.7736H14.7858H14.7981H14.8104H14.8227H14.835H14.8473H14.8596H14.8718H14.8841H14.8964H14.9087H14.921H14.9333H14.9456H14.9579H14.9701H14.9824H14.9947H15.007H15.0192H15.0315H15.0438H15.056H15.0683H15.0805H15.0927H15.105H15.1172H15.1294H15.1416H15.1538H15.166H15.1782H15.1904H15.2025H15.2147H15.2269H15.239H15.2511H15.2632H15.2753H15.2874H15.2995H15.3116H15.3236H15.3356H15.3477H15.3597H15.3717H15.3837H15.3956H15.4076H15.4195H15.4314H15.4433H15.4552H15.4671H15.4789H15.4907H15.5025H15.5143H15.5261H15.5378H15.5496H15.5613H15.573H15.5846H15.5963H15.6079H15.6195H15.6311H15.6426H15.6542H15.6657H15.6772H15.6886H15.7H15.7115H15.7228H15.7342H15.7455H15.7568H15.7681H15.7793H15.7906H15.8018H15.8129H15.824H15.8351H15.8462H15.8573H15.8683H15.8793H15.8902H15.9011H15.912H15.9229H15.9337H15.9445H15.9552H15.9659H15.9766H15.9873H15.9979H16.0085H16.019H16.0295H16.04H16.0504H16.0608H16.0712H16.0815H16.0918H16.102H16.1122H16.1224H16.1325H16.1426H16.1526H16.1626H16.1726H16.1825H16.1924H16.2022H16.212H16.2217H16.2314H16.2411H16.2507H16.2603H16.2698H16.2793H16.2887H16.2981H16.3074H16.3167H16.3259H16.3351H16.3443H16.3534H16.3624H16.3714H16.3804H16.3893H16.3981H16.4069H16.4157H16.4244H16.433H16.4416H16.4502H16.4586H16.4671H16.4755H16.4838H16.4921H16.5003H16.5084H16.5165H16.5246H16.5326H16.5405H16.5484H16.5562H16.564H16.5717H16.5793H16.5869H16.5944H16.6019H16.6093H16.6166H16.6239H16.6312H16.6383H16.6454H16.6525H16.6594H16.6663H16.6732H16.68H16.6867H16.6933H16.6999H16.7065H16.7129H16.7193H16.7256H16.7319H16.7381H16.7442H16.7503H16.7563H16.7622H16.768H16.7738H16.7795H16.7852H16.7907H16.7962H16.8017H16.807H16.8123H16.8175H16.8227H16.8277H16.8327H16.8376H16.8425H16.8472H16.8519H16.8566H16.8611H16.8656H16.87H16.8743H16.8785H16.8827H16.8867H16.8907H16.8947H16.8985H16.9023H16.906H16.9096H16.9131H16.9165H16.9199H16.9232H16.9264H16.9295H16.9325H16.9355H16.9383H16.9411H16.9438H16.9464H16.9489H16.9514H16.9537H16.956H16.9582H16.9603H16.9623H16.9642H16.966H16.9678H16.9694H16.971H16.9725H16.9738H16.9751H16.9763H16.9774H16.9785H16.9794H16.9802H16.981H16.9816H16.9822H16.9827H16.983H16.9833H16.9835H17.4835V25.4763C17.4835 24.1412 16.2182 23.0621 14.8803 23.0621C13.8562 23.0621 12.8508 23.6337 12.4542 24.5785C12.8187 23.5321 13.8105 22.8168 14.9934 22.8168C16.4789 22.8168 17.682 24.0666 17.682 25.4763V35.37V35.87H18.182H28.0621H28.5621H28.6525V35.37H29.0621V18.3732V17.8732H28.5621H1.08549H0.585493V18.3732V35.37V35.87H1.08549H11.8048H12.2772H12.3048H12.7772H14.315ZM16.9609 35.87H17.4609V35.37V26.6063V26.1063H16.9609H15.4231H14.9231V26.6063V35.37V35.87H15.4231H16.9609ZM5.81192 29.1128H6.31192V28.6128V21.9939V21.4939H5.81192H4.27414H3.77414V21.9939V28.6128V29.1128H4.27414H5.81192ZM8.45782 29.1128H8.95782V28.6128V21.9939V21.4939H8.45782H6.92003H6.42003V21.9939V28.6128V29.1128H6.92003H8.45782ZM22.818 29.1128H23.318V28.6128V21.9939V21.4939H22.818H21.2802H20.7802V21.9939V28.6128V29.1128H21.2802H22.818ZM25.577 29.1128H26.077V28.6128V21.9939V21.4939H25.577H24.0392H23.5392V21.9939V28.6128V29.1128H24.0392H25.577ZM3.55296 21.3639H9.06592V29.3581H3.55296V21.3639ZM20.6495 21.3639H26.1625V29.3581H20.6495V21.3639Z" fill="#444444" stroke="#444444"/>
<path id="Vector_2" d="M51.6294 13.5722H52.3936V23.2086H51.7183V16.6449V14.7267L50.7819 16.4008L46.9894 23.1813H46.2754L42.5354 16.3768L41.5972 16.6176V23.1813H40.9219V13.5449H41.6975L46.2346 21.6616L46.671 22.4424L47.1075 21.6616L51.6294 13.5722ZM66.8567 15.0997L66.3883 14.0809L65.9435 15.1102L63.8693 19.9102L63.5675 20.6086H64.3283H68.6096H69.3899L69.0639 19.8997L66.8567 15.0997ZM63.3975 21.4631H63.0739L62.9414 21.7584L62.3027 23.1813H61.5914L65.928 13.5449H66.8238L71.1603 23.1813H70.449L69.8104 21.7584L69.6778 21.4631H69.3542H63.3975ZM126.985 16.0995V23.1813H126.309V13.5449H127.136L133.075 21.0728L133.968 22.204V20.7631V13.5449H134.643V23.1813H133.814L127.875 15.7864L126.985 14.6785V16.0995ZM145.679 21.9631V22.4631H146.179H150.466V23.1813H144.977V13.5449H150.466V14.2631H146.179H145.679V14.7631V17.4358V17.9358H146.179H150.466V18.7904H146.179H145.679V19.2904V21.9631ZM163.406 14.7631V14.2631H162.906H159.523V13.5449H167.99V14.2631H164.581H164.081V14.7631V23.1813H163.406V14.7631ZM180.132 14.7631V14.2631H179.632H176.25V13.5449H184.69V14.2631H181.307H180.807V14.7631V23.1813H180.132V14.7631ZM194.715 21.9631V22.4631H195.215H199.502V23.1813H194.013V13.5449H199.502V14.2631H195.215H194.715V14.7631V17.4358V17.9358H195.215H199.502V18.7904H195.215H194.715V19.2904V21.9631ZM80.89 13.5449H81.5653V23.1813H80.89V13.5449ZM92.5604 20.8453C92.7112 21.236 92.9185 21.5757 93.1945 21.8442C93.6209 22.259 94.1697 22.4631 94.8029 22.4631C95.3213 22.4631 95.8094 22.3469 96.1765 22.0468C96.5597 21.7334 96.7389 21.2791 96.7389 20.7631C96.7389 20.3974 96.6358 20.0801 96.4465 19.8115C96.2629 19.5511 96.0152 19.3603 95.7594 19.2112C95.393 18.9977 94.9248 18.8274 94.4881 18.6686C94.3467 18.6172 94.2086 18.567 94.0783 18.5169C93.5036 18.2958 93.0038 18.0553 92.6439 17.6946C92.3043 17.3542 92.0587 16.8753 92.0587 16.0995C92.0587 15.2327 92.3669 14.6081 92.8217 14.1962C93.2838 13.7778 93.9354 13.5449 94.67 13.5449C95.8579 13.5449 96.8707 14.2661 97.3112 15.5365L96.6715 15.8034C96.5222 15.4054 96.3092 15.0709 96.028 14.8136C95.6137 14.4344 95.0952 14.2631 94.537 14.2631C93.9842 14.2631 93.5006 14.431 93.1482 14.7436C92.794 15.0578 92.601 15.4945 92.601 15.9631C92.601 16.3289 92.7043 16.6459 92.8961 16.9128C93.0819 17.1712 93.3321 17.3571 93.5885 17.5004C93.9463 17.7001 94.4049 17.8587 94.8328 18.0067C94.9834 18.0588 95.1303 18.1096 95.2676 18.1604C95.8397 18.3721 96.3361 18.6081 96.6935 18.9715C97.0317 19.3154 97.2813 19.811 97.2813 20.6267C97.2813 21.5698 96.9679 22.1873 96.5245 22.5756C96.0702 22.9733 95.421 23.1813 94.67 23.1813C94.0206 23.1813 93.3888 23.0324 92.9007 22.6819C92.4853 22.3837 92.1358 21.9129 91.977 21.1667L92.5604 20.8453ZM107.652 18.3631C107.652 20.7671 109.446 22.4631 111.662 22.4631C112.822 22.4631 113.833 22.0491 114.553 21.3099C115.273 20.5717 115.673 19.5413 115.673 18.3631C115.673 15.9591 113.879 14.2631 111.662 14.2631C110.503 14.2631 109.492 14.6771 108.772 15.4163C108.052 16.1546 107.652 17.1849 107.652 18.3631ZM106.977 18.3631C106.977 15.5727 108.972 13.5449 111.662 13.5449C114.353 13.5449 116.348 15.5727 116.348 18.3631C116.348 21.1535 114.353 23.1813 111.662 23.1813C108.972 23.1813 106.977 21.1535 106.977 18.3631Z" fill="#444444" stroke="#444444"/>
</g>
</svg>
