<svg xmlns="http://www.w3.org/2000/svg" width="36" height="36" viewBox="0 0 36 36" fill="none">
<mask id="mask0_4701_1439" style="mask-type:alpha" maskUnits="userSpaceOnUse" x="0" y="0" width="36" height="36">
<rect width="36" height="36" fill="#D9D9D9"/>
</mask>
<g mask="url(#mask0_4701_1439)">
<path d="M10.9615 33.7499C10.2038 33.7499 9.5625 33.4874 9.0375 32.9624C8.5125 32.4374 8.25 31.7961 8.25 31.0384V4.96155C8.25 4.20385 8.5125 3.5625 9.0375 3.0375C9.5625 2.5125 10.2038 2.25 10.9615 2.25H25.0384C25.7961 2.25 26.4374 2.5125 26.9624 3.0375C27.4874 3.5625 27.7499 4.20385 27.7499 4.96155V31.0384C27.7499 31.7961 27.4874 32.4374 26.9624 32.9624C26.4374 33.4874 25.7961 33.7499 25.0384 33.7499L10.9615 33.7499ZM10.5 26.6538V31.0384C10.5 31.1538 10.548 31.2596 10.6442 31.3558C10.7404 31.4519 10.8461 31.5 10.9615 31.5H25.0384C25.1538 31.5 25.2596 31.4519 25.3557 31.3558C25.4519 31.2596 25.5 31.1538 25.5 31.0384V26.6538H10.5ZM18 30.4038C18.3673 30.4038 18.6802 30.2745 18.9389 30.0158C19.1975 29.7572 19.3269 29.4442 19.3269 29.0769C19.3269 28.7096 19.1975 28.3966 18.9389 28.138C18.6802 27.8793 18.3673 27.75 18 27.75C17.6327 27.75 17.3197 27.8793 17.061 28.1379C16.8024 28.3966 16.6731 28.7096 16.6731 29.0769C16.6731 29.4442 16.8024 29.7571 17.061 30.0158C17.3197 30.2745 17.6327 30.4038 18 30.4038ZM10.5 24.4038H25.5V8.62493H10.5V24.4038ZM10.5 6.375H25.5V4.96155C25.5 4.84615 25.4519 4.74036 25.3557 4.64419C25.2596 4.54804 25.1538 4.49996 25.0384 4.49996H10.9615C10.8461 4.49996 10.7404 4.54804 10.6442 4.64419C10.548 4.74036 10.5 4.84615 10.5 4.96155V6.375Z" fill="white"/>
</g>
</svg>