<svg width="36" height="36" viewBox="0 0 36 36" fill="none" xmlns="http://www.w3.org/2000/svg">
<g id="Icons- Healthcare">
<path id="Vector" d="M4.30895 30C3.67653 30 3.13361 29.7763 2.68019 29.329C2.22673 28.8817 2 28.3462 2 27.7223V20.6278C2 20.0039 2.22672 19.4683 2.68016 19.021C3.13359 18.5737 3.67651 18.3501 4.30892 18.3501H4.95239V11.9687H4.81045C4.42499 11.8666 4.10626 11.6576 3.85425 11.3417C3.60221 11.0258 3.47619 10.6517 3.47619 10.2194V7.8576C3.47619 7.34575 3.66032 6.90819 4.02859 6.54493C4.39685 6.18164 4.84041 6 5.35926 6H13.4026C13.9215 6 14.365 6.18164 14.7333 6.54493C15.1015 6.90819 15.2857 7.34575 15.2857 7.8576V10.2194C15.2857 10.6517 15.1597 11.0258 14.9076 11.3417C14.6556 11.6576 14.3369 11.8666 13.9514 11.9687H13.8095V18.3501H21.1905V11.9687H21.0486C20.6632 11.8666 20.3444 11.6576 20.0924 11.3417C19.8403 11.0258 19.7143 10.6517 19.7143 10.2194V7.8576C19.7143 7.34575 19.8985 6.90819 20.2667 6.54493C20.635 6.18164 21.0785 6 21.5974 6H29.6407C30.1596 6 30.6032 6.18164 30.9714 6.54493C31.3397 6.90819 31.5238 7.34575 31.5238 7.8576V10.2194C31.5238 10.6517 31.3978 11.0258 31.1458 11.3417C30.8937 11.6576 30.575 11.8666 30.1895 11.9687H30.0476V18.3501H30.6911C31.3235 18.3501 31.8664 18.5737 32.3198 19.021C32.7733 19.4683 33 20.0039 33 20.6278V27.7223C33 28.3462 32.7733 28.8817 32.3198 29.329C31.8664 29.7763 31.3235 30 30.6911 30H4.30895ZM21.569 10.2474H29.6692V7.8296H21.569V10.2474ZM5.33088 10.2474H13.4311V7.8296H5.33088V10.2474ZM23.0452 18.3501H28.193V12.077H23.0452V18.3501ZM6.80708 18.3501H11.9549V12.077H6.80708V18.3501ZM4.30895 28.1704H30.6911C30.8236 28.1704 30.9324 28.1284 31.0176 28.0444C31.1028 27.9603 31.1454 27.853 31.1454 27.7223V20.6278C31.1454 20.4971 31.1028 20.3897 31.0176 20.3057C30.9324 20.2217 30.8236 20.1797 30.6911 20.1797H4.30895C4.17646 20.1797 4.06763 20.2217 3.98245 20.3057C3.89728 20.3897 3.85469 20.4971 3.85469 20.6278V27.7223C3.85469 27.853 3.89728 27.9603 3.98245 28.0444C4.06763 28.1284 4.17646 28.1704 4.30895 28.1704Z" fill="#2C74D6"/>
</g>
</svg>
