<svg width="36" height="36" viewBox="0 0 36 36" fill="none" xmlns="http://www.w3.org/2000/svg">
<g id="Icons- DevOps">
<path id="Vector" d="M3.68115 14.6294V8.0979C3.68115 7.5275 3.89571 7.03526 4.32482 6.62117C4.75394 6.20706 5.26403 6 5.8551 6H30.1449C30.736 6 31.2461 6.20706 31.6752 6.62117C32.1043 7.03526 32.3188 7.5275 32.3188 8.0979V14.6294H30.6087V8.0979C30.6087 7.986 30.5604 7.88343 30.4638 7.79019C30.3672 7.69693 30.2609 7.6503 30.1449 7.6503H5.8551C5.73914 7.6503 5.63284 7.69693 5.5362 7.79019C5.43959 7.88343 5.39128 7.986 5.39128 8.0979V14.6294H3.68115ZM5.8551 26.3636C5.26403 26.3636 4.75394 26.1566 4.32482 25.7425C3.89571 25.3284 3.68115 24.8362 3.68115 24.2657V16.2797H5.39128V24.2657C5.39128 24.3777 5.43959 24.4802 5.5362 24.5735C5.63284 24.6667 5.73914 24.7133 5.8551 24.7133H30.1449C30.2609 24.7133 30.3672 24.6667 30.4638 24.5735C30.5604 24.4802 30.6087 24.3777 30.6087 24.2657V16.2797H32.3188V24.2657C32.3188 24.8362 32.1043 25.3284 31.6752 25.7425C31.2461 26.1566 30.736 26.3636 30.1449 26.3636H5.8551ZM2.85506 30C2.6123 30 2.40909 29.9204 2.24546 29.7612C2.08182 29.602 2 29.4043 2 29.1682C2 28.9321 2.08182 28.7366 2.24546 28.5818C2.40909 28.427 2.6123 28.3497 2.85506 28.3497H33.1449C33.3877 28.3497 33.5909 28.4293 33.7545 28.5885C33.9182 28.7476 34 28.9453 34 29.1814C34 29.4176 33.9182 29.6131 33.7545 29.7678C33.5909 29.9226 33.3877 30 33.1449 30H2.85506ZM3.68115 16.2797V14.6294H11.971C12.1255 14.6294 12.2724 14.6662 12.4115 14.7399C12.5507 14.8135 12.6608 14.924 12.742 15.0713L15.0754 19.6196L20.229 10.744C20.3005 10.5967 20.4115 10.4946 20.562 10.4377C20.7125 10.3809 20.8652 10.3524 21.0201 10.3524C21.175 10.3524 21.3234 10.3809 21.4654 10.4377C21.6073 10.4946 21.714 10.5921 21.7855 10.7301L23.7768 14.6294H32.3188V16.2797H23.3971C23.1899 16.2797 22.9969 16.2289 22.8182 16.1273C22.6394 16.0256 22.5029 15.8872 22.4087 15.7119L20.9391 12.8531L15.771 21.642C15.6968 21.794 15.5879 21.908 15.4443 21.984C15.3007 22.0599 15.1502 22.0979 14.9927 22.0979C14.8352 22.0979 14.6865 22.0611 14.5464 21.9874C14.4063 21.9138 14.2957 21.8033 14.2145 21.656L11.429 16.2797H3.68115Z" fill="#2C74D6"/>
</g>
</svg>
