<svg width="36" height="36" viewBox="0 0 36 36" fill="none" xmlns="http://www.w3.org/2000/svg">
<g id="Icons- Data science">
<path id="Union" d="M27.5787 13.0721C28.0607 13.0721 28.4649 12.9046 28.7913 12.5697C29.1176 12.2347 29.2807 11.8197 29.2807 11.3246C29.2807 10.8295 29.1177 10.4144 28.7916 10.0793C28.4655 9.74412 28.0614 9.57655 27.5793 9.57655C27.0972 9.57655 26.693 9.74402 26.3667 10.079C26.0404 10.4139 25.8772 10.8289 25.8772 11.324C25.8772 11.8191 26.0403 12.2342 26.3664 12.5693C26.6925 12.9045 27.0966 13.0721 27.5787 13.0721ZM27.5781 14.8378C26.6085 14.8378 25.7961 14.5014 25.1409 13.8286C24.4856 13.1558 24.1579 12.3221 24.1579 11.3275C24.1579 10.3524 24.4855 9.52252 25.1406 8.83783C25.7957 8.15316 26.6075 7.81083 27.5759 7.81083C28.5253 7.81083 29.3333 8.15251 30 8.83586C30.6667 9.51922 31 10.349 31 11.3252C31 12.321 30.6673 13.1554 30.0019 13.8283C29.3365 14.5013 28.5286 14.8378 27.5781 14.8378ZM18.0025 11.6666C18.6576 11.6666 19.2186 11.4327 19.6855 10.9649C20.1525 10.497 20.386 9.91321 20.386 9.21357C20.386 8.54084 20.154 7.96468 19.6899 7.48509C19.2259 7.00551 18.6625 6.76573 17.9996 6.76573C17.3203 6.76573 16.7529 7.004 16.2974 7.48056C15.8418 7.95713 15.614 8.53581 15.614 9.21659C15.614 9.91421 15.8418 10.497 16.2974 10.9649C16.7529 11.4327 17.3213 11.6666 18.0025 11.6666ZM18.0008 13.4324C16.8476 13.4324 15.875 13.0262 15.0829 12.214C14.2908 11.4017 13.8948 10.4039 13.8948 9.22056C13.8948 8.0573 14.2902 7.06305 15.0811 6.23782C15.872 5.41261 16.8436 5 17.9958 5C19.1284 5 20.0965 5.4115 20.9 6.23451C21.7035 7.0575 22.1052 8.05112 22.1052 9.21536C22.1052 10.3997 21.7046 11.3986 20.9032 12.2121C20.1019 13.0256 19.1344 13.4324 18.0008 13.4324ZM11.8245 19.5811C11.8245 20.4042 12.2222 21.3385 13.0175 22.384C13.8128 23.4295 15.3903 25.0508 17.75 27.2478L18 27.4775L18.2764 27.2072C20.5508 25.0885 22.1026 23.5016 22.9317 22.4467C23.7609 21.3917 24.1755 20.4365 24.1755 19.5811C24.1755 18.8314 23.937 18.2018 23.4599 17.6923C22.9828 17.1826 22.3944 16.9278 21.6947 16.9278C21.279 16.9278 20.8877 17.029 20.5207 17.2315C20.1537 17.4339 19.8231 17.6867 19.5289 17.99L18.0561 19.6053H17.9368L16.4368 17.99C16.1427 17.6867 15.8142 17.4339 15.4513 17.2315C15.0884 17.029 14.7051 16.9278 14.3011 16.9278C13.5866 16.9278 12.9951 17.1838 12.5269 17.6958C12.0586 18.2078 11.8245 18.8362 11.8245 19.5811ZM10.1053 19.5811C10.1053 18.4297 10.5221 17.4054 11.3557 16.5081C12.1893 15.6108 13.1725 15.1621 14.3053 15.1621C14.9775 15.1621 15.6229 15.3261 16.2416 15.654C16.8603 15.9819 17.388 16.418 17.8247 16.9621L17.9958 17.1649L18.1668 16.9486C18.6123 16.4135 19.1396 15.9819 19.7487 15.654C20.3578 15.3261 21.0065 15.1621 21.6947 15.1621C22.8094 15.1621 23.788 15.6125 24.6307 16.5133C25.4734 17.4141 25.8948 18.4367 25.8948 19.5811C25.8948 20.7504 25.4667 21.9225 24.6105 23.0973C23.7544 24.2721 22.0439 26.0639 19.479 28.473L18 29.8648L16.5474 28.5135C13.9193 26.045 12.1886 24.2338 11.3553 23.0797C10.5219 21.9256 10.1053 20.7594 10.1053 19.5811ZM8.42072 13.0721C8.90279 13.0721 9.30699 12.9046 9.63332 12.5697C9.95964 12.2347 10.1228 11.8197 10.1228 11.3246C10.1228 10.8295 9.95974 10.4144 9.63362 10.0793C9.3075 9.74412 8.90341 9.57655 8.42134 9.57655C7.93926 9.57655 7.53506 9.74402 7.20874 10.079C6.88242 10.4139 6.71925 10.8289 6.71925 11.324C6.71925 11.8191 6.88231 12.2342 7.20843 12.5693C7.53455 12.9045 7.93865 13.0721 8.42072 13.0721ZM18.1026 31V29.2343H29.2807V19.1441C29.2807 19.027 29.2391 18.9257 29.1557 18.8401C29.0724 18.7545 28.9737 18.7117 28.8596 18.7117H24.8983V16.9459H28.8596C29.4437 16.9459 29.9465 17.1624 30.3679 17.5952C30.7893 18.028 31 18.5443 31 19.1441V29.9C31 30.2143 30.8974 30.4762 30.6923 30.6857C30.4872 30.8952 30.233 31 29.9298 31H18.1026ZM6.71925 29.2343H18.1026V31H6.07018C5.76696 31 5.51279 30.8947 5.30769 30.684C5.10256 30.4733 5 30.2123 5 29.9009V19.1487C5 18.5436 5.20651 18.0252 5.61952 17.5935C6.03253 17.1618 6.53948 16.9459 7.14035 16.9459H11.0877V18.7117H7.14035C7.01754 18.7117 6.91665 18.7545 6.83769 18.8401C6.75873 18.9257 6.71925 19.027 6.71925 19.1441V29.2343ZM8.4201 14.8378C7.45055 14.8378 6.63815 14.5014 5.98291 13.8286C5.32763 13.1558 5 12.3221 5 11.3275C5 10.3524 5.32756 9.52252 5.98267 8.83783C6.63778 8.15316 7.44954 7.81083 8.41795 7.81083C9.36736 7.81083 10.1754 8.15251 10.842 8.83586C11.5087 9.51922 11.8421 10.349 11.8421 11.3252C11.8421 12.321 11.5094 13.1554 10.844 13.8283C10.1786 14.5013 9.37064 14.8378 8.4201 14.8378Z" fill="#2C74D6"/>
</g>
</svg>
