<svg width="36" height="36" viewBox="0 0 36 36" fill="none" xmlns="http://www.w3.org/2000/svg">
<g id="Web devlopment">
<mask id="mask0_3227_98758" style="mask-type:alpha" maskUnits="userSpaceOnUse" x="0" y="0" width="36" height="36">
<rect id="Bounding box" width="36" height="36" fill="#D9D9D9"/>
</mask>
<g mask="url(#mask0_3227_98758)">
<path id="rocket_launch" d="M10.9512 17.7749C11.3588 16.9595 11.7934 16.174 12.255 15.4182C12.7165 14.6624 13.2252 13.9162 13.781 13.1797L11.58 12.7384C11.5031 12.7191 11.4286 12.7215 11.3565 12.7456C11.2843 12.7696 11.2194 12.8104 11.1617 12.8681L7.7665 16.2634C7.73765 16.2922 7.72804 16.3259 7.73766 16.3643C7.74726 16.4028 7.7713 16.4316 7.80978 16.4509L10.9512 17.7749ZM28.579 7.0153C26.5501 7.12297 24.5996 7.63306 22.7275 8.54556C20.8554 9.45806 19.1261 10.7076 17.5396 12.2941C16.4607 13.3729 15.5088 14.5124 14.6838 15.7124C13.8588 16.9124 13.2126 18.071 12.7453 19.1884L17.0059 23.4259C18.1232 22.9585 19.2843 22.3124 20.4891 21.4874C21.6939 20.6624 22.8357 19.7104 23.9146 18.6316C25.5011 17.0451 26.7506 15.322 27.6631 13.4624C28.5756 11.6028 29.0857 9.65855 29.1934 7.6297C29.1934 7.54892 29.1819 7.47056 29.1588 7.39461C29.1357 7.31864 29.0915 7.24796 29.0261 7.18259C28.9607 7.11721 28.89 7.07299 28.8141 7.04991C28.7381 7.02684 28.6598 7.0153 28.579 7.0153ZM20.4444 15.7412C19.9367 15.2335 19.6828 14.6162 19.6828 13.8893C19.6828 13.1624 19.9367 12.5451 20.4444 12.0374C20.9521 11.5297 21.5732 11.2759 22.3078 11.2759C23.0424 11.2759 23.6636 11.5297 24.1713 12.0374C24.679 12.5451 24.9328 13.1624 24.9328 13.8893C24.9328 14.6162 24.679 15.2335 24.1713 15.7412C23.6636 16.2489 23.0424 16.5028 22.3078 16.5028C21.5732 16.5028 20.9521 16.2489 20.4444 15.7412ZM18.4193 25.2344L19.7434 28.3989C19.7626 28.4374 19.7914 28.459 19.8299 28.4638C19.8684 28.4686 19.902 28.4566 19.9309 28.4278L23.3261 25.0469C23.3838 24.9893 23.4247 24.9244 23.4487 24.8522C23.4727 24.7801 23.4751 24.7056 23.4559 24.6287L23.0146 22.4277C22.278 22.9835 21.5319 23.4883 20.7761 23.9422C20.0203 24.396 19.2347 24.8268 18.4193 25.2344ZM31.3366 6.30569C31.4308 8.93069 30.9688 11.4244 29.9506 13.7869C28.9323 16.1494 27.3655 18.3883 25.2501 20.5037C25.202 20.5517 25.1563 20.595 25.1131 20.6335C25.0698 20.672 25.0241 20.7152 24.976 20.7633L25.6684 24.1729C25.7587 24.6248 25.7361 25.0643 25.6006 25.4912C25.465 25.9181 25.2366 26.2921 24.9155 26.6133L20.4645 31.0642C20.128 31.4007 19.7213 31.5277 19.2444 31.445C18.7674 31.3623 18.4386 31.095 18.2578 30.6431L16.2155 25.8431L10.3512 19.9643L5.55119 17.922C5.09926 17.7412 4.83051 17.4124 4.74494 16.9355C4.65936 16.4585 4.78485 16.0518 5.1214 15.7153L9.57231 11.2643C9.89346 10.9432 10.2714 10.7172 10.706 10.5865C11.1406 10.4557 11.5838 10.4355 12.0358 10.5259L15.4454 11.2182C15.4935 11.1701 15.5343 11.1268 15.568 11.0884C15.6016 11.0499 15.6425 11.0066 15.6906 10.9586C17.8059 8.8432 20.0449 7.27397 22.4073 6.2509C24.7698 5.22782 27.2636 4.7634 29.8885 4.85762C30.0693 4.87302 30.2477 4.91726 30.4236 4.99034C30.5996 5.06341 30.7578 5.17014 30.8982 5.31051C31.0386 5.45091 31.1429 5.60669 31.2111 5.77784C31.2794 5.94899 31.3212 6.12494 31.3366 6.30569ZM6.78003 24.1066C7.51078 23.3759 8.40163 23.009 9.45258 23.0062C10.5035 23.0033 11.3944 23.3672 12.1251 24.098C12.8559 24.8287 13.2174 25.7196 13.2097 26.7705C13.202 27.8215 12.8328 28.7123 12.1021 29.4431C11.5348 30.0104 10.604 30.4974 9.30978 30.9041C8.01555 31.3108 6.355 31.6363 4.32812 31.8805C4.57235 29.8537 4.90023 28.1931 5.31175 26.8989C5.7233 25.6047 6.21273 24.6739 6.78003 24.1066ZM8.38383 25.7018C8.1146 25.971 7.85499 26.4345 7.60499 27.0922C7.35499 27.7499 7.18479 28.421 7.09439 29.1056C7.77901 29.0152 8.45018 28.8465 9.10788 28.5994C9.76555 28.3523 10.229 28.0941 10.4983 27.8248C10.7983 27.5248 10.956 27.1647 10.9713 26.7446C10.9867 26.3244 10.8444 25.9643 10.5444 25.6643C10.2444 25.3643 9.8843 25.2205 9.46413 25.233C9.04392 25.2455 8.68383 25.4018 8.38383 25.7018Z" fill="white"/>
</g>
</g>
</svg>
