<svg width="36" height="36" viewBox="0 0 36 36" fill="none" xmlns="http://www.w3.org/2000/svg">
<g id="Ai generative-services">
<mask id="mask0_3264_118095" style="mask-type:alpha" maskUnits="userSpaceOnUse" x="0" y="0" width="36" height="36">
<rect id="Bounding box" width="36" height="36" fill="#D9D9D9"/>
</mask>
<g mask="url(#mask0_3264_118095)">
<path id="subtitles" d="M6.46155 29.2499C5.70385 29.2499 5.0625 28.9874 4.5375 28.4624C4.0125 27.9374 3.75 27.2961 3.75 26.5384V9.46155C3.75 8.70385 4.0125 8.0625 4.5375 7.5375C5.0625 7.0125 5.70385 6.75 6.46155 6.75H29.5384C30.2961 6.75 30.9374 7.0125 31.4624 7.5375C31.9874 8.0625 32.2499 8.70385 32.2499 9.46155V26.5384C32.2499 27.2961 31.9874 27.9374 31.4624 28.4624C30.9374 28.9874 30.2961 29.2499 29.5384 29.2499H6.46155ZM6.46155 27H29.5384C29.6538 27 29.7596 26.9519 29.8557 26.8557C29.9519 26.7596 30 26.6538 30 26.5384V9.46155C30 9.34615 29.9519 9.24036 29.8557 9.14419C29.7596 9.04804 29.6538 8.99996 29.5384 8.99996H6.46155C6.34615 8.99996 6.24036 9.04804 6.14419 9.14419C6.04804 9.24036 5.99996 9.34615 5.99996 9.46155V26.5384C5.99996 26.6538 6.04804 26.7596 6.14419 26.8557C6.24036 26.9519 6.34615 27 6.46155 27ZM10.5577 23.5673H20.1923C20.5111 23.5673 20.7782 23.4594 20.9939 23.2437C21.2095 23.0279 21.3173 22.7606 21.3173 22.4418C21.3173 22.1229 21.2095 21.8558 20.9939 21.6404C20.7782 21.425 20.5111 21.3173 20.1923 21.3173H10.5577C10.2389 21.3173 9.97174 21.4252 9.75611 21.6409C9.54049 21.8566 9.43268 22.1239 9.43268 22.4428C9.43268 22.7617 9.54049 23.0288 9.75611 23.2442C9.97174 23.4596 10.2389 23.5673 10.5577 23.5673ZM15.8076 17.8846H25.4423C25.761 17.8846 26.0282 17.7767 26.2438 17.561C26.4594 17.3453 26.5673 17.078 26.5673 16.7591C26.5673 16.4402 26.4594 16.1731 26.2438 15.9577C26.0282 15.7423 25.761 15.6346 25.4423 15.6346H15.8076C15.4889 15.6346 15.2217 15.7425 15.0061 15.9582C14.7905 16.1739 14.6826 16.4412 14.6826 16.7601C14.6826 17.079 14.7905 17.3461 15.0061 17.5615C15.2217 17.7769 15.4889 17.8846 15.8076 17.8846ZM10.5582 17.8846C10.877 17.8846 11.1442 17.7767 11.3596 17.561C11.575 17.3453 11.6826 17.078 11.6826 16.7591C11.6826 16.4402 11.5748 16.1731 11.359 15.9577C11.1434 15.7423 10.8761 15.6346 10.5572 15.6346C10.2383 15.6346 9.97114 15.7425 9.75574 15.9582C9.54036 16.1739 9.43268 16.4412 9.43268 16.7601C9.43268 17.079 9.54054 17.3461 9.75626 17.5615C9.97199 17.7769 10.2393 17.8846 10.5582 17.8846ZM25.4428 23.5673C25.7617 23.5673 26.0288 23.4594 26.2442 23.2437C26.4596 23.0279 26.5673 22.7606 26.5673 22.4418C26.5673 22.1229 26.4594 21.8558 26.2437 21.6404C26.0279 21.425 25.7606 21.3173 25.4418 21.3173C25.1229 21.3173 24.8558 21.4252 24.6404 21.6409C24.425 21.8566 24.3173 22.1239 24.3173 22.4428C24.3173 22.7617 24.4252 23.0288 24.6409 23.2442C24.8566 23.4596 25.1239 23.5673 25.4428 23.5673Z" fill="white"/>
</g>
</g>
</svg>
