<svg width="36" height="36" viewBox="0 0 36 36" fill="none" xmlns="http://www.w3.org/2000/svg">
<g id="Icons- About Us">
<path id="Vector" d="M9.09364 31.125C8.85044 31.125 8.64904 31.0434 8.48944 30.8803C8.32981 30.7172 8.25 30.5151 8.25 30.274V7.83179C8.25 7.52529 8.35367 7.26838 8.56102 7.06106C8.76835 6.85371 9.02526 6.75003 9.33176 6.75003H19.0586C19.3008 6.75003 19.5253 6.82888 19.7321 6.98658C19.9389 7.14428 20.0673 7.35582 20.1173 7.62119L20.6134 9.91736H28.1682C28.4747 9.91736 28.7316 10.0205 28.9389 10.2267C29.1462 10.4329 29.2499 10.6885 29.2499 10.9933V21.5195C29.2499 21.815 29.1462 22.0681 28.9389 22.2789C28.7316 22.4897 28.4747 22.5951 28.1682 22.5951H21.6461C21.3911 22.5951 21.1634 22.5201 20.9631 22.3701C20.7627 22.2201 20.6375 22.0124 20.5875 21.7471L20.0769 19.4509H9.9519V30.274C9.9519 30.5151 9.86965 30.7172 9.70515 30.8803C9.54065 31.0434 9.33681 31.125 9.09364 31.125ZM22.2259 20.8933H27.548V11.6192H19.148L18.4644 8.45193H9.9519V17.749H21.5423L22.2259 20.8933Z" fill="white"/>
</g>
</svg>
