<svg xmlns="http://www.w3.org/2000/svg" width="24" height="24" viewBox="0 0 24 24" fill="none">
  <g clip-path="url(#clip0_4355_7310)">
    <path d="M20.9706 3.95437C21.0068 3.82608 21.0081 3.69047 20.9744 3.5615C20.9408 3.43253 20.8733 3.31487 20.7791 3.22062C20.6848 3.12637 20.5672 3.05893 20.4382 3.02527C20.3092 2.9916 20.1736 2.99291 20.0453 3.02906L2.04531 8.48719C1.89836 8.52866 1.76756 8.614 1.67041 8.7318C1.57326 8.84961 1.51438 8.99425 1.50164 9.14642C1.4889 9.29858 1.52291 9.45101 1.59912 9.58332C1.67533 9.71564 1.79011 9.82154 1.92813 9.88687L9.955 13.6875C10.1113 13.7616 10.2371 13.8875 10.3113 14.0437L14.1128 22.0697C14.1781 22.2077 14.284 22.3225 14.4164 22.3987C14.5487 22.4749 14.7011 22.5089 14.8533 22.4962C15.0054 22.4834 15.1501 22.4246 15.2679 22.3274C15.3857 22.2302 15.471 22.0995 15.5125 21.9525L20.9706 3.95437Z" stroke="white" stroke-width="1.6" stroke-linecap="round" stroke-linejoin="round"/>
    <path d="M10.1641 13.8356L14.9997 9" stroke="white" stroke-width="1.6" stroke-linecap="round" stroke-linejoin="round"/>
  </g>
  <defs>
    <clipPath id="clip0_4355_7310">
      <rect width="24" height="24" fill="white"/>
    </clipPath>
  </defs>
</svg>