<svg width="36" height="36" viewBox="0 0 36 36" fill="none" xmlns="http://www.w3.org/2000/svg">
<path d="M23.9449 20.4889C24.601 20.4889 25.185 20.2361 25.6968 19.7306C26.2087 19.225 26.4646 18.6417 26.4646 17.9806C26.4646 17.3194 26.2087 16.7426 25.6968 16.25C25.185 15.7574 24.601 15.5111 23.9449 15.5111C23.2887 15.5111 22.7047 15.7574 22.1929 16.25C21.6811 16.7426 21.4252 17.3194 21.4252 17.9806C21.4252 18.6417 21.6811 19.225 22.1929 19.7306C22.7047 20.2361 23.2887 20.4889 23.9449 20.4889ZM5.3622 27.6056V29.6667V6.33333V27.6056ZM5.3622 32C4.75853 32 4.21391 31.7667 3.72835 31.3C3.24278 30.8333 3 30.2889 3 29.6667V6.33333C3 5.73704 3.24278 5.19907 3.72835 4.71944C4.21391 4.23981 4.75853 4 5.3622 4H28.9843C29.6142 4 30.1654 4.23981 30.6378 4.71944C31.1102 5.19907 31.3465 5.73704 31.3465 6.33333V11.5444H28.9843V6.33333H5.3622V29.6667H28.9843V24.4944H31.3465V29.6667C31.3465 30.2889 31.1102 30.8333 30.6378 31.3C30.1654 31.7667 29.6142 32 28.9843 32H5.3622ZM19.4567 25.2722C18.5643 25.2722 17.8556 25.013 17.3307 24.4944C16.8058 23.9759 16.5433 23.2889 16.5433 22.4333V13.6056C16.5433 12.7241 16.8058 12.0306 17.3307 11.525C17.8556 11.0194 18.5643 10.7667 19.4567 10.7667H30.0866C30.979 10.7667 31.6877 11.0194 32.2126 11.525C32.7375 12.0306 33 12.7241 33 13.6056V22.4333C33 23.2889 32.7375 23.9759 32.2126 24.4944C31.6877 25.013 30.979 25.2722 30.0866 25.2722H19.4567ZM30.6378 22.9389V13.1H18.9055V22.9389H30.6378Z" fill="white"/>
</svg>
