<svg width="36" height="37" viewBox="0 0 36 37" fill="none" xmlns="http://www.w3.org/2000/svg">
<path d="M3.71832 29.4614C3.41497 29.4614 3.15885 29.3594 2.94995 29.1553C2.74105 28.9512 2.6366 28.6927 2.6366 28.3797V26.6144C2.6366 25.8259 2.83997 25.1283 3.24672 24.5216C3.65342 23.9149 4.22286 23.4505 4.95503 23.1285C6.57861 22.4159 8.06155 21.8846 9.40385 21.5346C10.7461 21.1846 12.2404 21.0096 13.8866 21.0096C15.5423 21.0096 17.0351 21.1846 18.3649 21.5346C19.6947 21.8846 21.1762 22.4159 22.8094 23.1285C23.532 23.4505 24.1004 23.9149 24.5148 24.5216C24.9293 25.1283 25.1365 25.8259 25.1365 26.6144V28.3797C25.1365 28.6927 25.0344 28.9512 24.8304 29.1553C24.6263 29.3594 24.3677 29.4614 24.0548 29.4614H3.71832ZM26.9365 29.4614C27.1263 29.391 27.2824 29.2583 27.4048 29.0633C27.5272 28.8682 27.5884 28.625 27.5884 28.3335V26.6576C27.5884 25.323 27.2776 24.2097 26.656 23.3175C26.0344 22.4254 25.2222 21.6955 24.2193 21.1279C25.55 21.3183 26.8144 21.5783 28.0125 21.9081C29.2105 22.238 30.2124 22.6096 31.0182 23.0231C31.7278 23.4211 32.296 23.9325 32.723 24.5571C33.1499 25.1817 33.3633 25.8819 33.3633 26.6576V28.3797C33.3633 28.6927 33.2589 28.9512 33.05 29.1553C32.8411 29.3594 32.585 29.4614 32.2816 29.4614H26.9365ZM13.8866 18.0153C12.4428 18.0153 11.2525 17.5469 10.3158 16.6101C9.37902 15.6734 8.91065 14.4831 8.91065 13.0394C8.91065 11.586 9.37902 10.3934 10.3158 9.4614C11.2525 8.52945 12.4428 8.06348 13.8866 8.06348C15.3399 8.06348 16.5326 8.52945 17.4645 9.4614C18.3965 10.3934 18.8625 11.586 18.8625 13.0394C18.8625 14.4831 18.3965 15.6734 17.4645 16.6101C16.5326 17.5469 15.3399 18.0153 13.8866 18.0153ZM25.7422 13.0394C25.7422 14.4831 25.2762 15.6734 24.3443 16.6101C23.4123 17.5469 22.2196 18.0153 20.7663 18.0153C20.597 18.0153 20.4158 18.0038 20.2226 17.9807C20.0293 17.9576 19.8481 17.9153 19.6788 17.8538C20.2146 17.2695 20.6212 16.5681 20.8985 15.7494C21.1758 14.9307 21.3144 14.0268 21.3144 13.0376C21.3144 12.0484 21.1702 11.1659 20.8817 10.3899C20.5932 9.61395 20.1923 8.88752 19.6788 8.21059C19.8384 8.17404 20.0197 8.14039 20.2226 8.10964C20.4254 8.07886 20.6067 8.06348 20.7663 8.06348C22.2196 8.06348 23.4123 8.52945 24.3443 9.4614C25.2762 10.3934 25.7422 11.586 25.7422 13.0394ZM4.3385 27.7595H23.4346V26.6144C23.4346 26.2144 23.3207 25.8389 23.0928 25.4879C22.8649 25.137 22.5375 24.8576 22.1106 24.6499C20.5413 23.9172 19.1587 23.411 17.9625 23.1312C16.7664 22.8514 15.4077 22.7115 13.8866 22.7115C12.375 22.7115 11.0173 22.8514 9.81346 23.1312C8.60961 23.411 7.22308 23.9172 5.65388 24.6499C5.22696 24.8576 4.901 25.137 4.676 25.4879C4.451 25.8389 4.3385 26.2144 4.3385 26.6144V27.7595ZM13.8866 16.3134C14.8231 16.3134 15.6029 16.0019 16.226 15.3788C16.849 14.7557 17.1606 13.9759 17.1606 13.0394C17.1606 12.1029 16.849 11.3231 16.226 10.7C15.6029 10.0769 14.8231 9.76538 13.8866 9.76538C12.95 9.76538 12.1702 10.0769 11.5471 10.7C10.924 11.3231 10.6125 12.1029 10.6125 13.0394C10.6125 13.9759 10.924 14.7557 11.5471 15.3788C12.1702 16.0019 12.95 16.3134 13.8866 16.3134Z" fill="#2C74D6"/>
</svg>
