<svg width="36" height="36" viewBox="0 0 36 36" fill="none" xmlns="http://www.w3.org/2000/svg">
<g id="Icons- About Us">
<path id="Vector" d="M9.89996 5.25003C11.4372 5.25003 12.9071 5.60869 14.3096 6.32602C15.7122 7.04332 16.9423 8.04621 18 9.33468C19.0577 8.04621 20.2878 7.04332 21.6903 6.32602C23.0928 5.60869 24.5627 5.25003 26.1 5.25003C28.6384 5.25003 30.798 6.14042 32.5788 7.92119C34.3595 9.70194 35.2499 11.8615 35.2499 14.4C35.2499 15.4019 35.0937 16.4284 34.7812 17.4793C34.4687 18.5303 33.9826 19.5933 33.323 20.6683C33.1227 20.4544 32.8996 20.2726 32.6535 20.1228C32.4075 19.973 32.1576 19.8423 31.9038 19.7308C32.4519 18.7981 32.8629 17.8899 33.137 17.0062C33.411 16.1226 33.548 15.2538 33.548 14.4C33.548 12.3327 32.8235 10.5745 31.3745 9.12547C29.9254 7.67644 28.1673 6.95193 26.1 6.95193C24.7923 6.95193 23.4601 7.35337 22.1033 8.15624C20.7466 8.95914 19.3788 10.2385 18 11.9943C16.6211 10.2385 15.2533 8.95914 13.8966 8.15624C12.5399 7.35337 11.2076 6.95193 9.89996 6.95193C7.83266 6.95193 6.07449 7.67644 4.62544 9.12547C3.17641 10.5745 2.4519 12.3327 2.4519 14.4C2.4519 15.2635 2.58893 16.1418 2.86298 17.0351C3.137 17.9284 3.54325 18.8317 4.08173 19.7452C3.82788 19.8664 3.58076 20.0058 3.34039 20.1635C3.10001 20.3212 2.87886 20.5019 2.67694 20.7058C2.01734 19.6596 1.53129 18.6048 1.21879 17.5413C0.906287 16.4779 0.750038 15.4308 0.750038 14.4C0.750038 11.8615 1.64041 9.70194 3.42116 7.92119C5.20191 6.14042 7.36151 5.25003 9.89996 5.25003ZM1.77405 32.2788C1.4933 32.2788 1.25243 32.1783 1.05143 31.9773C0.850475 31.7764 0.75 31.5355 0.75 31.2547V30.724C0.75 29.7951 1.2386 29.0408 2.2158 28.461C3.193 27.8812 4.48855 27.5913 6.10245 27.5913C6.38223 27.5913 6.66105 27.6007 6.93893 27.6195C7.21683 27.6382 7.48365 27.6663 7.7394 27.7038C7.56578 28.0869 7.43439 28.4836 7.34524 28.8942C7.25611 29.3047 7.21155 29.7389 7.21155 30.1968V32.2788H1.77405V32.2788ZM10.8377 32.2788C10.5246 32.2788 10.265 32.1752 10.059 31.968C9.85301 31.7608 9.75 31.5038 9.75 31.1971V30.2538C9.75 28.8211 10.5091 27.6658 12.0274 26.788C13.5457 25.9101 15.5346 25.4712 17.9943 25.4712C20.4769 25.4712 22.4735 25.9101 23.9841 26.788C25.4946 27.6658 26.2499 28.8211 26.2499 30.2538V31.1971C26.2499 31.5038 26.1463 31.7608 25.9391 31.968C25.7319 32.1752 25.4749 32.2788 25.1682 32.2788H10.8377ZM28.7884 32.2788V30.1968C28.7884 29.7389 28.745 29.3047 28.6582 28.8942C28.5714 28.4836 28.4388 28.0834 28.2605 27.6936C28.5163 27.6504 28.7826 27.6226 29.0596 27.6101C29.3365 27.5976 29.6174 27.5913 29.9021 27.5913C31.501 27.5913 32.792 27.8812 33.7752 28.461C34.7583 29.0408 35.2499 29.7951 35.2499 30.724V31.2547C35.2499 31.5355 35.1494 31.7764 34.9485 31.9773C34.7475 32.1783 34.5067 32.2788 34.2259 32.2788H28.7884ZM18 27.1731C15.9942 27.1731 14.3918 27.4673 13.1928 28.0557C11.9937 28.6442 11.4086 29.4009 11.4375 30.3259V30.5769H24.5769V30.2884C24.5961 29.398 24.0062 28.6562 22.8072 28.063C21.6081 27.4697 20.0057 27.1731 18 27.1731ZM6.09765 26.4086C5.4614 26.4086 4.92309 26.184 4.48271 25.7348C4.04234 25.2856 3.82215 24.7447 3.82215 24.1121C3.82215 23.4794 4.04344 22.9396 4.48601 22.4926C4.92861 22.0456 5.46804 21.8221 6.10429 21.8221C6.74051 21.8221 7.28123 22.0467 7.72643 22.4959C8.1716 22.9451 8.39419 23.4861 8.39419 24.1187C8.39419 24.7513 8.16959 25.2912 7.72039 25.7382C7.27119 26.1851 6.73028 26.4086 6.09765 26.4086ZM29.8956 26.4086C29.2594 26.4086 28.7187 26.184 28.2735 25.7348C27.8283 25.2856 27.6057 24.7447 27.6057 24.1121C27.6057 23.4794 27.8303 22.9396 28.2795 22.4926C28.7287 22.0456 29.2697 21.8221 29.9023 21.8221C30.5385 21.8221 31.0768 22.0467 31.5172 22.4959C31.9576 22.9451 32.1778 23.4861 32.1778 24.1187C32.1778 24.7513 31.9565 25.2912 31.5139 25.7382C31.0713 26.1851 30.5319 26.4086 29.8956 26.4086ZM18 24.3462C16.9182 24.3462 15.9988 23.9676 15.2416 23.2104C14.4844 22.4532 14.1058 21.5337 14.1058 20.452C14.1058 19.3703 14.4844 18.4508 15.2416 17.6936C15.9988 16.9364 16.9182 16.5578 18 16.5578C19.0817 16.5578 20.0012 16.9364 20.7584 17.6936C21.5156 18.4508 21.8941 19.3703 21.8941 20.452C21.8941 21.5337 21.5156 22.4532 20.7584 23.2104C20.0012 23.9676 19.0817 24.3462 18 24.3462ZM18.0025 18.2597C17.3729 18.2597 16.8497 18.4673 16.4329 18.8824C16.0161 19.2975 15.8077 19.8199 15.8077 20.4495C15.8077 21.079 16.0152 21.6022 16.4304 22.0191C16.8455 22.4359 17.3679 22.6443 17.9975 22.6443C18.627 22.6443 19.1502 22.4367 19.567 22.0216C19.9838 21.6064 20.1923 21.0841 20.1923 20.4545C20.1923 19.8249 19.9847 19.3017 19.5696 18.8849C19.1544 18.4681 18.632 18.2597 18.0025 18.2597Z" fill="white"/>
</g>
</svg>
