<svg width="36" height="36" viewBox="0 0 36 36" fill="none" xmlns="http://www.w3.org/2000/svg">
<g id="Icons- Healthcare">
<path id="Vector" d="M4.15987 30.8335C3.87884 30.8335 3.64327 30.7403 3.45317 30.5538C3.26303 30.3673 3.16797 30.1362 3.16797 29.8606C3.16797 29.5849 3.26303 29.3556 3.45317 29.1726C3.64327 28.9896 3.87884 28.8981 4.15987 28.8981H32.1761C32.4571 28.8981 32.6927 28.9913 32.8828 29.1778C33.0729 29.3643 33.168 29.5953 33.168 29.871C33.168 30.1466 33.0729 30.376 32.8828 30.559C32.6927 30.742 32.4571 30.8335 32.1761 30.8335H4.15987ZM6.5264 26.3899C6.03103 26.3899 5.61061 26.2209 5.26513 25.883C4.91966 25.5451 4.74692 25.1347 4.74692 24.652V18.8951C4.74692 18.4123 4.9203 18.002 5.26707 17.664C5.6138 17.3261 6.03484 17.1571 6.53019 17.1571C7.02553 17.1571 7.44594 17.3261 7.79142 17.664C8.13689 18.002 8.30963 18.4123 8.30963 18.8951V24.652C8.30963 25.1347 8.13626 25.5451 7.78952 25.883C7.44278 26.2209 7.02174 26.3899 6.5264 26.3899ZM14.2652 26.3899C13.7699 26.3899 13.3495 26.2209 13.004 25.883C12.6585 25.5451 12.4858 25.1347 12.4858 24.652V11.1928C12.4858 10.71 12.6592 10.2997 13.0059 9.96178C13.3527 9.62383 13.7737 9.45486 14.2691 9.45486C14.7644 9.45486 15.1848 9.62383 15.5303 9.96178C15.8758 10.2997 16.0485 10.71 16.0485 11.1928V24.652C16.0485 25.1347 15.8751 25.5451 15.5284 25.883C15.1817 26.2209 14.7606 26.3899 14.2652 26.3899ZM22.0355 26.3899C21.5401 26.3899 21.1197 26.2209 20.7743 25.883C20.4288 25.5451 20.2561 25.1347 20.2561 24.652V15.8142C20.2561 15.3314 20.4294 14.9211 20.7762 14.5831C21.1229 14.2452 21.5439 14.0762 22.0393 14.0762C22.5347 14.0762 22.9551 14.2452 23.3005 14.5831C23.646 14.9211 23.8188 15.3314 23.8188 15.8142V24.652C23.8188 25.1347 23.6454 25.5451 23.2987 25.883C22.9519 26.2209 22.5308 26.3899 22.0355 26.3899ZM29.8057 26.3899C29.3104 26.3899 28.89 26.2209 28.5445 25.883C28.199 25.5451 28.0263 25.1347 28.0263 24.652V6.57144C28.0263 6.08868 28.1997 5.67835 28.5464 5.34042C28.8932 5.00247 29.3142 4.8335 29.8095 4.8335C30.3049 4.8335 30.7253 5.00247 31.0708 5.34042C31.4163 5.67835 31.589 6.08868 31.589 6.57144V24.652C31.589 25.1347 31.4156 25.5451 31.0689 25.883C30.7221 26.2209 30.3011 26.3899 29.8057 26.3899Z" fill="white"/>
</g>
</svg>
