<svg width="139" height="38" viewBox="0 0 139 38" fill="none" xmlns="http://www.w3.org/2000/svg">
<g id="main_logo 1">
<g id="Group">
<path id="Vector" d="M16.4733 7.28613L15.4795 7.31194" stroke="#93E4DE" stroke-width="0.16684"/>
<path id="Vector_2" d="M15.4791 7.3119C15.4297 7.56772 15.4133 7.82132 15.43 8.07269C15.4321 8.10248 15.4263 8.13001 15.4133 8.15111C15.3745 8.21617 15.3584 8.18336 15.365 8.05267C15.3662 8.02931 15.3639 8.02931 15.3584 8.05267C15.3451 8.11357 15.3159 8.17864 15.3218 8.2387C15.3476 8.51148 15.2377 8.28541 15.2044 8.25371C14.8015 7.86247 14.4128 7.57301 14.0508 7.2118C13.8887 7.05052 13.7175 6.89897 13.5372 6.75716C13.2159 6.50412 12.9263 6.21743 12.6682 5.8971C12.6617 5.88868 12.6523 5.88137 12.6407 5.87563C12.6291 5.86989 12.6155 5.86584 12.6008 5.86373C12.3894 5.83454 11.7884 5.1922 11.6328 5.01285C11.6159 4.99322 11.5929 4.9782 11.5662 4.96947C11.3487 4.89606 11.2646 4.73534 11.314 4.4873" stroke="#2AC3BE" stroke-width="0.16684"/>
<path id="Vector_3" d="M15.4794 7.31152L15.4819 11.9338C15.4819 11.9395 15.4808 11.9452 15.4787 11.9504C15.4765 11.9557 15.4734 11.9605 15.4695 11.9645C15.4655 11.9685 15.4608 11.9717 15.4557 11.9739C15.4505 11.9761 15.445 11.9772 15.4394 11.9772L13.957 11.988" stroke="#96DFDF" stroke-width="0.16684"/>
<path id="Vector_4" d="M13.9567 11.9886L13.5181 11.9177C13.4842 11.9121 13.4845 11.9043 13.5189 11.8943L13.6912 11.8476C13.7059 11.8435 13.7192 11.8356 13.7299 11.8246C13.7406 11.8137 13.7482 11.8001 13.7522 11.7851C13.7561 11.7701 13.7561 11.7543 13.7523 11.7391C13.7485 11.7239 13.7409 11.7098 13.7303 11.6983C13.464 11.4097 13.0769 11.1194 12.8622 10.9258C12.3522 10.4665 11.8426 10.0071 11.3332 9.54773C11.0993 9.33668 10.6939 9.01551 10.3618 8.69184C10.1998 8.53446 9.64792 8.05034 8.70626 7.2395C8.69632 7.23088 8.68829 7.22026 8.6827 7.20833C8.67711 7.19641 8.67408 7.18344 8.6738 7.17026L8.66797 6.90332" stroke="#2FB9C1" stroke-width="0.16684"/>
<path id="Vector_5" d="M23.4629 15.1406L22.0513 15.1789" stroke="#CAF6F3" stroke-width="0.16684"/>
<path id="Vector_6" d="M22.0516 15.1787L18.7422 15.182C18.7277 15.1821 18.7139 15.185 18.7022 15.1906C18.6905 15.1961 18.6814 15.2041 18.6756 15.2137C18.655 15.2464 18.6509 15.2844 18.6631 15.3277" stroke="#96DFDF" stroke-width="0.16684"/>
<path id="Vector_7" d="M18.6626 15.3281L18.6684 19.998" stroke="#98DAE1" stroke-width="0.16684"/>
<path id="Vector_8" d="M18.6692 19.998L17.7686 20.0205" stroke="#9AD5E2" stroke-width="0.16684"/>
<path id="Vector_9" d="M16.4716 20.0211C16.2091 19.9933 15.9372 19.9974 15.6559 20.0336C15.5449 20.0475 15.4897 19.9977 15.4902 19.8843L15.4936 18.2275" stroke="#9CD2E3" stroke-width="0.16684"/>
<path id="Vector_10" d="M15.4934 18.2276L15.4959 15.2245C15.4959 15.2136 15.4916 15.2032 15.4839 15.1956C15.4763 15.1879 15.4659 15.1836 15.4551 15.1836L13.1245 15.1928" stroke="#99D7E1" stroke-width="0.16684"/>
<path id="Vector_11" d="M13.1246 15.1915L10.8773 15.1815C10.866 15.1815 10.8551 15.1772 10.8469 15.1695C10.8387 15.1617 10.8338 15.1511 10.8332 15.1399L10.8115 14.7861" stroke="#9CD2E3" stroke-width="0.16684"/>
<path id="Vector_12" d="M10.8115 14.7864V12.0127" stroke="#99D7E1" stroke-width="0.16684"/>
<path id="Vector_13" d="M13.957 11.9883L10.8115 12.0124" stroke="#98DAE1" stroke-width="0.16684"/>
<path id="Vector_14" d="M10.8115 12.0124C10.8259 11.9368 10.8798 11.8873 10.973 11.8639C11.0673 11.84 11.0734 11.8017 10.9913 11.7488C10.6967 11.5603 10.4378 11.2583 10.2081 11.0656C9.82934 10.7486 9.44064 10.3749 9.10021 10.0804C8.5725 9.6244 8.05228 9.15586 7.53955 8.6748" stroke="#32B2C3" stroke-width="0.16684"/>
<path id="Vector_15" d="M21.8885 23.2531L21.886 23.1038C21.8855 23.0896 21.8826 23.076 21.8776 23.064C21.8726 23.0519 21.8655 23.0416 21.8568 23.0337L18.7497 20.2658C18.7382 20.2558 18.7305 20.2422 18.7276 20.2273C18.7248 20.2123 18.727 20.1968 18.7339 20.1832C18.7727 20.1065 18.7511 20.0448 18.6689 19.998" stroke="#33B0C4" stroke-width="0.16684"/>
<path id="Vector_16" d="M26.7989 18.2692C26.6985 18.2786 26.6366 18.2388 26.6133 18.1499C26.6068 18.1249 26.5923 18.1019 26.5717 18.084L25.9049 17.4925C25.8145 17.4124 25.7252 17.336 25.6369 17.2631C24.9336 16.6842 24.2677 16.0577 23.5827 15.4571C23.5656 15.4421 23.5394 15.4334 23.5094 15.4329C23.47 15.4329 23.4381 15.4206 23.4137 15.3962C23.4106 15.393 23.4085 15.389 23.4075 15.3846C23.4064 15.3802 23.4065 15.3753 23.4077 15.3705C23.4089 15.3656 23.4112 15.3608 23.4144 15.3565C23.4176 15.3521 23.4216 15.3483 23.4262 15.3453C23.4756 15.313 23.4878 15.2588 23.4628 15.1826" stroke="#29C4BD" stroke-width="0.16684"/>
<path id="Vector_17" d="M23.4634 15.1823V15.1406" stroke="#5EDCD1" stroke-width="0.16684"/>
<path id="Vector_18" d="M23.4633 15.1403L23.4783 12.047C23.4786 12.0357 23.4744 12.0246 23.4667 12.0161C23.459 12.0075 23.4482 12.0022 23.4367 12.0012C23.3374 11.9912 23.1584 11.9867 22.8998 11.9878C21.4954 11.9923 20.1037 11.9928 18.7248 11.9895C18.7167 11.9895 18.7088 11.9879 18.7013 11.9848C18.6939 11.9818 18.6872 11.9773 18.6815 11.9716C18.6759 11.9659 18.6714 11.9592 18.6684 11.9518C18.6654 11.9444 18.6639 11.9365 18.664 11.9286L18.6782 7.343C18.6782 7.33105 18.674 7.3196 18.6665 7.31115C18.659 7.3027 18.6488 7.29795 18.6382 7.29795L17.7676 7.28711" stroke="#93E5DD" stroke-width="0.16684"/>
<path id="Vector_19" d="M23.4629 15.182C23.373 15.247 22.2452 15.1804 22.0513 15.1787" stroke="#61D6D3" stroke-width="0.16684"/>
<path id="Vector_20" d="M24.9851 20.9415C24.9047 20.9364 24.8461 20.9706 24.8095 21.0441C24.7975 21.0675 24.7791 21.0874 24.7562 21.1016L24.5681 21.2184C24.547 21.2318 24.537 21.2262 24.5382 21.2017C24.5481 20.9893 24.456 20.8422 24.2618 20.7604C24.2362 20.7501 24.2143 20.7333 24.1986 20.712C24.0254 20.4826 23.7657 20.345 23.5901 20.1707C23.3554 19.9376 23.1076 19.7196 22.8468 19.5166C22.7963 19.4777 22.7566 19.4304 22.7278 19.3748C22.7139 19.3481 22.6973 19.3273 22.6779 19.3123C22.3593 19.0698 22.0622 18.8034 21.7864 18.5131C21.6807 18.4021 21.5608 18.3596 21.4585 18.2562C21.0967 17.8908 20.7099 17.5532 20.2982 17.2434C20.1375 17.1225 20.0376 16.929 19.8179 16.833C19.793 16.8222 19.7723 16.8038 19.7588 16.7805C19.5982 16.506 19.301 16.3859 19.018 16.0872C19.008 16.0769 18.9962 16.0692 18.9838 16.065C18.9715 16.0607 18.9592 16.06 18.9481 16.0631C18.8843 16.0809 18.8368 16.1431 18.8058 16.2499C18.7836 16.3267 18.7694 16.325 18.7633 16.2449C18.7625 16.2332 18.7525 15.9313 18.6959 15.9888C18.6865 15.9988 18.6817 15.9972 18.6817 15.9838L18.6626 15.3281" stroke="#2FB9C1" stroke-width="0.16684"/>
<path id="Vector_21" d="M10.812 14.7861C10.7448 15.0068 10.7063 14.9857 10.6963 14.7227C10.6857 14.4402 10.6755 14.1568 10.6655 13.8726C10.665 13.8586 10.6616 13.8452 10.6557 13.8335C10.6497 13.8217 10.6414 13.812 10.6314 13.805C10.5798 13.77 10.5215 13.7464 10.4566 13.7341C10.444 13.7318 10.432 13.7268 10.4214 13.7195C10.4108 13.7121 10.4018 13.7027 10.395 13.6916C10.3312 13.587 10.2413 13.512 10.1253 13.4664C10.1004 13.4566 10.0794 13.4391 10.0654 13.4163C9.94801 13.2269 9.75324 13.151 9.62173 13.0201C9.16893 12.5685 8.74831 12.1903 8.35988 11.8856C8.30772 11.845 8.2711 11.8021 8.25001 11.7571C8.24421 11.7447 8.23651 11.7337 8.22736 11.7249C8.21821 11.716 8.2078 11.7094 8.19674 11.7054C7.99448 11.6345 7.91624 11.466 7.77974 11.3617C7.48619 11.1387 7.22428 10.8823 6.994 10.5925C6.98834 10.5856 6.97961 10.5817 6.96965 10.5815C6.95969 10.5814 6.94931 10.585 6.94073 10.5917C6.91298 10.614 6.89245 10.5884 6.87913 10.515C6.87192 10.4755 6.86554 10.4755 6.85999 10.515C6.85389 10.5639 6.83252 10.5764 6.7959 10.5525" stroke="#36AAC5" stroke-width="0.16684"/>
<path id="Vector_22" d="M13.125 15.1924L11.1124 15.2141C11.0835 15.2146 11.083 15.216 11.1107 15.2182C11.3904 15.2433 11.6706 15.2569 11.9514 15.2591C12.0688 15.2591 12.1412 15.3192 12.1478 15.4326C12.1495 15.4617 12.1589 15.4874 12.1745 15.5052C12.4899 15.8606 12.9627 16.2218 13.2099 16.4479C13.5495 16.7582 13.8866 17.081 14.2529 17.3605C14.4443 17.5065 14.5766 17.7567 14.7131 17.8852C14.828 17.9936 14.9451 18.1001 15.0644 18.2047C15.1884 18.3123 15.3466 18.324 15.3166 18.555C15.3133 18.5812 15.3171 18.5823 15.3282 18.5584C15.3557 18.4975 15.3982 18.0887 15.4939 18.2272" stroke="#36AAC5" stroke-width="0.16684"/>
<path id="Vector_23" d="M16.4577 24.5043L16.4269 25.2283C16.4264 25.2434 16.4255 25.2434 16.4244 25.2283C16.4011 24.9464 16.3961 24.7665 16.4094 24.6886C16.4877 24.2273 16.2055 24.224 15.9616 24.0004C15.4056 23.4927 14.8452 22.9896 14.2803 22.4913C12.5368 20.9542 10.8 19.409 9.06979 17.8557C8.70439 17.5287 8.13922 17.0724 7.71972 16.6144C7.70356 16.5966 7.67901 16.5848 7.65063 16.581C7.56407 16.5719 7.39344 16.3641 7.31603 16.3066C7.13707 16.1723 7.01555 16.0088 6.82078 15.9062C6.80691 15.8984 6.78749 15.88 6.76252 15.8511L6.54527 15.6034C6.54249 15.6 6.53881 15.5975 6.53459 15.5963C6.53038 15.5951 6.52578 15.5951 6.52124 15.5964C6.5167 15.5976 6.51239 15.6001 6.50872 15.6035C6.50506 15.6069 6.50216 15.6112 6.50033 15.6159C6.48812 15.6465 6.47536 15.662 6.46204 15.6626C6.45799 15.6626 6.45397 15.6609 6.45019 15.6575C6.44641 15.6542 6.44295 15.6492 6.44001 15.643C6.43708 15.6368 6.43472 15.6295 6.43307 15.6214C6.43142 15.6133 6.43052 15.6046 6.43041 15.5959L6.41543 14.5614C6.41487 14.5303 6.41265 14.5303 6.40877 14.5614C6.3788 14.8006 6.36993 15.0408 6.38213 15.2822C6.38435 15.3195 6.37908 15.3211 6.36632 15.2872C6.35578 15.2599 6.35328 15.2319 6.35883 15.2029" stroke="#3BA0C8" stroke-width="0.16684"/>
<path id="Vector_24" d="M27.8604 13.0968L27.8171 13.5464C27.8166 13.5518 27.815 13.5571 27.8124 13.5618C27.8098 13.5665 27.8064 13.5705 27.8023 13.5736C27.7983 13.5767 27.7937 13.5788 27.7889 13.5798C27.7841 13.5807 27.7793 13.5804 27.7747 13.579C27.5333 13.5039 27.4692 13.302 27.2511 13.1961C27.2273 13.1844 27.207 13.1672 27.1904 13.1444C27.1205 13.0504 27.0112 12.9497 26.8624 12.8424C26.5836 12.6413 26.1375 12.1433 25.5765 11.6878C25.3809 11.5293 25.1894 11.3175 25.0221 11.179C24.4939 10.7419 23.98 10.2881 23.4806 9.81757C23.2917 9.63905 23.0378 9.4622 22.8339 9.26116C22.585 9.0159 22.3037 8.81319 22.0648 8.55292C22.0567 8.5443 22.046 8.53806 22.0339 8.53484C22.0217 8.53162 22.0086 8.53153 21.9957 8.53457C21.9247 8.55292 21.8872 8.53095 21.8833 8.46867C21.8812 8.43866 21.8708 8.41293 21.8542 8.39693L21.2507 7.82467C21.1531 7.73235 21.0332 7.62668 20.8912 7.50767C20.2924 7.00826 19.6829 6.47048 19.0625 5.89433C18.9571 5.79645 18.7848 5.6488 18.5456 5.45137C18.38 5.31456 18.1935 5.08599 17.968 4.94334C17.9642 4.94098 17.96 4.93961 17.9556 4.93935C17.9512 4.93909 17.9468 4.93994 17.9428 4.94184C17.9387 4.94374 17.9352 4.94662 17.9325 4.95023C17.9298 4.95384 17.9279 4.95806 17.9272 4.96253C17.9011 5.10712 17.8797 5.10684 17.8631 4.96169C17.8237 4.61578 17.7951 4.2682 17.7773 3.91895" stroke="#25CEBA" stroke-width="0.16684"/>
<path id="Vector_25" d="M15.7256 28.8035C15.6752 28.7518 15.6485 28.7565 15.6457 28.8177C15.6455 28.8271 15.6427 28.836 15.6378 28.8431C15.6328 28.8501 15.6259 28.855 15.6183 28.8569C15.585 28.8658 15.5778 28.8514 15.5966 28.8135C15.6055 28.7963 15.6014 28.7916 15.5842 28.7994C15.5303 28.8238 15.4934 28.8074 15.4734 28.7501C15.4629 28.719 15.4493 28.6959 15.4327 28.6809C15.1569 28.429 14.8803 28.1771 14.6028 27.9251C14.4447 27.7808 14.1483 27.6023 13.9752 27.347C13.9617 27.3269 13.9442 27.3121 13.9253 27.3045L13.8928 27.2911C13.8656 27.2806 13.8437 27.2656 13.8271 27.2461C13.72 27.1198 13.5765 26.9908 13.3967 26.859C12.9315 26.5187 12.5361 26.0156 12.0383 25.6761C11.8611 25.5552 11.7545 25.3691 11.6055 25.2473C11.0884 24.8214 10.5864 24.3776 10.0998 23.916C9.99992 23.8217 9.85009 23.7608 9.74938 23.6499C9.62175 23.5097 9.54823 23.4313 9.52881 23.4146C8.96836 22.9408 8.42067 22.4528 7.88575 21.9506C7.71012 21.7863 7.52035 21.6711 7.3106 21.425C7.21959 21.3183 6.9771 21.1222 6.58312 20.8369C6.56256 20.8218 6.54657 20.799 6.53734 20.7719C6.51071 20.694 6.48269 20.6812 6.45328 20.7335C6.44162 20.7546 6.43552 20.7535 6.43496 20.7302C6.42664 20.5372 6.41943 20.3439 6.41332 20.1504C6.42498 20.3317 6.40195 20.3648 6.34424 20.2497" stroke="#4094CC" stroke-width="0.16684"/>
<path id="Vector_26" d="M12.7918 32.9962C12.5329 32.8844 12.4305 32.6325 12.1733 32.5207C12.1484 32.5098 12.1272 32.4915 12.1126 32.4681C11.9636 32.2321 11.7047 32.0827 11.5574 31.9493C10.7339 31.2013 9.90184 30.4627 9.06117 29.7336C8.81979 29.5251 8.51099 29.2022 8.20718 28.9662C8.07151 28.8611 7.95415 28.6884 7.76271 28.6016C7.73773 28.5902 7.71687 28.5719 7.70278 28.5491C7.55961 28.3138 7.30824 28.1762 7.15343 28.0327C6.92619 27.82 6.71561 27.6807 6.52583 27.4296C6.51529 27.4157 6.50836 27.4173 6.50503 27.4346C6.47728 27.563 6.46147 27.5527 6.45758 27.4037C6.43872 26.5784 6.41846 25.7528 6.39682 24.927C6.39682 24.9225 6.39654 24.9228 6.39599 24.9278L6.34521 25.7153" stroke="#458ACF" stroke-width="0.16684"/>
</g>
<path id="Vector_27" d="M23.4629 15.1406V15.1822C23.373 15.2472 22.2452 15.1806 22.0513 15.1789L23.4629 15.1406Z" fill="#95EDE6"/>
<g id="Vector_28">
<path d="M13.1243 15.1915L15.4549 15.1823C15.4657 15.1823 15.4761 15.1866 15.4837 15.1943C15.4914 15.2019 15.4957 15.2123 15.4957 15.2232L15.4932 18.2263C15.3975 18.0878 15.355 18.4966 15.3275 18.5575C15.3164 18.5814 15.3126 18.5803 15.3159 18.5541C15.3458 18.3231 15.1877 18.3114 15.0637 18.2038C14.9444 18.0992 14.8273 17.9927 14.7124 17.8843C14.5759 17.7558 14.4436 17.5056 14.2521 17.3596C13.8859 17.0801 13.5488 16.7573 13.2092 16.447C12.962 16.2209 12.4892 15.8597 12.1738 15.5043C12.1582 15.4865 12.1487 15.4608 12.1471 15.4317C12.1405 15.3183 12.0681 15.2582 11.9507 15.2582C11.6699 15.256 11.3897 15.2424 11.11 15.2173C11.0823 15.2151 11.0828 15.2137 11.1117 15.2132L13.1243 15.1915Z" fill="#777777"/>
<path d="M16.4728 7.28495L15.479 7.31081C15.4296 7.56663 15.4132 7.82023 15.4299 8.0716C15.432 8.10139 15.4262 8.12891 15.4132 8.15001C15.3744 8.21508 15.3583 8.18227 15.365 8.05158C15.3661 8.02822 15.3639 8.02822 15.3583 8.05158C15.345 8.11248 15.3159 8.17754 15.3217 8.23761C15.3475 8.51039 15.2376 8.28432 15.2043 8.25262C14.8015 7.86138 14.4128 7.57191 14.0507 7.21071C13.8887 7.04943 13.7175 6.89788 13.5371 6.75607C13.2158 6.50303 12.9262 6.21634 12.6681 5.89601C12.6616 5.88759 12.6522 5.88028 12.6406 5.87454C12.629 5.8688 12.6154 5.86475 12.6007 5.86264C12.3893 5.83344 11.7884 5.19111 11.6327 5.01176C11.6159 4.99212 11.5928 4.97711 11.5661 4.96838C11.3486 4.89497 11.2645 4.73425 11.3139 4.48621C12.8754 3.47961 14.582 2.91653 16.4337 2.79696C16.4388 2.79662 16.444 2.79733 16.4488 2.79906C16.4536 2.8008 16.4581 2.80351 16.4618 2.80703C16.4656 2.81055 16.4685 2.8148 16.4706 2.81953C16.4726 2.82425 16.4737 2.82935 16.4737 2.8345L16.4728 7.28495Z" fill="#777777"/>
<path d="M27.8602 13.096L27.8169 13.5456C27.8164 13.551 27.8148 13.5562 27.8122 13.5609C27.8096 13.5656 27.8062 13.5697 27.8021 13.5728C27.7981 13.5759 27.7935 13.578 27.7887 13.5789C27.7839 13.5799 27.7791 13.5796 27.7745 13.5781C27.5331 13.5031 27.469 13.3012 27.2509 13.1952C27.2271 13.1836 27.2068 13.1663 27.1902 13.1435C27.1203 13.0495 27.0109 12.9489 26.8622 12.8415C26.5834 12.6405 26.1373 12.1425 25.5763 11.687C25.3807 11.5285 25.1892 11.3166 25.0219 11.1782C24.4936 10.741 23.9798 10.2872 23.4804 9.81674C23.2915 9.63822 23.0376 9.46137 22.8337 9.26033C22.5848 9.01507 22.3035 8.81236 22.0646 8.55209C22.0565 8.54347 22.0458 8.53724 22.0337 8.53401C22.0215 8.53079 22.0084 8.5307 21.9955 8.53374C21.9245 8.55209 21.887 8.53013 21.8831 8.46784C21.881 8.43783 21.8706 8.4121 21.854 8.3961L21.2505 7.82384C21.1529 7.73152 21.033 7.62585 20.891 7.50684C20.2922 7.00743 19.6827 6.46965 19.0623 5.8935C18.9569 5.79562 18.7846 5.64797 18.5454 5.45054C18.3798 5.31373 18.1933 5.08516 17.9677 4.94251C17.964 4.94015 17.9598 4.93878 17.9554 4.93852C17.951 4.93826 17.9466 4.93911 17.9426 4.94101C17.9385 4.94291 17.935 4.94579 17.9323 4.9494C17.9296 4.95301 17.9277 4.95724 17.927 4.9617C17.9009 5.10629 17.8795 5.10602 17.8629 4.96087C17.8235 4.61495 17.7949 4.26737 17.7771 3.91812L17.7755 2.84033C17.7754 2.835 17.7766 2.82972 17.7788 2.82483C17.7811 2.81995 17.7845 2.81556 17.7887 2.81195C17.7929 2.80834 17.7979 2.80558 17.8034 2.80386C17.8089 2.80214 17.8147 2.8015 17.8204 2.80196C23.3306 3.14148 27.6005 7.6228 27.8602 13.096Z" fill="#777777"/>
<path d="M27.8602 13.096C27.9462 14.9151 27.5925 16.6391 26.799 18.268C26.6986 18.2775 26.6367 18.2377 26.6134 18.1487C26.6069 18.1237 26.5924 18.1007 26.5718 18.0828L25.9051 17.4914C25.8146 17.4113 25.7253 17.3348 25.637 17.262C24.9337 16.683 24.2678 16.0565 23.5828 15.4559C23.5657 15.4409 23.5395 15.4323 23.5096 15.4317C23.4702 15.4317 23.4382 15.4195 23.4138 15.395C23.4108 15.3919 23.4086 15.3879 23.4076 15.3835C23.4065 15.379 23.4066 15.3742 23.4078 15.3693C23.409 15.3645 23.4113 15.3597 23.4145 15.3553C23.4177 15.351 23.4217 15.3472 23.4263 15.3441C23.4757 15.3119 23.4879 15.2577 23.4629 15.1815V15.1398L23.4779 12.0466C23.4782 12.0352 23.474 12.0241 23.4663 12.0156C23.4585 12.0071 23.4478 12.0017 23.4363 12.0007C23.337 11.9907 23.158 11.9862 22.8994 11.9873C21.495 11.9918 20.1033 11.9923 18.7244 11.989C18.7163 11.989 18.7084 11.9874 18.7009 11.9843C18.6935 11.9813 18.6868 11.9768 18.6811 11.9711C18.6755 11.9654 18.671 11.9587 18.668 11.9513C18.665 11.944 18.6635 11.9361 18.6636 11.9281L18.6778 7.3425C18.6778 7.33055 18.6736 7.3191 18.6661 7.31065C18.6586 7.3022 18.6484 7.29746 18.6378 7.29746L17.7672 7.28661L17.7771 3.91812C17.7949 4.26737 17.8235 4.61495 17.8629 4.96087C17.8795 5.10602 17.9009 5.10629 17.927 4.9617C17.9277 4.95724 17.9296 4.95301 17.9323 4.9494C17.935 4.94579 17.9385 4.94291 17.9426 4.94101C17.9466 4.93911 17.951 4.93826 17.9554 4.93852C17.9598 4.93878 17.964 4.94015 17.9677 4.94251C18.1933 5.08516 18.3798 5.31373 18.5454 5.45054C18.7846 5.64797 18.9569 5.79562 19.0623 5.8935C19.6827 6.46965 20.2922 7.00743 20.891 7.50684C21.033 7.62585 21.1529 7.73152 21.2505 7.82384L21.854 8.3961C21.8706 8.4121 21.881 8.43783 21.8831 8.46784C21.887 8.53013 21.9245 8.55209 21.9955 8.53374C22.0084 8.5307 22.0215 8.53079 22.0337 8.53401C22.0458 8.53724 22.0565 8.54347 22.0646 8.55209C22.3035 8.81236 22.5848 9.01507 22.8337 9.26033C23.0376 9.46137 23.2915 9.63822 23.4804 9.81674C23.9798 10.2872 24.4936 10.741 25.0219 11.1782C25.1892 11.3166 25.3807 11.5285 25.5763 11.687C26.1373 12.1425 26.5834 12.6405 26.8622 12.8415C27.0109 12.9489 27.1203 13.0495 27.1902 13.1435C27.2068 13.1663 27.2271 13.1836 27.2509 13.1952C27.469 13.3012 27.5331 13.5031 27.7745 13.5781C27.7791 13.5796 27.7839 13.5799 27.7887 13.5789C27.7935 13.578 27.7981 13.5759 27.8021 13.5728C27.8062 13.5697 27.8096 13.5656 27.8122 13.5609C27.8148 13.5562 27.8164 13.551 27.8169 13.5456L27.8602 13.096Z" fill="#777777"/>
<path d="M11.3139 4.48621C11.2645 4.73425 11.3486 4.89497 11.5661 4.96838C11.5928 4.97711 11.6159 4.99212 11.6327 5.01176C11.7884 5.19111 12.3893 5.83344 12.6007 5.86264C12.6154 5.86475 12.629 5.8688 12.6406 5.87454C12.6522 5.88028 12.6616 5.88759 12.6681 5.89601C12.9262 6.21634 13.2158 6.50303 13.5371 6.75607C13.7175 6.89788 13.8887 7.04943 14.0507 7.21071C14.4128 7.57191 14.8015 7.86138 15.2043 8.25262C15.2376 8.28432 15.3475 8.51039 15.3217 8.23761C15.3159 8.17754 15.345 8.11248 15.3583 8.05158C15.3639 8.02822 15.3661 8.02822 15.365 8.05158C15.3583 8.18227 15.3744 8.21508 15.4132 8.15001C15.4262 8.12891 15.432 8.10139 15.4299 8.0716C15.4132 7.82023 15.4296 7.56663 15.479 7.31081L15.4815 11.9331C15.4815 11.9388 15.4804 11.9444 15.4783 11.9497C15.4762 11.955 15.473 11.9597 15.4691 11.9638C15.4651 11.9678 15.4605 11.971 15.4553 11.9732C15.4502 11.9754 15.4446 11.9765 15.4391 11.9765L13.9567 11.9873L13.518 11.9164C13.4842 11.9109 13.4844 11.9031 13.5188 11.8931L13.6911 11.8463C13.7058 11.8422 13.7192 11.8343 13.7298 11.8234C13.7405 11.8124 13.7482 11.7988 13.7521 11.7838C13.756 11.7688 13.7561 11.753 13.7523 11.7378C13.7484 11.7226 13.7409 11.7086 13.7303 11.697C13.4639 11.4084 13.0769 11.1181 12.8621 10.9246C12.3522 10.4652 11.8425 10.0058 11.3331 9.54646C11.0992 9.33541 10.6938 9.01424 10.3617 8.69057C10.1997 8.53318 9.64786 8.04907 8.70619 7.23823C8.69626 7.2296 8.68823 7.21898 8.68264 7.20706C8.67705 7.19513 8.67401 7.18216 8.67373 7.16899L8.66791 6.90205C9.40981 5.94272 10.2918 5.13744 11.3139 4.48621Z" fill="#777777"/>
<path d="M8.66791 6.90205L8.67373 7.16899C8.67401 7.18216 8.67705 7.19513 8.68264 7.20706C8.68823 7.21898 8.69626 7.2296 8.70619 7.23823C9.64786 8.04907 10.1997 8.53318 10.3617 8.69057C10.6938 9.01424 11.0992 9.33541 11.3331 9.54646C11.8425 10.0058 12.3522 10.4652 12.8621 10.9246C13.0769 11.1181 13.4639 11.4084 13.7303 11.697C13.7409 11.7086 13.7484 11.7226 13.7523 11.7378C13.7561 11.753 13.756 11.7688 13.7521 11.7838C13.7482 11.7988 13.7405 11.8124 13.7298 11.8234C13.7192 11.8343 13.7058 11.8422 13.6911 11.8463L13.5188 11.8931C13.4844 11.9031 13.4842 11.9109 13.518 11.9164L13.9567 11.9873L10.8112 12.0115C10.8257 11.9359 10.8795 11.8864 10.9727 11.863C11.0671 11.8391 11.0732 11.8007 10.991 11.7479C10.6964 11.5594 10.4375 11.2574 10.2078 11.0647C9.82907 10.7477 9.44036 10.374 9.09993 10.0795C8.57222 9.62348 8.052 9.15494 7.53928 8.67389C7.85168 8.036 8.22787 7.44539 8.66791 6.90205Z" fill="#777777"/>
<path d="M16.4728 7.28495L17.7672 7.28661L18.6378 7.29746C18.6484 7.29746 18.6586 7.3022 18.6661 7.31065C18.6736 7.3191 18.6778 7.33055 18.6778 7.3425L18.6636 11.9281C18.6635 11.9361 18.665 11.944 18.668 11.9513C18.671 11.9587 18.6755 11.9654 18.6811 11.9711C18.6868 11.9768 18.6935 11.9813 18.7009 11.9843C18.7084 11.9874 18.7163 11.989 18.7244 11.989C20.1033 11.9923 21.495 11.9918 22.8994 11.9873C23.158 11.9862 23.337 11.9907 23.4363 12.0007C23.4478 12.0017 23.4585 12.0071 23.4663 12.0156C23.474 12.0241 23.4782 12.0352 23.4779 12.0466L23.4629 15.1398L22.0513 15.1781L18.7418 15.1815C18.7274 15.1815 18.7136 15.1844 18.7019 15.19C18.6902 15.1956 18.681 15.2036 18.6752 15.2132C18.6547 15.246 18.6506 15.2841 18.6628 15.3275L18.6686 19.9973L17.768 20.0198C17.3357 19.9848 16.9035 19.9848 16.4712 20.0198C16.2087 19.992 15.9368 19.9962 15.6555 20.0323C15.5445 20.0462 15.4893 19.9965 15.4898 19.883L15.4932 18.2263L15.4957 15.2232C15.4957 15.2123 15.4914 15.2019 15.4837 15.1943C15.4761 15.1866 15.4657 15.1823 15.4549 15.1823L13.1243 15.1915L10.877 15.1815C10.8657 15.1815 10.8548 15.1772 10.8466 15.1694C10.8384 15.1617 10.8335 15.151 10.8329 15.1398L10.8112 14.7852L10.8112 12.0115L13.9567 11.9873L15.4391 11.9765C15.4446 11.9765 15.4502 11.9754 15.4553 11.9732C15.4605 11.971 15.4651 11.9678 15.4691 11.9638C15.473 11.9597 15.4762 11.955 15.4783 11.9497C15.4804 11.9444 15.4815 11.9388 15.4815 11.9331L15.479 7.31081L16.4728 7.28495Z" fill="white"/>
<path d="M7.53928 8.67389C8.052 9.15494 8.57222 9.62348 9.09993 10.0795C9.44036 10.374 9.82907 10.7477 10.2078 11.0647C10.4375 11.2574 10.6964 11.5594 10.991 11.7479C11.0732 11.8007 11.0671 11.8391 10.9727 11.863C10.8795 11.8864 10.8257 11.9359 10.8112 12.0115L10.8112 14.7852C10.7441 15.006 10.7055 14.9849 10.6955 14.7218C10.685 14.4393 10.6747 14.156 10.6647 13.8718C10.6642 13.8578 10.6608 13.8444 10.6549 13.8326C10.649 13.8209 10.6406 13.8112 10.6306 13.8042C10.579 13.7692 10.5207 13.7455 10.4558 13.7333C10.4432 13.731 10.4312 13.726 10.4206 13.7186C10.41 13.7113 10.401 13.7018 10.3942 13.6908C10.3304 13.5862 10.2405 13.5111 10.1245 13.4655C10.0997 13.4558 10.0786 13.4382 10.0646 13.4155C9.94723 13.2261 9.75246 13.1502 9.62095 13.0192C9.16815 12.5676 8.74754 12.1895 8.35911 11.8847C8.30695 11.8441 8.27033 11.8013 8.24924 11.7563C8.24344 11.7439 8.23573 11.7329 8.22658 11.724C8.21743 11.7151 8.20703 11.7085 8.19597 11.7045C7.99371 11.6336 7.91547 11.4651 7.77896 11.3608C7.48542 11.1378 7.22351 10.8815 6.99322 10.5917C6.98757 10.5848 6.97883 10.5808 6.96888 10.5807C6.95892 10.5805 6.94854 10.5842 6.93995 10.5909C6.91221 10.6131 6.89168 10.5875 6.87836 10.5141C6.87115 10.4746 6.86476 10.4746 6.85922 10.5141C6.85311 10.5631 6.83175 10.5756 6.79512 10.5517C6.97991 9.89487 7.22798 9.26895 7.53928 8.67389Z" fill="#777777"/>
<path d="M10.8112 14.7852L10.8329 15.1398C10.8335 15.151 10.8384 15.1617 10.8466 15.1694C10.8548 15.1772 10.8657 15.1815 10.877 15.1815L13.1243 15.1915L11.1117 15.2132C11.0828 15.2137 11.0823 15.2151 11.11 15.2173C11.3897 15.2424 11.6699 15.256 11.9507 15.2582C12.0681 15.2582 12.1405 15.3183 12.1471 15.4317C12.1487 15.4608 12.1582 15.4865 12.1738 15.5043C12.4892 15.8597 12.962 16.2209 13.2092 16.447C13.5488 16.7573 13.8859 17.0801 14.2521 17.3596C14.4436 17.5056 14.5759 17.7558 14.7124 17.8843C14.8273 17.9927 14.9444 18.0992 15.0637 18.2038C15.1877 18.3114 15.3458 18.3231 15.3159 18.5541C15.3126 18.5803 15.3164 18.5814 15.3275 18.5575C15.355 18.4966 15.3975 18.0878 15.4932 18.2263L15.4898 19.883C15.4893 19.9965 15.5445 20.0462 15.6555 20.0323C15.9368 19.9962 16.2087 19.992 16.4712 20.0198L16.4571 24.5036L16.4263 25.2277C16.4257 25.2427 16.4249 25.2427 16.4238 25.2277C16.4005 24.9458 16.3955 24.7658 16.4088 24.688C16.487 24.2267 16.2049 24.2233 15.961 23.9998C15.405 23.492 14.8445 22.989 14.2796 22.4907C12.5361 20.9536 10.7993 19.4083 9.06913 17.8551C8.70373 17.5281 8.13856 17.0718 7.71906 16.6138C7.7029 16.596 7.67835 16.5842 7.64997 16.5804C7.56341 16.5712 7.39278 16.3635 7.31537 16.306C7.13641 16.1717 7.01489 16.0081 6.82012 15.9055C6.80625 15.8978 6.78683 15.8794 6.76186 15.8505L6.54461 15.6027C6.54183 15.5993 6.53815 15.5969 6.53393 15.5957C6.52972 15.5944 6.52512 15.5945 6.52058 15.5957C6.51604 15.597 6.51173 15.5994 6.50806 15.6029C6.5044 15.6063 6.5015 15.6106 6.49967 15.6152C6.48746 15.6458 6.4747 15.6614 6.46138 15.662C6.45733 15.662 6.45331 15.6602 6.44953 15.6569C6.44575 15.6535 6.44229 15.6486 6.43935 15.6424C6.43642 15.6362 6.43406 15.6289 6.43241 15.6208C6.43076 15.6127 6.42986 15.604 6.42975 15.5952L6.41477 14.5608C6.41421 14.5297 6.41199 14.5297 6.40811 14.5608C6.37814 14.8 6.36926 15.0402 6.38147 15.2816C6.38369 15.3188 6.37842 15.3205 6.36566 15.2866C6.35512 15.2593 6.35262 15.2312 6.35817 15.2023C6.3307 13.6207 6.33983 12.0833 6.79512 10.5517C6.83175 10.5756 6.85311 10.5631 6.85922 10.5141C6.86476 10.4746 6.87115 10.4746 6.87836 10.5141C6.89168 10.5875 6.91221 10.6131 6.93995 10.5909C6.94854 10.5842 6.95892 10.5805 6.96888 10.5807C6.97883 10.5808 6.98757 10.5848 6.99322 10.5917C7.22351 10.8815 7.48542 11.1378 7.77896 11.3608C7.91547 11.4651 7.99371 11.6336 8.19597 11.7045C8.20703 11.7085 8.21743 11.7151 8.22658 11.724C8.23573 11.7329 8.24344 11.7439 8.24924 11.7563C8.27033 11.8013 8.30695 11.8441 8.35911 11.8847C8.74754 12.1895 9.16815 12.5676 9.62095 13.0192C9.75246 13.1502 9.94723 13.2261 10.0646 13.4155C10.0786 13.4382 10.0997 13.4558 10.1245 13.4655C10.2405 13.5111 10.3304 13.5862 10.3942 13.6908C10.401 13.7018 10.41 13.7113 10.4206 13.7186C10.4312 13.726 10.4432 13.731 10.4558 13.7333C10.5207 13.7455 10.579 13.7692 10.6306 13.8042C10.6406 13.8112 10.649 13.8209 10.6549 13.8326C10.6608 13.8444 10.6642 13.8578 10.6647 13.8718C10.6747 14.156 10.685 14.4393 10.6955 14.7218C10.7055 14.9849 10.7441 15.006 10.8112 14.7852Z" fill="#777777"/>
<path d="M16.4571 24.5036C16.5098 25.9896 16.2659 27.4228 15.7254 28.8031C15.6749 28.7514 15.6483 28.7561 15.6455 28.8173C15.6453 28.8266 15.6425 28.8355 15.6375 28.8426C15.6325 28.8497 15.6257 28.8546 15.618 28.8565C15.5847 28.8654 15.5775 28.8509 15.5964 28.8131C15.6053 28.7959 15.6011 28.7912 15.5839 28.7989C15.5301 28.8234 15.4932 28.807 15.4732 28.7497C15.4627 28.7186 15.4491 28.6955 15.4324 28.6805C15.1566 28.4286 14.88 28.1766 14.6026 27.9247C14.4444 27.7804 14.1481 27.6019 13.975 27.3466C13.9614 27.3265 13.944 27.3116 13.925 27.3041L13.8926 27.2907C13.8654 27.2801 13.8435 27.2651 13.8268 27.2457C13.7197 27.1194 13.5763 26.9904 13.3965 26.8586C12.9312 26.5182 12.5358 26.0152 12.0381 25.6757C11.8608 25.5547 11.7543 25.3687 11.6053 25.2469C11.0881 24.8209 10.5862 24.3771 10.0995 23.9155C9.99967 23.8213 9.84984 23.7604 9.74913 23.6494C9.6215 23.5093 9.54798 23.4309 9.52856 23.4142C8.96811 22.9404 8.42042 22.4524 7.8855 21.9502C7.70987 21.7858 7.5201 21.6707 7.31034 21.4246C7.21934 21.3178 6.97685 21.1218 6.58287 20.8365C6.56231 20.8213 6.54631 20.7986 6.53709 20.7714C6.51046 20.6936 6.48243 20.6808 6.45302 20.7331C6.44137 20.7542 6.43527 20.7531 6.43471 20.7297C6.42639 20.5368 6.41917 20.3435 6.41307 20.15C6.42472 20.3313 6.4017 20.3644 6.34399 20.2492L6.35817 15.2023C6.35262 15.2312 6.35512 15.2593 6.36566 15.2866C6.37842 15.3205 6.38369 15.3188 6.38147 15.2816C6.36926 15.0402 6.37814 14.8 6.40811 14.5608C6.41199 14.5297 6.41421 14.5297 6.41477 14.5608L6.42975 15.5952C6.42986 15.604 6.43076 15.6127 6.43241 15.6208C6.43406 15.6289 6.43642 15.6362 6.43935 15.6424C6.44229 15.6486 6.44575 15.6535 6.44953 15.6569C6.45331 15.6602 6.45733 15.662 6.46138 15.662C6.4747 15.6614 6.48746 15.6458 6.49967 15.6152C6.5015 15.6106 6.5044 15.6063 6.50806 15.6029C6.51173 15.5994 6.51604 15.597 6.52058 15.5957C6.52512 15.5945 6.52972 15.5944 6.53393 15.5957C6.53815 15.5969 6.54183 15.5993 6.54461 15.6027L6.76186 15.8505C6.78683 15.8794 6.80625 15.8978 6.82012 15.9055C7.01489 16.0081 7.13641 16.1717 7.31537 16.306C7.39278 16.3635 7.56341 16.5712 7.64997 16.5804C7.67835 16.5842 7.7029 16.596 7.71906 16.6138C8.13856 17.0718 8.70373 17.5281 9.06913 17.8551C10.7993 19.4083 12.5361 20.9536 14.2796 22.4907C14.8445 22.989 15.405 23.492 15.961 23.9998C16.2049 24.2233 16.487 24.2267 16.4088 24.688C16.3955 24.7658 16.4005 24.9458 16.4238 25.2277C16.4249 25.2427 16.4257 25.2427 16.4263 25.2277L16.4571 24.5036Z" fill="#777777"/>
<path d="M22.0513 15.1781C22.2452 15.1798 23.373 15.2465 23.4629 15.1815C23.4879 15.2577 23.4757 15.3119 23.4263 15.3441C23.4217 15.3472 23.4177 15.351 23.4145 15.3553C23.4113 15.3597 23.409 15.3645 23.4078 15.3693C23.4066 15.3742 23.4065 15.379 23.4076 15.3835C23.4086 15.3879 23.4108 15.3919 23.4138 15.395C23.4382 15.4195 23.4702 15.4317 23.5096 15.4317C23.5395 15.4323 23.5657 15.4409 23.5828 15.4559C24.2678 16.0565 24.9337 16.683 25.637 17.262C25.7253 17.3348 25.8146 17.4113 25.9051 17.4914L26.5718 18.0828C26.5924 18.1007 26.6069 18.1237 26.6134 18.1487C26.6367 18.2377 26.6986 18.2775 26.799 18.268C26.3357 19.2551 25.7311 20.1461 24.9853 20.9408C24.9048 20.9358 24.8463 20.97 24.8097 21.0434C24.7977 21.0668 24.7793 21.0868 24.7564 21.101L24.5683 21.2177C24.5472 21.2311 24.5372 21.2255 24.5383 21.2011C24.5483 20.9886 24.4562 20.8415 24.262 20.7598C24.2364 20.7494 24.2145 20.7327 24.1987 20.7114C24.0256 20.482 23.7659 20.3443 23.5903 20.17C23.3555 19.937 23.1078 19.719 22.847 19.516C22.7965 19.477 22.7568 19.4298 22.728 19.3742C22.7141 19.3475 22.6974 19.3266 22.678 19.3116C22.3595 19.0691 22.0623 18.8027 21.7866 18.5124C21.6809 18.4015 21.561 18.3589 21.4586 18.2555C21.0968 17.8901 20.7101 17.5525 20.2983 17.2428C20.1377 17.1218 20.0378 16.9283 19.8181 16.8324C19.7932 16.8215 19.7725 16.8031 19.759 16.7798C19.5983 16.5053 19.3012 16.3852 19.0182 16.0866C19.0081 16.0763 18.9963 16.0686 18.984 16.0643C18.9717 16.06 18.9593 16.0594 18.9483 16.0624C18.8844 16.0802 18.837 16.1425 18.8059 16.2492C18.7837 16.326 18.7696 16.3243 18.7635 16.2442C18.7626 16.2326 18.7526 15.9306 18.696 15.9881C18.6866 15.9982 18.6819 15.9965 18.6819 15.9831L18.6628 15.3275C18.6506 15.2841 18.6547 15.246 18.6752 15.2132C18.681 15.2036 18.6902 15.1956 18.7019 15.19C18.7136 15.1844 18.7274 15.1815 18.7418 15.1815L22.0513 15.1781Z" fill="#777777"/>
<path d="M18.6628 15.3275L18.6819 15.9831C18.6819 15.9965 18.6866 15.9982 18.696 15.9881C18.7526 15.9306 18.7626 16.2326 18.7635 16.2442C18.7696 16.3243 18.7837 16.326 18.8059 16.2492C18.837 16.1425 18.8844 16.0802 18.9483 16.0624C18.9593 16.0594 18.9717 16.06 18.984 16.0643C18.9963 16.0686 19.0081 16.0763 19.0182 16.0866C19.3012 16.3852 19.5983 16.5053 19.759 16.7798C19.7725 16.8031 19.7932 16.8215 19.8181 16.8324C20.0378 16.9283 20.1377 17.1218 20.2983 17.2428C20.7101 17.5525 21.0968 17.8901 21.4586 18.2555C21.561 18.3589 21.6809 18.4015 21.7866 18.5124C22.0623 18.8027 22.3595 19.0691 22.678 19.3116C22.6974 19.3266 22.7141 19.3475 22.728 19.3742C22.7568 19.4298 22.7965 19.477 22.847 19.516C23.1078 19.719 23.3555 19.937 23.5903 20.17C23.7659 20.3443 24.0256 20.482 24.1987 20.7114C24.2145 20.7327 24.2364 20.7494 24.262 20.7598C24.4562 20.8415 24.5483 20.9886 24.5383 21.2011C24.5372 21.2255 24.5472 21.2311 24.5683 21.2177L24.7564 21.101C24.7793 21.0868 24.7977 21.0668 24.8097 21.0434C24.8463 20.97 24.9048 20.9358 24.9853 20.9408C24.0947 21.9018 23.0623 22.6723 21.8881 23.2523L21.8856 23.103C21.8851 23.0888 21.8822 23.0753 21.8772 23.0632C21.8722 23.0512 21.8652 23.0409 21.8565 23.033L18.7493 20.2651C18.7379 20.255 18.7301 20.2415 18.7273 20.2265C18.7244 20.2116 18.7266 20.1961 18.7335 20.1825C18.7724 20.1058 18.7507 20.044 18.6686 19.9973L18.6628 15.3275Z" fill="#777777"/>
<path d="M18.6686 19.9973C18.7507 20.044 18.7724 20.1058 18.7335 20.1825C18.7266 20.1961 18.7244 20.2116 18.7273 20.2265C18.7301 20.2415 18.7379 20.255 18.7493 20.2651L21.8565 23.033C21.8652 23.0409 21.8722 23.0512 21.8772 23.0632C21.8822 23.0753 21.8851 23.0888 21.8856 23.103L21.8881 23.2523C20.6024 23.8913 19.2418 24.2587 17.8063 24.3543C17.8011 24.3548 17.7958 24.3542 17.7909 24.3525C17.786 24.3508 17.7814 24.3481 17.7776 24.3446C17.7738 24.3411 17.7707 24.3368 17.7686 24.332C17.7665 24.3272 17.7655 24.322 17.7655 24.3168L17.768 20.0198L18.6686 19.9973Z" fill="#777777"/>
<path d="M15.7254 28.8031C15.0934 30.4454 14.1154 31.8427 12.7914 32.995C12.5325 32.8832 12.4301 32.6313 12.1729 32.5195C12.148 32.5086 12.1268 32.4903 12.1122 32.4669C11.9632 32.2308 11.7043 32.0815 11.557 31.948C10.7335 31.2 9.90145 30.4615 9.06077 29.7324C8.81939 29.5239 8.51059 29.201 8.20678 28.9649C8.07111 28.8598 7.95375 28.6872 7.76231 28.6004C7.73733 28.589 7.71647 28.5707 7.70238 28.5478C7.55922 28.3126 7.30785 28.175 7.15303 28.0315C6.9258 27.8188 6.71521 27.6794 6.52544 27.4284C6.51489 27.4144 6.50796 27.4161 6.50463 27.4334C6.47688 27.5618 6.46107 27.5515 6.45719 27.4025C6.43832 26.5772 6.41806 25.7516 6.39642 24.9258C6.39642 24.9213 6.39615 24.9216 6.39559 24.9266L6.34482 25.7141L6.34399 20.2492C6.4017 20.3644 6.42472 20.3313 6.41307 20.15C6.41917 20.3435 6.42639 20.5368 6.43471 20.7297C6.43527 20.7531 6.44137 20.7542 6.45302 20.7331C6.48243 20.6808 6.51046 20.6936 6.53709 20.7714C6.54631 20.7986 6.56231 20.8213 6.58287 20.8365C6.97685 21.1218 7.21934 21.3178 7.31034 21.4246C7.5201 21.6707 7.70987 21.7858 7.8855 21.9502C8.42042 22.4524 8.96811 22.9404 9.52856 23.4142C9.54798 23.4309 9.6215 23.5093 9.74913 23.6494C9.84984 23.7604 9.99967 23.8213 10.0995 23.9155C10.5862 24.3771 11.0881 24.8209 11.6053 25.2469C11.7543 25.3687 11.8608 25.5547 12.0381 25.6757C12.5358 26.0152 12.9312 26.5182 13.3965 26.8586C13.5763 26.9904 13.7197 27.1194 13.8268 27.2457C13.8435 27.2651 13.8654 27.2801 13.8926 27.2907L13.925 27.3041C13.944 27.3116 13.9614 27.3265 13.975 27.3466C14.1481 27.6019 14.4444 27.7804 14.6026 27.9247C14.88 28.1766 15.1566 28.4286 15.4324 28.6805C15.4491 28.6955 15.4627 28.7186 15.4732 28.7497C15.4932 28.807 15.5301 28.8234 15.5839 28.7989C15.6011 28.7912 15.6053 28.7959 15.5964 28.8131C15.5775 28.8509 15.5847 28.8654 15.618 28.8565C15.6257 28.8546 15.6325 28.8497 15.6375 28.8426C15.6425 28.8355 15.6453 28.8266 15.6455 28.8173C15.6483 28.7561 15.6749 28.7514 15.7254 28.8031Z" fill="#777777"/>
<path d="M12.7914 32.995C10.9591 34.6044 8.81769 35.4928 6.36726 35.6602C6.36406 35.6605 6.36085 35.66 6.35783 35.659C6.3548 35.6579 6.35203 35.6562 6.34969 35.654C6.34735 35.6518 6.34548 35.6492 6.3442 35.6462C6.34293 35.6433 6.34228 35.6401 6.34229 35.6369L6.34482 25.7141L6.39559 24.9266C6.39615 24.9216 6.39642 24.9213 6.39642 24.9258C6.41806 25.7516 6.43832 26.5772 6.45719 27.4025C6.46107 27.5515 6.47688 27.5618 6.50463 27.4334C6.50796 27.4161 6.51489 27.4144 6.52544 27.4284C6.71521 27.6794 6.9258 27.8188 7.15303 28.0315C7.30785 28.175 7.55922 28.3126 7.70238 28.5478C7.71647 28.5707 7.73733 28.589 7.76231 28.6004C7.95375 28.6872 8.07111 28.8598 8.20678 28.9649C8.51059 29.201 8.81939 29.5239 9.06077 29.7324C9.90145 30.4615 10.7335 31.2 11.557 31.948C11.7043 32.0815 11.9632 32.2308 12.1122 32.4669C12.1268 32.4903 12.148 32.5086 12.1729 32.5195C12.4301 32.6313 12.5325 32.8832 12.7914 32.995Z" fill="#777777"/>
</g>
<g id="Vector_29">
<path d="M67.2425 20.9245C65.0426 22.8673 61.5667 22.723 59.4417 20.7318C57.6372 19.0409 57.0063 16.63 57.6746 14.2108C58.7184 10.4361 62.9825 8.51994 66.4193 10.5462C70.2514 12.8061 70.4612 18.0824 67.2425 20.9245ZM62.7528 12.761C60.2424 13.4325 59.6074 16.6559 61.2887 18.3852C63.2039 20.3547 66.2562 19.0792 66.5175 16.4715C66.5758 15.8881 66.5181 15.339 66.3444 14.824C65.8658 13.4058 64.281 12.3514 62.7528 12.761Z" fill="#777777"/>
<path d="M80.5701 18.7422C81.7212 19.4896 83.197 19.4963 84.3282 18.7264C84.7826 18.4177 85.2346 18.1616 85.7182 18.6087C86.1693 19.025 86.7994 19.9209 86.6046 20.4957C86.4798 20.8652 85.9962 21.1764 85.6599 21.3708C84.8104 21.8613 83.9178 22.1516 82.9823 22.2417C81.3076 22.4027 79.4656 21.7036 78.227 20.6091C75.4462 18.1533 75.447 13.3182 78.5758 11.1051C80.9488 9.4267 83.8387 9.27237 86.2209 11.0359C87.2181 11.7733 86.28 13.0062 85.5717 13.4976C84.9449 13.933 84.3415 13.2181 83.8104 12.9871C81.896 12.1529 79.5746 13.2632 79.1884 15.3679C78.947 16.6859 79.4448 18.0123 80.5701 18.7422Z" fill="#777777"/>
<path d="M126.129 21.8663C124.289 21.1639 122.843 19.8275 122.268 17.913C121.457 15.211 122.283 12.3314 124.755 10.8357C127.077 9.43033 129.359 9.40641 131.601 10.7639C131.953 10.9764 132.181 11.1655 132.286 11.3312C132.697 11.9794 132.154 12.7602 131.701 13.2307C130.827 14.1374 130.294 13.2715 129.5 12.9429C127.607 12.1595 125.321 13.3366 124.974 15.3695C124.736 16.7652 125.241 18.0757 126.452 18.8056C127.623 19.5113 129.111 19.4788 130.228 18.6388C130.383 18.522 130.821 18.3201 131.06 18.3693C131.596 18.4803 132.116 19.3086 132.315 19.7741C132.522 20.2624 132.418 20.6637 132.001 20.9779C130.3 22.26 128.136 22.6338 126.129 21.8663Z" fill="#777777"/>
<path d="M38.0787 18.7956C38.0765 19.4357 38.0734 20.075 38.0695 20.7134C38.0654 21.3816 37.9988 21.863 37.3046 22.0181C36.8357 22.1232 36.3685 22.1232 35.9029 22.0181C35.2862 21.8796 35.1405 21.3633 35.1405 20.7635C35.1383 17.4728 35.1388 14.1822 35.1422 10.8916C35.1422 10.6852 35.209 10.4895 35.3428 10.3043C35.5883 9.96227 36.0328 9.88719 36.4298 9.88719C37.5346 9.88719 38.6394 9.8858 39.7442 9.88302C40.3069 9.88135 40.7455 9.91694 41.0602 9.9898C45.8187 11.0943 45.723 17.6811 40.942 18.6521C40.1096 18.8215 39.0326 18.7105 38.1203 18.7514C38.1091 18.7518 38.0985 18.7567 38.0908 18.7649C38.083 18.7732 38.0787 18.7842 38.0787 18.7956ZM40.7039 15.6749C41.9932 15.2027 41.9366 13.4617 40.773 12.9679C40.5949 12.8923 40.3596 12.8525 40.0672 12.8486C39.4235 12.8403 38.7756 12.8428 38.1236 12.8561C38.1123 12.8563 38.1015 12.8609 38.0936 12.8689C38.0856 12.8768 38.0812 12.8875 38.0812 12.8986L38.077 15.7207C38.077 15.7319 38.0815 15.7426 38.0894 15.7505C38.0973 15.7585 38.1081 15.7631 38.1195 15.7633C38.7226 15.7655 39.3244 15.7666 39.9248 15.7666C40.2794 15.7661 40.5391 15.7355 40.7039 15.6749Z" fill="#777777"/>
<path d="M46.7302 21.7078C46.5312 21.4834 46.5171 21.1247 46.5162 20.8336C46.504 17.5401 46.5068 14.247 46.5246 10.9541C46.5279 10.3379 46.8364 9.99287 47.4501 9.9189C47.6494 9.89499 47.8494 9.88331 48.0503 9.88387C49.0108 9.88665 50.0202 9.88637 51.0784 9.88303C51.671 9.88136 52.1268 9.91696 52.4459 9.98981C54.9579 10.5646 56.3713 12.8294 55.8369 15.3654C55.6738 16.1362 55.3034 16.8149 54.7257 17.4017C54.7171 17.4106 54.7113 17.4217 54.7089 17.4337C54.7065 17.4457 54.7077 17.4581 54.7124 17.4692C55.3272 18.8718 55.7234 19.7861 55.901 20.2121C56.1074 20.7068 56.1956 21.2031 55.7154 21.5802C55.2875 21.9164 54.5018 22.2784 53.9724 22.1883C53.6004 22.1241 53.3806 21.7979 53.22 21.4342C52.8277 20.5427 52.4451 19.6471 52.0722 18.7472C52.0675 18.7361 52.0596 18.7267 52.0495 18.7201C52.0394 18.7136 52.0276 18.7102 52.0156 18.7105L49.5077 18.7331C49.4966 18.733 49.4859 18.7373 49.478 18.745C49.47 18.7526 49.4655 18.763 49.4653 18.7739C49.4536 19.5547 49.5418 20.4765 49.3953 21.224C49.3088 21.6636 49.1548 21.8822 48.7087 21.9939C48.1335 22.1383 47.148 22.1791 46.7302 21.7078ZM52.0938 15.6749C53.3573 15.2144 53.3199 13.4859 52.1329 12.9629C51.9615 12.8873 51.7212 12.8486 51.4121 12.8469C50.7762 12.8436 50.1395 12.8447 49.5019 12.8503C49.4906 12.8505 49.4798 12.8551 49.4718 12.863C49.4639 12.871 49.4594 12.8817 49.4594 12.8928L49.4636 15.7141C49.4636 15.7254 49.468 15.7362 49.4758 15.7442C49.4836 15.7521 49.4942 15.7566 49.5052 15.7566C50.1217 15.7661 50.7332 15.7697 51.3397 15.7675C51.6765 15.7658 51.9279 15.7349 52.0938 15.6749Z" fill="#777777"/>
<path d="M91.5155 19.5798C91.5155 19.5972 91.5224 19.614 91.5348 19.6263C91.5471 19.6387 91.5638 19.6457 91.5813 19.6457L96.19 19.6465C96.3526 19.6465 96.5143 19.6648 96.6753 19.7015C97.4826 19.8859 97.2937 21.2198 97.1089 21.7562C97.1002 21.7822 97.0839 21.8047 97.0623 21.8204C96.8148 22.0023 96.5387 22.0943 96.2341 22.0965C94.2326 22.1082 92.2311 22.109 90.2295 22.099C89.3231 22.094 88.5873 21.9956 88.5798 20.9395C88.5698 19.4563 88.5698 16.2371 88.5798 11.282C88.5815 10.542 88.6997 10.0357 89.4879 9.92473C90.282 9.81295 91.5055 9.80544 91.5064 10.9324C91.5069 13.8282 91.51 16.7107 91.5155 19.5798Z" fill="#777777"/>
<path d="M99.4512 21.7512C99.2081 21.5076 99.1965 21.0988 99.1965 20.7501C99.187 15.6971 99.1859 12.4315 99.1931 10.9533C99.1954 10.5067 99.3568 10.2039 99.6776 10.0448C100.129 9.82128 101.019 9.83796 101.538 10.0081C102.233 10.2359 102.129 11.1777 102.131 11.845C102.14 14.7692 102.144 17.6931 102.142 20.6166C102.142 20.9437 102.101 21.4967 101.877 21.7528C101.433 22.2584 99.9148 22.215 99.4512 21.7512Z" fill="#777777"/>
<path d="M119.296 22.0223C118.548 22.2066 117.134 22.1958 117.129 21.1038C117.12 19.4961 117.121 16.1618 117.129 11.1009C117.131 10.4411 117.329 10.0207 118.017 9.9264C118.808 9.81879 120.018 9.79042 120.023 10.9066C120.037 14.2389 120.041 17.571 120.035 20.9028C120.034 21.5017 119.887 21.8763 119.296 22.0223Z" fill="#777777"/>
<path d="M112.023 16.8436C112.027 14.9116 112.031 12.959 112.036 10.9858C112.038 10.368 112.316 10.019 112.872 9.93891C113.597 9.8338 114.827 9.81044 114.909 10.7815C114.941 11.1691 114.957 11.5584 114.958 11.9493C114.962 14.8473 114.963 17.7456 114.96 20.6442C114.96 20.9662 114.915 21.5009 114.694 21.757C114.284 22.23 113.077 22.1441 112.54 21.9931C112.374 21.9464 112.185 21.742 112.062 21.5777C110.471 19.4471 108.886 17.3399 107.305 15.2561C107.247 15.1793 107.219 15.1891 107.219 15.2853C107.225 17.115 107.224 18.9446 107.216 20.7743C107.214 21.3616 107.099 21.8846 106.498 22.0231C105.869 22.1683 104.682 22.2233 104.393 21.5184C104.338 21.3855 104.311 21.1614 104.31 20.8461C104.305 17.64 104.306 14.4339 104.311 11.2277C104.312 10.8396 104.354 10.5665 104.437 10.4086C104.755 9.8046 105.761 9.85382 106.32 9.93641C106.818 10.0107 107.05 10.2626 107.412 10.7564C108.911 12.8036 110.423 14.8409 111.949 16.8686C111.998 16.9337 112.023 16.9253 112.023 16.8436Z" fill="#777777"/>
<path d="M35.3036 28.7635C35.1948 28.7579 35.1405 28.7009 35.1405 28.5925L35.1413 25.6761C35.1419 25.5638 35.1982 25.5073 35.3103 25.5068C35.7231 25.5034 36.1512 25.5034 36.5946 25.5068C37.382 25.5126 37.3928 25.9505 37.3861 26.6071C37.3861 26.6304 37.3774 26.6569 37.3612 26.683L37.238 26.8807C37.2321 26.8903 37.2303 26.902 37.2329 26.9134C37.2355 26.9249 37.2424 26.9352 37.2521 26.9424C37.5559 27.1701 37.5884 27.4788 37.5801 27.8383C37.5643 28.5199 37.2505 28.7476 36.6004 28.7726C36.1681 28.7899 35.7359 28.7868 35.3036 28.7635ZM36.9309 25.9873C36.8693 25.9072 36.7902 25.8671 36.6936 25.8671L35.6024 25.863C35.5967 25.863 35.591 25.8641 35.5857 25.8663C35.5804 25.8685 35.5755 25.8717 35.5715 25.8757C35.5675 25.8798 35.5643 25.8845 35.5622 25.8898C35.5601 25.8951 35.559 25.9007 35.5591 25.9063L35.5641 26.7689C35.5641 26.78 35.5687 26.7907 35.5768 26.7987C35.5849 26.8066 35.5959 26.8112 35.6074 26.8114L36.692 26.8164C36.8079 26.8164 36.8987 26.7658 36.9641 26.6646C37.1123 26.4355 37.1012 26.2097 36.9309 25.9873ZM36.9841 27.2444C36.927 27.2116 36.8668 27.1955 36.8035 27.196L35.6016 27.1977C35.5903 27.1977 35.5795 27.2022 35.5716 27.2101C35.5636 27.2181 35.5591 27.2289 35.5591 27.2402L35.5641 28.313C35.5641 28.3239 35.5686 28.3344 35.5765 28.3422C35.5845 28.35 35.5953 28.3545 35.6066 28.3547C36.3218 28.3703 36.7494 28.3728 36.8892 28.3622C37.2896 28.3305 37.3229 27.4379 36.9841 27.2444Z" fill="#777777"/>
<path d="M40.1371 27.0976L41.1584 25.5484C41.1658 25.5371 41.1754 25.5276 41.1864 25.5208C41.1974 25.514 41.2094 25.51 41.2216 25.5092C41.5304 25.485 41.5188 25.7011 41.3931 25.8938C41.0357 26.4416 40.6789 26.9885 40.3227 27.5347C40.308 27.557 40.3002 27.5834 40.3002 27.6106L40.2994 28.6066C40.2994 28.6358 40.2909 28.6628 40.2753 28.6834C40.1781 28.8113 40.071 28.8174 39.954 28.7017C39.945 28.693 39.9379 28.6822 39.9331 28.6699C39.9282 28.6576 39.9257 28.644 39.9257 28.63V27.6356C39.9257 27.6084 39.9179 27.5815 39.9032 27.558L38.7862 25.7703C38.7207 25.6658 38.7435 25.5865 38.8544 25.5326C38.9926 25.4653 39.1016 25.5042 39.1815 25.6494C39.4573 26.1499 39.7597 26.6329 40.0888 27.0984C40.0917 27.1022 40.0955 27.1053 40.0998 27.1074C40.1041 27.1095 40.1088 27.1106 40.1135 27.1105C40.1182 27.1104 40.1229 27.1092 40.127 27.107C40.1311 27.1047 40.1345 27.1015 40.1371 27.0976Z" fill="#777777"/>
<path d="M45.7146 27.4913L45.7155 28.5699C45.716 28.5984 45.7074 28.6247 45.6913 28.6442C45.4516 28.9336 45.2918 28.6834 45.2926 28.4356C45.2937 27.5163 45.2948 26.6037 45.2959 25.6978C45.2959 25.571 45.3595 25.5073 45.4866 25.5067C46.388 25.5017 47.609 25.1897 47.5425 26.5987C47.4925 27.6623 46.4554 27.4387 45.7571 27.4496C45.7458 27.4496 45.735 27.454 45.7271 27.4618C45.7191 27.4696 45.7146 27.4802 45.7146 27.4913ZM47.0297 26.0064C46.9432 25.9147 46.8408 25.8685 46.7226 25.8679L45.7546 25.8629C45.7492 25.8628 45.7438 25.8639 45.7387 25.866C45.7337 25.8681 45.7291 25.8713 45.7252 25.8753C45.7213 25.8794 45.7183 25.8842 45.7161 25.8895C45.714 25.8948 45.713 25.9005 45.713 25.9063L45.7113 27.0083C45.7113 27.0243 45.7177 27.0397 45.729 27.0511C45.7404 27.0625 45.7559 27.069 45.7721 27.0692C46.0717 27.0703 46.3763 27.07 46.686 27.0684C47.242 27.0667 47.3044 26.2967 47.0297 26.0064Z" fill="#777777"/>
<path d="M50.6887 27.5063C50.878 27.8289 51.068 28.1509 51.2589 28.4723C51.3588 28.6403 51.3291 28.7482 51.1698 28.796C51.1314 28.8074 51.0904 28.8058 51.0532 28.7915C51.016 28.7771 50.9847 28.7508 50.9642 28.7167L50.2409 27.5105C50.229 27.4904 50.2124 27.4739 50.1927 27.4624C50.1729 27.451 50.1508 27.4451 50.1286 27.4454L49.5542 27.4471C49.539 27.4471 49.5244 27.4532 49.5136 27.4642C49.5029 27.4751 49.4968 27.49 49.4968 27.5055L49.496 28.6083C49.496 28.6374 49.4871 28.6642 49.471 28.6842C49.3772 28.8015 49.2718 28.8065 49.1547 28.6992C49.1453 28.6905 49.1378 28.6797 49.1326 28.6673C49.1274 28.655 49.1248 28.6414 49.1248 28.6275V25.6285C49.1248 25.5961 49.1375 25.5651 49.1603 25.5421C49.1831 25.5191 49.214 25.5061 49.2463 25.5059C49.6253 25.5037 50.0037 25.504 50.3816 25.5067C50.8452 25.5092 51.1432 25.5952 51.2897 26.044C51.4778 26.6221 51.3321 27.2502 50.7079 27.4579C50.7031 27.4595 50.6988 27.4622 50.6951 27.4656C50.6915 27.4691 50.6887 27.4733 50.6868 27.4779C50.685 27.4825 50.6842 27.4874 50.6846 27.4924C50.6849 27.4973 50.6863 27.502 50.6887 27.5063ZM50.7753 25.9489C50.4973 25.7979 49.8789 25.8554 49.5584 25.8613C49.5427 25.8615 49.5276 25.8679 49.5166 25.8791C49.5055 25.8904 49.4993 25.9055 49.4993 25.9213L49.4985 27.0083C49.4985 27.0243 49.5048 27.0397 49.516 27.0511C49.5272 27.0625 49.5424 27.069 49.5584 27.0692C49.8719 27.0703 50.1913 27.0692 50.5164 27.0658C51.0416 27.06 50.9567 26.5954 50.9518 26.2425C50.9501 26.1101 50.8913 26.0123 50.7753 25.9489Z" fill="#777777"/>
<path d="M53.7635 28.7543C53.2325 28.6875 52.8671 28.4231 52.8621 27.8608C52.8532 26.9605 52.8593 26.4166 52.8804 26.2291C52.9628 25.4942 53.7144 25.4842 54.3703 25.4975C55.0728 25.5126 55.5597 25.6602 55.5689 26.4444C55.5778 27.2435 55.5775 27.7349 55.568 27.9184C55.5189 28.856 54.4435 28.8402 53.7635 28.7543ZM53.4264 28.2638C53.4546 28.2936 53.4885 28.3175 53.5261 28.3339C53.5637 28.3504 53.6042 28.3592 53.6453 28.3597C54.0731 28.363 55.1594 28.5532 55.1943 27.9184C55.2043 27.7399 55.2082 27.2485 55.206 26.4444C55.2049 26.1207 55.0548 25.9358 54.7557 25.8896C54.4668 25.8446 53.7169 25.7979 53.458 25.9797C53.3165 26.0793 53.2427 26.2394 53.2366 26.4602C53.2208 27.0158 53.1018 27.9226 53.4264 28.2638Z" fill="#777777"/>
<path d="M61.258 26.7797L62.1369 25.5493C62.1445 25.5385 62.1543 25.5294 62.1657 25.5227C62.177 25.5159 62.1896 25.5116 62.2027 25.5101C62.3642 25.4923 62.4438 25.566 62.4416 25.7311C62.441 25.7566 62.4317 25.7831 62.4149 25.807L61.4794 27.1167C61.4723 27.1268 61.4683 27.1387 61.4682 27.151C61.4681 27.1632 61.4717 27.1751 61.4785 27.1851C61.756 27.585 62.0348 27.9796 62.3151 28.3689C62.4141 28.5065 62.4516 28.6216 62.3042 28.7368C62.2193 28.8035 62.1458 28.7929 62.0837 28.7051L61.2488 27.5247C61.2441 27.518 61.2378 27.5126 61.2305 27.5089C61.2232 27.5052 61.2152 27.5033 61.207 27.5033C61.1988 27.5034 61.1908 27.5055 61.1836 27.5093C61.1764 27.5132 61.1702 27.5187 61.1656 27.5255L60.3699 28.6992C60.3498 28.7287 60.3212 28.7513 60.288 28.7638C60.2548 28.7764 60.2185 28.7783 60.1842 28.7693C60.1032 28.7476 60.0511 28.6873 60.0278 28.5883C60.0249 28.5759 60.0248 28.5628 60.0275 28.5497C60.0302 28.5366 60.0357 28.5239 60.0436 28.5124L60.9392 27.1743C60.9472 27.1626 60.9515 27.1488 60.9515 27.1348C60.9515 27.1208 60.9472 27.1072 60.9392 27.0959L60.0028 25.7703C59.995 25.7594 59.9897 25.747 59.9874 25.7342C59.9851 25.7213 59.9858 25.7083 59.9895 25.6961C60.1102 25.3015 60.3341 25.5701 60.4531 25.7411C60.695 26.0904 60.9408 26.4371 61.1905 26.7814C61.1945 26.7866 61.1997 26.7909 61.2057 26.7937C61.2116 26.7966 61.2181 26.798 61.2247 26.7978C61.2313 26.7977 61.2377 26.7959 61.2435 26.7928C61.2493 26.7896 61.2542 26.7852 61.258 26.7797Z" fill="#777777"/>
<path d="M66.7848 27.1376C66.4346 26.8256 66.3455 26.438 66.5176 25.9747C66.6285 25.6766 66.8519 25.5229 67.1876 25.5134C67.7578 25.4967 68.6642 25.3307 68.7874 26.1516C68.7895 26.1653 68.789 26.1791 68.7858 26.1921C68.7827 26.2052 68.777 26.2172 68.7691 26.2275C68.6858 26.3365 68.5854 26.3529 68.4678 26.2767C68.4576 26.2702 68.4488 26.261 68.4421 26.2497C68.4353 26.2385 68.4307 26.2255 68.4286 26.2116C68.3529 25.7211 67.4664 25.8471 67.1277 25.8888C66.9429 25.911 66.8513 26.0117 66.853 26.1908L66.8563 26.6488C66.8569 26.7672 66.9176 26.8356 67.0386 26.854C67.6612 26.9482 68.6692 26.6679 68.8448 27.5438C69.1153 28.8869 67.98 28.8143 67.1002 28.7551C66.6308 28.7234 66.3722 28.482 66.3245 28.031C66.3229 28.0177 66.3246 28.0044 66.3292 27.9923C66.3339 27.9802 66.3414 27.9697 66.3511 27.9618C66.4582 27.8722 66.5606 27.87 66.6582 27.9551C66.6764 27.9712 66.6884 27.9966 66.6915 28.026C66.7157 28.2613 66.8638 28.3605 67.0994 28.3614C67.3433 28.363 68.1748 28.4256 68.3421 28.2896C68.5402 28.1295 68.536 27.6681 68.4345 27.4888C68.354 27.3481 68.2314 27.2775 68.0666 27.2769L67.1335 27.2736C67.0025 27.273 66.8863 27.2277 66.7848 27.1376Z" fill="#777777"/>
<path d="M71.4093 28.7543C70.8783 28.6875 70.5129 28.4231 70.5079 27.8608C70.499 26.9605 70.5051 26.4166 70.5262 26.2291C70.5678 25.8565 70.7923 25.6221 71.1996 25.5259C71.5025 25.4542 72.4972 25.4617 72.8077 25.6394C73.0746 25.7923 73.2102 26.0606 73.2147 26.4444C73.2236 27.2435 73.2233 27.7349 73.2139 27.9184C73.1647 28.856 72.0894 28.8402 71.4093 28.7543ZM71.0722 28.2638C71.1007 28.2936 71.1348 28.3175 71.1725 28.334C71.2102 28.3504 71.2508 28.3592 71.292 28.3597C71.7198 28.363 72.8052 28.5532 72.8401 27.9176C72.849 27.7568 72.8512 27.2719 72.8468 26.4627C72.8435 25.9005 72.4589 25.8754 71.992 25.8621C71.525 25.8488 70.8974 25.7887 70.8741 26.4586C70.8566 26.9574 70.7634 27.9401 71.0722 28.2638Z" fill="#777777"/>
<path d="M75.3671 25.9272L75.3713 26.8723C75.3713 26.8836 75.3758 26.8944 75.3837 26.9024C75.3917 26.9104 75.4025 26.9149 75.4138 26.9149L76.3643 26.9182C76.395 26.9187 76.4218 26.9264 76.44 26.9399C76.5544 27.0239 76.5729 27.1306 76.4958 27.2602C76.4895 27.2709 76.4803 27.2797 76.4691 27.2859C76.4578 27.292 76.445 27.2952 76.4317 27.2953L75.4129 27.3069C75.4018 27.3069 75.3911 27.3114 75.3832 27.3194C75.3753 27.3273 75.3707 27.3381 75.3705 27.3495L75.3671 28.5908C75.3672 28.6195 75.3593 28.6458 75.3447 28.6658C75.1491 28.9244 74.9868 28.7201 74.9868 28.4932C74.9879 27.5394 74.9887 26.5865 74.9893 25.6344C74.9893 25.6005 75.0027 25.5681 75.0266 25.5441C75.0504 25.5202 75.0828 25.5067 75.1166 25.5067L77.0019 25.5051C77.0308 25.5051 77.0575 25.5146 77.0768 25.5318C77.1856 25.6302 77.1867 25.7325 77.0801 25.8387C77.072 25.8472 77.0614 25.8539 77.0489 25.8585C77.0365 25.8631 77.0224 25.8654 77.0077 25.8654L75.4088 25.883C75.4032 25.8831 75.3977 25.8843 75.3926 25.8866C75.3875 25.8889 75.3828 25.8921 75.379 25.8962C75.3751 25.9004 75.3721 25.9052 75.3701 25.9105C75.368 25.9158 75.367 25.9215 75.3671 25.9272Z" fill="#777777"/>
<path d="M79.717 25.9489L79.7128 28.6291C79.7128 28.6434 79.7102 28.6572 79.7052 28.6699C79.7002 28.6825 79.6929 28.6936 79.6837 28.7026C79.5732 28.8116 79.4661 28.8046 79.3624 28.6817C79.3463 28.6623 79.3374 28.6357 79.3374 28.6066L79.3324 25.9338C79.3324 25.9225 79.3281 25.9116 79.3203 25.9035C79.3125 25.8954 79.3019 25.8907 79.2908 25.8905L78.3669 25.883C78.3521 25.883 78.338 25.8806 78.3253 25.876C78.3126 25.8714 78.3015 25.8647 78.2928 25.8563C78.1735 25.7434 78.1707 25.6344 78.2845 25.5293C78.3026 25.5121 78.3288 25.5026 78.3577 25.5026L80.7599 25.5059C80.7727 25.5059 80.7852 25.5092 80.7961 25.5155C80.8069 25.5218 80.8157 25.5309 80.8215 25.5418C80.973 25.8212 80.7824 25.8963 80.5468 25.883C80.281 25.8685 80.0183 25.8749 79.7586 25.9021C79.7471 25.9034 79.7365 25.9088 79.7288 25.9175C79.7211 25.9261 79.7169 25.9373 79.717 25.9489Z" fill="#777777"/>
<path d="M85.0107 27.8992C85.0318 27.9687 85.0534 27.9687 85.0756 27.8992L85.7906 25.6252C85.7998 25.5959 85.816 25.5695 85.8376 25.5482C85.8593 25.527 85.8857 25.5116 85.9146 25.5034C86.0245 25.4728 86.1041 25.5162 86.1535 25.6335C86.1637 25.6572 86.1646 25.6851 86.156 25.7119L85.2238 28.655C85.2151 28.6821 85.1994 28.7051 85.1788 28.7209C84.9899 28.8652 84.8784 28.7201 84.8234 28.5432C84.5915 27.7947 84.3645 27.0614 84.1426 26.3434C84.1104 26.2378 84.0785 26.2378 84.0468 26.3434C83.8221 27.0942 83.5893 27.8419 83.3485 28.5866C83.2886 28.7726 83.0688 28.8894 82.9856 28.6283C82.6843 27.6773 82.3802 26.7147 82.0733 25.7403C82.0612 25.7011 82.0622 25.659 82.0761 25.6205C82.0901 25.5819 82.1163 25.549 82.1508 25.5268C82.2823 25.4417 82.3752 25.4839 82.4296 25.6536C82.6654 26.3882 82.8982 27.1242 83.1279 27.8617C83.1662 27.984 83.2031 27.9837 83.2386 27.8608C83.4423 27.1618 83.6565 26.4472 83.8812 25.717C83.9461 25.5059 84.0901 25.4175 84.2766 25.566C84.296 25.5811 84.3112 25.6049 84.3199 25.6335L85.0107 27.8992Z" fill="#777777"/>
<path d="M87.298 28.7267C87.2087 28.6689 87.184 28.591 87.2239 28.4932C87.5907 27.5844 87.9653 26.6582 88.3476 25.7145C88.4353 25.4976 88.5685 25.4486 88.7471 25.5676C88.7688 25.5817 88.7862 25.6039 88.7971 25.631L89.9998 28.5524C90.005 28.565 90.0077 28.5782 90.0075 28.5912C90.0074 28.6041 90.0044 28.6165 89.999 28.6275C89.9468 28.7292 89.8639 28.7782 89.7501 28.7743C89.7365 28.7735 89.7235 28.7693 89.7125 28.7621C89.7015 28.7549 89.6929 28.745 89.6877 28.7334L89.3988 28.0786C89.387 28.052 89.3692 28.0295 89.3478 28.0136C89.3264 27.9978 89.3022 27.9893 89.2782 27.9893L87.8798 27.9918C87.8674 27.9919 87.8553 27.9956 87.8449 28.0026C87.8346 28.0095 87.8264 28.0194 87.8216 28.031C87.7458 28.2087 87.5877 28.9144 87.298 28.7267ZM88.0038 27.5622C88.0015 27.5683 88.0008 27.5748 88.0015 27.5812C88.0023 27.5877 88.0047 27.5938 88.0083 27.5992C88.012 27.6045 88.017 27.6089 88.0227 27.6119C88.0284 27.6149 88.0348 27.6164 88.0413 27.6164L89.145 27.6072C89.1516 27.6072 89.1581 27.6056 89.1639 27.6024C89.1697 27.5993 89.1747 27.5947 89.1783 27.5892C89.1819 27.5836 89.1841 27.5773 89.1847 27.5707C89.1853 27.5641 89.1842 27.5574 89.1816 27.5514L88.6181 26.1816C88.6151 26.1742 88.61 26.1679 88.6034 26.1634C88.5968 26.159 88.589 26.1566 88.5811 26.1566C88.5731 26.1566 88.5653 26.159 88.5587 26.1634C88.5521 26.1679 88.547 26.1742 88.544 26.1816L88.0038 27.5622Z" fill="#777777"/>
<path d="M93.117 27.4863L93.7262 28.5307C93.7407 28.5553 93.7457 28.5825 93.7404 28.6066C93.6763 28.9161 93.4449 28.8135 93.3317 28.6208C93.1075 28.2398 92.8797 27.8625 92.6483 27.4888C92.6412 27.4772 92.6316 27.4677 92.6204 27.461C92.6092 27.4543 92.5968 27.4506 92.5843 27.4504L91.9825 27.4479C91.9751 27.4479 91.9679 27.4494 91.9611 27.4524C91.9544 27.4553 91.9482 27.4596 91.943 27.465C91.9379 27.4704 91.9337 27.4769 91.9309 27.484C91.9281 27.491 91.9267 27.4986 91.9267 27.5063L91.9284 28.5883C91.9283 28.6165 91.9205 28.643 91.9059 28.6642C91.7927 28.826 91.6823 28.826 91.5746 28.6642C91.56 28.6424 91.5521 28.6157 91.5521 28.5874L91.5538 25.6344C91.5538 25.6008 91.567 25.5686 91.5905 25.5447C91.614 25.5208 91.646 25.5072 91.6795 25.5067C92.5718 25.4967 93.921 25.1856 93.7745 26.6479C93.7329 27.0659 93.5365 27.3303 93.1378 27.4396C93.1328 27.441 93.1282 27.4434 93.1244 27.4468C93.1205 27.4501 93.1174 27.4541 93.1154 27.4587C93.1134 27.4632 93.1125 27.468 93.1128 27.4728C93.113 27.4776 93.1145 27.4822 93.117 27.4863ZM93.231 25.9697C93.1566 25.9085 93.0801 25.8777 93.0013 25.8771L91.9733 25.8688C91.9677 25.8687 91.9621 25.8697 91.9568 25.8718C91.9516 25.874 91.9468 25.8771 91.9428 25.8812C91.9387 25.8852 91.9355 25.89 91.9333 25.8954C91.9312 25.9007 91.93 25.9064 91.93 25.9122L91.9342 27.0175C91.9342 27.029 91.9387 27.04 91.9469 27.0481C91.955 27.0563 91.966 27.0608 91.9775 27.0608L92.9921 27.0667C93.1503 27.0672 93.2687 26.9949 93.3475 26.8498C93.4657 26.6304 93.4357 26.1374 93.231 25.9697Z" fill="#777777"/>
<path d="M95.8437 26.9191C96.1323 26.9235 96.4217 26.9252 96.7119 26.9241C96.89 26.9241 96.994 27.0158 96.9374 27.1985C96.9282 27.2276 96.91 27.253 96.8853 27.271C96.8606 27.289 96.8307 27.2987 96.8001 27.2986L95.8554 27.3003C95.8453 27.3003 95.8352 27.3022 95.8259 27.306C95.8165 27.3098 95.8081 27.3153 95.8009 27.3223C95.7938 27.3293 95.7882 27.3376 95.7844 27.3467C95.7806 27.3558 95.7787 27.3655 95.7788 27.3754L95.7855 28.313C95.7855 28.3186 95.7866 28.3241 95.7888 28.3293C95.7909 28.3344 95.7941 28.3391 95.7982 28.3431C95.8022 28.347 95.8069 28.3502 95.8122 28.3523C95.8174 28.3544 95.8231 28.3555 95.8288 28.3555L97.3112 28.3589C97.3394 28.3594 97.3658 28.3676 97.3869 28.3822C97.6866 28.5941 97.4693 28.786 97.2055 28.7835C96.6589 28.7785 96.1148 28.7768 95.5732 28.7785C95.4589 28.779 95.4018 28.722 95.4018 28.6075L95.4026 25.6269C95.4026 25.5946 95.4155 25.5636 95.4384 25.5408C95.4614 25.5179 95.4925 25.5051 95.5249 25.5051L97.3761 25.5043C97.39 25.5043 97.4035 25.5068 97.4158 25.5119C97.4281 25.5169 97.439 25.5242 97.4477 25.5334C97.527 25.6196 97.5376 25.7167 97.4793 25.8246C97.4735 25.8352 97.4646 25.844 97.4535 25.8502C97.4423 25.8563 97.4294 25.8596 97.416 25.8596L95.8587 25.8613C95.8491 25.8613 95.8397 25.8631 95.8308 25.8665C95.822 25.8699 95.8139 25.8749 95.8072 25.8812C95.8005 25.8874 95.7952 25.8949 95.7916 25.9031C95.788 25.9113 95.7862 25.92 95.7863 25.9289L95.798 26.8765C95.7982 26.8877 95.8031 26.8984 95.8116 26.9064C95.8202 26.9143 95.8317 26.9189 95.8437 26.9191Z" fill="#777777"/>
<path d="M101.989 26.0298C101.865 26.2439 101.866 26.4841 101.991 26.7505C102.003 26.7754 102.023 26.7954 102.047 26.8073C102.644 27.1051 103.63 26.552 103.908 27.4546C104.11 28.1094 103.838 28.7543 103.079 28.7793C102.443 28.8002 101.554 28.9119 101.395 28.0702C101.392 28.0563 101.392 28.0423 101.395 28.0291C101.398 28.0159 101.403 28.0037 101.41 27.9935C101.489 27.8878 101.591 27.8659 101.718 27.9276C101.728 27.9327 101.737 27.9409 101.744 27.9514C101.752 27.9618 101.756 27.9743 101.758 27.9876C101.837 28.5457 102.73 28.3622 103.129 28.3614C103.597 28.3597 103.533 28.1186 103.567 27.7766C103.67 26.7363 101.892 27.8442 101.579 26.7205C101.427 26.1774 101.599 25.5543 102.26 25.5142C102.914 25.4742 103.758 25.3674 103.869 26.1507C103.871 26.1641 103.87 26.1776 103.867 26.1904C103.863 26.2032 103.857 26.215 103.848 26.225C103.651 26.4561 103.536 26.2692 103.466 26.0723C103.357 25.7645 102.45 25.8571 102.19 25.8938C102.102 25.906 102.034 25.9514 101.989 26.0298Z" fill="#777777"/>
<path d="M106.52 28.7685C105.347 28.6867 105.591 27.4846 105.598 26.7088C105.606 25.9939 105.743 25.5243 106.534 25.5092C107.418 25.4917 108.304 25.3591 108.303 26.5678C108.303 27.0375 108.4 27.8984 108.19 28.293C107.885 28.8661 107.12 28.8102 106.52 28.7685ZM106.163 28.2704C106.23 28.3288 106.309 28.3586 106.398 28.3597C106.687 28.363 106.986 28.3639 107.296 28.3622C107.751 28.3605 107.919 28.2162 107.931 27.7632C107.945 27.2402 108.118 26.0123 107.554 25.9021C107.246 25.8421 106.885 25.8357 106.471 25.883C106.054 25.9305 105.978 26.1466 105.975 26.5445C105.972 26.9441 105.854 28.0027 106.163 28.2704Z" fill="#777777"/>
<path d="M110.128 28.7351C110.105 28.726 110.086 28.7107 110.072 28.6912C110.058 28.6718 110.051 28.649 110.051 28.6258L110.052 25.6227C110.052 25.6095 110.055 25.5967 110.061 25.5852C110.066 25.5738 110.074 25.564 110.084 25.5568C110.314 25.3925 110.429 25.5384 110.428 25.7687C110.424 26.6201 110.424 27.471 110.426 28.3213C110.427 28.332 110.431 28.3422 110.439 28.3497C110.446 28.3572 110.457 28.3614 110.467 28.3614L111.758 28.363C111.872 28.363 111.943 28.4181 111.972 28.5282C112.018 28.7028 111.932 28.7893 111.716 28.7876C111.232 28.7837 110.748 28.7804 110.264 28.7776C110.244 28.7776 110.218 28.7712 110.186 28.7584L110.128 28.7351Z" fill="#777777"/>
<path d="M115.411 28.7393C114.619 28.8694 113.466 28.8761 113.463 27.7349C113.461 27.0514 113.461 26.3648 113.463 25.6752C113.463 25.6473 113.473 25.6215 113.49 25.6027C113.719 25.3566 113.882 25.5643 113.881 25.8095C113.879 26.4764 113.879 27.1426 113.882 27.8083C113.886 28.5758 114.736 28.363 115.222 28.3639C115.673 28.3647 115.825 28.172 115.829 27.7349C115.837 27.0614 115.839 26.3865 115.836 25.7103C115.835 25.5084 115.928 25.47 116.11 25.5234C116.138 25.5316 116.162 25.5487 116.18 25.5719C116.197 25.5952 116.207 25.6235 116.207 25.6527C116.214 26.3151 116.214 26.9674 116.205 27.6098C116.198 28.2346 116.056 28.6333 115.411 28.7393Z" fill="#777777"/>
<path d="M118.785 25.8846C118.513 25.8802 118.24 25.8785 117.965 25.8796C117.752 25.8813 117.639 25.7929 117.724 25.566C117.731 25.548 117.743 25.5326 117.759 25.5217C117.774 25.5108 117.793 25.505 117.812 25.5051L120.222 25.5043C120.236 25.5042 120.25 25.5067 120.262 25.5114C120.275 25.5161 120.285 25.5231 120.294 25.5318C120.422 25.6608 120.412 25.772 120.263 25.8655C120.244 25.8779 120.217 25.8847 120.186 25.8846L119.258 25.8938C119.246 25.894 119.236 25.8988 119.228 25.9071C119.22 25.9153 119.215 25.9265 119.215 25.938L119.21 28.6325C119.21 28.6464 119.208 28.6599 119.203 28.6722C119.198 28.6844 119.19 28.695 119.181 28.7034C118.949 28.9103 118.842 28.6792 118.847 28.474C118.867 27.6242 118.861 26.7756 118.829 25.928C118.829 25.9165 118.824 25.9056 118.816 25.8975C118.807 25.8895 118.796 25.8849 118.785 25.8846Z" fill="#777777"/>
<path d="M122.079 25.5034H122.036C121.945 25.5034 121.87 25.5777 121.87 25.6694V28.6075C121.87 28.6991 121.945 28.7735 122.036 28.7735H122.079C122.171 28.7735 122.245 28.6991 122.245 28.6075V25.6694C122.245 25.5777 122.171 25.5034 122.079 25.5034Z" fill="#777777"/>
<path d="M124.909 28.7534C124.377 28.6884 124.013 28.4164 124.01 27.86C124.004 27.018 124.007 26.4989 124.02 26.3026C124.071 25.5034 124.814 25.4809 125.51 25.4976C126.408 25.5192 126.718 25.7487 126.72 26.6471C126.721 27.1176 126.829 28.0652 126.525 28.4381C126.19 28.851 125.403 28.8135 124.909 28.7534ZM126.359 26.4118C126.359 26.268 126.302 26.1301 126.201 26.0284C126.099 25.9267 125.962 25.8696 125.818 25.8696H124.913C124.769 25.8696 124.632 25.9267 124.53 26.0284C124.429 26.1301 124.372 26.268 124.372 26.4118V27.8233C124.372 27.9671 124.429 28.105 124.53 28.2067C124.632 28.3084 124.769 28.3655 124.913 28.3655H125.818C125.962 28.3655 126.099 28.3084 126.201 28.2067C126.302 28.105 126.359 27.9671 126.359 27.8233V26.4118Z" fill="#777777"/>
<path d="M128.929 26.3159C128.884 26.2558 128.862 26.2634 128.862 26.3384L128.861 28.5858C128.861 28.6149 128.853 28.642 128.836 28.6625C128.634 28.9219 128.447 28.7159 128.447 28.4765C128.446 27.5867 128.446 26.6974 128.447 25.8087C128.448 25.4542 128.689 25.4008 128.893 25.6652C129.471 26.4143 130.057 27.1715 130.652 27.9368C130.706 28.0068 130.733 27.9974 130.733 27.9084V25.6335C130.733 25.6198 130.736 25.6064 130.741 25.5944C130.747 25.5824 130.755 25.5721 130.764 25.5643C130.971 25.3958 131.113 25.5451 131.112 25.7703C131.108 26.6857 131.108 27.6 131.11 28.5132C131.111 28.8427 130.871 28.8327 130.702 28.6183C130.097 27.8542 129.506 27.0867 128.929 26.3159Z" fill="#777777"/>
<path d="M58.7634 27.3195H57.3784C57.3126 27.3195 57.2593 27.3727 57.2593 27.4385V27.4917C57.2593 27.5575 57.3126 27.6108 57.3784 27.6108H58.7634C58.8291 27.6108 58.8824 27.5575 58.8824 27.4917V27.4385C58.8824 27.3727 58.8291 27.3195 58.7634 27.3195Z" fill="#777777"/>
</g>
</g>
</svg>
