<svg width="36" height="36" viewBox="0 0 36 36" fill="none" xmlns="http://www.w3.org/2000/svg">
<g id="Icons- Career">
<mask id="mask0_2970_82717" style="mask-type:alpha" maskUnits="userSpaceOnUse" x="0" y="0" width="36" height="36">
<rect id="Bounding box" width="36" height="36" fill="#D9D9D9"/>
</mask>
<g mask="url(#mask0_2970_82717)">
<path id="developer_guide" d="M7.41349 30.7499C6.82526 30.7499 6.31762 30.5364 5.89057 30.1094C5.46352 29.6823 5.25 29.1747 5.25 28.5864V7.41349C5.25 6.82526 5.46352 6.31763 5.89057 5.89058C6.31762 5.46353 6.82526 5.25 7.41349 5.25H28.5864C29.1747 5.25 29.6823 5.46353 30.1094 5.89058C30.5364 6.31763 30.7499 6.82526 30.7499 7.41349V28.5864C30.7499 29.1747 30.5364 29.6823 30.1094 30.1094C29.6823 30.5364 29.1747 30.7499 28.5864 30.7499H7.41349ZM6.9519 7.41349V28.5864C6.9519 28.7018 6.99997 28.8076 7.09612 28.9038C7.1923 29 7.29809 29.048 7.41349 29.048H28.5864C28.7018 29.048 28.8076 29 28.9038 28.9038C29 28.8076 29.048 28.7018 29.048 28.5864V7.41349C29.048 7.29809 29 7.1923 28.9038 7.09613C28.8076 6.99998 28.7018 6.9519 28.5864 6.9519H25.0182V15.7961C25.0182 16.0171 24.9269 16.18 24.7442 16.2849C24.5615 16.3898 24.3749 16.3846 24.1845 16.2692L22.2375 15.0923C22.0423 14.9769 21.8584 14.9192 21.6858 14.9192C21.5132 14.9192 21.3365 14.9769 21.1557 15.0923L19.2086 16.2692C19.0183 16.3846 18.8317 16.3898 18.649 16.2849C18.4663 16.18 18.375 16.0171 18.375 15.7961V6.9519H7.41349C7.29809 6.9519 7.1923 6.99998 7.09612 7.09613C6.99997 7.1923 6.9519 7.29809 6.9519 7.41349Z" fill="#2C74D6"/>
</g>
</g>
</svg>
