<svg xmlns="http://www.w3.org/2000/svg" width="36" height="36" viewBox="0 0 36 36" fill="none">
  <path d="M12.7719 31.3933L10.6454 27.7519L6.49526 26.8937C6.20867 26.8386 5.97659 26.6827 5.79899 26.4261C5.62138 26.1696 5.55258 25.8967 5.59261 25.6074L6.01869 21.4426L3.30311 18.2774C3.10104 18.0683 3 17.8091 3 17.5C3 17.1908 3.10104 16.9317 3.30311 16.7226L6.01869 13.5728L5.59261 9.40796C5.55258 9.11869 5.62138 8.84579 5.79899 8.58924C5.97659 8.3327 6.20867 8.17684 6.49526 8.12166L10.6454 7.26351L12.7719 3.60666C12.9244 3.34754 13.1382 3.16826 13.4134 3.06883C13.6885 2.96942 13.9668 2.98162 14.2483 3.10541L18 4.79675L21.7612 3.10541C22.0364 2.98162 22.3115 2.96686 22.5866 3.06114C22.8618 3.15542 23.0756 3.33212 23.2281 3.59124L25.3794 7.26351L29.5047 8.12166C29.7913 8.17684 30.0234 8.3327 30.201 8.58924C30.3786 8.84579 30.4506 9.11869 30.4169 9.40796L29.9813 13.5728L32.6969 16.7226C32.899 16.9317 33 17.1908 33 17.5C33 17.8091 32.899 18.0683 32.6969 18.2774L29.9813 21.4426L30.4169 25.6074C30.4506 25.8967 30.3786 26.1696 30.201 26.4261C30.0234 26.6827 29.7913 26.8386 29.5047 26.8937L25.3794 27.7519L23.2281 31.4088C23.0756 31.6679 22.8618 31.8446 22.5866 31.9389C22.3115 32.0331 22.0364 32.0184 21.7612 31.8946L18 30.2033L14.2483 31.8946C13.9668 32.0184 13.6885 32.0306 13.4134 31.9312C13.1382 31.8317 12.9244 31.6525 12.7719 31.3933ZM14.1225 29.8531L18 28.2157L21.948 29.8531L24.2547 26.1799L28.4696 25.1524L28.0674 20.7942L30.9441 17.5L28.0674 14.1596L28.4696 9.7918L24.2547 8.82011L21.9023 5.14686L18 6.78432L14.052 5.14686L11.7453 8.82011L7.53036 9.7918L7.93258 14.1596L5.05593 17.5L7.93258 20.7942L7.53036 25.1986L11.7453 26.1799L14.1225 29.8531ZM16.4235 19.4492L13.7336 16.6861C13.5544 16.495 13.3322 16.397 13.0669 16.3922C12.8016 16.3874 12.5701 16.4796 12.3725 16.6688C12.1672 16.8695 12.0646 17.1027 12.0646 17.3682C12.0646 17.6337 12.1672 17.8669 12.3725 18.0676L15.6085 21.3185C15.8404 21.559 16.1105 21.6793 16.4187 21.6793C16.7269 21.6793 17.0001 21.559 17.2384 21.3185L23.6371 14.885C23.815 14.6991 23.905 14.4735 23.9073 14.2082C23.9095 13.943 23.8111 13.7126 23.6123 13.517C23.4248 13.3381 23.2034 13.2515 22.9479 13.2573C22.6925 13.263 22.4761 13.3554 22.2988 13.5343L16.4235 19.4492Z" fill="#2C74D6"/>
</svg>