<svg width="36" height="36" viewBox="0 0 36 36" fill="none" xmlns="http://www.w3.org/2000/svg">
<path d="M16.402 20.1231L13.549 17.1865C13.3817 17.0038 13.174 16.9101 12.926 16.9053C12.6779 16.9005 12.4625 16.9817 12.2798 17.149C12.0779 17.3413 11.977 17.5591 11.977 17.8024C11.977 18.0456 12.0779 18.2634 12.2798 18.4557L15.6433 21.7961C15.8587 22.0211 16.1091 22.1336 16.3947 22.1336C16.6803 22.1336 16.9356 22.0211 17.1606 21.7961L23.7346 15.2596C23.8923 15.0923 23.9735 14.8846 23.9783 14.6365C23.9832 14.3884 23.8894 14.1759 23.6971 13.999C23.5298 13.8471 23.3284 13.7774 23.0928 13.7899C22.8572 13.8024 22.6635 13.8846 22.5116 14.0365L16.402 20.1231ZM12.7818 31.9412L10.601 28.2259L6.28276 27.3605C6.01739 27.3105 5.80056 27.1653 5.63229 26.9249C5.46401 26.6846 5.40008 26.4317 5.44048 26.1663L5.89333 21.9403L3.11833 18.7211C2.92795 18.5307 2.83276 18.2903 2.83276 18C2.83276 17.7096 2.92796 17.4692 3.11836 17.2788L5.89333 14.0827L5.44048 9.85673C5.40008 9.59135 5.46401 9.33847 5.63229 9.09807C5.80056 8.85769 6.01739 8.7125 6.28276 8.6625L10.601 7.79712L12.7818 4.0587C12.9221 3.8183 13.1226 3.65052 13.3832 3.55534C13.6438 3.46014 13.9068 3.47023 14.1722 3.5856L18 5.33944L21.8423 3.5856C22.0981 3.47023 22.3563 3.45629 22.6168 3.54379C22.8774 3.63129 23.0779 3.79523 23.2183 4.0356L25.4365 7.79712L29.7173 8.6625C29.9826 8.7125 30.1995 8.85769 30.3677 9.09807C30.536 9.33847 30.6048 9.59135 30.574 9.85673L30.1067 14.0827L32.8817 17.2788C33.0721 17.4692 33.1673 17.7096 33.1673 18C33.1673 18.2903 33.0721 18.5307 32.8817 18.7211L30.1067 21.9403L30.574 26.1663C30.6048 26.4317 30.536 26.6846 30.3677 26.9249C30.1995 27.1653 29.9826 27.3105 29.7173 27.3605L25.4365 28.2259L23.2183 31.9643C23.0779 32.2047 22.8774 32.3686 22.6168 32.4561C22.3563 32.5436 22.0981 32.5297 21.8423 32.4143L18 30.6605L14.1722 32.4143C13.9068 32.5297 13.6438 32.5398 13.3832 32.4446C13.1226 32.3494 12.9221 32.1816 12.7818 31.9412ZM14.0452 30.5567L18 28.9125L22.0385 30.5567L24.4644 26.85L28.7798 25.7826L28.3586 21.3634L31.324 18L28.3586 14.5904L28.7798 10.1567L24.4644 9.14997L21.9923 5.44324L18 7.08747L13.9616 5.44324L11.5356 9.14997L7.22023 10.1567L7.64139 14.5904L4.676 18L7.64139 21.3634L7.22023 25.8288L11.5356 26.85L14.0452 30.5567Z" fill="#2C74D6"/>
</svg>
