<svg width="36" height="36" viewBox="0 0 36 36" fill="none" xmlns="http://www.w3.org/2000/svg">
<mask id="mask0_2873_320643" style="mask-type:alpha" maskUnits="userSpaceOnUse" x="0" y="0" width="36" height="36">
<rect width="36" height="36" fill="#D9D9D9"/>
</mask>
<g mask="url(#mask0_2873_320643)">
<path d="M22.7129 29.2499L19.898 32.0364C19.3777 32.5537 18.7442 32.8123 17.9977 32.8123C17.2511 32.8123 16.6192 32.5537 16.1019 32.0364L13.2869 29.2499H9.46151C8.71584 29.2499 8.0775 28.9844 7.5465 28.4534C7.01548 27.9224 6.74996 27.284 6.74996 26.5383V22.7129L3.96345 19.898C3.44615 19.3777 3.1875 18.7442 3.1875 17.9977C3.1875 17.2511 3.44615 16.6192 3.96345 16.1019L6.74996 13.2869V9.46151C6.74996 8.71584 7.01548 8.0775 7.5465 7.5465C8.0775 7.01547 8.71584 6.74996 9.46151 6.74996H13.2869L16.1019 3.96345C16.6222 3.44615 17.2556 3.1875 18.0022 3.1875C18.7487 3.1875 19.3807 3.44615 19.898 3.96345L22.7129 6.74996H26.5383C27.284 6.74996 27.9224 7.01547 28.4534 7.5465C28.9844 8.0775 29.2499 8.71584 29.2499 9.46151V13.2869L32.0364 16.1019C32.5537 16.6222 32.8123 17.2556 32.8123 18.0022C32.8123 18.7487 32.5537 19.3807 32.0364 19.898L29.2499 22.7129V26.5383C29.2499 27.284 28.9844 27.9224 28.4534 28.4534C27.9224 28.9844 27.284 29.2499 26.5383 29.2499H22.7129ZM17.9999 30.7499L21.7499 26.9999H26.9999V21.7499L30.7499 17.9999L26.9999 14.2499V8.99992H21.7499L17.9999 5.24992L14.2499 8.99992H8.99993V14.2499L5.24993 17.9999L8.99993 21.7499V26.9999H14.2499L17.9999 30.7499ZM17.9999 21.3951L20.6624 23.0191C20.9086 23.1749 21.1571 23.1662 21.4081 22.9932C21.659 22.8201 21.7518 22.5855 21.6864 22.2893L20.9797 19.2432L23.3536 17.1934C23.5864 16.9849 23.6552 16.7413 23.56 16.4624C23.4648 16.1836 23.2614 16.0316 22.9499 16.0066L19.8432 15.7442L18.6172 12.8855C18.5031 12.6144 18.2976 12.4788 18.0009 12.4788C17.7041 12.4788 17.498 12.6144 17.3826 12.8855L16.1567 15.7442L13.05 16.0066C12.7384 16.0316 12.5351 16.1836 12.4399 16.4624C12.3447 16.7413 12.4135 16.9849 12.6462 17.1934L15.0201 19.2432L14.3134 22.2893C14.248 22.5855 14.3408 22.8201 14.5918 22.9932C14.8427 23.1662 15.0913 23.1749 15.3374 23.0191L17.9999 21.3951Z" fill="white"/>
</g>
</svg>
