<svg width="36" height="36" viewBox="0 0 36 36" fill="none" xmlns="http://www.w3.org/2000/svg">
<g id="Testing service- services">
<mask id="mask0_3214_116053" style="mask-type:alpha" maskUnits="userSpaceOnUse" x="0" y="0" width="36" height="36">
<rect id="Bounding box" width="36" height="36" fill="#D9D9D9"/>
</mask>
<g mask="url(#mask0_3214_116053)">
<path id="autorenew" d="M8.62492 18.075C8.62492 18.5135 8.65474 18.9505 8.71436 19.3861C8.77399 19.8216 8.87591 20.251 9.02014 20.674C9.11629 20.9933 9.10619 21.2985 8.98984 21.5899C8.87349 21.8812 8.6759 22.0903 8.39707 22.2173C8.10285 22.3596 7.81006 22.3711 7.51871 22.2519C7.22739 22.1327 7.03365 21.9134 6.9375 21.5942C6.7375 21.0288 6.59375 20.4485 6.50625 19.8533C6.41875 19.2581 6.375 18.6654 6.375 18.075C6.375 14.8308 7.50384 12.0697 9.76151 9.79183C12.0192 7.51396 14.7654 6.37502 18 6.37502H19.1712L17.1865 4.39033C16.9788 4.18265 16.8726 3.92161 16.8678 3.60718C16.863 3.29278 16.9692 3.02693 17.1865 2.80963C17.4038 2.5923 17.6673 2.48364 17.9769 2.48364C18.2865 2.48364 18.55 2.5923 18.7673 2.80963L22.5086 6.55097C22.7797 6.82212 22.9153 7.13845 22.9153 7.49998C22.9153 7.8615 22.7797 8.17784 22.5086 8.44899L18.7673 12.1903C18.5596 12.398 18.2985 12.5043 17.9841 12.5091C17.6697 12.5139 17.4038 12.4077 17.1865 12.1903C16.9692 11.973 16.8606 11.7096 16.8606 11.4C16.8606 11.0904 16.9692 10.8269 17.1865 10.6096L19.1712 8.62494H18C15.3942 8.62494 13.1802 9.54225 11.3581 11.3769C9.53599 13.2115 8.62492 15.4442 8.62492 18.075ZM27.375 17.925C27.375 17.4865 27.3452 17.0495 27.2856 16.6139C27.2259 16.1783 27.124 15.749 26.9798 15.3259C26.8836 15.0067 26.8937 14.7014 27.0101 14.4101C27.1264 14.1187 27.324 13.9096 27.6029 13.7827C27.8971 13.6404 28.1875 13.6289 28.474 13.7481C28.7605 13.8673 28.9519 14.0865 29.048 14.4058C29.248 14.9711 29.3942 15.5514 29.4865 16.1466C29.5788 16.7418 29.6249 17.3346 29.6249 17.925C29.6249 21.1692 28.4961 23.9303 26.2384 26.2081C23.9807 28.486 21.2346 29.6249 18 29.6249H16.8287L18.8134 31.6096C19.0211 31.8173 19.1273 32.0784 19.1322 32.3928C19.137 32.7072 19.0307 32.973 18.8134 33.1903C18.5961 33.4077 18.3327 33.5164 18.023 33.5164C17.7134 33.5164 17.45 33.4077 17.2327 33.1904L13.4913 29.449C13.2202 29.1779 13.0846 28.8615 13.0846 28.5C13.0846 28.1385 13.2202 27.8221 13.4913 27.551L17.2327 23.8096C17.4404 23.6019 17.7014 23.4957 18.0158 23.4909C18.3302 23.4861 18.5961 23.5923 18.8134 23.8096C19.0307 24.0269 19.1394 24.2904 19.1394 24.6C19.1394 24.9096 19.0307 25.173 18.8134 25.3903L16.8287 27.375H18C20.6057 27.375 22.8197 26.4577 24.6418 24.6231C26.4639 22.7885 27.375 20.5558 27.375 17.925Z" fill="white"/>
</g>
</g>
</svg>
