<svg width="25" height="24" viewBox="0 0 25 24" fill="none" xmlns="http://www.w3.org/2000/svg">
<g id="Healthcare Icons/chevron right/Default">
<path id="Vector" d="M9.48464 17.2384C9.37696 17.1102 9.32055 16.9718 9.31541 16.8231C9.31028 16.6744 9.36669 16.541 9.48464 16.4231L13.9231 11.9846L9.46926 7.52115C9.36156 7.41986 9.31028 7.28557 9.31541 7.11827C9.32055 6.95097 9.37696 6.81347 9.48464 6.70577C9.61284 6.57757 9.74873 6.51604 9.89231 6.52117C10.0359 6.5263 10.1667 6.58784 10.2846 6.70577L15.0481 11.4788C15.125 11.5558 15.1817 11.6343 15.2183 11.7144C15.2548 11.7946 15.2731 11.8846 15.2731 11.9846C15.2731 12.0782 15.2548 12.1667 15.2183 12.25C15.1817 12.3333 15.125 12.4135 15.0481 12.4904L10.3 17.2384C10.1821 17.3564 10.0487 17.4112 9.90001 17.4029C9.7513 17.3945 9.61284 17.3397 9.48464 17.2384Z" fill="currentColor"/>
</g>
</svg>
