<svg width="24" height="24" viewBox="0 0 24 24" fill="none" xmlns="http://www.w3.org/2000/svg">
<g id="Healthcare Icons/chevron right/Default">
<path id="Vector" d="M8.98462 17.2384C8.87694 17.1102 8.82053 16.9718 8.8154 16.8231C8.81027 16.6744 8.86667 16.541 8.98462 16.4231L13.4231 11.9846L8.96925 7.52115C8.86155 7.41986 8.81027 7.28557 8.8154 7.11827C8.82053 6.95097 8.87694 6.81347 8.98462 6.70577C9.11282 6.57757 9.24871 6.51604 9.3923 6.52117C9.53588 6.5263 9.66665 6.58784 9.7846 6.70577L14.548 11.4788C14.625 11.5558 14.6817 11.6343 14.7182 11.7144C14.7548 11.7946 14.773 11.8846 14.773 11.9846C14.773 12.0782 14.7548 12.1667 14.7182 12.25C14.6817 12.3333 14.625 12.4135 14.548 12.4904L9.8 17.2384C9.68205 17.3564 9.54872 17.4112 9.4 17.4029C9.25128 17.3945 9.11282 17.3397 8.98462 17.2384Z" fill="#091432"/>
</g>
</svg>
