<svg xmlns="http://www.w3.org/2000/svg" width="36" height="36" viewBox="0 0 36 36" fill="none">
  <path d="M6.20988 31.0219C5.60682 31.0219 5.08775 30.7962 4.65266 30.3448C4.21755 29.8934 4 29.3549 4 28.7293V6.29261C4 5.66698 4.21755 5.12847 4.65266 4.6771C5.08775 4.2257 5.60682 4 6.20988 4H27.8368C28.4399 4 28.9589 4.2257 29.394 4.6771C29.8291 5.12847 30.0467 5.66698 30.0467 6.29261V15.5424C29.7776 15.414 29.4981 15.2912 29.2084 15.1741C28.9187 15.0569 28.6187 14.9535 28.3083 14.8638V6.29261C28.3083 6.14995 28.2641 6.03277 28.1757 5.94105C28.0873 5.84934 27.9743 5.80348 27.8368 5.80348H6.20988C6.07236 5.80348 5.95941 5.84934 5.871 5.94105C5.78259 6.03277 5.73839 6.14995 5.73839 6.29261V21.873H11.3396C11.7482 21.873 12.0664 21.9219 12.2943 22.0197C12.5221 22.1175 12.7156 22.2989 12.8747 22.5638C13.1772 23.163 13.5878 23.6719 14.1063 24.0907C14.6249 24.5095 15.2034 24.8065 15.8418 24.9817C15.83 25.3139 15.8443 25.6303 15.8845 25.9308C15.9248 26.2314 15.9705 26.5345 16.0215 26.8402C15.0964 26.6915 14.2321 26.3455 13.4287 25.8024C12.6253 25.2593 11.9849 24.5507 11.5076 23.6764H5.73839V28.7293C5.73839 28.8719 5.78259 28.9891 5.871 29.0808C5.95941 29.1725 6.07236 29.2184 6.20988 29.2184H16.8525C17.0057 29.5404 17.1658 29.8491 17.3328 30.1446C17.4997 30.4401 17.6912 30.7325 17.9073 31.0219H6.20988ZM6.20988 29.2184H5.73839H16.8525H6.20988ZM24.8786 30.4747C24.2421 30.2994 23.6813 30.0646 23.1962 29.7701C22.711 29.4756 22.2798 29.1205 21.9027 28.7048L21.0482 29.1541C20.9205 29.2071 20.7889 29.2204 20.6534 29.1939C20.5178 29.1674 20.4167 29.093 20.3499 28.9707L19.8696 28.2341C19.7832 28.1016 19.7503 27.9666 19.7709 27.8291C19.7916 27.6915 19.8608 27.5748 19.9787 27.4791L20.7771 26.8341C20.5905 26.2594 20.4972 25.6664 20.4972 25.055C20.4972 24.4437 20.5905 23.8456 20.7771 23.2607L19.9787 22.6004C19.8608 22.5047 19.7891 22.388 19.7636 22.2504C19.738 22.1129 19.7685 21.983 19.8549 21.8607L20.3499 21.0691C20.4167 20.9468 20.5178 20.8724 20.6534 20.8459C20.7889 20.8194 20.9205 20.8377 21.0482 20.9009L21.9027 21.3502C22.27 20.9712 22.7012 20.6293 23.1962 20.3247C23.6912 20.02 24.252 19.7801 24.8786 19.6048L24.9581 18.5717C24.9837 18.4127 25.0475 18.2869 25.1497 18.1942C25.2518 18.1014 25.3746 18.0551 25.518 18.0551H26.2369C26.3803 18.0551 26.503 18.1014 26.6052 18.1942C26.7073 18.2869 26.7712 18.4127 26.7967 18.5717L26.8763 19.6048C27.4931 19.7699 28.0489 20.0048 28.5439 20.3094C29.0389 20.6141 29.475 20.961 29.8522 21.3502L30.7067 20.9009C30.8343 20.8377 30.9635 20.8194 31.0941 20.8459C31.2247 20.8724 31.3283 20.9468 31.4049 21.0691L31.8999 21.8607C31.9864 21.983 32.0168 22.1129 31.9913 22.2504C31.9657 22.388 31.894 22.5047 31.7762 22.6004L30.9777 23.2607C31.1643 23.8456 31.2552 24.4462 31.2503 25.0627C31.2454 25.6791 31.1496 26.2696 30.963 26.8341L31.7614 27.4791C31.8596 27.5647 31.9289 27.6737 31.9692 27.8062C32.0094 27.9386 31.9814 28.0813 31.8852 28.2341L31.4049 28.9707C31.3283 29.093 31.2247 29.1674 31.0941 29.1939C30.9635 29.2204 30.8343 29.2071 30.7067 29.1541L29.8522 28.7048C29.475 29.1103 29.0439 29.4629 28.5587 29.7625C28.0735 30.062 27.5127 30.2994 26.8763 30.4747L26.7967 31.4834C26.7712 31.6424 26.7073 31.7682 26.6052 31.8609C26.503 31.9536 26.3803 32 26.2369 32H25.518C25.3746 32 25.2518 31.9536 25.1497 31.8609C25.0475 31.7682 24.9837 31.6424 24.9581 31.4834L24.8786 30.4747ZM25.8656 28.9586C26.9401 28.9586 27.8403 28.5821 28.5661 27.8291C29.2919 27.0761 29.6548 26.1422 29.6548 25.0275C29.6548 23.9128 29.2919 22.9764 28.5661 22.2184C27.8403 21.4603 26.9401 21.0812 25.8656 21.0812C24.7814 21.0812 23.8763 21.4603 23.1505 22.2184C22.4247 22.9764 22.0617 23.9128 22.0617 25.0275C22.0617 26.1422 22.4247 27.0761 23.1505 27.8291C23.8763 28.5821 24.7814 28.9586 25.8656 28.9586Z" fill="white"/>
</svg>