<svg width="36" height="37" viewBox="0 0 36 37" fill="none" xmlns="http://www.w3.org/2000/svg">
<path d="M29.149 8.9519H5.91349C5.77886 8.9519 5.66828 8.99518 5.58173 9.08173C5.49518 9.16828 5.4519 9.27886 5.4519 9.41349V27.5864C5.4519 27.7211 5.49518 27.8317 5.58173 27.9182C5.66828 28.0048 5.77886 28.048 5.91349 28.048H9.87983C10.1209 28.048 10.323 28.1303 10.4861 28.2948C10.6492 28.4593 10.7307 28.6631 10.7307 28.9063C10.7307 29.1495 10.6492 29.3509 10.4861 29.5105C10.323 29.6701 10.1209 29.7499 9.87983 29.7499H5.91349C5.32599 29.7499 4.81854 29.5362 4.39114 29.1088C3.96371 28.6814 3.75 28.1739 3.75 27.5864V9.41349C3.75 8.82599 3.96371 8.31854 4.39114 7.89114C4.81854 7.46371 5.32599 7.25 5.91349 7.25H29.149C29.3901 7.25 29.5922 7.33226 29.7553 7.49679C29.9184 7.66129 30 7.86513 30 8.1083C30 8.35148 29.9184 8.55288 29.7553 8.7125C29.5922 8.8721 29.3901 8.9519 29.149 8.9519ZM15.9375 29.7499C15.631 29.7499 15.3741 29.6463 15.1668 29.4389C14.9594 29.2316 14.8558 28.9747 14.8558 28.6682V27.4769C14.3769 27.0807 14.0072 26.6307 13.7466 26.1268C13.4861 25.6228 13.3558 25.0758 13.3558 24.4855C13.3558 23.8953 13.4861 23.3482 13.7466 22.8443C14.0072 22.3404 14.3769 21.8903 14.8558 21.4942V20.3029C14.8558 19.9964 14.9594 19.7394 15.1668 19.5321C15.3741 19.3248 15.631 19.2211 15.9375 19.2211H18.3029C18.6093 19.2211 18.8662 19.3248 19.0736 19.5321C19.2809 19.7394 19.3846 19.9964 19.3846 20.3029V21.4942C19.8634 21.8903 20.2331 22.3404 20.4937 22.8443C20.7543 23.3482 20.8846 23.8953 20.8846 24.4855C20.8846 25.0758 20.7543 25.6228 20.4937 26.1268C20.2331 26.6307 19.8634 27.0807 19.3846 27.4769V28.6682C19.3846 28.9747 19.2809 29.2316 19.0736 29.4389C18.8662 29.6463 18.6093 29.7499 18.3029 29.7499H15.9375ZM17.1118 27.0095C17.8385 27.0095 18.4423 26.772 18.9231 26.2968C19.4038 25.8216 19.6442 25.2206 19.6442 24.4939C19.6442 23.7672 19.4066 23.1634 18.9314 22.6826C18.4562 22.2019 17.8553 21.9615 17.1286 21.9615C16.4018 21.9615 15.7981 22.1991 15.3173 22.6742C14.8365 23.1494 14.5961 23.7504 14.5961 24.4771C14.5961 25.2039 14.8337 25.8076 15.3089 26.2884C15.7841 26.7692 16.3851 27.0095 17.1118 27.0095ZM24.5611 29.7499C24.2716 29.7499 24.024 29.6468 23.8182 29.4406C23.6125 29.2343 23.5096 28.9865 23.5096 28.697V16.0625C23.5096 15.7642 23.6128 15.5141 23.819 15.3123C24.0253 15.1105 24.2732 15.0096 24.5627 15.0096H31.1984C31.4968 15.0096 31.7466 15.1105 31.9479 15.3123C32.1493 15.5141 32.2499 15.7642 32.2499 16.0625V28.697C32.2499 28.9865 32.149 29.2343 31.9472 29.4406C31.7453 29.6468 31.4952 29.7499 31.1968 29.7499H24.5611ZM25.2115 28.048H30.548V16.7115H25.2115V28.048Z" fill="#2C74D6"/>
</svg>
