<svg width="36" height="36" viewBox="0 0 36 36" fill="none" xmlns="http://www.w3.org/2000/svg">
<g id="Icons- Healthcare">
<path id="Vector" d="M17.0584 18.9339H7.20732L9.84401 21.5803C10.0298 21.766 10.1251 21.9923 10.1299 22.2591C10.1347 22.5259 10.0394 22.7538 9.84401 22.9428C9.65506 23.1381 9.42798 23.2358 9.16276 23.2358C8.89757 23.2358 8.6705 23.1381 8.48156 22.9428L4.35072 18.8216C4.11691 18.5877 4 18.3139 4 18C4 17.6861 4.11691 17.4123 4.35072 17.1784L8.49692 13.0323C8.68267 12.8465 8.90766 12.7528 9.17191 12.7512C9.43615 12.7496 9.66596 12.8433 9.86132 13.0323C10.0567 13.2276 10.1544 13.4566 10.1544 13.7193C10.1544 13.9819 10.0567 14.2077 9.86132 14.3967L7.19963 17.0584H17.0584V7.19963L14.414 9.84401C14.2282 10.0298 14.0029 10.1251 13.738 10.1299C13.4731 10.1347 13.2462 10.0394 13.0572 9.84401C12.8619 9.65506 12.7642 9.42927 12.7642 9.16662C12.7642 8.904 12.8619 8.675 13.0572 8.47961L17.1784 4.35072C17.4123 4.11691 17.6861 4 18 4C18.3139 4 18.5877 4.11691 18.8216 4.35072L22.9504 8.47961C23.1362 8.66538 23.2315 8.8907 23.2363 9.15557C23.2411 9.42044 23.1458 9.65057 22.9504 9.84596C22.7615 10.0349 22.5357 10.1294 22.273 10.1294C22.0104 10.1294 21.7814 10.0349 21.586 9.84596L18.9416 7.19963V17.0584L28.7927 17.0661L26.156 14.4197C25.9702 14.234 25.8749 14.0077 25.8701 13.7409C25.8653 13.4741 25.9606 13.243 26.156 13.0477C26.3449 12.8587 26.572 12.7642 26.8372 12.7642C27.1024 12.7642 27.3327 12.8587 27.5281 13.0477L31.6493 17.1784C31.8831 17.4123 32 17.6861 32 18C32 18.3139 31.8831 18.5877 31.6493 18.8216L27.5204 22.9504C27.3346 23.1362 27.108 23.2302 26.8406 23.2325C26.5731 23.2347 26.3449 23.1381 26.156 22.9428C25.9606 22.7538 25.8629 22.528 25.8629 22.2654C25.8629 22.0027 25.9606 21.7737 26.156 21.5783L28.8004 18.9339H18.9416V28.7927L21.6668 26.0599C21.8525 25.8741 22.0788 25.7804 22.3456 25.7788C22.6124 25.7772 22.8435 25.8709 23.0388 26.0599C23.2342 26.2553 23.3319 26.484 23.3319 26.7459C23.3319 27.0079 23.2342 27.2366 23.0388 27.432L18.8216 31.6493C18.5877 31.8831 18.3139 32 18 32C17.6861 32 17.4123 31.8831 17.1784 31.6493L12.9535 27.4243C12.7677 27.2385 12.6737 27.0135 12.6714 26.7493C12.6692 26.4851 12.7658 26.2553 12.9612 26.0599C13.1565 25.8709 13.3839 25.7765 13.6434 25.7765C13.9028 25.7765 14.1302 25.8709 14.3256 26.0599L17.0584 28.8004V18.9339Z" fill="#2C74D6"/>
</g>
</svg>
