<svg xmlns="http://www.w3.org/2000/svg" width="36" height="36" viewBox="0 0 36 36" fill="none">
  <mask id="mask0_4704_15861" style="mask-type:alpha" maskUnits="userSpaceOnUse" x="0" y="0" width="36" height="36">
    <rect width="36" height="36" fill="#D9D9D9"/>
  </mask>
  <g mask="url(#mask0_4704_15861)">
    <path d="M9.03906 32C8.47832 32 7.99829 31.7972 7.59897 31.3915C7.19966 30.9859 7 30.4982 7 29.9286V14.9452C7 14.3756 7.19966 13.8879 7.59897 13.4823C7.99829 13.0766 8.47832 12.8738 9.03906 12.8738H11.418V9.55952C11.418 7.74472 12.0479 6.19777 13.3077 4.91866C14.5675 3.63955 16.0912 3 17.8786 3C19.666 3 21.1885 3.63955 22.4459 4.91866C23.7033 6.19777 24.332 7.74472 24.332 9.55952V12.8738H26.7109C27.2717 12.8738 27.7517 13.0766 28.151 13.4823C28.5503 13.8879 28.75 14.3756 28.75 14.9452V29.9286C28.75 30.4982 28.5503 30.9859 28.151 31.3915C27.7517 31.7972 27.2717 32 26.7109 32H9.03906ZM9.03906 29.9286H26.7109V14.9452H9.03906V29.9286ZM17.8807 25.0952C18.6019 25.0952 19.2174 24.8417 19.7271 24.3346C20.2369 23.8276 20.4918 23.218 20.4918 22.506C20.4918 21.8155 20.235 21.1883 19.7214 20.6244C19.2079 20.0605 18.5905 19.7786 17.8693 19.7786C17.1481 19.7786 16.5326 20.0605 16.0229 20.6244C15.5131 21.1883 15.2582 21.8212 15.2582 22.5232C15.2582 23.2252 15.515 23.8294 16.0286 24.3357C16.5421 24.8421 17.1595 25.0952 17.8807 25.0952ZM13.457 12.8738H22.293V9.55952C22.293 8.31282 21.8638 7.25314 21.0056 6.38047C20.1473 5.50777 19.1051 5.07143 17.879 5.07143C16.6529 5.07143 15.6094 5.50777 14.7484 6.38047C13.8875 7.25314 13.457 8.31282 13.457 9.55952V12.8738Z" fill="#2C74D6"/>
  </g>
</svg>