<svg width="36" height="36" viewBox="0 0 36 36" fill="none" xmlns="http://www.w3.org/2000/svg">
<g id="Icons- DevOps">
<path id="Vector" d="M18 31.0779C20.6988 30.209 22.9463 28.5614 24.7426 26.135C26.5388 23.7086 27.5891 20.9961 27.8934 17.9974H18V5.01546L8.33333 8.61449C8.23074 8.65552 8.15125 8.71711 8.09485 8.79923C8.03842 8.88134 8.01021 8.9737 8.01021 9.07632V16.4375C8.01021 16.7283 8.01466 16.9821 8.02357 17.199C8.03245 17.4159 8.06014 17.682 8.10665 17.9974H18V31.0779ZM18 33C17.8557 33 17.7152 32.9867 17.5785 32.96C17.4417 32.9333 17.3039 32.8933 17.1651 32.8399C13.7333 31.6173 11.0145 29.4757 9.00873 26.4151C7.00291 23.3545 6 20.0232 6 16.4211V9.07532C6 8.54919 6.15283 8.07045 6.45848 7.63907C6.76411 7.20773 7.15316 6.89661 7.62564 6.70573L17.1231 3.1683C17.426 3.0561 17.7183 3 18 3C18.2817 3 18.574 3.0561 18.8769 3.1683L28.3743 6.70573C28.8468 6.89661 29.2359 7.20773 29.5415 7.63907C29.8472 8.07045 30 8.54919 30 9.07532V16.4211C30 20.0232 28.9971 23.3545 26.9913 26.4151C24.9854 29.4757 22.2667 31.6173 18.8349 32.8399C18.6961 32.8933 18.5583 32.9333 18.4215 32.96C18.2848 32.9867 18.1443 33 18 33Z" fill="white"/>
</g>
</svg>
