<svg width="48" height="48" viewBox="0 0 48 48" fill="none" xmlns="http://www.w3.org/2000/svg">
<rect x="16" y="16" width="16" height="16" rx="4" fill="#2C74D6"/>
<path fill-rule="evenodd" clip-rule="evenodd" d="M21.1213 22.7929C20.7308 22.4024 20.0976 22.4024 19.7071 22.7929C19.3166 23.1834 19.3166 23.8166 19.7071 24.2071L22.2929 26.7929C22.303 26.803 22.3133 26.8129 22.3237 26.8225C22.3762 26.8707 22.4326 26.9124 22.4919 26.9473C22.8754 27.1739 23.3776 27.1224 23.7071 26.7929M23.7088 26.7912L28.2929 22.2071C28.6834 21.8166 28.6834 21.1834 28.2929 20.7929C27.9024 20.4024 27.2692 20.4024 26.8787 20.7929L23 24.6716L21.1213 22.7929" fill="white"/>
</svg>
