<svg width="36" height="36" viewBox="0 0 36 36" fill="none" xmlns="http://www.w3.org/2000/svg">
<g id="Shopping and Logistics- industry">
<mask id="mask0_4704_15671" style="mask-type:alpha" maskUnits="userSpaceOnUse" x="0" y="0" width="36" height="36">
<rect id="Bounding box" width="36" height="36" fill="#D9D9D9"/>
</mask>
<g mask="url(#mask0_4704_15671)">
<path id="Vector" d="M8.6952 29.2364C7.50446 29.2364 6.49091 28.8192 5.65455 27.9848C4.81818 27.1505 4.4 26.1374 4.4 24.9455H2V8.18182C2 7.6 2.21818 7.09091 2.65455 6.65455C3.09091 6.21818 3.6 6 4.18182 6H25.2364V12.0727H29.0545L34 18.6545V24.9455H31.4182C31.4182 26.1374 31.0014 27.1505 30.1679 27.9848C29.3344 28.8192 28.3223 29.2364 27.1316 29.2364C25.9408 29.2364 24.9273 28.8192 24.0909 27.9848C23.2545 27.1505 22.8364 26.1374 22.8364 24.9455H12.9818C12.9818 26.1333 12.5651 27.1455 11.7316 27.9818C10.898 28.8182 9.88591 29.2364 8.6952 29.2364ZM8.69091 27.0545C9.27273 27.0545 9.7697 26.8485 10.1818 26.4364C10.5939 26.0242 10.8 25.5273 10.8 24.9455C10.8 24.3636 10.5939 23.8667 10.1818 23.4545C9.7697 23.0424 9.27273 22.8364 8.69091 22.8364C8.10909 22.8364 7.61212 23.0424 7.2 23.4545C6.78788 23.8667 6.58182 24.3636 6.58182 24.9455C6.58182 25.5273 6.78788 26.0242 7.2 26.4364C7.61212 26.8485 8.10909 27.0545 8.69091 27.0545ZM4.18182 22.7636H4.98182C5.39394 22.1091 5.91565 21.5879 6.54695 21.2C7.17824 20.8121 7.88127 20.6182 8.65604 20.6182C9.4308 20.6182 10.1394 20.8182 10.7818 21.2182C11.4242 21.6182 11.9515 22.1333 12.3636 22.7636H23.0545V8.18182H4.18182V22.7636ZM27.1273 27.0545C27.7091 27.0545 28.2061 26.8485 28.6182 26.4364C29.0303 26.0242 29.2364 25.5273 29.2364 24.9455C29.2364 24.3636 29.0303 23.8667 28.6182 23.4545C28.2061 23.0424 27.7091 22.8364 27.1273 22.8364C26.5455 22.8364 26.0485 23.0424 25.6364 23.4545C25.2242 23.8667 25.0182 24.3636 25.0182 24.9455C25.0182 25.5273 25.2242 26.0242 25.6364 26.4364C26.0485 26.8485 26.5455 27.0545 27.1273 27.0545ZM25.2364 19.6364H32L27.9636 14.2545H25.2364V19.6364Z" fill="white"/>
</g>
</g>
</svg>
