<svg width="108" height="30" viewBox="0 0 108 30" fill="none" xmlns="http://www.w3.org/2000/svg">
<g id="6sense-vector-logo 1">
<path id="Vector" d="M13.5983 10.4304C14.7123 10.68 15.7527 11.106 16.7195 11.7084C16.7483 11.726 16.7519 11.7476 16.7303 11.7732L13.4207 15.5844C13.3967 15.6124 13.367 15.6204 13.3318 15.6084C9.23472 14.2092 5.82306 18.0612 7.823 21.9384C7.84301 21.9776 7.8386 22.014 7.80979 22.0476L4.53618 25.8684C4.51138 25.8972 4.48737 25.8968 4.46416 25.8672C3.91996 25.1704 3.52581 24.5948 3.28172 24.1404C1.48466 20.7996 1.89401 16.7472 4.20006 13.8588C7.79899 9.35042 11.5264 4.95482 15.2141 0.514817C15.2179 0.510266 15.2225 0.506546 15.2278 0.503884C15.233 0.501222 15.2388 0.499675 15.2448 0.499338C15.2507 0.499001 15.2567 0.49988 15.2624 0.501923C15.2681 0.503966 15.2733 0.507129 15.2777 0.511218L19.0651 3.88922C19.0948 3.91482 19.0968 3.94242 19.0711 3.97202L13.5731 10.3536C13.5395 10.3936 13.5479 10.4192 13.5983 10.4304Z" fill="#777777"/>
<path id="Vector_2" d="M55.4961 16.5348C55.4993 16.5443 55.5058 16.5524 55.5144 16.5576C55.5229 16.5629 55.5331 16.565 55.543 16.5635C55.553 16.5621 55.5621 16.5573 55.5689 16.5498C55.5756 16.5424 55.5796 16.5329 55.5801 16.5228V11.1C55.5801 11.0841 55.5864 11.0689 55.5977 11.0576C55.6089 11.0463 55.6242 11.04 55.6401 11.04H60.8128C60.8256 11.04 60.8378 11.0451 60.8468 11.0541C60.8558 11.0631 60.8608 11.0753 60.8608 11.088L60.8632 12.444C60.863 12.4539 60.8657 12.4635 60.871 12.4718C60.8763 12.4801 60.884 12.4866 60.893 12.4905C60.9021 12.4944 60.9121 12.4954 60.9218 12.4936C60.9314 12.4917 60.9403 12.487 60.9473 12.48C62.2461 11.2272 63.8187 10.6116 65.6554 10.5984C69.0166 10.5756 72.0009 11.9508 73.295 15.1968C73.2969 15.2024 73.3005 15.2073 73.3053 15.2107C73.3102 15.2142 73.316 15.2159 73.3219 15.2158C73.3278 15.2157 73.3335 15.2136 73.3382 15.21C73.3429 15.2064 73.3462 15.2013 73.3478 15.1956C74.2446 12.4884 76.8531 10.9968 79.5577 10.686C82.8469 10.308 88.1469 11.4276 88.1889 15.7584C88.1889 15.7928 88.1717 15.81 88.1373 15.81H83.7305C83.6905 15.81 83.6668 15.7904 83.6596 15.7512C83.3307 14.0064 78.8279 13.7952 78.2072 15.504C77.9083 16.3248 78.5097 16.842 79.2804 17.0052C82.0955 17.6028 85.68 17.694 87.7495 20.1144C87.7768 20.1464 87.7904 20.1416 87.7904 20.1C87.8352 17.136 88.9356 14.7076 91.0916 12.8148C93.0771 11.0724 95.8297 10.2444 98.4539 10.6488C103.139 11.3712 105.807 15.7428 105.795 20.22C105.793 20.7048 105.745 21.1848 105.652 21.66C105.645 21.7 105.621 21.72 105.58 21.72H92.7338C92.6914 21.72 92.6782 21.7396 92.6942 21.7788C93.8334 24.6624 97.1286 25.5036 99.754 24.0264C100.019 23.8776 100.426 23.5348 100.975 22.998C101.005 22.9684 101.038 22.9644 101.074 22.986L104.753 25.2432C104.783 25.2616 104.787 25.2848 104.765 25.3128C101.939 28.7844 97.646 30.2988 93.4193 28.4736C91.4249 27.612 89.8899 26.158 88.8143 24.1116C88.7959 24.0772 88.7831 24.0788 88.7759 24.1164C88.2309 26.904 85.7412 28.4412 83.099 29.0412C79.9671 29.7528 76.3862 29.0376 74.2518 26.4804C74.2286 26.4532 74.217 26.4576 74.217 26.4936V28.59C74.217 28.63 74.197 28.65 74.1569 28.65H68.9962C68.9554 28.65 68.935 28.6296 68.935 28.5888C68.9358 26.1048 68.9346 23.6224 68.9314 21.1416C68.9302 19.5768 69.0058 17.43 67.6589 16.4628C66.5005 15.6312 64.3097 15.5448 63.0853 16.1652C62.0049 16.7148 61.245 17.8296 60.9617 18.9996C60.8784 19.342 60.836 19.8844 60.8344 20.6268C60.8304 23.2812 60.83 25.9352 60.8332 28.5888C60.8332 28.6296 60.8128 28.65 60.772 28.65H55.5801C55.5401 28.65 55.5201 28.63 55.5201 28.59V21.78C55.5201 21.74 55.5001 21.72 55.46 21.72H42.8866C42.8498 21.72 42.8386 21.7372 42.853 21.7716C43.8037 24.0744 46.2262 25.2228 48.6007 24.594C49.5983 24.33 50.411 23.7372 51.1216 22.9956C51.1536 22.962 51.1893 22.9572 51.2285 22.9812L54.9282 25.2744C54.9643 25.2968 54.9683 25.324 54.9403 25.356C52.9019 27.7332 50.4038 29.304 47.1806 29.2644C43.6585 29.2224 40.6346 27.204 38.9792 24.1116C38.9551 24.0684 38.9395 24.0712 38.9323 24.12C38.5602 26.5044 36.4798 28.0608 34.3322 28.7724C32.4371 29.4012 30.4868 29.4704 28.4813 28.98C26.1004 28.3976 24.4202 27.022 23.4406 24.8532C23.1909 24.2988 23.1489 23.676 23.0865 23.0688C23.0825 23.0296 23.1001 23.01 23.1393 23.01H27.9975C28.0335 23.01 28.0531 23.028 28.0563 23.064C28.4153 26.8164 35.3502 25.4856 33.7524 22.8168C33.0418 21.63 30.1559 21.366 28.9218 21.162C25.9988 20.6796 22.6915 18.9372 23.5415 15.3132C24.1285 12.81 26.695 11.2188 29.0755 10.7892C32.3887 10.1916 38.3513 11.1816 38.3945 15.738C38.3953 15.786 38.3717 15.81 38.3237 15.81H33.9817C33.9646 15.81 33.948 15.804 33.9348 15.7931C33.9217 15.7821 33.9128 15.7669 33.9097 15.75C33.8077 15.2088 33.4835 14.9412 32.9673 14.7252C31.7557 14.2196 30.5524 14.1836 29.3576 14.6172C28.2148 15.0324 27.9651 16.5852 29.3816 16.9464C32.6228 17.7708 36.0381 17.6556 37.9972 20.1336C38.0001 20.1373 38.004 20.1401 38.0085 20.1414C38.013 20.1428 38.0178 20.1428 38.0222 20.1413C38.0267 20.1399 38.0306 20.1371 38.0334 20.1334C38.0362 20.1296 38.0378 20.1251 38.038 20.1204C37.9672 14.6712 42.5985 10.278 47.9861 10.5768C51.3509 10.7628 54.0771 13.0188 55.3256 16.0716C55.3984 16.2492 55.4552 16.4036 55.4961 16.5348ZM50.896 16.6848C49.1373 14.5032 45.8517 14.5464 43.8373 16.3092C43.2083 16.86 42.8614 17.4972 42.8086 18.312C42.8081 18.3181 42.8089 18.3243 42.8109 18.3301C42.813 18.3359 42.8163 18.3412 42.8206 18.3457C42.8249 18.3503 42.8301 18.3539 42.8359 18.3563C42.8416 18.3588 42.8479 18.36 42.8542 18.36H51.4338C51.4634 18.36 51.4778 18.3452 51.477 18.3156C51.4458 17.6708 51.2521 17.1272 50.896 16.6848ZM101.244 18.3072C101.139 16.5072 99.4551 15.2952 97.8045 15.0828C95.7037 14.8116 92.819 15.8436 92.5861 18.3C92.5855 18.3077 92.5864 18.3154 92.5889 18.3226C92.5914 18.3299 92.5953 18.3366 92.6005 18.3422C92.6057 18.3478 92.612 18.3523 92.6191 18.3554C92.6261 18.3585 92.6337 18.3601 92.6414 18.36H101.193C101.229 18.36 101.245 18.3424 101.244 18.3072ZM77.8363 23.0304C78.206 26.6796 84.7749 25.5792 83.602 22.98C82.8794 21.3768 79.0487 21.3288 77.601 20.928C76.391 20.592 75.0405 19.98 74.1822 19.0428C74.1685 19.0276 74.1617 19.03 74.1617 19.05L74.1978 22.9104C74.1986 22.9568 74.2218 22.98 74.2674 22.98H77.7799C77.8135 22.98 77.8323 22.9968 77.8363 23.0304Z" fill="#777777"/>
<path id="Vector_3" d="M9.6072 23.628C13.8136 25.6524 17.8266 21.0204 15.2469 17.1408C15.2213 17.1016 15.2237 17.0644 15.2541 17.0292L18.5265 13.2048C18.5481 13.18 18.5697 13.18 18.5913 13.2048C19.0811 13.7856 19.394 14.1844 19.5301 14.4012C20.9538 16.6668 21.4036 19.066 20.8794 21.5988C19.5097 28.206 11.9229 31.3452 6.28077 27.4572C6.25196 27.4372 6.24916 27.414 6.27237 27.3876L9.51596 23.646C9.54157 23.6172 9.57199 23.6112 9.6072 23.628Z" fill="#777777"/>
</g>
</svg>
