<svg width="154" height="28" viewBox="0 0 154 28" fill="none" xmlns="http://www.w3.org/2000/svg">
<g clip-path="url(#clip0_5082_10909)">
<g clip-path="url(#clip1_5082_10909)">
<path d="M23.2572 16.5025C31.8759 23.0125 41.7022 13.1512 35.2447 4.36623C35.0813 4.1504 35.0959 3.94623 35.2884 3.75373L39.5322 -0.481268C39.6104 -0.560489 39.7051 -0.62158 39.8095 -0.660236C39.9139 -0.698891 40.0256 -0.714168 40.1365 -0.70499C40.2475 -0.695812 40.3551 -0.662403 40.4518 -0.607117C40.5484 -0.551832 40.6318 -0.476017 40.6959 -0.385018C45.0943 5.89165 45.7301 11.8533 42.6034 17.5C37.7297 26.2937 25.8034 28.7612 18.3134 21.4462C18.0743 21.2129 18.0713 20.9766 18.3047 20.7375L22.4959 16.555C22.7351 16.3158 22.9888 16.2983 23.2572 16.5025Z" fill="#777777"/>
<path d="M0.875 17.6663V14.6038C3.22 1.84627 17.2812 -3.70998 27.125 5.24127C27.3408 5.43377 27.3437 5.63211 27.1337 5.83627L22.8812 10.01C22.6421 10.2492 22.3825 10.2696 22.1025 10.0713C13.3612 3.81502 3.84125 13.475 10.0712 22.155C10.2696 22.4234 10.2492 22.6742 10.01 22.9075L5.845 27.0725C5.59417 27.3234 5.34625 27.3204 5.10125 27.0638C2.63958 24.4446 1.23083 21.3121 0.875 17.6663Z" fill="#777777"/>
<path d="M32.1825 8.06747C32.7963 8.06747 33.2938 7.56995 33.2938 6.95622C33.2938 6.34249 32.7963 5.84497 32.1825 5.84497C31.5688 5.84497 31.0713 6.34249 31.0713 6.95622C31.0713 7.56995 31.5688 8.06747 32.1825 8.06747Z" fill="#777777"/>
<path d="M154 8.14623V8.80248L153.694 10.4562C153.635 10.7479 153.46 10.9112 153.169 10.9462C147.254 11.6725 148.881 18.025 148.689 21.9625C148.671 22.3417 148.473 22.5312 148.094 22.5312H146.449C146.087 22.5312 145.906 22.3504 145.906 21.9887V9.08248C145.906 8.71498 146.09 8.53123 146.458 8.53123H147.919C148.245 8.53123 148.432 8.69457 148.479 9.02123L148.619 10.0537C148.7 10.6779 148.925 10.7333 149.292 10.22C150.459 8.55748 152.028 7.86623 154 8.14623Z" fill="#777777"/>
<path d="M61.5824 12.4513C61.5766 12.7838 61.7282 13.0113 62.0374 13.1338C64.0237 13.9388 67.3486 15.1988 68.3286 16.9313C69.2911 18.6288 68.5736 20.7463 66.9286 21.8225C64.082 23.7067 61.2616 23.3975 58.4674 20.895C58.2049 20.6617 58.1699 20.3963 58.3624 20.0988L59.2111 18.7863C59.392 18.5121 59.602 18.4858 59.8411 18.7075C63.1836 21.7875 68.3811 18.8825 64.8111 17.2725C62.3611 16.17 56.0262 13.8863 59.7624 9.82626C61.9966 7.39959 64.7003 7.36751 67.8736 9.73001C68.2703 10.0217 68.3053 10.3542 67.9787 10.7275L66.9899 11.8475C66.7274 12.1392 66.4561 12.1508 66.1761 11.8825C65.1611 10.9288 61.6086 9.94001 61.5824 12.4513Z" fill="#777777"/>
<path d="M74.4537 9.45001C74.8387 8.91917 75.1742 8.61584 75.46 8.54001C85.0237 5.95876 83.0988 16.6338 83.1338 22.0413C83.1338 22.3679 82.9704 22.5313 82.6437 22.5313H80.8937C80.4912 22.5313 80.2871 22.33 80.2812 21.9275C80.2812 19.6438 80.8413 13.7988 79.66 12.0138C78.54 10.3338 75.3113 10.5788 74.1913 12.4163C73.2113 14.035 73.71 19.95 73.7275 22.0413C73.7333 22.3679 73.5729 22.5313 73.2462 22.5313H71.4262C71.0587 22.5313 70.875 22.3504 70.875 21.9888V9.19626C70.875 8.89876 71.015 8.70042 71.295 8.60126C72.4383 8.19876 73.2637 8.46709 73.7712 9.40626C73.9754 9.77959 74.2029 9.79417 74.4537 9.45001Z" fill="#777777"/>
<path d="M96.3105 21.4025C93.143 23.6075 90.3284 23.6133 87.8668 21.42C80.9893 15.295 88.8293 3.48248 96.4505 9.76498C96.7247 9.99248 96.9172 9.93415 97.028 9.58998L97.1943 9.06498C97.3051 8.70915 97.5472 8.53123 97.9205 8.53123H99.2068C99.5684 8.53123 99.7493 8.71207 99.7493 9.07373V21.8575C99.7493 22.1375 99.6209 22.3271 99.3643 22.4262C97.9993 22.9396 97.1651 22.6654 96.8618 21.6037C96.7684 21.2771 96.5847 21.21 96.3105 21.4025ZM92.4699 20.1775C93.0456 20.1785 93.6158 20.0591 94.1481 19.8261C94.6804 19.5931 95.1642 19.251 95.5721 18.8195C95.9799 18.3879 96.3037 17.8753 96.525 17.3109C96.7463 16.7465 96.8607 16.1414 96.8618 15.5301C96.8639 14.2955 96.4041 13.1107 95.5835 12.2363C94.763 11.3619 93.6488 10.8695 92.4862 10.8675C91.9105 10.8665 91.3402 10.9859 90.8079 11.2189C90.2757 11.4519 89.7918 11.7939 89.384 12.2255C88.9762 12.657 88.6524 13.1697 88.4311 13.734C88.2098 14.2984 88.0953 14.9036 88.0943 15.5149C88.0921 16.7494 88.5519 17.9343 89.3725 18.8087C90.1931 19.6831 91.3073 20.1755 92.4699 20.1775Z" fill="#777777"/>
<path d="M105.236 21.2362L105.455 27.2125C105.472 27.5916 105.292 27.7812 104.913 27.7812H103.145C102.777 27.7812 102.594 27.6004 102.594 27.2387V9.08248C102.594 8.71498 102.775 8.53123 103.136 8.53123H104.676C105.038 8.53123 105.219 8.71498 105.219 9.08248V9.58998C105.219 10.0391 105.394 10.1237 105.744 9.84373C110.066 6.43123 114.992 8.15498 116.629 13.1337C118.816 19.8012 111.458 26.4687 105.543 21.0962C105.327 20.9037 105.225 20.9504 105.236 21.2362ZM114.284 15.5312C114.284 14.9383 114.167 14.3512 113.94 13.8034C113.713 13.2556 113.381 12.7579 112.961 12.3386C112.542 11.9194 112.044 11.5868 111.497 11.3599C110.949 11.133 110.362 11.0162 109.769 11.0162C108.571 11.0162 107.423 11.4919 106.576 12.3386C105.729 13.1854 105.254 14.3338 105.254 15.5312C105.254 16.7287 105.729 17.8771 106.576 18.7238C107.423 19.5705 108.571 20.0462 109.769 20.0462C110.362 20.0462 110.949 19.9294 111.497 19.7025C112.044 19.4756 112.542 19.1431 112.961 18.7238C113.381 18.3046 113.713 17.8068 113.94 17.259C114.167 16.7113 114.284 16.1241 114.284 15.5312Z" fill="#777777"/>
<path d="M121.87 11.4887C121.743 11.578 121.642 11.6994 121.577 11.8406C121.512 11.9817 121.486 12.1378 121.501 12.293C121.517 12.4482 121.572 12.597 121.663 12.7247C121.754 12.8523 121.876 12.9541 122.018 13.02C124.293 14.07 127.566 15.19 128.625 17.465C129.47 19.285 128.873 20.825 126.831 22.085C123.862 23.9108 121.062 23.4325 118.431 20.65C118.215 20.4225 118.203 20.1862 118.396 19.9412L119.288 18.795C119.539 18.4742 119.808 18.4596 120.093 18.7512C121.502 20.16 126.866 21.3675 125.903 18.0862C125.822 17.7946 125.638 17.5904 125.352 17.4737C122.281 16.1612 117.092 14.3675 119.253 10.4387C121.065 7.15749 126.078 7.38499 128.205 10.1675C128.444 10.4825 128.403 10.7537 128.082 10.9812L126.77 11.8912C126.478 12.0896 126.21 12.0633 125.965 11.8125C124.728 10.535 123.363 10.4271 121.87 11.4887Z" fill="#777777"/>
<path d="M132.939 17.08C134.683 20.44 137.241 21.1166 140.612 19.11C140.892 18.9466 141.14 18.9846 141.356 19.2237L142.424 20.3875C142.692 20.6791 142.666 20.9387 142.345 21.1662C133.219 27.7025 125.134 14.9887 133.525 9.21372C138.757 5.61747 144.506 10.4125 143.614 16.1437C143.567 16.4646 143.38 16.625 143.054 16.625H133.219C133.165 16.6253 133.113 16.6393 133.066 16.6655C133.02 16.6917 132.981 16.7294 132.953 16.7749C132.925 16.8204 132.909 16.8723 132.906 16.9256C132.904 16.979 132.915 17.0321 132.939 17.08ZM133.367 14.4462L140.805 14.4287C140.826 14.4288 140.848 14.4244 140.867 14.416C140.887 14.4075 140.905 14.3951 140.919 14.3795C140.934 14.364 140.946 14.3456 140.953 14.3254C140.96 14.3053 140.964 14.2839 140.962 14.2625V14.175C140.96 13.7452 140.864 13.32 140.678 12.9238C140.493 12.5276 140.222 12.1681 139.882 11.8658C139.541 11.5636 139.138 11.3245 138.694 11.1622C138.25 10.9999 137.775 10.9176 137.296 10.92H136.841C135.874 10.9248 134.947 11.2741 134.266 11.8911C133.585 12.5081 133.205 13.3422 133.21 14.21V14.2975C133.212 14.3377 133.23 14.3756 133.259 14.4032C133.288 14.4309 133.327 14.4463 133.367 14.4462Z" fill="#777777"/>
<path d="M29.4122 10.6584C29.9887 10.3969 30.2586 9.74964 30.0151 9.21274C29.7715 8.67583 29.1067 8.45258 28.5302 8.7141C27.9537 8.97562 27.6838 9.62287 27.9273 10.1598C28.1709 10.6967 28.8357 10.9199 29.4122 10.6584Z" fill="#777777"/>
<path d="M19.7051 14.3237C20.3043 14.3237 20.7901 13.838 20.7901 13.2387C20.7901 12.6395 20.3043 12.1537 19.7051 12.1537C19.1059 12.1537 18.6201 12.6395 18.6201 13.2387C18.6201 13.838 19.1059 14.3237 19.7051 14.3237Z" fill="#777777"/>
<path d="M24.771 12.8593C24.4843 13.4292 24.6755 14.1041 25.1979 14.3668C25.7202 14.6296 26.3761 14.3806 26.6627 13.8107C26.9493 13.2408 26.7582 12.5659 26.2358 12.3032C25.7134 12.0404 25.0576 12.2894 24.771 12.8593Z" fill="#777777"/>
<path d="M16.7032 15.3825C16.8987 15.3876 17.0865 15.46 17.2348 15.5876C17.383 15.7151 17.4827 15.89 17.5169 16.0825C17.6569 16.8642 17.3507 17.4271 16.5982 17.7713C15.869 18.098 15.4607 17.8646 15.3732 17.0713C15.2448 15.9163 15.6882 15.3534 16.7032 15.3825Z" fill="#777777"/>
<path d="M13.2471 20.7638C13.8415 20.7638 14.3234 20.2819 14.3234 19.6875C14.3234 19.0931 13.8415 18.6113 13.2471 18.6113C12.6528 18.6113 12.1709 19.0931 12.1709 19.6875C12.1709 20.2819 12.6528 20.7638 13.2471 20.7638Z" fill="#777777"/>
</g>
</g>
<defs>
<clipPath id="clip0_5082_10909">
<rect width="154" height="28" fill="white"/>
</clipPath>
<clipPath id="clip1_5082_10909">
<rect width="153.125" height="28.875" fill="white" transform="translate(0.875 -0.875)"/>
</clipPath>
</defs>
</svg>
