<svg width="36" height="36" viewBox="0 0 36 36" fill="none" xmlns="http://www.w3.org/2000/svg">
<g id="Icons- DevOps">
<path id="Vector" d="M17.648 23.0029C19.346 23.0029 20.7958 22.4561 21.9976 21.3625C23.1993 20.2688 23.8002 18.9386 23.8002 17.3717C23.8002 16.02 23.3728 14.8671 22.5178 13.9131C21.6629 12.9591 20.6136 12.4821 19.3701 12.4821C18.2953 12.4821 17.3735 12.8312 16.6048 13.5293C15.836 14.2275 15.4517 15.0818 15.4517 16.0924C15.4517 16.5288 15.5314 16.9682 15.6909 17.4107C15.8503 17.8532 16.1113 18.2343 16.4739 18.5538C16.7485 18.8187 17.031 18.9312 17.3214 18.8913C17.6118 18.8515 17.8491 18.7341 18.0333 18.5393C18.2144 18.345 18.3219 18.1137 18.3559 17.8454C18.3898 17.5771 18.2863 17.3245 18.0453 17.0877C17.9159 16.9575 17.8017 16.8092 17.7026 16.6429C17.6036 16.4766 17.554 16.2999 17.554 16.1128C17.554 15.7313 17.7115 15.3905 18.0266 15.0904C18.3416 14.7903 18.7894 14.6402 19.3701 14.6402C20.0123 14.6402 20.5651 14.8977 21.0285 15.4127C21.4919 15.9276 21.7236 16.5947 21.7236 17.4138C21.7236 18.3736 21.3434 19.1968 20.5832 19.8832C19.8229 20.5696 18.858 20.9128 17.6883 20.9128C16.3137 20.9128 15.1399 20.3615 14.167 19.2589C13.1941 18.1562 12.7077 16.7844 12.7077 15.1433C12.7077 14.4901 12.8069 13.8541 13.0054 13.2352C13.2038 12.6164 13.4943 12.0328 13.8769 11.4844C14.0457 11.2318 14.1308 10.9608 14.1322 10.6715C14.1337 10.3822 14.0289 10.1263 13.8179 9.90394C13.5998 9.69161 13.3449 9.58778 13.0532 9.59244C12.7614 9.59713 12.5261 9.72075 12.3473 9.96331C11.771 10.6838 11.3295 11.4832 11.0231 12.3615C10.7167 13.2399 10.5635 14.1531 10.5635 15.1012C10.5635 17.2876 11.2491 19.1512 12.6204 20.6919C13.9917 22.2326 15.6675 23.0029 17.648 23.0029ZM8.02014 27.2114C6.43043 25.7517 5.19631 24.0788 4.31779 22.1927C3.43926 20.3066 3 18.3437 3 16.3041C3 12.3307 4.38287 8.95339 7.1486 6.17205C9.9143 3.39068 13.2727 2 17.2237 2C20.4739 2 23.3803 2.9776 25.9429 4.93281C28.5055 6.88801 30.1698 9.42458 30.9357 12.5425L32.9531 20.5822C33.0598 20.9976 32.9845 21.3729 32.727 21.7079C32.4696 22.043 32.121 22.2105 31.6812 22.2105H28.1006V27.9973C28.1006 28.7161 27.8429 29.3349 27.3276 29.8535C26.8123 30.3722 26.1975 30.6316 25.4833 30.6316H21.4071V32.942C21.4071 33.2417 21.3058 33.493 21.1032 33.6958C20.9007 33.8986 20.6497 34 20.3502 34C20.0508 34 19.8017 33.8986 19.6029 33.6958C19.4041 33.493 19.3047 33.2417 19.3047 32.942V29.8407C19.3047 29.4595 19.4301 29.1433 19.6809 28.8922C19.9317 28.6411 20.2425 28.5156 20.6133 28.5156H25.4833C25.6334 28.5156 25.7568 28.467 25.8534 28.3698C25.9499 28.2726 25.9982 28.1484 25.9982 27.9973V21.4116C25.9982 21.0384 26.1236 20.7256 26.3744 20.4731C26.6253 20.2207 26.9361 20.0945 27.3068 20.0945H30.6407L28.9094 13.0499C28.2565 10.4012 26.8374 8.25009 24.652 6.59648C22.4666 4.94283 19.9905 4.11601 17.2237 4.11601C13.8626 4.11601 11.0021 5.29121 8.64226 7.64162C6.28235 9.99202 5.10239 12.8564 5.10239 16.2349C5.10239 17.9846 5.45743 19.6425 6.1675 21.2086C6.87757 22.7747 7.88055 24.1644 9.17644 25.3777L10.1225 26.2721V32.942C10.1225 33.2417 10.0212 33.493 9.81868 33.6958C9.61612 33.8986 9.36513 34 9.0657 34C8.76625 34 8.51713 33.8986 8.31833 33.6958C8.11953 33.493 8.02014 33.2417 8.02014 32.942V27.2114Z" fill="#2C74D6"/>
</g>
</svg>
