<svg width="113" height="32" viewBox="0 0 113 32" fill="none" xmlns="http://www.w3.org/2000/svg">
<g id="Group">
<g id="Group 1000001098">
<path id="Ellipse 125" d="M27.5713 15.9998C27.5713 22.8568 22.1411 28.3101 15.5713 28.3101C9.00149 28.3101 3.57129 22.8568 3.57129 15.9998C3.57129 9.14277 9.00149 3.68945 15.5713 3.68945C22.1411 3.68945 27.5713 9.14277 27.5713 15.9998Z" stroke="#555555" stroke-width="6"/>
<path id="Vector" d="M27.8445 1.14799V1.60592H26.9236H26.0027V2.06384V2.52176H25.5535H25.1043V3.46049V4.39923H24.6551H24.2059V3.94131V3.48339H23.7342H23.258L23.2715 3.92757L23.285 4.37634L23.7476 4.39007L24.2059 4.40381V4.85715V5.31507H23.285H22.3641V5.77299V6.23092H21.9148H21.4656V6.68884V7.14676H21.0164H20.5672V7.60468V8.05802L20.109 8.07176L19.6463 8.08549L19.6328 8.55257L19.6193 9.02423H19.1746H18.7254V9.48215V9.94007H18.2762H17.8314L17.3867 10.5216C16.3535 11.8771 15.6213 12.999 15.0687 14.0705C14.8082 14.5742 14.2467 15.8656 14.031 16.4517C13.9861 16.5753 13.9367 16.6715 13.9232 16.6715C13.9053 16.6715 13.8379 16.5525 13.766 16.4059C13.3797 15.6046 12.6699 14.5513 12.0769 13.9102C11.2234 12.9852 9.69609 11.9824 9.03573 11.9229C8.78417 11.9 8.75722 11.9046 8.60898 12.0419C8.40234 12.2251 8.29003 12.509 8.32597 12.738C8.37089 13.0173 8.51913 13.2234 9.6332 14.5697C10.2935 15.371 10.8191 16.0899 11.1066 16.5845C11.3941 17.0745 12.0545 18.4345 12.616 19.6938C13.465 21.5987 13.5594 21.7499 13.9996 21.9788C14.3275 22.1482 14.5162 22.1757 14.8666 22.1024C15.4551 21.9742 15.7605 21.6995 15.9357 21.1454C15.9807 20.9897 16.0975 20.5089 16.1873 20.083C16.7353 17.45 17.5215 15.8793 19.1342 14.1758L19.6687 13.6126V13.1776V12.738L20.109 12.7242L20.5447 12.7105L20.5582 12.2388L20.5717 11.7718H21.0164H21.4656V11.3138V10.8559H21.9148H22.3641V10.398V9.94007H22.8357H23.3074V9.48215V9.02423H23.7566H24.2059V8.56631V8.11297L24.6461 8.09923L25.0818 8.08549L25.0953 7.61384L25.1088 7.14676H25.5535H26.0027V6.23092V5.31507H26.4519H26.9012V4.85715V4.40381L27.3639 4.39007L27.8221 4.37634L27.8355 3.92757L27.849 3.48339H27.3728H26.9012V3.94131V4.39923H26.4519H26.0027V3.46049V2.52176H26.9236H27.8445V2.06384V1.60592H28.2937H28.743V1.14799V0.690075H28.2937H27.8445V1.14799ZM26.0027 4.85715V5.31507H25.5535H25.1043V5.77299V6.23092H24.6551H24.2059V5.77299V5.31507H24.6551H25.1043V4.85715V4.39923H25.5535H26.0027V4.85715ZM22.3641 7.62757V8.0626H21.9148H21.4656V7.62757V7.19255H21.9148H22.3641V7.62757ZM22.3641 9.48215V9.94007H21.9148H21.4656V9.48215V9.02423H21.9148H22.3641V9.48215Z" fill="#555555"/>
</g>
<path id="Vector_2" d="M35.6541 9.04184C34.549 9.20669 33.5248 9.75619 32.9633 10.4889C32.4377 11.1666 32.2131 12.0824 32.3074 13.1219C32.4197 14.3171 32.7746 14.9719 33.682 15.6588C34.293 16.1167 34.6973 16.3045 36.283 16.854C37.6037 17.3073 38.0664 17.5683 38.3135 18.0033C38.4168 18.1819 38.4393 18.2689 38.4393 18.562C38.4393 19.3679 37.9316 19.8396 36.8984 19.9861C36.2426 20.0823 35.1375 19.9449 34.4098 19.6793C34.0189 19.5328 33.4395 19.2443 33.1699 19.0566C33.0621 18.9787 32.9678 18.9283 32.9633 18.9375C32.9588 18.9421 32.6848 19.4046 32.3523 19.9541L31.7549 20.9569L31.8627 21.0394C32.3434 21.4103 33.3137 21.8728 34.0145 22.0651C35.5193 22.4727 37.3836 22.4818 38.574 22.0788C39.7869 21.6713 40.6854 20.7463 41.0088 19.5694C41.0717 19.3359 41.0896 19.1069 41.0896 18.5162C41.0852 17.6233 41.0402 17.3989 40.7033 16.6937C40.4338 16.1259 40.0654 15.7 39.5219 15.3382C38.8166 14.862 38.3225 14.6514 36.8355 14.1843C35.8518 13.8775 35.3441 13.6485 35.1645 13.4287C34.9488 13.1723 34.8545 12.9021 34.859 12.5587C34.859 12.1969 34.9578 11.9679 35.2229 11.7253C35.8338 11.1666 37.6441 11.2032 39.1355 11.8123C39.3602 11.9038 39.5488 11.9725 39.5578 11.9634C39.5623 11.9542 39.7734 11.478 40.0205 10.901L40.4742 9.85693L40.1777 9.70582C39.5533 9.38528 38.8301 9.17463 37.9721 9.06015C37.451 8.98689 36.0898 8.97773 35.6541 9.04184Z" fill="#555555"/>
<path id="Vector_3" d="M88.7475 10.0766C88.7295 10.1728 88.6217 10.7864 88.5049 11.4412L88.2982 12.6318L87.593 12.6455L86.8877 12.6593V13.6163V14.578H87.584H88.2758L88.2893 17.3804C88.3027 19.8807 88.3162 20.2195 88.3836 20.4622C88.5184 20.9385 88.725 21.314 89.0215 21.6116C89.5471 22.152 90.1895 22.3672 91.2586 22.3672C92.184 22.3672 93.316 22.1428 93.3115 21.9596C93.307 21.8085 93.0105 20.1646 92.9836 20.1371C92.9701 20.1188 92.8129 20.1417 92.6377 20.1875C92.4086 20.2424 92.202 20.2608 91.8965 20.247C91.4068 20.2241 91.2811 20.16 91.1328 19.8624C91.0475 19.6929 91.043 19.5785 91.0295 17.1332L91.016 14.578L92.0178 14.5688L93.0195 14.5551L93.033 13.6026L93.042 12.6547H92.0312H91.0205V11.2809V9.90716H89.8975H88.7789L88.7475 10.0766Z" fill="#555555"/>
<path id="Vector_4" d="M56.9922 12.4937C56.3363 12.6402 55.64 13.0569 54.9977 13.6843L54.5979 14.0781L54.3373 13.3637L54.0723 12.654H53.2098H52.3428V17.4163V22.1787H53.7354H55.1279V18.8405V15.4976L55.3795 15.287C55.8916 14.8657 56.3678 14.678 56.7945 14.7375C57.2258 14.797 57.4414 15.0626 57.5133 15.6167C57.5313 15.7907 57.5492 17.3339 57.5537 19.0511V22.1787H58.9238H60.2939V18.8359V15.4931L60.5545 15.287C61.4395 14.5726 62.3199 14.5498 62.6119 15.2275C62.6928 15.4106 62.6973 15.6259 62.7107 18.7993L62.7242 22.1787H64.0943H65.4645L65.4465 18.5932C65.433 15.3648 65.424 14.9802 65.3521 14.6688C65.1635 13.8537 64.7771 13.1531 64.3459 12.8371C63.9416 12.5395 63.5822 12.4479 62.832 12.4479C62.266 12.4525 62.1672 12.4662 61.8482 12.5807C61.2418 12.7913 60.568 13.2401 60.1188 13.7209L59.966 13.8858L59.8043 13.6064C59.4764 13.0295 58.9688 12.6402 58.3533 12.4937C58.0074 12.4113 57.3561 12.4113 56.9922 12.4937Z" fill="#555555"/>
<path id="Vector_5" d="M70.3793 12.4761C69.6246 12.5722 68.7307 12.8653 67.9446 13.2683L67.5268 13.4789L67.9446 14.294C68.1692 14.7428 68.3893 15.1595 68.4297 15.219L68.4971 15.3243L68.8789 15.164C69.7549 14.784 70.4422 14.6145 71.134 14.6145C71.5293 14.6145 71.6012 14.6283 71.8303 14.7428C72.0504 14.8572 72.1043 14.9122 72.2076 15.1274C72.293 15.3014 72.3379 15.4892 72.3604 15.7273L72.3918 16.0753L72.0145 16.1348C71.3227 16.2356 70.1637 16.5058 69.6201 16.6889C67.8592 17.2796 67.2348 18.0398 67.2393 19.5921C67.2438 20.4576 67.4549 21.0254 67.9805 21.5475C68.5196 22.0878 69.2428 22.3671 70.1233 22.3671C71.0936 22.3717 71.8887 22.0603 72.7737 21.3277C72.8545 21.259 72.9264 21.2132 72.9354 21.2223C72.9444 21.2315 73.0567 21.4513 73.1824 21.7077L73.4115 22.1794H74.2696H75.1231L75.1096 18.6855C75.0961 15.2556 75.0916 15.1915 74.9973 14.8389C74.6334 13.5293 73.7125 12.7233 72.311 12.4944C71.8707 12.4211 70.8869 12.4119 70.3793 12.4761ZM72.3783 18.832V19.8348L72.1043 20.0226C71.7584 20.2607 71.3362 20.3935 70.9408 20.3935C70.4467 20.3935 70.1547 20.2378 70.011 19.8944C69.9346 19.7112 69.9256 19.1388 69.9975 18.951C70.1637 18.5023 70.6893 18.2184 71.8617 17.9253C72.4367 17.7834 72.3783 17.678 72.3783 18.832Z" fill="#555555"/>
<path id="Vector_6" d="M82.0855 12.4754C81.3398 12.6219 80.648 13.0203 79.9607 13.698C79.7406 13.9132 79.5654 14.0781 79.5654 14.0689C79.5609 14.0598 79.4441 13.7392 79.3049 13.3637L79.0443 12.6769L78.1818 12.6631L77.3193 12.654V17.4163V22.1787H78.7119H80.1045V18.8405V15.5022L80.2572 15.3649C80.7379 14.9344 81.1646 14.7512 81.6768 14.7467C82.0541 14.7421 82.2248 14.8062 82.409 15.0351C82.6381 15.3099 82.6381 15.2916 82.6516 18.845L82.6695 22.1787H84.0352H85.4053V18.845C85.4053 16.8943 85.3873 15.3465 85.3604 15.1038C85.1941 13.6248 84.5383 12.7272 83.4422 12.4937C83.1098 12.4204 82.4 12.4113 82.0855 12.4754Z" fill="#555555"/>
<path id="Vector_7" d="M98.0958 12.4575C97.7184 12.517 97.2018 12.6773 96.8784 12.8375C95.6341 13.4466 94.7581 14.8203 94.52 16.5375C94.4436 17.1008 94.4931 18.4746 94.6099 18.9828C94.8075 19.8529 95.1804 20.5581 95.7374 21.1305C96.6628 22.0738 97.8083 22.4493 99.4974 22.3577C100.095 22.3211 100.787 22.17 101.357 21.9456C101.725 21.8036 102.642 21.2175 102.687 21.0984C102.705 21.0435 101.838 19.5644 101.69 19.395C101.649 19.3446 101.532 19.3904 101.101 19.6148C100.405 19.9765 99.8522 20.1276 99.1964 20.1276C98.0643 20.1322 97.5118 19.6377 97.3321 18.4333L97.3007 18.241H100.14H102.983L102.956 17.3343C102.929 16.3223 102.849 15.8369 102.588 15.0997C102.112 13.7351 101.258 12.8925 100.027 12.5582C99.7489 12.4849 99.5063 12.4575 98.9493 12.4483C98.554 12.4392 98.1722 12.4437 98.0958 12.4575ZM99.4345 14.5914C99.8433 14.8341 100.086 15.3836 100.126 16.1437L100.153 16.5925H98.7292H97.3052L97.3321 16.3727C97.4714 15.3698 97.7679 14.7929 98.2755 14.5456C98.4686 14.4494 98.5495 14.4357 98.864 14.454C99.1604 14.4677 99.2638 14.4906 99.4345 14.5914Z" fill="#555555"/>
<path id="Vector_8" d="M108.037 12.4765C107.103 12.6139 106.204 13.0856 105.638 13.7221C104.803 14.67 104.362 15.9476 104.362 17.4404C104.362 19.0065 104.789 20.2841 105.616 21.1862C105.849 21.4426 106.424 21.8364 106.815 22.0104C107.21 22.1845 107.808 22.3173 108.378 22.3585C109.852 22.4546 110.988 22.1066 111.918 21.2686L112.129 21.0763L111.496 20.2429C111.146 19.785 110.849 19.3911 110.831 19.3728C110.813 19.3499 110.696 19.4049 110.579 19.4919C110.274 19.7117 109.847 19.9223 109.542 20.0048C109.2 20.0963 108.652 20.0918 108.365 19.9956C108.104 19.9132 107.776 19.643 107.615 19.382C107.121 18.5852 107.062 16.6207 107.507 15.6453C107.776 15.0455 108.185 14.7616 108.832 14.7249C109.438 14.6929 109.964 14.8486 110.49 15.2149L110.692 15.3569L111.321 14.4456C111.671 13.9419 111.954 13.5114 111.954 13.484C111.954 13.4199 111.258 12.9574 110.952 12.82C110.629 12.6734 110.139 12.5406 109.721 12.4765C109.353 12.417 108.414 12.417 108.037 12.4765Z" fill="#555555"/>
<path id="Vector_9" d="M42.1904 12.6687C42.1904 12.6778 42.9586 14.9262 43.8975 17.6646L45.6045 22.6468L45.5191 22.7887C45.1238 23.439 44.4051 23.7092 43.3135 23.6176C42.9766 23.5901 42.8014 23.5901 42.7924 23.6222C42.7834 23.6451 42.716 24.0801 42.6396 24.5792C42.5363 25.2707 42.5184 25.5042 42.5588 25.5271C42.8014 25.6828 44.4904 25.7286 45.0564 25.5958C45.8066 25.4264 46.3727 25.115 46.8893 24.5884C47.2936 24.1762 47.599 23.7 47.8506 23.1001C47.9449 22.8803 48.6637 20.4991 49.4408 17.802C50.2225 15.1094 50.8828 12.8519 50.9053 12.7786L50.9457 12.655H49.607H48.2729L47.5361 16.1123C47.1318 18.0126 46.7904 19.5604 46.7814 19.5467C46.7725 19.5375 46.3727 17.9852 45.8965 16.1031L45.034 12.6778L43.6145 12.6641C42.8283 12.6595 42.1904 12.6595 42.1904 12.6687Z" fill="#555555"/>
</g>
</svg>
