<svg width="36" height="37" viewBox="0 0 36 37" fill="none" xmlns="http://www.w3.org/2000/svg">
<path d="M5.91349 29.7499C5.32526 29.7499 4.81763 29.5364 4.39058 29.1094C3.96353 28.6823 3.75 28.1747 3.75 27.5864V9.41349C3.75 8.82526 3.96353 8.31763 4.39058 7.89058C4.81763 7.46353 5.32526 7.25 5.91349 7.25H30.0864C30.6747 7.25 31.1823 7.46353 31.6094 7.89058C32.0364 8.31763 32.2499 8.82526 32.2499 9.41349V27.5864C32.2499 28.1747 32.0364 28.6823 31.6094 29.1094C31.1823 29.5364 30.6747 29.7499 30.0864 29.7499H5.91349ZM5.91349 28.048H30.0864C30.2018 28.048 30.3076 28 30.4038 27.9038C30.5 27.8076 30.548 27.7018 30.548 27.5864V12.0586H5.4519V27.5864C5.4519 27.7018 5.49998 27.8076 5.59613 27.9038C5.6923 28 5.79809 28.048 5.91349 28.048ZM13.9269 20.0605L10.6269 16.7461C10.4596 16.5884 10.3778 16.3937 10.3814 16.1618C10.385 15.93 10.4745 15.7296 10.65 15.5606C10.8173 15.3933 11.0173 15.312 11.25 15.3168C11.4826 15.3216 11.6826 15.4077 11.85 15.575L15.5769 19.3019C15.7922 19.5164 15.8999 19.7667 15.8999 20.0527C15.8999 20.3387 15.7922 20.5894 15.5769 20.8048L11.8355 24.5461C11.6682 24.723 11.4716 24.8067 11.2457 24.797C11.0197 24.7874 10.8211 24.699 10.65 24.5317C10.4827 24.3644 10.399 24.1716 10.399 23.9533C10.399 23.7351 10.4827 23.5423 10.65 23.375L13.9269 20.0605ZM19.5 25.4115C19.2521 25.4115 19.0484 25.3316 18.8886 25.1718C18.7289 25.012 18.649 24.8082 18.649 24.5603C18.649 24.3124 18.7289 24.1086 18.8886 23.949C19.0484 23.7894 19.2521 23.7096 19.5 23.7096H25.5C25.7478 23.7096 25.9516 23.7895 26.1113 23.9493C26.271 24.1091 26.3509 24.3129 26.3509 24.5608C26.3509 24.8087 26.271 25.0125 26.1113 25.1721C25.9516 25.3317 25.7478 25.4115 25.5 25.4115H19.5Z" fill="#2C74D6"/>
</svg>
