<svg width="36" height="36" viewBox="0 0 36 36" fill="none" xmlns="http://www.w3.org/2000/svg">
<g id="Testing- how we work">
<mask id="mask0_3227_56529" style="mask-type:alpha" maskUnits="userSpaceOnUse" x="0" y="0" width="36" height="36">
<rect id="Bounding box" width="36" height="36" fill="#D9D9D9"/>
</mask>
<g mask="url(#mask0_3227_56529)">
<path id="fact_check" d="M6.46155 30.7499C5.70385 30.7499 5.0625 30.4874 4.5375 29.9624C4.0125 29.4374 3.75 28.7961 3.75 28.0384V7.96155C3.75 7.20385 4.0125 6.5625 4.5375 6.0375C5.0625 5.5125 5.70385 5.25 6.46155 5.25H29.5384C30.2961 5.25 30.9374 5.5125 31.4624 6.0375C31.9874 6.5625 32.2499 7.20385 32.2499 7.96155V28.0384C32.2499 28.7961 31.9874 29.4374 31.4624 29.9624C30.9374 30.4874 30.2961 30.7499 29.5384 30.7499H6.46155ZM6.46155 28.5H29.5384C29.6538 28.5 29.7596 28.4519 29.8557 28.3557C29.9519 28.2596 30 28.1538 30 28.0384V7.96155C30 7.84615 29.9519 7.74036 29.8557 7.64419C29.7596 7.54804 29.6538 7.49996 29.5384 7.49996H6.46155C6.34615 7.49996 6.24036 7.54804 6.14419 7.64419C6.04804 7.74036 5.99996 7.84615 5.99996 7.96155V28.0384C5.99996 28.1538 6.04804 28.2596 6.14419 28.3557C6.24036 28.4519 6.34615 28.5 6.46155 28.5ZM13.5 25.1249C13.8192 25.1249 14.0865 25.0172 14.3019 24.8019C14.5172 24.5865 14.6249 24.3192 14.6249 24C14.6249 23.6807 14.5172 23.4134 14.3019 23.1981C14.0865 22.9827 13.8192 22.875 13.5 22.875H8.99996C8.68074 22.875 8.41344 22.9827 8.19806 23.1981C7.98269 23.4134 7.875 23.6807 7.875 24C7.875 24.3192 7.98269 24.5865 8.19806 24.8019C8.41344 25.0172 8.68074 25.1249 8.99996 25.1249H13.5ZM21.825 18.7962L20.4778 17.449C20.2548 17.2259 19.9913 17.1159 19.6875 17.1188C19.3836 17.1216 19.1202 17.2394 18.8971 17.4721C18.6894 17.6952 18.5841 17.9586 18.5813 18.2625C18.5784 18.5663 18.6884 18.8298 18.9115 19.0528L20.8759 21.0173C21.1471 21.2884 21.4634 21.424 21.825 21.424C22.1865 21.424 22.5028 21.2884 22.774 21.0173L27.9259 15.8653C28.149 15.6423 28.2629 15.3812 28.2677 15.0822C28.2725 14.7831 28.1586 14.5173 27.9259 14.2846C27.6932 14.0519 27.4259 13.9356 27.124 13.9356C26.8221 13.9356 26.5548 14.0519 26.3221 14.2846L21.825 18.7962ZM13.5 19.1249C13.8192 19.1249 14.0865 19.0172 14.3019 18.8019C14.5172 18.5865 14.6249 18.3192 14.6249 18C14.6249 17.6807 14.5172 17.4134 14.3019 17.1981C14.0865 16.9827 13.8192 16.875 13.5 16.875H8.99996C8.68074 16.875 8.41344 16.9827 8.19806 17.1981C7.98269 17.4134 7.875 17.6807 7.875 18C7.875 18.3192 7.98269 18.5865 8.19806 18.8019C8.41344 19.0172 8.68074 19.1249 8.99996 19.1249H13.5ZM13.5 13.1249C13.8192 13.1249 14.0865 13.0172 14.3019 12.8019C14.5172 12.5865 14.6249 12.3192 14.6249 12C14.6249 11.6807 14.5172 11.4134 14.3019 11.1981C14.0865 10.9827 13.8192 10.875 13.5 10.875H8.99996C8.68074 10.875 8.41344 10.9827 8.19806 11.1981C7.98269 11.4134 7.875 11.6807 7.875 12C7.875 12.3192 7.98269 12.5865 8.19806 12.8019C8.41344 13.0172 8.68074 13.1249 8.99996 13.1249H13.5Z" fill="#2C74D6"/>
</g>
</g>
</svg>
