<svg width="36" height="36" viewBox="0 0 36 36" fill="none" xmlns="http://www.w3.org/2000/svg">
<g id="Testing- how we work">
<mask id="mask0_3214_118022" style="mask-type:alpha" maskUnits="userSpaceOnUse" x="0" y="0" width="36" height="36">
<rect id="Bounding box" width="36" height="36" fill="#D9D9D9"/>
</mask>
<g mask="url(#mask0_3214_118022)">
<path id="model_training" d="M16.7019 27.5192C16.6538 26.8577 16.4433 26.2432 16.0702 25.6759C15.6971 25.1086 15.2923 24.5379 14.8557 23.9639C14.4192 23.3899 14.0264 22.7956 13.6774 22.1812C13.3284 21.5668 13.1538 20.8942 13.1538 20.1634C13.1538 18.8288 13.6279 17.6875 14.576 16.7394C15.524 15.7913 16.6654 15.3173 18 15.3173C19.3346 15.3173 20.4759 15.7913 21.424 16.7394C22.3721 17.6875 22.8461 18.8288 22.8461 20.1634C22.8461 20.8942 22.6716 21.5644 22.3226 22.174C21.9735 22.7836 21.5807 23.3779 21.1442 23.9567C20.7076 24.5355 20.3028 25.1086 19.9298 25.6759C19.5567 26.2432 19.3461 26.8577 19.298 27.5192H16.7019ZM18 31.2692C17.6423 31.2692 17.3413 31.1471 17.0971 30.9029C16.8528 30.6586 16.7307 30.3577 16.7307 30V29.3077H19.2692V30C19.2692 30.3577 19.1471 30.6586 18.9029 30.9029C18.6586 31.1471 18.3576 31.2692 18 31.2692ZM27.2885 26.7548C27.1115 26.5778 27.0091 26.3601 26.9813 26.1014C26.9534 25.8428 27.0154 25.6048 27.1673 25.3875C27.7115 24.5433 28.1322 23.6207 28.4293 22.6197C28.7264 21.6187 28.875 20.5788 28.875 19.5C28.875 18.0769 28.6216 16.7375 28.1149 15.4817C27.6082 14.2259 26.9029 13.1038 25.999 12.1153C25.7913 11.8673 25.6813 11.6 25.6688 11.3134C25.6563 11.0269 25.7663 10.7673 25.999 10.5346C26.2221 10.3116 26.4908 10.1976 26.8053 10.1928C27.1197 10.188 27.3807 10.3019 27.5884 10.5346C28.6846 11.7058 29.548 13.0548 30.1788 14.5817C30.8095 16.1086 31.1249 17.7481 31.1249 19.5C31.1249 20.8211 30.9446 22.0836 30.5841 23.2875C30.2235 24.4913 29.7105 25.6038 29.0451 26.625C28.8374 26.9346 28.5586 27.0995 28.2086 27.1197C27.8586 27.1399 27.5519 27.0182 27.2885 26.7548ZM6.95479 26.625C6.28941 25.6038 5.77644 24.4913 5.41586 23.2875C5.05529 22.0836 4.875 20.8211 4.875 19.5C4.875 15.8461 6.14904 12.7452 8.69711 10.1971C11.2452 7.64906 14.3461 6.37502 18 6.37502H19.2087L17.1952 4.37593C16.9875 4.16823 16.8836 3.90477 16.8836 3.58554C16.8836 3.26632 16.9875 3.00287 17.1952 2.79519C17.4029 2.58749 17.6663 2.48364 17.9855 2.48364C18.3048 2.48364 18.5682 2.58749 18.7759 2.79519L22.5173 6.55097C22.6576 6.69134 22.7567 6.83942 22.8144 6.99519C22.872 7.15094 22.9009 7.3192 22.9009 7.49998C22.9009 7.68075 22.872 7.84902 22.8144 8.00477C22.7567 8.16054 22.6576 8.30862 22.5173 8.44899L18.7759 12.1903C18.5432 12.423 18.2798 12.5355 17.9855 12.5278C17.6913 12.5202 17.4279 12.4 17.1952 12.1673C16.9625 11.9346 16.8461 11.6673 16.8461 11.3654C16.8461 11.0634 16.9625 10.7961 17.1952 10.5635L19.1337 8.62494H18C14.9942 8.62494 12.4302 9.686 10.3081 11.8081C8.18599 13.9303 7.12492 16.4942 7.12492 19.5C7.12492 20.5788 7.27349 21.6187 7.57061 22.6197C7.86774 23.6207 8.28841 24.5433 8.83264 25.3875C8.98456 25.6048 9.04658 25.8428 9.01867 26.1014C8.9908 26.3601 8.8884 26.5778 8.71148 26.7548C8.44803 27.0182 8.1413 27.1399 7.7913 27.1197C7.44132 27.0995 7.16249 26.9346 6.95479 26.625Z" fill="#2C74D6"/>
</g>
</g>
</svg>
