<svg width="16" height="20" viewBox="0 0 16 20" fill="none" xmlns="http://www.w3.org/2000/svg">
<path d="M7.47311 16.3442H8.60768V11.2903L10.7827 13.475L11.5827 12.675L8.00001 9.16345L4.45773 12.7154L5.24808 13.5057L7.47311 11.2903V16.3442ZM1.94236 19.5C1.55021 19.5 1.21178 19.3576 0.92708 19.0729C0.64238 18.7882 0.500031 18.4498 0.500031 18.0576V1.94233C0.500031 1.55017 0.64238 1.21175 0.92708 0.927051C1.21178 0.642351 1.55021 0.5 1.94236 0.5H10.6308L15.5 5.3692V18.0576C15.5 18.4498 15.3576 18.7882 15.0729 19.0729C14.7882 19.3576 14.4498 19.5 14.0577 19.5H1.94236ZM10.0635 5.88073V1.6346H1.94236C1.86542 1.6346 1.7949 1.66665 1.73078 1.73075C1.66668 1.79487 1.63463 1.86539 1.63463 1.94233V18.0576C1.63463 18.1346 1.66668 18.2051 1.73078 18.2692C1.7949 18.3333 1.86542 18.3654 1.94236 18.3654H14.0577C14.1346 18.3654 14.2051 18.3333 14.2692 18.2692C14.3333 18.2051 14.3654 18.1346 14.3654 18.0576V5.88073H10.0635Z" fill="#111111"/>
</svg>
