<svg width="36" height="36" viewBox="0 0 36 36" fill="none" xmlns="http://www.w3.org/2000/svg">
<g id="Icons- About Us">
<path id="Vector" d="M18.0074 23.0913C19.6234 23.0913 20.9996 22.5204 22.1361 21.3787C23.2726 20.237 23.8409 18.8581 23.8409 17.2422C23.8409 15.6262 23.27 14.25 22.1283 13.1135C20.9866 11.977 19.6077 11.4087 17.9918 11.4087C16.3759 11.4087 14.9996 11.9796 13.8631 13.1213C12.7266 14.263 12.1583 15.6419 12.1583 17.2578C12.1583 18.8737 12.7292 20.25 13.8709 21.3865C15.0126 22.523 16.3915 23.0913 18.0074 23.0913ZM17.9882 21.4067C16.8304 21.4067 15.8501 21.0015 15.0472 20.191C14.2443 19.3806 13.8429 18.3964 13.8429 17.2386C13.8429 16.0808 14.2481 15.1005 15.0586 14.2976C15.869 13.4947 16.8532 13.0933 18.011 13.0933C19.1688 13.0933 20.1491 13.4985 20.952 14.3089C21.7549 15.1194 22.1563 16.1036 22.1563 17.2614C22.1563 18.4192 21.7511 19.3995 20.9407 20.2024C20.1302 21.0053 19.146 21.4067 17.9882 21.4067ZM18.001 27.75C14.7328 27.75 11.7448 26.8726 9.03714 25.1178C6.32947 23.363 4.23082 21.0338 2.74119 18.1303C2.67312 18.0165 2.62274 17.8825 2.59007 17.7282C2.55737 17.5739 2.54102 17.4145 2.54102 17.25C2.54102 17.0854 2.55735 16.926 2.59003 16.7718C2.62273 16.6175 2.67312 16.4835 2.74119 16.3696C4.23082 13.4662 6.32902 11.137 9.03579 9.38223C11.7426 7.62743 14.7301 6.75003 17.9983 6.75003C21.2665 6.75003 24.2544 7.62743 26.9621 9.38223C29.6697 11.137 31.7684 13.4662 33.258 16.3696C33.3261 16.4835 33.3765 16.6175 33.4092 16.7718C33.4419 16.926 33.4582 17.0854 33.4582 17.25C33.4582 17.4145 33.4419 17.5739 33.4092 17.7282C33.3765 17.8825 33.3261 18.0165 33.258 18.1303C31.7684 21.0338 29.6702 23.363 26.9634 25.1178C24.2566 26.8726 21.2692 27.75 18.001 27.75ZM17.9933 26.0481C20.9744 26.0481 23.7097 25.2509 26.1991 23.6567C28.6885 22.0625 30.5861 19.9269 31.8919 17.25C30.5861 14.5731 28.6906 12.4375 26.2054 10.8433C23.7202 9.24904 20.9871 8.45193 18.0059 8.45193C15.0248 8.45193 12.2895 9.24904 9.80008 10.8433C7.31068 12.4375 5.4054 14.5731 4.08425 17.25C5.4054 19.9269 7.30858 22.0625 9.79378 23.6567C12.279 25.2509 15.0121 26.0481 17.9933 26.0481Z" fill="white"/>
</g>
</svg>
