<svg width="36" height="36" viewBox="0 0 36 36" fill="none" xmlns="http://www.w3.org/2000/svg">
<g id="Icons- Career">
<mask id="mask0_2970_82615" style="mask-type:alpha" maskUnits="userSpaceOnUse" x="0" y="0" width="36" height="36">
<rect id="Bounding box" width="36" height="36" fill="#D9D9D9"/>
</mask>
<g mask="url(#mask0_2970_82615)">
<path id="devices" d="M5.16729 26.8028V9.16345C5.16729 8.57525 5.38081 8.06763 5.80786 7.64058C6.23491 7.21353 6.74254 7 7.33074 7H28.6913C28.9324 7 29.1345 7.08225 29.2976 7.24675C29.4607 7.41125 29.5422 7.6151 29.5422 7.8583C29.5422 8.10148 29.4607 8.30286 29.2976 8.46246C29.1345 8.62209 28.9324 8.7019 28.6913 8.7019H7.33074C7.19611 8.7019 7.08554 8.74518 6.99901 8.83173C6.91246 8.91825 6.86919 9.02883 6.86919 9.16345V26.8028H14.0576C14.4102 26.8028 14.7099 26.9271 14.9567 27.1757C15.2035 27.4242 15.3269 27.7261 15.3269 28.0812C15.3269 28.4403 15.2035 28.7425 14.9567 28.9878C14.7099 29.233 14.4102 29.3557 14.0576 29.3557H3.28363C2.92705 29.3557 2.62398 29.2305 2.3744 28.9803C2.1248 28.7301 2 28.4263 2 28.0688C2 27.7114 2.1248 27.411 2.3744 27.1677C2.62398 26.9245 2.92705 26.8028 3.28363 26.8028H5.16729ZM20.2365 29.3557C19.876 29.3557 19.5685 29.2246 19.3142 28.9626C19.0599 28.7006 18.9327 28.3537 18.9327 27.922V13.0346C18.9327 12.674 19.0599 12.3666 19.3142 12.1123C19.5685 11.8579 19.876 11.7308 20.2365 11.7308H28.9509C29.3922 11.7308 29.7655 11.8579 30.0708 12.1123C30.3761 12.3666 30.5287 12.674 30.5287 13.0346V27.922C30.5287 28.3537 30.3761 28.7006 30.0708 28.9626C29.7655 29.2246 29.3922 29.3557 28.9509 29.3557H20.2365ZM20.6346 26.8028H28.8269V13.4327H20.6346V26.8028Z" fill="#2C74D6"/>
</g>
</g>
</svg>
