<svg width="36" height="36" viewBox="0 0 36 36" fill="none" xmlns="http://www.w3.org/2000/svg">
<path d="M27.6781 13.5501L22.4483 8.32782L24.931 5.85646C25.3541 5.4328 25.8692 5.22097 26.4764 5.22097C27.0836 5.22097 27.5988 5.4328 28.0218 5.85646L30.1461 7.99828C30.5692 8.42196 30.7807 8.93781 30.7807 9.54585C30.7807 10.1539 30.5692 10.6648 30.1461 11.0787L27.6781 13.5501ZM5.04598 30.9761V25.701L12.3383 18.3987L4 10.0107L9.95549 4L18.3702 12.4115L22.4483 8.32782L27.6781 13.5501L23.6147 17.6484L32 26.0746L26.021 32L17.6298 23.6503L10.314 30.9761H5.04598ZM13.584 17.1659L17.1245 13.6207L14.0571 10.5344L12.2384 12.3702L11.0162 11.1464L12.8348 9.3252L9.97898 6.46543L6.43858 10.0107L13.584 17.1659ZM25.9593 29.5816L29.4997 26.0364L26.6439 23.1766L24.8252 24.9978L23.603 23.7739L25.4217 21.9527L22.3543 18.8811L18.8138 22.4264L25.9593 29.5816ZM6.77944 29.2403H9.55593L25.1866 13.5883L22.4101 10.808L6.77944 26.46V29.2403Z" fill="white"/>
</svg>
