<svg xmlns="http://www.w3.org/2000/svg" width="36" height="36" viewBox="0 0 36 36" fill="none">
<mask id="mask0_4701_1447" style="mask-type:alpha" maskUnits="userSpaceOnUse" x="0" y="0" width="36" height="36">
<rect width="36" height="36" fill="#D9D9D9"/>
</mask>
<g mask="url(#mask0_4701_1447)">
<path d="M6.91148 16.5L10.0211 13.3903C10.2288 13.1826 10.3351 12.9216 10.3399 12.6072C10.3447 12.2928 10.2384 12.0269 10.0211 11.8096C9.80382 11.5923 9.54036 11.4836 9.23074 11.4836C8.92114 11.4836 8.65769 11.5923 8.44039 11.8096L4.69905 15.551C4.4279 15.8221 4.29232 16.1384 4.29232 16.5C4.29232 16.8615 4.4279 17.1778 4.69905 17.449L8.44039 21.1903C8.64806 21.398 8.90911 21.5043 9.22354 21.5091C9.53796 21.5139 9.80382 21.4076 10.0211 21.1903C10.2384 20.973 10.3471 20.7096 10.3471 20.4C10.3471 20.0904 10.2384 19.8269 10.0211 19.6096L6.91148 16.5ZM29.0885 16.5L25.9788 19.6096C25.7711 19.8173 25.6649 20.0783 25.6601 20.3928C25.6553 20.7072 25.7615 20.973 25.9788 21.1903C26.1961 21.4076 26.4596 21.5163 26.7692 21.5163C27.0788 21.5163 27.3422 21.4076 27.5595 21.1903L31.3009 17.449C31.572 17.1778 31.7076 16.8615 31.7076 16.5C31.7076 16.1384 31.572 15.8221 31.3009 15.551L27.5595 11.8096C27.3519 11.6019 27.0908 11.4957 26.7764 11.4909C26.462 11.486 26.1961 11.5923 25.9788 11.8096C25.7615 12.0269 25.6529 12.2904 25.6529 12.6C25.6529 12.9096 25.7615 13.173 25.9788 13.3903L29.0885 16.5ZM3.75 9.57694V7.96155C3.75 7.20385 4.0125 6.5625 4.5375 6.0375C5.0625 5.5125 5.70385 5.25 6.46155 5.25H29.5384C30.2961 5.25 30.9374 5.5125 31.4624 6.0375C31.9874 6.5625 32.2499 7.20385 32.2499 7.96155V9.57694C32.2499 9.89616 32.1422 10.1635 31.9268 10.3788C31.7115 10.5942 31.4442 10.7019 31.1249 10.7019C30.8057 10.7019 30.5384 10.5942 30.323 10.3788C30.1077 10.1635 30 9.89616 30 9.57694V7.96155C30 7.82693 29.9567 7.71634 29.8701 7.62979C29.7836 7.54324 29.673 7.49996 29.5384 7.49996H6.46155C6.32693 7.49996 6.21634 7.54324 6.12979 7.62979C6.04324 7.71634 5.99996 7.82693 5.99996 7.96155V9.57694C5.99996 9.89616 5.89228 10.1635 5.6769 10.3788C5.46152 10.5942 5.19423 10.7019 4.875 10.7019C4.55578 10.7019 4.28847 10.5942 4.0731 10.3788C3.8577 10.1635 3.75 9.89616 3.75 9.57694ZM14.1058 30.7499C13.7193 30.7499 13.3967 30.6206 13.138 30.3619C12.8793 30.1033 12.75 29.7807 12.75 29.3942V27.7499H6.46155C5.70385 27.7499 5.0625 27.4874 4.5375 26.9624C4.0125 26.4374 3.75 25.7961 3.75 25.0384V23.4461C3.75 23.1269 3.8577 22.8634 4.0731 22.6557C4.28847 22.448 4.55578 22.3442 4.875 22.3442C5.19423 22.3442 5.46152 22.4519 5.6769 22.6673C5.89228 22.8826 5.99996 23.1499 5.99996 23.4692V25.0384C5.99996 25.173 6.04324 25.2836 6.12979 25.3701C6.21634 25.4567 6.32693 25.5 6.46155 25.5H29.5384C29.673 25.5 29.7836 25.4567 29.8701 25.3701C29.9567 25.2836 30 25.173 30 25.0384V23.4461C30 23.1269 30.1077 22.8634 30.323 22.6557C30.5384 22.448 30.8057 22.3442 31.1249 22.3442C31.4442 22.3442 31.7115 22.4519 31.9268 22.6673C32.1422 22.8826 32.2499 23.1499 32.2499 23.4692V25.0384C32.2499 25.7961 31.9874 26.4374 31.4624 26.9624C30.9374 27.4874 30.2961 27.7499 29.5384 27.7499H23.2499V29.3942C23.2499 29.7807 23.1206 30.1033 22.8619 30.3619C22.6033 30.6206 22.2807 30.7499 21.8941 30.7499H14.1058Z" fill="white"/>
</g>
</svg>