<svg width="106" height="30" viewBox="0 0 106 30" fill="none" xmlns="http://www.w3.org/2000/svg">
<g clip-path="url(#clip0_5082_10926)">
<path d="M12.0933 24.7144C12.0922 24.7162 12.0916 24.7183 12.0916 24.7204C12.0916 24.7225 12.0921 24.7246 12.0931 24.7264C12.0941 24.7283 12.0956 24.7298 12.0974 24.7309C12.0992 24.732 12.1013 24.7326 12.1034 24.7326H25.6413C25.6547 24.7326 25.6569 24.7376 25.6478 24.7477C20.2231 30.9135 10.9525 31.4026 4.89371 25.9488C4.88816 25.9438 4.88452 25.937 4.88339 25.9297C4.88226 25.9223 4.88372 25.9147 4.88753 25.9083L17.2258 5.04434C17.2263 5.04339 17.2266 5.04232 17.2266 5.04123C17.2266 5.04014 17.2263 5.03907 17.2258 5.03813C17.2252 5.03719 17.2244 5.03641 17.2235 5.03587C17.2226 5.03533 17.2215 5.03505 17.2204 5.03506L3.72348 5.03583C3.7209 5.03591 3.71835 5.03522 3.71616 5.03385C3.71396 5.03248 3.71222 5.0305 3.71115 5.02815C3.71007 5.0258 3.70972 5.02318 3.71012 5.02063C3.71053 5.01808 3.71168 5.0157 3.71343 5.0138C6.33804 2.03699 10.0161 0.227328 14.0051 0.0394415C17.9344 -0.145352 21.6179 1.24717 24.5329 3.86328C24.5381 3.86801 24.5416 3.8744 24.5426 3.88138C24.5437 3.88836 24.5423 3.89549 24.5387 3.90155L12.0933 24.7144Z" fill="#777777"/>
<path d="M99.581 7.37436H102.197C102.217 7.37436 102.226 7.38403 102.226 7.40336V11.424C102.226 11.4291 102.224 11.434 102.221 11.4376C102.217 11.4413 102.212 11.4433 102.207 11.4433H99.5678C99.563 11.4433 99.5584 11.4452 99.555 11.4486C99.5516 11.452 99.5496 11.4567 99.5496 11.4615C99.5489 13.7803 99.5489 16.1003 99.5496 18.4214C99.5504 19.6512 99.7889 20.7622 101.163 21.0785C101.741 21.2115 102.431 21.0333 103.007 20.8976C103.011 20.8966 103.015 20.8972 103.019 20.8992C103.023 20.9012 103.025 20.9045 103.026 20.9084L104.074 24.4999C104.075 24.5036 104.075 24.5075 104.074 24.511C104.072 24.5146 104.07 24.5176 104.067 24.5196C103.285 25.0219 102.429 25.2968 101.499 25.3442C99.4897 25.4463 97.498 24.9205 96.0869 23.4016C94.9882 22.2193 94.5486 20.8098 94.5409 19.2089C94.5273 16.3465 94.5598 13.8325 94.5378 11.4665C94.5375 11.451 94.5297 11.4433 94.5142 11.4433H91.8838C91.8789 11.4433 91.8742 11.4414 91.8707 11.438C91.8672 11.4346 91.8652 11.43 91.8652 11.4251L91.8656 7.39485C91.8656 7.38942 91.8678 7.38421 91.8716 7.38036C91.8755 7.37652 91.8807 7.37436 91.8861 7.37436H94.5138C94.5252 7.37436 94.5308 7.36869 94.5308 7.35735L94.5393 2.52101C94.5393 2.51499 94.5415 2.50918 94.5456 2.50468C94.5497 2.50018 94.5553 2.49732 94.5614 2.49666L99.528 1.9616C99.5414 1.96006 99.5481 1.96599 99.5481 1.97939L99.552 7.34537C99.552 7.3647 99.5616 7.37436 99.581 7.37436Z" fill="#777777"/>
<path d="M26.1886 5.66136C29.9362 10.5 30.4067 17.0818 27.3425 22.396C27.3358 22.4071 27.3261 22.4126 27.3132 22.4126L16.1695 22.4134C16.1664 22.4134 16.1634 22.4125 16.1608 22.411C16.1582 22.4094 16.156 22.4072 16.1546 22.4045C16.1531 22.4018 16.1523 22.3988 16.1523 22.3958C16.1524 22.3927 16.1532 22.3898 16.1548 22.3871L26.1545 5.66329C26.1562 5.66039 26.1586 5.65795 26.1615 5.6562C26.1644 5.65444 26.1677 5.65342 26.171 5.65323C26.1744 5.65304 26.1777 5.65368 26.1808 5.6551C26.1839 5.65652 26.1865 5.65867 26.1886 5.66136Z" fill="#777777"/>
<path d="M81.9372 11.673C81.367 11.9003 80.6804 12.6379 81.3024 13.2333C81.8363 13.7451 82.768 13.9902 83.4728 14.1375C83.5697 14.1576 83.8245 14.1967 84.2371 14.2547C85.5805 14.4437 86.8339 14.8411 87.9488 15.6205C89.0529 16.3922 89.5586 17.591 89.7264 18.8942C89.9843 20.9003 89.6541 22.7494 87.955 24.0232C86.6325 25.0148 85.0393 25.5035 83.3889 25.5329C82.0752 25.5565 80.6421 25.4382 79.3977 24.987C78.1337 24.5285 77.0203 23.8236 76.0575 22.8723C76.0477 22.8628 76.0473 22.8527 76.0563 22.8422L78.7888 19.7262C78.7905 19.7242 78.7926 19.7226 78.795 19.7216C78.7973 19.7205 78.7999 19.7199 78.8025 19.7199C78.8051 19.7199 78.8077 19.7205 78.81 19.7216C78.8124 19.7226 78.8145 19.7242 78.8162 19.7262C79.5948 20.6246 80.6711 21.0936 81.822 21.2969C82.4993 21.4168 83.2019 21.4147 83.9297 21.2907C84.3794 21.2142 84.834 21.0855 85.1549 20.7797C85.4127 20.5342 85.608 20.1673 85.5504 19.7973C85.4672 19.2634 85.0486 19.0009 84.5645 18.842C83.7705 18.5819 82.9633 18.5219 82.1429 18.3986C80.8957 18.2107 79.7357 17.7972 78.6627 17.158C77.4774 16.4521 76.9536 15.2556 76.826 13.9272C76.6281 11.8616 77.0456 10.0357 78.7872 8.75454C80.0448 7.82941 81.5224 7.2526 83.0989 7.2499C83.8803 7.24874 84.6824 7.30131 85.4533 7.42966C87.0531 7.69564 88.4274 8.53688 89.5621 9.67387C89.5644 9.67615 89.5657 9.67927 89.5658 9.68257C89.5659 9.68588 89.5647 9.68913 89.5625 9.69165L86.806 12.8316C86.8035 12.8346 86.8003 12.8369 86.7967 12.8385C86.7932 12.8401 86.7893 12.8409 86.7854 12.8408C86.7815 12.8407 86.7776 12.8398 86.7741 12.8381C86.7706 12.8364 86.7675 12.8339 86.7651 12.8308C85.7417 11.5632 84.3809 11.2496 82.8094 11.4514C82.4986 11.4911 82.2078 11.565 81.9372 11.673Z" fill="#777777"/>
<path d="M2.05473 7.33759L13.1795 7.33875C13.1823 7.33869 13.1851 7.33939 13.1876 7.34078C13.19 7.34217 13.1921 7.34419 13.1935 7.34663C13.1949 7.34908 13.1956 7.35186 13.1956 7.35469C13.1956 7.35751 13.1948 7.36029 13.1934 7.36271L3.25473 24.1693C3.25355 24.1713 3.25189 24.173 3.24991 24.1742C3.24792 24.1754 3.24567 24.1761 3.24335 24.1763C3.24102 24.1764 3.2387 24.176 3.23657 24.1751C3.23445 24.1741 3.23258 24.1727 3.23115 24.1708C1.3144 21.7244 0.177412 18.7809 0.025479 15.668C-0.116402 12.7616 0.551639 9.87367 2.02651 7.35382C2.03295 7.343 2.04236 7.33759 2.05473 7.33759Z" fill="#777777"/>
<path d="M61.6904 18.1647C61.8837 19.9782 63.4316 21.1484 65.1767 21.2091C66.9028 21.2692 68.4613 20.7993 69.8522 19.7996C69.8604 19.7937 69.8705 19.7909 69.8805 19.7917C69.8906 19.7926 69.9001 19.797 69.9071 19.8042L72.7165 22.6442C72.7245 22.6527 72.725 22.6616 72.7181 22.6709C71.7129 24.0286 70.1321 24.7794 68.4945 25.0805C67.1942 25.3195 65.9216 25.4022 64.6765 25.3287C62.2792 25.1876 60.1854 24.2165 58.6138 22.4169C56.6901 20.2137 56.1744 17.1363 56.7029 14.2956C57.3137 11.0115 59.8088 8.34394 63.0848 7.61559C64.3168 7.34187 65.5694 7.28736 66.8426 7.45205C71.261 8.02345 73.8763 11.6586 73.9726 15.9448C73.9891 16.6799 73.9915 17.4157 73.9799 18.1523C73.9799 18.1545 73.9791 18.1565 73.9776 18.1581C73.976 18.1596 73.974 18.1604 73.9718 18.1604H61.6939C61.6934 18.1604 61.6929 18.1605 61.6924 18.1607C61.692 18.161 61.6916 18.1613 61.6913 18.1617C61.6909 18.1621 61.6907 18.1626 61.6905 18.1631C61.6904 18.1636 61.6903 18.1641 61.6904 18.1647ZM68.8417 14.5554C68.8784 14.5554 68.9171 14.5624 68.958 14.5655C68.9735 14.5667 68.9814 14.5597 68.9816 14.5442C69.0079 12.2397 66.6377 11.2438 64.6799 11.5635C63.1471 11.814 61.8516 12.864 61.8643 14.5357C61.8643 14.5483 61.8708 14.5546 61.8837 14.5546C64.2022 14.5559 66.5216 14.5562 68.8417 14.5554Z" fill="#777777"/>
<path d="M47.0403 21.1086L54.4232 21.1082C54.4425 21.1082 54.4522 21.1179 54.4522 21.1372V25.3415C54.4522 25.3466 54.4502 25.3515 54.4465 25.3552C54.4429 25.3588 54.438 25.3608 54.4329 25.3608H40.2246C40.2197 25.3608 40.215 25.3589 40.2115 25.3555C40.208 25.3521 40.2061 25.3475 40.2061 25.3426C40.2061 24.9535 40.2061 24.5633 40.2061 24.172C40.2061 24.1576 40.2153 24.1348 40.2339 24.1036C42.6916 19.96 45.1506 15.8139 47.611 11.6652C47.6121 11.6632 47.6127 11.661 47.6127 11.6587C47.6127 11.6564 47.6121 11.6541 47.611 11.6521C47.6099 11.6501 47.6082 11.6485 47.6063 11.6473C47.6043 11.6461 47.602 11.6455 47.5997 11.6455L40.2366 11.6466C40.2285 11.6466 40.2207 11.6434 40.215 11.6377C40.2093 11.632 40.2061 11.6242 40.2061 11.6161V7.41417C40.2061 7.40873 40.2082 7.40352 40.2121 7.39968C40.2159 7.39584 40.2211 7.39368 40.2265 7.39368H54.4244C54.4401 7.39368 54.4482 7.40154 54.4487 7.41726C54.4572 7.82963 54.4566 8.23723 54.4468 8.64007C54.4455 8.69239 54.4313 8.74097 54.4043 8.78582C51.9447 12.8871 49.4869 16.9892 47.0307 21.092C47.0242 21.1031 47.0274 21.1086 47.0403 21.1086Z" fill="#777777"/>
</g>
<defs>
<clipPath id="clip0_5082_10926">
<rect width="104.227" height="30" fill="white"/>
</clipPath>
</defs>
</svg>
